<mxfile host="app.diagrams.net" modified="2023-06-05T01:26:22.434Z" agent="Mozilla/5.0 (Windows NT 10.0; Win64; x64) AppleWebKit/537.36 (KHTML, like Gecko) Chrome/114.0.0.0 Safari/537.36 Edg/114.0.1823.37" etag="-pOgkYnMsrFWfd-YVGXi" version="21.2.3" type="github" pages="2">
  <diagram name="字位扩展" id="a4KFP8w8tjorVCVL5VRz">
    <mxGraphModel dx="1002" dy="573" grid="1" gridSize="10" guides="1" tooltips="1" connect="1" arrows="1" fold="1" page="1" pageScale="1" pageWidth="827" pageHeight="1169" math="0" shadow="0">
      <root>
        <mxCell id="0" />
        <mxCell id="1" parent="0" />
      </root>
    </mxGraphModel>
  </diagram>
  <diagram id="H9WPK2U_Hh5dWHRHtN5w" name="浮点数运算">
    <mxGraphModel dx="1002" dy="573" grid="1" gridSize="10" guides="1" tooltips="1" connect="1" arrows="1" fold="1" page="1" pageScale="1" pageWidth="827" pageHeight="1169" math="0" shadow="0">
      <root>
        <mxCell id="0" />
        <mxCell id="1" parent="0" />
        <mxCell id="g33-bpzD2PHKhCho9Dx2-1" value="" style="shape=image;verticalLabelPosition=bottom;labelBackgroundColor=default;verticalAlign=top;aspect=fixed;imageAspect=0;image=data:image/png,iVBORw0KGgoAAAANSUhEUgAAAyEAAACmCAYAAADNs4AOAAAAAXNSR0IArs4c6QAAAARnQU1BAACxjwv8YQUAAAAJcEhZcwAAEnQAABJ0Ad5mH3gAAP+lSURBVHhe7P33e5zXuSUKLgCVCznnRII5U5RIMUiiREUrS5Zly/Ecn9Pdd2buzDMd70/3H5h55t6nb/fpE2wfW7KVc5ZIKjPnAAaQyARA5FioAGDWer8qJlHRFCW1vpfcqKov7Pju/a61Y1pbW9sMXHHFFVdcccUVV1xxxRVXrpKkJz9dccUVV1xxxRVXXHHFFVeuirgkxBVXXHHFFVdcccUVV1y5qpLW3t7uTsdyxRVXXHHFFVdcccUVV66auCMhrrjiiiuuuOKKK6644spVFZeEuOKKK6644oorrrjiiitXVdI6Ojrc6ViuuOKKK6644oorrrjiylUTdyTEFVdcccUVV1xxxRVXXLmq4pIQV1xxxRVXXHHFFVdcceWqSlpnZ6c7HcsVV1xxxRVXXHHFFVdcuWrijoS44oorrrjiiiuuuOKKK1dVXBLiiiuuuOKKK6644oorrlxVSTtz5ow7HcsVV1xxxRVXXHHFFVdcuWrijoS44oor37Con2Pa+ZxJum9dFI8pRktOcXPFFVdcccUVV66muCTEFVdc+YZFpEOgf5p433EznyIiyWeupqSCS0t+uuKKK6644oorV03Surq6rrLld8UVV344ouYlNdKQkfyU6JrQv9yFBORq9YvMkBNN0TEeaWlIz/Amr7viiiuuuOKKK1dD3JEQV1xx5RsSAv2ZaQP601PTiMeBvfuPY/feI7zHpmdG90U+UmTkmx+SmJl2yM4U45PQ94x0TPFTozOuuOKKK6644srVE5eEuOLKD1xEBC4/RepKCMF+Im4jDf39w3jjja10W9Da2k3OkX4B+L8aJESjHlNM5xQyMjL43YuBwXFMz6QhPf1CUuSKK6644oorrnzTktbd3e1aXVdc+YGKKr9GKtLT0zA1NcVfaQ5AvyIyhXg8Bq/HR28z8Nob23Gk8RSik2N46IHbMX9eDe/H4fV6ks9/8yRkajqBjHQP+gdGsfX9bTjT1YvsrDDuvONmFBfmYJp5kP6p9FsuJV2KLH3TcXXFFVculhRU+b7Wve97/K+EuHngysXijoS44soPVNTpL1MwPZ2O4eEIwbcH0yQLsXiCYH0a05pKRfd1JR6fRoY3iMGRBJ598T3sOXQMg2PjqKqrxqxZNTZF6zzhuRpGKY2ES+Gk49CRRnz40U4Mj0/hyPEubH5vD+K2URYzRVzsolER5YEu6vPr54crrrjy9YU1MtkeqV46zvn3aVHdtamXqUfPf/mW5YJ4WHPC73I/GEm1oZdLcypvLr6nZvhC54i+nPvhyvdYMv79v//3/3vyuyuuuPIDETPSatHT0rB9+35seW8bRiamkZNXgGCIZCSR4K0ZunQ9cq65T/sSZCHlt8fjQePJM3jplc040dQKjy+AxUsW4vZbb0A4KJ80AiMScjUIiCQZDtMUCmchv6gco+NxROPpSJAQzWmoRVbYZ+RI3TNTlg4Sl5kp4gRN42KcSdLS3L4bV1y56mLry5Jti9qli0Foqg3R1FLWV91jwyUiojtpasRMrlZbczlRfOUsRs53trHJCPLP/2zCsuLfi21G6vtntaEX5g+FP+WL2mCWrF1wyvKS51z53kpaT0+PStMVV1z5AYljzLVgPB1/efpVHDjcRAJSiGDYj7XXr8Cq5bO1ettp5jMy2OTru+D35zf88jc1penNdz/Aex/tgT+Qhfq6WqxYuQwNs4uQRluiCVieKzXr6yuKyIWMfoLx+Mszm9F4rA1ZmQH87JE7UFeZi2g0Ths5wzSkkyR5LtrTS+MhMp+u6XPFlW9PElrXdQ6Mnq+RqV8SQVZ916dGddPVoaIblG+n/l4ItRgDtb8kTNYRY6Tqfx4xO2Dr/diOsg39chzrkvy5QKKJKfhoMOKJOHnbtBER5Zut5fuWStOVKyMZ/+E//Ad3JMQVV35gYr1JbPPViNfWNWA8EkVPbx+BeTqOHD2JicgUqmuq2LzzuWRvndPU68rnN/pGcOj/6ZZWlFdW4vbbb8HqVfNRURjmzWmChxkSkM/2wyFIjkE634N5hSRpGKdo1GKJGRw7fgq9A8Pw+ryoripBYUEO72fA681AlARtfCKOEbo+PhOfmoHP5zODqlhd4Zi54oorl5GpqYS1U/sPNuLjbXuQk1uAcDhknR1qH6we8jPZt4CungFs330Iu3YfxeDIJHLz85GWbG9Sz387dTcVshNXDbimEUg7I6z2wP8UIvKh8ko5pS1VNl9WLH9YvtrF8NU3tuC1tz9EAl5UVZfBl+GhvxkaR1dTbmXqyvdXXBLiiis/UDGDzEbc50vDnDl1GBkZQ2fXWWRmFeJUcwcBeBQNcyqRrufY5GsKhP59nshPMzz83jCrDvNm1yAn008/aC+m4/CkzyBDPy7jj23lqxPMKXpCw/COgZG7QkISZM6mmgFHGpvQNzhu62HqaytRUZaLjs5RHDt5Bnv3NdIdxb69jTh46DgOHDiI4pICFOXlmIFUOl1xxZVvTlI96gKdBw4ewQcf7WT97EFlRTlyc7OcUdc0jxoLQXs1QHjiL89g27a9GJuIo/FYk021nFVfY345U0yTxOVbkhQgV6dGb98QgsGgdgpPxu/bjJkjqWlvXycuei+1jnDvnoPoaOtBaUmppdf8VM5/rrfMHJWkPQsblf5kxz50dA3jTPcAvL4w+ocn0dndj4Dfj2DAy+doM/4nG0n6IUna2bNnVequuOLKD1FY+xOJBGbSMqCtal9980Ps2nMUOQWlGBzqw49uX48Nq+bQYCaQoelJZho+14qcE72TSEzD48kwyqHDAQX+nR6y1OGAjtGxoXtaKhEeicyYmRXn9hUSesZwbBoa/2nU58nn38aRE93wBzIxf04Nwj4vThxvxujoOO87xlTxjU6Oo7q6GA//+C4U5gWRNi0ypbtXLHJXUC5s0r+L8fsBCcGUMf1z5fBtlccVrUhXXZSNCTYf7324C1u2foyGWTX46aP3w5Oh/nB1fCSBKz937z1E0NqH/oEJtPNTyX7kobvQUFfI6q+OEE+yHbv6onSorVNb+tH2A3h38/u4645NWLViPgmVRnw0NetqxU3dPI44IRLOM24ic4qCNulQfBwy8uX0R2nT40NDo3jiiWdw9uwQ7rr7R7hm5TxbV6d0pyjgp31LxUaSZlu7ezxevPPebmz9aB/8wRzEY5N2vpMnYwaFuUH86Lb1mFVbbm262yn0/RR3JMQVV37IIlKgHarYiGu0Y8H8Ojb0MTQ1n4bX58PQ4ADmL5gHv5fGiDbifO+YtvQloKdBkLHSQtDElEgG7/O/zJuNiNDoZPBTTuFofvDUtPwSYJA/jiHUKEt8Ks1GYD7cvp9gYw+iiXSUlxbSsmnaBR/+tNX6iqK4pVt4SoymQRw60oTu3hH4AmG0d/Tg+PHTmCJx8vrS4fWmITPsR0lpPpYunoe77roZedlephfw2miOeZT8vPqSMtkWA/El5qnlpoFeladEf7+9OP6QRaA4MRV3wGWGoNeF5XB1ysTREUcvVFc1DdFGAlRPdfN7ohoaIfV40lFcVIKOM2fZPp1BVk4uaioLLY+1y16qbSorLcb8OXVse/y2JXhi2oNoNIKFC+qgbSVUV0RarrYou22LcLaJvf2jeOOdjzEwPImiogLMmVXJ8kmweVI7d3Xipvio5dZfhUj1sPDjbP+mptPg9XgQV2PHm+ez64viRh9pBjzeILp6htByZgDT6X7Uz66H35+OKesAOt/ZdKk4Vx1CqXU82q3xwOGTaO04C48vbCRJ+ac8GhwcxuREBPPnzuY1e/GcDrjy/RGXhLjiyg9anEZbhMFGKtj4z26ogc8fRGtrqw13r1i+GD4Pn6MBcIx30lQYgdGohmNURDScXaR4nY/ItAno6/murgEcO9lJwD+OUDCIUMhDixznM+p1y8CZnmG89uZ7eP/D3WjrHETfUBSdnd2YM7sWOTlBGp8rN/1pSsZWITNue/cfIxCIkHAE4PMFMWtWLVauXIgli+px7bVLsGLFAhKQOVg0v5JG0LKABORcDtjfb1NSUyf4R79UKBYt/dIXB/h++/H8IYoAUUY6iTfriPQ8eTVZGlevTBTyNPUjRT5MU4g4DQh+T1RDdT8RiyEY9GIyDpw81WGjlQ2z65AZ8lodSAHQRJztChMZCoVx9GgTIvEZm2paUVqO4gKtS2OyvwUSIhEJ0UjMvoONOHj0NHzBTKy+bgVKC7Mww/ZQbeHFZfLNxtPRSxFUZ8pbZ+dZvP7WVhw4eAIzJA/Fxfm874we206Jnxsf+aW1HNNsT9NxuvUsWtnup/tCmD+vAeGg9M5ZiG++8HELnYWlT6f8nBB0RddiiTTs3H0Ig6Mx1iMPFiyYhQ3rVqKivBDDJCGdHe1YtGAOcrJDbJvd0ZDvo6T19vY6muOKK678wIUNP1sDnZfhIelobh+A1nPWVObbdVoQNvKOoXCMPjA0PIaenl5MRKLIzslFZWUZ35VhEaHhc9NpNq/3d79/3MiFN5iFkuIcPPbju5CXGzTA4PcH8Obm7Xj97Q9QXFJNk+cnUSC5mY7g4XvXYcGcSiQS6glNdnf9laJpVqRL9BP45z++gPbuUUyn+bBkyULccdtyhEk2tHuXQiN+MbEzBygZzBCZOeXCtyPnm+sU4RPQJUyza5bvjJyeUkw/HzS48k2IMyc+zerR+x9+zK9pWL92NXxeLULWGoarVy5WbemkHYrV6HgUgYAfPmFdR0m+N6KRAtXKvqFJPP6XV9Bzthd33b4B69cstvYhw5PK15lz00Cff/Uj7DrQxHR6sXBuNX7ywHrMJNuSJGe5aiIiqHhiJgNPPvMKjjefRSCUifvuvhlz64rgS1fdVQ9Hqo4rgt9cJB3d0IhDgu18OmLRKfzpiedxsrmb8cozwrTm2iW4Y9MqtsdTNnotAvV5It1PxDWS7MGrb+7E1u0HkZmdg18+ejeqywKYjkVtRJwPWj0w0sCC0HtTU7ymcqE/0yprErK+wSj++OcXMTAigubB/ffejGsWFNsz+xpbcXD/Adx71ybkZgf5Dt//lsilK19fMv7jf/yP7kiIK664QqEJp0FQD6ka9MLckDXuslZq21M9jRoSl/E42zeIPz3+NLbt2IuTpzqx9+AJtHZ0o6q2Fj6/MREjMTI2k9EExmM0sp4QzvT009h4Ma+hCjNT0wQPGQhn56KkvBp9AyMYHo3Ywu+srAA2XL8cfq8Tr1T4X0VslIBy4bsa5tfvOMPec6AR4xHGixBtTkMNGmYVIRaL8bdGaQjbBBqZL5oCoAX13yYBcQADjfxUAnGBGZIPml1EJmOIMM665veRQSVFgEz/XLm6ornsGRkeNJ3uxAuvbEFTcxcKi0pQWUJgJzB3FUiIo/eOvqj+aYH2sy+8gZ17GnH4aDNKSkqRk01QOJ2c6vgdFKej43w+6etUIoHMzADbnn60tHVimsC1vrYOobDX6oWtqWDeKvV6Nze/gG1TMybJCCORCGqrK63zw9ka9/PTrfDVDtl6NcpXaX/0TkK9HBS9p+9qV/w+Pzo7BvDxJ/vYungJ1v04eGA/opExtj911imjkTNHFN43pyeOz06HUgYB/vh4BNt37Md0Wgi+YC7TkIGmky1GXOvrakhC1B6KPJzP34uFV3WPj2la1/GmdrTQHqSRuCxdNAdFOT6WEcPK8MKj6XN8JsZyicXifDfDCAibZJYLf5KEaOruoaMtOHDkJDzeAOOYhutXL8fY+DD6Bwcwe1YVFi+ei6Df6wR9AQH55nLNlSst383WxxVXXPnWRLbFw5ZBO8/o4D79ltFx5Dx80pqRwuJSVFRWW4+exxvGsROdeGfzxzQmOocjrvEGvjKNm268FhtvvpFGJ2rnhvQPjIP2luFopGQSpYWZNsrQ09Nju8WMT4xi4YI5yNcaDILrrzfMrpGdaQMccjK2SodjQEkzCAxEqHRFZjXoJ9HgLx8T7yGIzKAR9NBg2noWvZN6+XxmXBURoFH8NSVNme/x+OAjeIlEZ/DW5k/wL398Fn95+nX87k/P4cDRU3xEU+ucdH2RpMDqd0GcclK8v7/i5KcjicQM/KF8Flg2Tja12hkzEvWIf/M5rjAYCv+rvjY1NaOlpQsTMecA0Z17DjlPsX5cGOfviqR0wRlVckSxFF9SeubOrkVWKICu7j6SjFbmqaYBzRgR12iDOlEmCW4LC8O46abrWYenMDw2glOtHeaPk+TPT7dAtg5clVP7Y3HSurcvzC/1yGtNmdoOgXxnQXYg4GzvrXVnk5Epti1+TExEGc8YKqprnFcNSFsM7ec3LQpNlFi64g/4kZWTjWg8xjY5yrY7DeHsPOzeewwvvLyVRI7tIomCplTpvc+SlD7JX4/ygW3p9HQ6RiPAyNg0Os4MY++hZry1ZSeefv5N/OkvL+PJZ1/HoSPNzC+WPdtl5X00No1jJ0/zux9xlmVZaQn98+HxJ57Hq69uxthozDqxtIZRBPR8i3d18s6VKyMktQQVrnOd61x3oaPxUG9uasHnhU7XtdQjLycLDz90L3760wfx0IN3ISfbj8zMMJpPdaKtvRd+XxDTfH6GhnWKnxoqT9CYaN6zerxiU2m28NEXCOJwUwdef/Ntvp9D4zKCuQ01uP76hSQyAt00Zwzv0nh8tmPLZk7UQQYww4mzwLluJu9plxUBC1vbkp6whZN62RYT05DKqNmUAb5g/gog0Onz02F+Pcc/5i66Lkgwk7DpJ1rUrOlWir+XhGhqyoPW9n5s/WA/fv/Hl7BrdxMJ3TQ6eyI4TnCpBZyOH05v+0X+XuJs4SedQ8QUjcs/dzUcQz+nbxYfy5bLP/vdchfEM5mH6rHVp6BQLK5F6V4Mj0xaD3JGhs8Aqr6fe+8bchYO647q2M2bNmHthhuMGGVmZhrJtmdYF21k5pJ3v03HP6YLAv86R0P6YLqqT7p4PI6K8jLk5+eQiEcIVJt4P822bPV5Peb8dEG/D1PM/yULqnHXbTdgKjaBgwcO2sinl/cFli8bvpWkiNAM9u49gNdeewftnT22JiGdcdLiagHdT7/rAHDl59mz/di8+X0MjUSYFo3SeNDZNYDnXnwTe/YdtDZPwD8Ri2DD+jVYurDORmad3ahUHn9NmVgWXuAu98x5Z6NHjLc6lfLy8502kW2c8lrrO8JZ+Th8tB3PPP+OMy3K40WM92QDkkp/sZ/J9tHyQu13mhc7d+zFH/71aTz5zEt4mnnw0ivv4aOPD+Hk6V6cOTvOtqsdT/Nee7vaL9keL3p6B9HW1gWP129TvGbVz8LhIyfR2ztJHS7jc34bUfFZuZPwWfhfnF7XfbecOx3LFVdcubykjMz5j3PC5sOMDHEOjb8HhblhnDlz1ozGFMlFiECnrq6Uz+hQKc0lTqehacNJuowMPwoLczBvfo0RjK7eETzzwhs08kGbblFTVYoH7rkVOZnE/NMxm+utfrVPx+LyojnOmv6gAxffeOM9fPDhDmTm5CM3P9uAoU5/13zjaJQgY/9RRAlUMrMDWL16JfIyAzb6IXA2M00QxxcUqr2XDF7fv1xMPl+cuJwX+Wm9uAI5JEYCYAJjWkjf1jaAQ42teGfLdmzfeQhNzZ0EU9OIJTSiM428glxs2LAaa5gG2mOjIJ83eiSSZSM8eoZOp8grfBmFqy5Mn4IdHItiYjKBcNDH+OmGsxj2uymMIPPMRFkm5ZBR5TX1ys4w3i2sC/sPnUA4lIvopHZBKkV+QcjeU3pVh74pSRWjgK7A7RT1ee/+4xgcGmWoCaxauRAVpXmOjn/5qvWNinNOkNqUNLR19tn5EKGsPGRnBZgGghVPhtVNAU+/PwO9wzG0tHchQp3JzCrARBQ4TRDbcXYEHQT88fgUcnOyCGBjqK0sRFFxIYI+D2bXVsOrjTYol9N3gW/Vi5HhUTz91Issxx6cbO7A2d4B5OTnWUeLdgJ0pqUm/WE+nxvhYtm/8so7eO+DnZhkG9PTO4F3t27D1ve3M129bHpIQPhMOtupVSsXYOON17KeE6yzHJz1XeZJ0l1eLKSk+qUK+7Oflnz2XemhiIfy9UzPCJpOd7ANCTMjMtgOksSyfQyFstFzdhDHT51GcUUZ29Mw2564pV8bsCsqFgK/MFuYHh16e4rp7WHZZGMyNo72jmYMj48hEoljZkpEQyNDAqIzyMnOxLw5szBnTj18PhIxxuXdrTvQ0toHb0YA4XAQN964Bh9+tJ2B0KawCW9lmbS392JwYMzWs/gDPvpplol+flfbDVcuFZeEuOKKK19LzIALdMWjBpYnY1NoOtVqPb8yxHPnzaJB0RoSGdg0WzfS2tJtQKK8rAjLFlVgcDiCF196E0MjkyQD05g3dw7u/dENyKYN1BxkbwatmhnZL4+UCLksbpHotB0y2NbejdOnm1FcUoaigixECfQV31GC3oOHjmF4LAJfMIRAOExCNID2rl47Y8DvCSAr5DGQr9EcBa/xEcXiygDIc6bb/gpYCPxo9Kh/cBgd3X041dyFjz85gG07DuDYiXaMTziLc9MIyGRwiwtzcc3KRdi4cTWWzC8DMZatw7EDIc97f5EIZCk/BwbH8NEnuzE0OoaiwkIDA0rX5YDZNyWpQx+1vujxPz+LfQePIyu7ACWF2UbGBIK+SUlN11NmOelWpkk+Lw9YUiKKzEfnKeevjZ7pOkXbmza1nmGZtRmAi5GEDA31Ub9nGdhMjYR8cyK/tX6I+evxYfuuI0a4lZ/ZJNw3b1xDQM6IpKrXNxmVLynKU+lCgoTu+ZfewMfbD5B4BJGZW2S6OjIStYNF288Mo6VrFJ3d2kVvjHmegVMtHdh3uBGHCHwPNTbj+MkWHD58BGXFxSgrzcdELIZKtjlz66uhTTcsyZ+R/7quuHi9fsYnQBIxhPHJGDrP9LJ9aydhz0BJaTEyvKyriQTz1CGV2ihCdVOdMFvf28UmMITx8SiOHW/B8GiMhe6DP8SGjUQjHo2SIIVwz103IyuTxIO6pDbSKYiUu7w4o5dT0kL7Z9PEWI5y9vvcd0qycD/bNwpv2qGPBP49veM4euwU2w8vSaHHiF8iPsm0pCMYysFYJIqTp5tQUlaMvLxM5pOzpig57krPFB/5mY7D2v6cxCXDF8SGG9Zi9qxqhDODyM3NQVlJESorSlFVU4ali+di9bXLsHL5fJuyls58PTswig8+3oNEjPnJ9nr58sWoqyvG9m27EZ2IMJhp9PX140znGZw4cQL79+/BwoXzqdsha1POkzlXvuuS1t/fb7rqiiuuuPJ1RMZXIwfNrX147sV30T8yblMlHv3JfSgs8CBGIxKgMXv1zY+xe9cJmiof7rxzI8FzGZ574W0cPXrCwMY1q67FTTcsttEHOZ969Ge0pkRA9MuDUY10aMqEpgG0ErA89+xLGBsbR3VNNX72s7tsihdtKt7/YLeBe483G+OxBMGP5hXHCSxmGMN05IeDuOu2DZg/r5xpSPA5Jw4pg/u5hv1LiACDI87UBwGw/uFRvPHWVnT29JOUgSBm0nqrQ8FsM6zxSW0/GiMIKsDSpfMJauuRlUVSIm+mnZ5Jn3awodfExE7WXSC6NmULeD14e/N2O/gtnBnAPXdvsq2IBUY8tjD2r03dl5Nzvc5jk3j5zfdx8EgLCUgefvXYvcjL1pQZEapvClA4hCGlW7ag3ABqKv2flQcqt/P34swz0TelQx3sutvefRZvvv2RTTcJhXMRjQzh9k3rsPqahUyPDlv76/XnM0URoExRn7UouJ/g/fd/fB4TEa2ZSGDNmqXYeMNSZLCO+Kggn4HFr7o46z/SMTg6if/+z3/G2EQa9T6ULBO1M2mIsVLEWT/VpqR7/AS4Phv1lFOd9vv9pjPxyQmkT0/gsUfuZv0tc6bFsW5Yu0Kw/UVpdtY1kIwwSsebOvDxJ7tIfvpJ6jQik4aGuVVYt24l6kryqUXUYWa6TV+aZhgZHrzy6sf44IOdJNTZmGCdTSOo9/o1wqe2Mt0O3bt25ULceftaG7m0wV7Toi8uDCeXzhXzRW/oWuq6KJEIina+8nxBghOJGMmZD3sOdeCpZ19Hbl4Zes8OEdjPRWaWD7t276Ee5zMwlkF8BJnhKTxw3ybMqi5VwcDn8VoeKN+mWD4ialrnceR4B9J8YdqCe7FwViYibNNYFCTArNfJaq0PxY5FyLZpGiF/Oj7edRRvvfsJrwYRDgbwm988SIIC2o+T+Pijj23UTJuGaJS8urIU1VVlWL5iIYJBjd6wDGiPXPl+SMZ/+k//yR0JccWVH6iY0SCIUu/f1++ZJbjRlKbMLNu/v1u7XxHINjTUIS83YNMWNPWnqakdba1dKMzPxs0br8XW93fgk23bUV5WittvvhHrrptjc4gFFLThSRo/nSjpz1eJG80hAYt6VPOzA+gfHEVHRw/GRiZRXFJnvXGa5/0hjZlGOaKTBDGxKQOTmj+fnq5h/QAmJibR2taK2XNmI5Tlp0F3Fkw6IPWrxeizhYlkGdjWugTbW9/fhZ27jyI2HUA0QcPuDSPdF8RkNAo/iVxtVSluuWENbrzhGtTVFSAUYFx0WFvaFLzMcwEOE8ZTJOfSMtVPOyOCz0aiGWjt7MNoZJJgKZPlpR1wGA09dMl735QofgL/QW0bGyrE4aOtzGdg/pxq5OWESYocknLlxYFqmobW1z9CYprOOPgMpCvtnzUCI/Cjnt+h4XG89uZW6pgX5cV5GIulYXwijlbq2dub38cHn+zE2b5R+AjA4vEJlJVl49ZN6+H3afKKiNU3mL9Mk0C5phxqVG3r+3vReKyd+ei3Heduu209MgnWNC1Lo2YO8L065f25QsSvNVsZBLQHqQfDYxpl8DBfIwZcYzFNdSO4JMjXuT4CmrGoc36Epi4qHdPUJWJ91FQV487bNmLB3GJD7Zr2aSSR7stkfareiIQUF2dj7oK5yMrJQSQSxdj4BNrbO3HiWBPCWdnIz89llif1lLohsjNnLvU3v4z3M1FaWox58+Yjv7AQnWd6WE/9jFMC665fTr3IYSDqPHC6Nj5PUsRI0zMPNzbbzn4t7d04OzCCPrZxQ2PjNuKj6aVR1huNhjhrX+Sz0xbIj0vbBEnq/I7+oUk74NHvD2NsdAKlZQW4975rrEOkvb3D/AoEwpgYn0RbSztqa2qRlRmWD+fyVc+IjB04chzdfSPw+ANYvmwByYQOeo2SKDidJBohj8dpf/isXlVfg0ZjdTbIBx/tYv0ZMLJ+5+03k2hkgk0c6moLsHTxUsyZXY0FC2bj+jUrsHLlItTXlcGjYWCWg9Np8fl56cp3R1wS4oorP3ARQaDlsO+XM1BfLLQmFM3jHdA87bYO66FaspiGNydA4BBHgECh5+wwjhw6gds23Yjyijxs3rwZBUVFuP/+u9BQW0wiMEMDnUaneDjuvHz5eOlJ9SmKNMi4y9idONFKIK8DzDIR4ZfXX38V4VAIs+rrzNXXVKC8vAClBJQeGsKxsVE77Gx8YgKhTD9mV5cSqDqLxGUyFcaXj9HlxXlf+S66IHCQYQs02zv6EAjlEEQQXNGgS+bNqcOmjddjw+r5qCzPMpKmbNddzeUWaHbIkZxDQCwXLgs4HMDUpfJoPGEL9KsrK2jYK5MkhH++lh58dbFYMnxN92g63YVDh08S5BC0LJ5tW8ieA3dXWNTjKtDV2t6F3/3hLzjd0kXA7kFxUYFNc3NA2afDFcjVtJWPt+/BO5u3Y3A4ClIoNB5vtbVHu/ccQvfZIeafn2Aqg2kJEWiN4dprF2LerGon7wVUv8nsVdmxPmsqTVfPCN5852OCcAHoGK5fuxKL5hYZ8fMznedn81+d8v48cWLAPGf9P9rYht7eIQL8PGRmBVnvHL1U26Atu6X/2WEfivOzSUQmrPdd9zbdtJr1ZBWuXdFAchgy4OpJIzBlnqg0LyxRjVykRuIuJ8pGgWKNKKV70ljvCkkuGlCUn2PlNzw8gt17dyMY8qO2ttoIs8JRSnS/ojyX9bYCsxqqrMPgwIEm9PUOM+4B5JL0X3/9MrZBzlRVJ3ZODnyWOFs/ZzBvmvH0c2+gu2sIzS1ncPx4M06eaMExkqJjx06yDjXi4IEjaG7uwMREDLm5uQgQoLNFpC8M6zJ1O0VCBkdifP8Ew/Ebkc3NDWLBwjrU1JTZYa4tLa1UrXSEAlkYGRrHQN8g6utrESKpZa2S72ZKpthuHTpyAgNDE/CxPi9bMgeFedpYI2Yap7U/WjeiDo9jjafpTiE/N4dl6rctlXfuPMR6A9x04w24blU1+JqNFqmvJjOchrzcEArys0hofPRPI1CqV8xF5qXC/3p2zJVvQzL+83/+z/+7Csx1rnPdD8dJ9Kleq+HhMfhpKGSkbPtFGUWBWnvWee7znQAwwTnfm4imEdget115li6eh0IaMXpKgOCBxxci2K3m9XoE/GmYO3cOli9bitysACYjUQP/6pmVMXH8TP77VHhfwvGfgLiHhnV8Mo4TJzsQjWZYL+ucuXUELmNYs3o17rh1A+bOqTawMHdOFRbPq0VBYQkN/Qkzttrbv6gwGw1zaixvlA7578Txr3XKWzkHCgoE5OQWYKB/GAMDo9bDq4X6fqKr+360CQ01RCxTCRIFh7DYuSUGYC7003G87MCaZDnyEX7aB0XzxjOwY/dBtHb2GLCpra1EQ325+S1/z5e/dMSZaqKpHc5IQDJc8/N8mF/HOaK1MA4BO9nUQWAWJGiZjewsMS2FdT4uV8pJ5O80y3hoZBynCdi0dWr/wCCqqqsQDvpthFB5wxec9yymrB+8tmPnAQyPECWlBewMjo6Os/wdYT3K5DNexOJpBtpsOoxnGteuWoriglx64OiOk39XzvHP+d+mH+qNTscbb3+AvoGIjQpq97of3bneQLxGBDzpes4pz/PlbV4lv19lx/zVKhu5HbuOoG9wGNddtwJ33LYWC+bPworlC3DN8vlYuXQeli+hWzYP16yYjbM9/ejuOWtvikgvmVtMsBqzUVUv8/l8XqfS5qRP5W8E5HPTy3uqSMxTEVctbK8qz8eCeQ2Y3VCPIpLWqspStnM5Fn97R2CZnzFtGawF2CQwzS19+OSTnWz3sq29bWCbs3J5nelDaqeyL3Kqg1rL1kjA3kjiobVGtnMY48XoUZe1s59GpWdse9uBgXE0HjmFocFBLFgw10Ya1M5cbnc/26iCej0yPoUDJCFsOennNHLzQ1i2dBa/p5FIFZKYpKO1pc1++30BkpA+m3pbV1VobYONINKJhBwgCdHuYD4+d83KJQw8YSNX2eGwEeT2duXJblts3tF+BouXLLRzqfYfPIwDBxtxy8234KYbFiAyobpEC8N4K5124CNzOzI5afHWqK6zyYZKQGXgkJtL0+i676ZT9XLFFVd+UOKASsmxY6fxf/xfv8c7Wz9hI04ioe0X2cbHaNh0srgMrwxXyl1e2JjQ6MgE1NYWobg4l2RCBsm5m05QJrNRXZqFVdfUwePhDxq4grwQMoOaQgRkhgK2KDGDNzXf2yT5/tcRvap50Ool085RPn8Y0UQaOrq1W0sQv/z5g1i1YqE9p961BPFkZGySpAPYt2c/SVGc4CDAu1rImyMvHTBj/66UyCc1wTKwNPoErKVFYfztL+/EnLpKIxw+v6aFjaPvbLc9ma5eXeafAaMLImIghEXKbLVtSWe0mF5rFeinSlD/tGuYtvwVuRkcGMGp5nYaAb+B5Zqq8qQxoEfKN3oY57MqC5Yky0xTYHzw0Gmaj06kdqaH/HUiPwQEBZo6u7p0mDRCmQE7K8aILePyTYiBT4ZdkJuJRx+6A4/99GHqRSYBWBP+/PRr6OgdZ1w8jJcOrjwvTj1Iw6pVq5CVGcREZJR5nCD4i8Hj92BSICsnj7qcybrjPK+pblqMm0rJlU+SEysb/aICiPgInG7fuQ9Hjp6G35/Jch/F9dfPQ342H02wbjA2jvnXu6pvjh+fdldPTBeYOdq1ztE70Yo4ChjnquIAqov8qKArM+dDXlY6wqyiixfXUYepj2lT2LlnN/pHYvB6fHROx4hl+IVJSeptV+8g2rv7+E33mXvJNvFSIaS1zgxt+6t2TR0DWq9WXZaHm65fgYaaKntOIF4jek5gCdYZTS0TOQBOnW5h2+KcS+SnnsyfP5vx01tOrXPk8/PbdJYyl+82zK7CymsW4PY7bsTSZXNRVVOKcFh1kwQkygKGn0S6gPWogPW8m0R0jPkj0p0KQ2llmpVu/UxmUTobY41QKJ4z9Esjf7GosmeSZCCKWzYuxrq1K5kHESMFsg/9vcrDlB8OAU5tqRxlfQiHwmyL0vG73z2Dp556E40n+/HiSx/hqSdfwa5dh6ztveXWW1FYmIsoVXH58hX41S8ewY0bFstLxkdES+uZ1JJRa5MNYDAUYrn7GahDQqxt5gtXvn658k3KhTXAFVdc+QHIOTtE6e0fwlgkgT0HTuKt9/aguWMQkzQYaTb/gUaLz5w3XJ8tAsWy4cT3KCnNwcT4IHQwoZk6EhTH0mnqF72lDZFBHB6dQl/fOFqae3H4aCf2HWxH+5kR+kXS4tjIv0ocW0RP+F+AxhAB0xSJjJsNJlazh4ipaeBiBJUB7N1/BPv3NxJwZCFOi5hDYNowu97SYb1rzitJv6+EnPdR/otASGoqS2nAo/Bo4S0zY2SE+cLrMvJaPyKnKQ3KJzkBHcebGWQQ3Vj58YI9z3+p7EwRhzNdvRgc1GiLj+A7C6UlhfaAppNoepRACG+yrDIwOhHHvkOn8MnuRmzb1UhAM2nXNTf9Soh6LscnJ9E/OMhwp0j6skhKfQYKvykSYmJp1UnWccybVYzbb9+AUDiIMz1DePm1rRgcnrRRD+0w5TwvQOQslp9dX4qf/PRebLrlOqxdvwzrNyzHzZvW4Cc/uw83bbye4EiqNoXo5AQqSstsFzPlqU11u+IiP50StulFJIyDQyPYtm2XEZAJ6ntpSa6NHAjwadqSg2cdHXEkpSEp+Sbi+fni9IzCgKttgcuMFgmUniWiEZuOpE0VHKc6IPI3g9qachQWkGgR+A4MTaKp+SzLLY0kmmky/aFLfqrO6PtkNI6XX33bzq4Ym3AagsuTar0ngJsCuRrZ0NlD6qBJxkN66jxsIl/kFB9NIRocjOLQoWN814N4PIYS1rXyiiKjforWl2heTUz3+FlWnIufPnovbr15BdZdMxs/fmAjHn30R3j0Z/fikUfuww033cA2VJ05ejodWVk5CIaZP/ylpvhC0ahZ8pvzlx9qh5QC2y2PX7XGRh06Ws80MhzHyNAAvFIiEi0dRjs1TaW6ROygW6Z1ijYgLzfbOj36+8YwxPefe/YN7N51lCFotDENi5ctxuKlsxhftWUzyMkJYcniWQyD/vB3IJBuI+deH+kgg1URav1Vb+8o23K+xESpqNXO6a/jXPm+CPVNFct1rnPdD8VdOBVkVkO9LZ6cYGP+yY4j+NNfXsPv/vQC3v1gHzp7CXxpcK13j8boQj8udrwnYEMnEFtbU0EgDBtB8PG35lNrekJzxxD2HTiNt9/dgX99/CX88YkX8PsnnsOfnn4Zf372FTzz4pv4w+PPYcv7O2lUBKDpd+qfhfMl3aXPJ9PrLGBVL9+UnRMgY6ueP00dCIT8dtq4dovyB3Jo8P22LmThwjkoL88yYC7DTo8u9vtKOsbNHL8XFOXxUwez0dAzfsPDowRVTj5qu2CBY627UW+rnNIhKKQF1v2D4wagp0jm0lgQlo8ET3ySz/Ea/Wg8cYogKMMW4xeVFNkOOKmzD+S3tpgdGBrHO1t34l+feB7PvLQZL772AV5640M8/tSrOM2ynOFzAg30zvz8yi5phPS99+wA0zhOoOO3sx2CAQELZ3rHp967kk5p9aaTMMewZGE9btu0Hj7mZVtbN9585yPLc/UMa7SAj1v5GFlkmVSU52H99YsJBleRjKzC9dfNweJZmm5zlqSxn2A/HV7qTGV5JQIqM76TwYqi9y8bl6/lnPxz1gQZHuPvdHy0bQ9Gx2OMr+bSJxi3a9HbNUAgTy3w2kP2HtI0pz7dwJ7pyDed35/jRAL0aaO0xJG2wJifaq/SSaw9Hu85JyLgIUrV6EBu2IsFc2dRmwU+fTb6Mz5JP1mOTOCnwlEaNZI3OTltBKTzTB/zSc86efllnEY9LB781Bqhi+8rD3WNceRvnVY/PDJqI4nahaphTi3y86lDLAs71+Kidz/fSXeUyqCf7ZhONhcxI5HWBhXFRVlYNKsUBQX5BPczFt40CcKypQuQk8X3WMbndS9Zzsn2xtpCc8nfLAumgO87eTIxMY1tn+zF4396EoePHLeRB3VtqO7k5eU6ftFJbHSFYYmgqZ1lUSEnLxMespmxiUmWWxDZOYU2YtPQ0ICbN2rDhjT4SDRsnQj91hlPQ0MRdPcM4viJDnzwySG88vqHeOLJl/GHPz1D2/EMnvjzc3jqqZeZvx0qOXOKwnmXSqvrvsvO1oSY5rjiiis/EGHlZ0Mv4JGZHaSBKMDplnbQphmIHRoeQ2vbGTQ2HrfexPLyUhone4uNRtKLi4RmkYZHIyYT8RkUl5Zi7bq1NI4ZaDx5BjtIbj7ZdoBuF/YdPIZm+j0yEccoiU80kc4waNB0+q2PZCiWYNjtmDV7FgrzgvRDPSUM4rLhfp7IVGtKARAlkNy3v4mgTL/jmDe3CuWFWWaodWq7CNO+AyfxwktvE/loH/8QorEpVFQW4rbb1lkvnAEhy4NkPlgYV15kwGWE1ZOtMw/SPUGbQpWbFcKSpXVGpOIJDyai0xgaiaGjewCnWrqxe+8xfPjJHnyyfT+27zqI7bsP4tjJFlRUVdviTfV4aqqWdgkaGo5i8/s7EJvWSc7TWLx4PupqCqynOd3nwwAJzPa9jXjx1XdxuLHFAJ3Xn0UgGOL7YfT2j2JkfAJz59QjQECr81wEar6q2FkHLCCld/f+4zhxqpOgxovVq5agvCQbibgAljMKIUAjJ0lNS/lrRRqikSOVq8BgIhpDXRVBXGEBSUgHTp1qYxyiaJhdy8ec3nLb+jOpB4qPM60xwTLRDk4EtZFpvP/ex5gcjxJkTtvmBuvXXousLI+BOuFi0x3789eKpYAf8lSHysVtutyOPYew+YOdCGcVYnx8hOVUg67OVrz33ke2S1xFdR18QecQzATJvsC+3DS/y0vVcapLyncDCl9HUiMLBkqT3yWf7Z9DhMaYd3vYToxH4nao6eIFNUYwnPbn/Lv6xibM8jQUzsTRY03MA5LnwUFUshyLWMc1HdHZicx5T/FQD7/SfZBkRXWoqrIcNZUFVp62BugryOXToulIAvOgPgBvvLaFhEegPI16kIkbbqQ+ZHpM7yxqesM+L+fXp0XxFylWurR7lEbX4jFNH/Wgub0Xzz33Cn1iOxGbxNIl87DhhhVMl8Jy1sg5rVfSqWzkG9uYaeby8FgMhw+fxFRMkzC1/XTciMC7m98juTvBdHmo0zmMQzpGx4Ywu74St9yyHgGSCPlloJKBjQxP4ODB48zfCWvLV66oQE5OGbq7+7U0xDp46mpr8NPHbmEowOnTbWg62YaD+5qwbdsh7Nl1GDt37sfefUdx5HAT7chpO79pZDRmoyDj42wbaDvOnh2inz2YO3cuMkMaoWIbZpmp2OvTle+6XJnW3BVXXPleiTXTNGIaNl++qA6//On9WL6kAXnZJAPWAUkgrIMEX34be/Y3Ws+XQNblhYSGBnaaZEKn3Z45048PP9yHZ555Ga++8jYJwFGcbuvGZCLDtpzNoIsT0wnoC1d6vH56QaNJA+cPFRAg5SFCIyjRX2GsryT2vP6knMTpBbR5ypMR81e7XUn27D2OV157F2kZBNokIZOTcYQz/bhl0w3IzdN2v86C+W+OeqTkvP+aNy5grC1j09O96Osbwscfn8BLL3+Ip597C08+9Tr+9MSLePrZt/Dyqx9gx+7jaOsYRe9gHCORdExO+XD0ZAe2frid+ad0C0Q7edrV00sQEKW/GhlKQ211BYQhVAb7tCbiudfx+rsfYnRiBqGsIngDWYhE47ZNsKbIhDJzrIyHSWaUL875Dl9NDJIyXiLDcb7e2tbJ1HvgIwkpKy2yZ/x+Hx310aP1KF7qFsmU3bky4vQpO3EhlGMYzkYAS+bX4Gc/uQdLFs3Fx5/sxIkTzSwLH3XVSafiIJyjXcnkBAY1cVE7EPUQEPV198LH5zWPvbS4yHb5UtZrPU+qDK6cJNNAAukjAdHhcFve38arftsZSYe3rV6zAhORCXh9WSSs7Thy4qSVm6y/wKmm17W2aWE306U2gcg+NQVT9eVCAqHv0iWbbmME7NOiZwRqHb0QMFV+iYgk16sI8OrdC/yVOHD4vKjcI5EIibLed0ZKUk5x1OuMLuvxNIoKcjCvYTafnTR933fomG0rq5IR+0757fxNYxymjLRFSTKl05JLw/+6Il/kpbZVOHrkNPr7h+H1+K39rK6pQkW533TjPJf+quGKzGp9CokM60xGmk6R9/KqBzu27bUpnYn4OBYvmY2bN12XXHui9s/JO4uc2Bv1WeWgXQQl2plQ531o9CaN+SPaPEkdUvs9OpFAXmGZra3T9rzRSJT1YxHuvfsuZGdKZ1gWTJD5T4lTH1VuHranmSQtHpaTFvCHSX4jkyMoLsrBHXfdhOPHzuLpp17BG69vxpZ3P2ZYjWht7badFNlMU6+9rDFai5ZFu5HFtsKLybgOtBSJ9iM7p4RtWZxkZMDCdeX7J7TLTu+C61znuh+WEyj3aW4/gVd1RS4euGcdfvXTe/How3fgxrXLsf76lfjR7ZtQX11LE+b0cPHFT/kjlpDh1dqBBN59dzdeeP4NfPLxTnSfOUvAH6Nh0u5Y6cgOh+wgulk1Zbhu5SLcfvM63LR+jbODDW2XnlHPs48AXHvv64yDC6eOfTVnUbU06p81dgxEv0fHSUL46Qv5bPHuu5s/pJHLpqOBpdH1B3y49dabUVQUJn5JoxE/P2VB53CYn9+wCwX8Boq1842PQHxodBxvv7MZu3YdwLFjLWhtP4uhkShiMT6fHuQzmSRROgxN86b9yPCESKTyCS670ds3zLRpj37nPJiBgSHbrlULOg3Yp2Vgz8EWPPnM63j+xXfRQYIRzswlaPXzuTFMjPWz3MIozFN+xJh+khwStZGhsYvifKnjn8vqi5zyUKBPO9v09PZjYHBEv5jnJSguDthWoQePnsJmAurX3txCtxknm9ttsbimgAmIXc7fz3P8c0mcVJaO00iCQJ3AXJzkuKYiDz955E7cf989tmOZnhcoTvml+DuOusF4C2SmEwweO3YKo2MR5r9ISBzz59eTCDBM0z+9q+BT4V8BZ/80hU4jisA7735EkDiN7Kx8W1ux8poVqK0pwvXrN8AXEPlPo96MY5J19tDR03j9rU9IaF8imX2ZBKbf8ZNkVL3qLBwnzULLjLctNmYpaW2CpkNZJ4bpVCpbFSelU9MENVXJ8WPG5mqKVJ+fUqVy14GiBoD5ydf46fih6U2pfI1ORg3g6gEbABD5EEBm2PppecovfqLcBXNnJw/BS0NLcxe6e0as7tpom/yjHyJfKvcoCchkLGp1TB44cXfq+ec5i6P+6Xfq8xJnTzBeE/E0HDt+EmxemWYR6GnMnVvjxJkenXveXPLj3O/z/n3aMZ4a0ZDjdxEaEdCD+4/hVFMr05+Oa69dgttvW8v8kN7SWceSMlIlyO/yRwSa7YIW8etk+ObWHuzYscvWotlaKBIKtSehcA7biQBGhsdsBKOkOBd33rERD9y3HlmZzF+2kXb45gVxjJOBkGsyf33IDLN94rXmU8dxtreL4U9h1XXX4MyZHrz08ss4faoNo6zv2rlQi9CRpsMdE9RVkp0YSWhcbU4ay9iL/Nws20QjPzefz+pcn2nqi5ftdiQZtmyUyvGLy9J13xE3NDQknXTFFVd+kOJUf/UMimioZ/dykmokaB4vktQUhjYC18f//CJGxrVI0dnxKicnC2ValFtSaAufSwoLEQp5bKEjMQlBAPDCyx/hMMGmR4eP0ahORIZxx+1rccOaeZpxAJ96Cy8N9EsJwYoADv0cjkzjn37/CvoHnfnTt9xyHdZcOwuvv/Ehdu88BL/O5Jh2pqPovAHFOzfXj84zJwhCb8HyhXN4PZ48FfhrRudLinomBVIGBifwj396Bd2DmndN44wo/DTMAhGKgdaJCFwJAIgE+n1eO88knJlpe/MPDk8QfAhgR/HIg5uwaE4ZCcUEMoMhvPLGNny87RDS/dnkIU4PaSI+CZ0qHQhnMXwgNjluxr+yvAxLF8+1eeVb3tuO7buOwK+Rqokx/IT+rl5aZmBbwFUGJSUGdJyvJrpz7i5v6J5239Lak/c+2YtX39xOhEiAUVNlu6Y1HW/E+PgE7KR600lqJwHKnbfrUMvFSCM5Y/Lo6UU+WydvsjPWuXrx7YvipNcd0VU+pKyV8KsOrZwhmFNvduqd889TdJEBMev5rHYc86K9axBPPfU6CaMOn8tAVjgdjz16D0qLs6jLzinpKc+IkRwv9N1cKhT9ulRS984/baLwNbJAYC6S+fbWndiyZTcys/OpA0NomFOH+x+4DYUM/sCxs3jq6ddMv0rKihHwp6OtuYVxUjd5BrLDXvz8Z/egojSPujNu0+NaWjqxcF6DLWjXzmrqHKBqYmRkkroRJ9EJIeBTJwYBJNNrwJYJmyDBPX6yFaf4vg6CFBkSmSkoyEU5w66qLkVhfg6CAZIchs4kMF5a4E19IOHuGZjEv/zriySimo6Vib/59X2gSmCKDYYIuZI/Pj5JPQwwXOqqbebgsZ73J597w7Z5FgBeuXwuHr5/g7UjlkyRV8u+NOw5dBLPvLCZ1/149OG7sKCh2KYjelnHk7n7KdHWtwLDUhS1eyJTelh5knpJKiQyyOzA4SNn8Oxzr7F9DNsalOKSLPziF/cy7x1d0jMiUKp/jhdO+RrpSoozlezTktIErb3QYndNrfvHf/4j240Ibr3tVixfwfZTfrN+27QtPqz8ndJOUiKAfFfZ1tbWiVMn20naujE0NGyHHc6QTGubabUt0q34NPPFN42K8kIsXzwfixc1IJPloXiq80gEJxX/BDNeRL65rQ+//+PLSPME8ciP78T8+hxs+Wg/3t7Mep6mbX+X4FjjIRKbfixeshjlpeX008+i0civEqa1Nn6SnGxkZWUjEGQxMjzyJUvXs8+8hZbWPpvuGJ3sx88fvRvz5hQz72WP2O5ZjFz5Poi7JsQVV37Q4pgP9V4KRGqnF/V48gvbeoEcxyJaj4V9u1B4n0BI7/b0DWLnngPIzHSmRaxdswIb1q2iMZyNefXFKCnKpMGgcaABERYTkHnq2Vdx7PhpAo9M+uEhsB3FcgKHjZrDTL81QmJhfl17oh5WgqJJEou9B45j1MChB0XFxdh34Ch27zlI0J1PEGMY0QClx0swQ4DV09WJ/NwQVl+73HbN0j6+dtry147MlxPlp/JaoGXPwROIaCExwc70VBS33LzWejjnzpmFRYsIBpYswNIli2jQF+LaVYuYd/NxzarZONs3go7OLoRIOAQQG2bXkQSScNBAC/Sfaj6DtvZu691UWFr8nuENksBkGxBLxCIkKwGsW3Mtbt90AxbMKbIyO3a8BV1nh6xHXWs1Fi+oR0VxJuMs4nSevDIrz7lLJc30KzmdRnnJMn7/oz3UnzH4gtkEUUMkf93008vfOQSaOSSsIQRD+TYFo62jHXNm1yM/K8hnYhZ/emJ+C8wqLrbI2IrJ0c9UntqjdtUR/Uw+5nyRzut9flVPvfr9NdVHOnQ+dReK45Nmz+utHTsO43hTK8JZBRgZG8GiBXV23kk6gZU0mdFQjOwdxTEVD0kyapTz3y6W1NO6n3yGH9JVjVgda2onuXwPnkA+tENrVnYI9z94J+tjBslRBPupSxrp8PiDJChjrH8R6OTrINHd2Pg49WY5danewOpb727Fm+98SDIxjaNHjqOwuBTlFSQ2g5P44MPd2Lr1E5ui09TUQsKeY+dEaETDWgzqwZb3PsFLr77D8EbRPzzJvIiTmE2iq7sfx040mztNgjIwHCFo9FCfWL4B1i2NujBZY+Mx7DtE3Z+cIrn2YMnCOXbCu0aq+npH8cn2vdjywTaMkeyUlpWSSKRTt6fpD/1ID+D48ZME+kGMDPWjvr4GuTlBEiEn/6QL4xNRvPXOxxgg2SksLMCGDStty13VbYdkfFrsbZaZ2gllvKadJqhw2hDCdFDXSSak2zYKEpnCFuaTHU7oDyEWjWDtupWYVV9APVXvvROO6YT5mWQeST01FZazHLlY7HGK7tizJOka0dG6GE2RWrp0tuMniaOe0Qjz8NAotn+yG3v3HUFLZz+Oknh88NE2O+/m2MlOjE8q/8kstDMh35lWfWYk/GRM8+bNxg03rMINzKf62gKSDJYzy1ubkGjUyal9Tnym2E6KkPYNjGLPvqOsC2Fcs3IBcsIedHb14+SpTsaZ7Q4bWx1mW19fgVtvvR7zG4pQWZmHqooClJYXUOfy+S7bI7YTmpI3PDJBfYiwvII426upqdtJcALWAZCfH8aa1csRDlIPlGPKQydKrnwPJOO//Jf/4h5W6DrXuc6cCIWdF2LD2XT22yEol3O6xy8oyMvGvDnzsHDhPKy+bi6qy/NoFAmeaQ1lmATwpxIy2jLeaXjimddxkmA4M0vD6h4amUGbunL/vTc4h6nRBhoJuSS8L+/UvAkQpBso27PvOMHHNDy+IM50nSFA6ibAJTjQAkwaM01n8dDNTCVsFGDu7Co88vA9qCjJIjxwDOvVmIol0UiIpnDsP3wK4zEHvE5PxXDrLdejoSoHeYVZKCoIIT8vQOdDXp7XepV9fme3rNNt7WhpbzfCIZBaV1OG8vJCJw0GrjNw5PARpj1q8DkjbYrPTSI6OUbjPWW93/f86FYsX1pp014ScUaAaT9yrAU9Z0cMNMb57tKFs42ECLw7OpNMQ9KpZzz1XahAQFX3NXKmeIyMJfDJtoM40thCHdEUHS8Btab5kDjS/zjjpEX5oL4k4iw7j49xjjHt2aitKqZ/ZI8MV1NtBO6tBzSpjwpQ+egcYsZrTIJDlpL36RQXpzydS9ry1YCkiIfeU3nLj8uVu/1j1Oivh8qqrWHffud9xBN8ViNmHmD16mUoL8vDNIkgPTDg6YBPTYxxyLvjn0X3Yv8vck78Lr2u/BT4HBgcx/MvvIGRCUbGm4mJaNy2lU7LmMJmAuGPP96H9o5e4kuv9RR7vTqTJ2jbp46ND9hBlXfcthFhbcBg/mpkJWD1YnRskoA7iIaGaoaxBXv2Sm/SEWM6e/qGcLLpNOpn1SI3N9Om4IhI9JIE95wdQCCYSZ30sQws8530srzGJiJ2//jJZhw9dsoOitSUQU0BCmVmseyncIAkZDyiXvV0rF27FImpNALow3jlzS04eqodw6zLTadbUVFJglScZ+tMNKqjHflOnGzB6Og40+EcvFrfUGPTL7Uw3M86smtvI/YfOMmy82IRCc6SheVW5hpxu1z91rQxxf1kcxfe3fwxmtu6mJd+5Bbo/CDes7KRXpEUJuOhNXDvv7+DdVBkOY2kMIz1G65FmG1iYop6a1VK+uXUd+mYtEL5pM4OBntRHD7P2fodvq8R52ySQm1r7GM9snNSmH98CFvf24lPPtlLcjCO5vazaD/Tj/7BMZZzmO1gFtvFACLxmOmHBletnU7E7WT3Rx65GbUVrOeMHm+xiiivNGWP+qJ6QP+dfBMJY3tC5e/tH7GOnsKiYixbNt92u9OGAydIlmdIJjXNasON1+Pa5VV2flNX7wBOt3fbDoU7dh/B9t2HsX3HPuzafQC79h3AwcPHsJufM+lhDA6PsS1qQjCUTT9HsXjBLJJ9HSabJEXJfHHd98MZCaFeueKKK66ckwsbiS+S1BM5WQHkaREubeIUDS3Nnxkq7cgiI6+54eOTM3jy2TfR2HSGgCPPDHiEhmThvBo8/MAtCNlUhSn4ZIgdb7++0CAyAQRMadh/8CRGRtVrHKBxdXowNf3KSzAhcKvpVvHYODID6bhh3TW4c9P1KMzTFA8CPcZFIEHCHLHPb0qs155OG2QePt6CvuEIgYIf8eg4Fs2vRV5+GIkYwTnjLqObOoPFevzB9BE8tHR1oIngMCs7j4QqhpqactRWF/O9KGOfgYKCLNTWVBNURPnepC2crq4swRyCtfvuvh3XXTsb+VleglQCLJWFT3k4hZ0EB0MjcWQwPtPTMRt9Kcr10Q+B9k+PFWjnLSOhBDbKOQEXnSTeRhD0EcnHu5u3k4C08ZoD3KOxCcwkJpGZ6TNCes2Khdh0y41MRzaONwl0ZBIUj6GoMI9xrSAxSVhPqZRIJEhbE+/YfQwffrgX23cexMlTXbYTmKZ1BEIE1QRk2u1NoI9v0emvIwanCJ609a5GnkSUBWJtOoz0KPnsxfVB1xR2GsM7wrScRjgzB2ORCMpI+tasWWFbqQa0zmRGBzJqFy2jH0ZcVCfUm5wS6dYX65fui6SKMKUxrDieeu51dHSPISOQi3FNGaIODAwM2Kn/Q0MTfM4Hr187zQkgMg9E8KITKMgLs6wX40d33YycMB9jMoVZCwsKMGfubDQ2NpEsDBGk5jPfM7Bz1yGEQvn0n3U8nXkazsHw6KRtP6vD9wSoBcalS0sWL8XyZYtwzcpFWMlyXLigHg2zqlFTVYbS4kKUlpXYAY7SjYH+frS2tmD79u0kLSFUVtVg9+6DmIwyvqyb4XAutr7/IT7ctsvWWXiDJB0zfiPZyxbPQXF+FosiznrjnCdB3k1ydMqA9dDwEKpqaugH48ys6+mN4PW3tthU0GA4jE2b1rHN8loZp8DrheLUK5Yz07Vt2z68/+EO9BLIHzpygvXCj6qqUisLLW7XqJnq7TQzYsv7u3Cm2xk1HBkfw4JFc7BoSa11xoggiFxF+Z50QFOeJiajTI+feUgyQr9EgC3CF4hNmeW9lFjcpJu85FQxPk9dVK2dmJxkXdU6K23qkMF47zfSH8wuZPz8BPMB+H3MN3jt5PF4PIK8vCxU11SSUA86/jNe2WzTr1k2F9rVOSOdbYFHnTXqkFGNUZAXaqxD4EVCes4OYteeQ5jVMBvLl6qt0dq2gJEQnTs0NjGGEP2eYjwe//OzfPYg9h86ZiMlyjcRa2YJ06LOCb/lo/S4o7MPXT1DTj4z3To8cv3aFbabHjmQ6e8lRejKd1xcEuKKK6789UKDaPO6Zcw1D5nWwIAdjanWWQikjkem8YzmbJ/uNgJC64KxsWEsmCsCcisBGy8hAR+NXMq0OSbXBtnt21cSgWOGr/MS9u0/aVMyBIQNgs5MmdHSTjKaUx0IeLBk0Szctmktrl1eTWOrHkb1ajoh66/z75sVAQuFITC8/3ATBkaiDkmKRXDN8oUozRPJy2AeaW63ALDhjiSA4jX+ONXWTRDWjlAgB9MEvfl5maiqLLP5++qVFgDStYULZqOBIGHJogVYvGg+5s+tQlaYQJzEa2oqxjAcEqI8GJ2IYdfuRkQIDNTNr4PDVl+zCLlhBzTZ4uULRFhJ4NxHp95YjWA0t3Rh69bt+OijvWhp6QGxOoFJNqYFuJjfVQSva69bhk0b12DVyjpUluejICsN/aNRHD163ECMzjLJyQphzqxaWwfjnJ4MnO3rx0svv0PwetymDQ0PT9j2naebu3Dk2HF0834onMV0h5m3emWaQTpxJj6y/DvSeApbtnxEoOgjUcszwKV4i1/p9GiVjJ6zACmm69TV8cgM3tn8McZ16J30fHICq65bSaJUxHhN4OjJU9i//wj27j9MIrcPJ44327TFovxs5rOmCDp6lfr7+cL7Ap/21eNso3yslcA8Bzq3jZnN+0zTVBrrUw7LReeAzNiOcOoMUHnOra8i0V5pbtmiGl7na3yH2Nje1Xav6jDYf/AwgWyE+eXBma6zRtJUrtqxzc6nYFQ0WjI8PIyKiiKUFuWwyqlepdnUGJ1dIZcVzEB+ThDlxdmorSzEvNkVmDevGotIdBbPbyBInY+F8+egrLQEs2fVWcfA3r2HjbBqetBJ5p82LlD5EeIykiSzZBHVFWW4/rrF1NO4pUGidiYUzrcF4TqHQqeUewjCq2srLeve+2Ande8s/UnDsmULSJSqjWPajlC8fykJcUA2rzFNhYXFdKWIT6fbIa+9vb2Y2zCX5FhEnJnPZ7Qmrrd/Au8zHG1nq8NAgyTAt99xC3JydYbPBLrO9uJUcwf2HzhCdxQ7du3DwQON6OjotvUPudlMp7VdybApRkxYx+RUSAL7iqr0UQRcl/uGSI6oW9t2HcDHJGzb+alpc8Wl9SgoLCEpPY6JaNRGhbSmTO1ygvrdUF+NDQTyt2xcjYrychxrPMa8F6ECcjKDWEkS4vOwTWd4NkpjMbLsTH5PXTlPQs6SKIhULFy8GHNqi6yTx8O80DbcPb2jFocwSUgjifLp02cQpP56vSG6MNuWMHz8rrOadNZKmlYOMb6WB9TLeIyEhgQwxjaxqDAHN65fRV3XaBJjktQDV74/kvG//W//mzsdy3Wuc91f7Rxj6BAP5xotwrTTM6tdeZ569nU0neoiSMijTUlHZHyEwLcGP37wVmQG+D4Nr3o3U/7xj/4nAfZXdTLcIkReDA6P0NDvJT7z2pSwWHQCiUSExi2O0rJ8LFk8F5tuXktQPYvAMEjDLOBNg2voTOE76fl68fhqTiJSoZ6+A43NBBYRGmPFexLLl8xFSb5WhGpU4YL39I+fmv6k6VPNbT0Ebu00zNn0bQb9fV043XQUK5cvtp5CrXBIEIDonJQwAVIwoOXXJD4kLALkGk2R/zLqQp2aJjU4OGaLlXW2iHogc7KDuGbZPGQGmS8Mw9mpJxkPAgaRoeGxKIHIURw41Gi7eu3addCmc6WnB21RrACy/BLc0RrfB++7HdcsKrV1AALFWhiv0987uofQeLyJESfpYFmMDA2i8eAhNJ0Q0JxCJcFof/8gyc0OZOcWESgW0XOdth2FPxCwcNo6e0lkTtm2rbPryxhnJc4BegJbGiE4cbIZ7215H6dOt1lvq+acFxUVOM8p3/hHIMjSqXiTEGn6UUdXHz7avs+e145CHpIj6d7+A8ewffseHDp0giC+n6B10Ahxb98oQWgrCWCdESrlscJP5d+nnVUF+64v0mEtRH//w5147+M9CGQWsn6xnEhWna1alZ4MgmsWZpoz6hf0+61n20Niec+PNmLpwhKEgoznlKbWJAmtwkrqkjoRTpxqQceZHqYnbL38zDQDrYUkGxUVhcwjgsdQpu1MpFOuG2aXJ9cdkeowPjZNyGLDvCI50UiMtjlOMG8UF023zCKAz8sJoLggGzU1FcgjSZwg0927vxGxKS3UEMl1OjdEArUTlG1UQCK0fs0qLJidhzRrYxh/Xp8mQRBBHidJ0XlDIsxDQ6NYuGgRznSeNR0BwXA45Mdtt21g+F7r1Ve9Ub27ON9TTqnQyd0+1NYWY9as2dTBIZKGdpSVl1L/ChnuDMnHMF4jKdx/kGB/kumd0dTTGWRnZ/IzgQ8+2EMifxgHD57AEepiZ2c/+vrGMDwUsw4aHZDZ3n6G5IjEyqt6pPYrOTLCz+6ePrS0tiM3v5Bg3WMjLlNM77Fjp/HRtt12TtDu/U042zti29ZqCpvO6+gjAd+w/lpUV1WjpLSYRGgAk7ZZgI+VPoaN66/B2lXVLLc0jI5MsK6pnrC8WXy5WSQhy+ea3mg0WHqqDFGeOO3hxXqrMtf02i6S1l179mLd2utRVkKyTZ31s53ROqH2zh7GX6NPQGVlta1XEXnWzlbn9Eb/pT4qdVY2HfJYXl5G2xHE6OgI388gCZnEkiXzsXRxOdORRjLKOCT113XfH0eNcsUVV1y5UuKADvtMAg/1nj/57Fs0vK3wBXMJLmYwMjqMuQ3VePCBTbZbjKb3CFs4fbxmfcynlG9fReSH+SODSQCZR4BUV5eHaOQMPGljmFVbgltvXo1f/eJe/PbX9+Oe25djblUIftlXxtnvJ5kSWmfohJ386/y7GnIu9xi8gId6FpUWXVdvomR6Rrt8WfbSaDtOzxOZ2X2BKSVfRtznDdhUj/yCAttGeZqATrsD6DR2A77J57UOJ8h0Yyod1vdoPZDaikYEJQO9AyNG5rR7kYx/cWEucjVNnN7RM/6RiNgIOAEd7b34w++ewKuvbsG2bZoa1YOxCAEG81O77dTUVqOsopRvOGtw6qrKUFMaRJTgTaNh3owZ631V6FoPQzxGf0WeppCdmY3McLbt3vTii2/h5Ze2EhRX4le//gV+9rP78djPb8dv/+4nuO2OdcjJ8xKQDhNwEwghhNff/Bh/euIN22JYcVUeKR8EFtesXolf/83PkZkdRmNTG/78zBt4573dTB9jQeKn3lgT5b2ROOdnM4FhJJqwqUPKCvXVt/Faa0sXw2G+Bgvg8+XCE8iDL5APf7gYgyNTBJUDpl/OIn0rsi8QERCSBgK4lpYOkpBPEAjnMloaEVIcp6jjYwSMzqhGPDaCNWuW4GeP3mugWyMUHgI6r0fnY8QYrkbZBHCZICZKYFdxcHqz6Qf/aFRTo0AJLXLmtfGJMSxeOBs33bCS6dRZM3yDN7q6hphW6ZtIkICos7W1kVkqmDoXfATOIpgBfga8uie9TjDaUZLJScSjGmYDQfAJOwwznQmJxcZJLAO29oMxJZDVTlMJFJC0LFxQA/JMA8MzBOOqE1NMU1pGFIsW1SA7x099B0lNGt7fuh9vvb3NymlychRr169AZUnQzsPwMb8cAmLBX1Y00sfcR4yNGYPGHbdcxzyOo/n0KcaKZc7816hbU3MPxsdImlR3BKz5Xv/AID78YAfJbTeGBmMkBz62edkIhQqoG4Usw2KkUz98WSXo7ougua2XYTE91HWtiRIZicSm8PTzr+H3T7yAppazaO0axatvbcN/+5fn8Pgz72DH3tOso5rSFWYB6tyQIPM4C+FwDvr7BmyB/Pz5Rbhh/Vw0zKlHjOXvbOAwxbAmbIRRepDG8pzkPemT6pzqBovOKVNrWPhdRc5/+msKc04EKqX9QBbJy/w5laitJknkbxF4DbTl54bZ/FBv6MnQ0DifK2B7G0Y8LtKm9TfOKI2IiFoLtVXa0TCdurRwyQLGM0bdjdiufnKRmA4J5WMMVvl0LkIqeHMivLruyndVzHS54oorrlw5US+ejIh6uD3Y+uEOHD7ajMwcbaEIAo4Yli5diJ/+5BZkqyOY4Fo9ImbUzMmUXGTdvpI4PvCThk/xCBBc33vXLXjw3k348UO3E5TdgVtvWor5s0ppqGmgaOS0yJcQnYZWRlQm98L4pHy8GuKEpb/O1AuKsoIXtKCVkITGl/HVjku06pqN5PEyn/lIhtCBCcEE/wrIaL53TnYO1q5bx99Kl/5p3yc+Q4A4ODCBQwdbcfjQGbS1jSIYcEiNyIXZcIPUBNUd3YgReIsIKEIlRbkkLvxGw58iaAL0TmSBM2fOkIh08huBWIaf4DGEgsJCLF+xGA8+/CM88ujNCIZJSOKTBE4ZmFNfiyD904F+AqwW+yQqHB0Zpa8CszoFOoYFC+bil7+8Fw899CDKK6qwfed+HD7SivrKfOTn+0k4BIKAtWsW4Be/eJCAeRUB3Sh9mEJxSSkajzVjy/s7GYRGdQR4mAbmXYzgZuH82bjvvrsIDsmMMwJ474M9OHjoNDzp2qGMupLKYpYN6YB9dXRXNwR2xExYHswn9fYKSI6OjmFkbIxxTxBAEcjSZXh9Tk+0iVNany/JZ5LhRyIE7fRbeR4jgI+MjSBMPV+0oJ5EOkJiN0w3xCiNU/8F+PoYf+cMHBVhGgmAilYEw+LNPDhf55LhOAVq1/VNC7SDLKSykjxkhz0kgl5bS5DB8huf0JkOTiydqULS3UvTlEyDOYJ6AXsSHWmQ1mppa+lXXv8Im9/bwes+ko24dUzc/aPbbXtfnWek52LRKcyd10CCybDSGCjDT6POaBSEnjLaUygpzUfD3DqMj48yLA+OHD6NkeEYAe0U6upKbFRRazHsDCA+4ST4s8R5QvVRh4hOEaQXF2bh7rs2ob6uQjjXXj/d3OnEmzo1Y1vhipQ6n1rXEiZx9vq01ipCojKEkZF+1qko4zFNYs5ayWfT/QFLh+USf4ugamTh2PFTOHN2BKHsUry7dTv++MSz+OiTfTjTPcy0E9h7g6y3bOu8GZg7u84WlE9GxplBBPAsYz+vs/hJyICxkWGrWypeFVMwqBE0hzhqNJXeOGXOB0RU9IwedkB+UpRdck7WnBOn/QRqqirw61/9FHk5rIx8TS2PJET9SyPxUYeKwt+69X1rozTiqdEy3rRIKR7MRiceyX+7d+9Bb2+f5aHW6vmZV0cbjzrnIDGOtqujvUOnz+QImuo2A9QFi4Mr3y2hLoq9us51rnPdlXM2hSDDi5bWTpuGEwho/jtNCe2EFv7mZGfZSeUnTmq3FB98BGSCQXzVjNClw/xf1cnImiNwEHDOCmdizTXLsHR+lU390oCAeoZ9aRnwM57qybxwStG35mT0k5+adqJpKxqV0dbCtnsU80ULS7WblA7vO3jkOHbvO4htO3ehp7vX5rYrLURDBl4ikSjmL1iIstI8glb1cMp/QIcU9g0M4aVXX8efHn8OL720GU8++RLee/+AAXM9pOkcClsbfXZ29tluR5rGoS0/S4u1qYDjl4FJfrFdfhhnfV+8eBFJwr3YuHEd7rjjJjzyyL34+WMP8PtqLJxbhK7us2g+3WRAPDMzjPr6KsQZrg5Pk6f0zUiHvuvwP4E6KY+faKO4MIfEKw0LFlWhtr6a+pOBQ4dPYihiyiMtEsQliJ1GZsiLW29ciR/ffyuh6IRtlRrMzMX2PcfR3N5nvf3yVzqiHaMmNUeewPKhB243kpWe7qOeNtp2tUqbeoyZcDz/0ht4d8uHltZFi+ahuqIY4wSV8QjJxuQo4tExTMcnkJPjs21Ily9fbHmvqT/a3lSH6+UQKCp90lFH3z9L58/fE6lXHZo1axZWLFuCGQLa4vww7rp1HX7zi/vw6APrsPEG9dJnEFyGSQTP4FRTswE89Sj7We5ZJKUeLS6fUVkx/QojqXfnvpvTvdT9DBKOBLLzMlFEEhIgGdG5ISIKWmc1ORlFguRKfjjpcfz7Iqeefq01iUSn8cJLb2PXnkbU1M1jW0BQSsyobaOly83NLVZGk5MRXguhYc5sOwBP51q0Mo09vSNGaHRon9bDaDvfJYsXkqhIZ6O2K54AfVZWCDdtXE8wLB0R8E7F9cvFWXHQlshaJL5qxTKsWr6E9SEN/QPjON3SgqzcHNTUVpEATiARo+OnyEBkYsT0IuCfRk1NIVZdMw933bEBt9y8huWkES5tNy3OELedxrRmQvU3Fa+urh7TZ6XtTGcPJkYjIJ2En+/kZ/mwdFE97v3RRvz6lw/hwQduoG6FWReUPqfTQLvmZbDOSH3HSYhVt1R/PfwMBkP8zvZPERDxUC3SV2uK+V7SOfX9AicdueSarW/ipzZeUH0S7he50QgLb1BvdAirRsvkpw5LVdvLdu5zCILIf2amszuXCK6f+S/vdF11IcLyVdyM2DK/REZsRzPbpc6L8Qjzlp+XxtV13w1na0KconbFFVdcuTJiJIRG5vTpVhw83ARvMNvpuZX5ob04fboZx4+dwNFjp3Hk+CkEwyGbf6+hc/VcmfFN+uXIxb++rJgh1avqadSIB9mHhxbMWVNBA2k3Ly+68/VC/etEu2PppOLDx9vQeXbYASMzCZQU5qO1sxdvvLEFH23bj737GnHgQCMOHjyCY0cbUVlZZesj9h9uRUdHP0Filo0caNerhroiS78wt8CYEq+FuycJUP18jrABYwQnba0tGBudQHlZDQEDQQUxTE9vDB98sg+xhObcpxEkBbF+zSISO4EJYXJ6auIYFYnm5WvnoPractRUFBIoh2yxcizuLHreuXMfWtvOsny8mF1fiWtXzeK7ipeixj/8qjno2iFnx+6jGByOGrCemY5g/fUrkJ9DIEgA0j84gmMnWlmeIcyfP5eATAQ4wTLWdB/Gi2BEu0FVlRUwLT4cO3maYCwLw+MxxieAeQ3ljC09Mn0TePIQbEdRWpiL0rIykuTTGOzvw8L5DcjKJPhhWZw8dQbPv/wWKquqMX9urQGpxYsWYvbsWtRUl2HB/NlYsWIxVq1ahmtIfFesnI/xiRj1vYkg2W8jF3U15bh+FYlJmtbhTFmZnDPMloOXF8te/hGotE0FlizEmtXLsHBOCQmXx6ZhaVvY/YeOE7Rm2CiS6qC25RUBEYhXPhYUFPK316aVGWmQt8m/AnYZ9F8L9Tu6+pHho36ke6EtnWfVluKa5Q0sl0nbgjUa47sEsj5vOgH5Alsj5PQ+p3Tis0WAUjuoJagDL726BXv3H8em2+5CSVk5/T7COPhRUlxo29seOHCI+Z/F+E+gmnm89vp5OHysDc+/8Cr2HzhOoqiF7B47CFF4Vpsr5OXn4ATL6mwvwX8gy6bx3HjTaixdXM10axpWMsWWqZLU5+UlVT6p79pUIB6bNOJz8NgpfLx9DxYvXIj77r4B6SzPzEAGiguyUFNeYgd+Xrdqqe3ktGrVQsyfV4uG2hK0nznDuO+3jQomJiZRXVmMdWsW2vijQ1ipFywf1ZlTp1psNCg7M4iKkkI7IX71qhXMixV2Hk1NdT7yMzPQ0j6A7Tv3wusP2YnzBflZWHXtUvgD6dTDBN7/cBfbF69tvZ2XE6YfC9kGaLqVB939w9auaEcqbVCgzQZWLJ3N9kckXGWazKPPzyrmz3kSo/qlD60DTExn4MjRkyT1mmKlNWFql/Wk7uuv/uhhpTvNRknKSkqxdt1anDxx3PJDHusNTc3UCMii+bMsnxPai52vaqtnKjUGRybx5rsf46XX3kVJaTkK83UOkqadfbFuunL1xC0NV1xx5RuTivIyGtiATT+wucUkAAKtOVn5yM2vRLo3F53dY3jqmddtAa96/wVO1JulIfi/Vsyu8a8MjwCm9QzKuJvfCoOI6wqE802IgI4dHjnl9DDv2LkHr7/+DglGnx3aFo9noLCwguBmLX7+2K9x7bUrcLK1D/v2auQp06b/2NxqoUrHQ/7XCIN2SUqzU6sfuO9H+NUvH8KP7r4JOQT26lHct/cQnnvuRXR3jZmB6OjoMRCtHmAtFi8pyrdTzRMERE4P5KdFQFCjBjpMTGtANH1Ci0u1HmBkKIKmE+0kSZnWO69pM87aeMaTwEOl4ZBY2HkPg/2D8Hs0tYkALJtkJhwwoOxP6pNSN07ANDqhzQb0sib4qNRhZMRL4qCF+HPmzEJ2TiaBs0Zz/Ojt7bepJ847+uOI1jWIiCyYVYKH79+EJYtJQLJCjE8agfiMgTR/IAcN8+YRQDPWmhriA+bx+bWr5mPNyrlYOq8KNVWFJGwBjJDUfbLtYwvI7w/ayMH8eXNYRipfHcjnY5jUTaVdU1KUeV8gAm4i0+VFmcgOEdwprwmIxeMOHtxnu85p2kpN/WwjUwLlytOpRDo2v7sNzz79BoYGtIg8g2WqHFRJp+CA5Qg/9KlVKwTBfER6WE5AHfZritw4yZQWtbMQGKYOxvSQiNhr9vfzRfE34sVy2LzlE+zedxTllZVYvHQWznS30w9N1Zu20bfWlg6+ocJ2CKLI3ommHjzz7GvoH9D6FpKrWAbe+2A7OjpHSLK8thD/1MkO9PcOUq8JPqci1JMpRKgjNutH0wSt7JXXTmsg92VF9VGgPIOsbzw2hRMnTlEn/ATMrBth4N7bVuLnD96Kxx68DT976AbcduMCLJpbgqJ8P8tN9TmOjp5OfPLxVpJhHwkX08v6sWDBPPCnlZfaQQ/9l4bPnlWJ3/zyJ/j1zx/E3/ziIfziZ/fj7jvXYMmiShTmBeCln9pBj0mzjoSJ8UmWt0aTvKiuqWMb7IygnT7VjAjv+TwB6sI0ykvLkJ8fZL4668kM5FNUhmo31B6nqvg5tfwyBUxx3nNyNi1dZDuOvNwQ60Suo49MnzzVYzbKknr8/IfpV4TE89DBA9TpcSMmatPkt0ZUFN3oZMziFmAl1AiMDjPc+sEe/MsfnsOOPSfRPzJN/TpmeaMXL5pW5sq3Lix7h9277ht2zGwpvwyWGnPbAYJy2We/1+5/xjS57qs6AX5ZvbKyItx3722orsrHVHyEhnIY8egQJkb7Mdx/FjrzIjszF+meHLz9zjbbg1/TtZy6QVBDZ6MilwnDcZfTt/Pv8I9zTYg2TQbVATP67jjnORnBTzvevshdGEbKfdb1r+/UWNi0BoFSGUxe07QXLd4NhoI21aK+rgo3bbweDz54F+4mgVi8tJ5gdxqvvvoWDbh2KWMa6ZFtqWlpZ3pEPphe7fAkAKg0Zmfr4DqCnNnF+DnBTf2sKjtT41RzM/7wxz+iqWWYJLHHzrjQiMzMTJRlqe1+FTd6K/+T8b7Q2dQsAgKNRshp5x3rcac72dSGQRIRTWlRL211VbETvwsc/5s/oyMjGBufoF9OT3xBXi6ywj6qFv3nfYF3QcioDt6bmLB3DEybH6m48BnlQTL9/E8dS8dkRNO8zj933qXD79WahCksmFNh20droa3yr6enD43HTtlIQmlpkeWxeK3OqRAgEqmJTk3TCWTrYMA0NDYet12K8nIKMD4+Tn0PYMH8WUY6PCR2rR29OHKiBcPjTh5rqTAjIa8viVfKaYqLyGS62RJNTdEalGAwiL7BSTuR3B8MMD5x3HjDOpQwnpHJcZuiksHwsrMK0dF+Fi+++DoGh51pK3Hm54wU3vQumX8qL+aP9EVqqJGTvLw8m/I3MjJBUBix80c0KpKTlUkiSYDISGtx8oVxvTTuzCXmO4kgQeSOnXuxc/ch+h3GiuVLkJuj6UanSBKZRqYpQH0fGNJooMp/Cvl5Ray2Xrz62tt8gOCbZDA6RZ32kXTPZJCcnDRd0/TBN97+ABESmYRtxsC8Zfz2HziMvv4Y9Ub0Q2A25T4rrz/byYL7vQE7mK+NRD0cCqOkMMf0d3JCI3dpRjSn4wxJUxtVoMpnjcYyDUeO6ABVrdMJYWx0DFVVlVhIwhuVbjOv05kJIo70TqwNFWW5mFNfjNLiTPh8oiYWaeYTazzT4GddiEZiTPsZZyqSpm2y3MorKpVS1rc09HT3U2dUZzXVawql5YXwZ6i9Vt1Q3C5IH8PW5gC6rqCc4C7Og89zqbrsHPZJnaJ/YeZ7eXGR6atzTX4qPqn3LEnOu9S/cCiEcZKPluYWEnhNtROB05lUOXxQ+q/ODqaNF/cfOYEXXnkHjz/1Cl5/Zwe6B+MIZxWz7SDxp95fGK/z4bnu23bUAle+SVHPggy+DqlS4yxjmkGAJqMYiScQSzg9VNadp1btey3qdZXTMDuJ1rnf3/uEuXKRXFqely9fgRgBn8Xza/G3v3gA/8tvH8YvH70dD969FnffcR3WaUpPUGBwlMAhhJ6z49i776gZa/VaylerGuZmzC9qk67SOaMY+q1/zq+LY5J68rwTcEha0wuc84/f+JA+HZ115tCrB99GE3j9QrE6rfpLF43HbaqZ4nmlRJ2EDhExXMj4TNsp2DfdtAGP/OQh/PKXd+PGDQtQXhnmAyBQS+DpZ17Cma4BgrswAYfWOehFeiZgIU/56aTX6WF0ojsN4m3i8wRKSjLx6GP34CePPYQbbt6AUHYWDh8/gdYz3XrAFtHqxOl5s6vsTXn/eaJydPrRnTwVGRgfn8Lhwyd5U+FPkfxUoqQ4xHx24qsSUt6nvG5qacfkZMziO8V8FqkNa5fiRMzua1qSptYJGEdJVpzkOuWVchqN0fyW7t4+DNt8eB3YR0IX0GnefMBCc3LDEUdPBMy05axO0Rfa0Ta4OrV5dGzCzrPIzyGZ4z0t/BUpU2+0l4BQAwIKQ6Cwt2cY+/c0ElRrZIpaTcCu6VNFuWk4eeos/uVfX8U//OEF/OtT7+D//IensffYWcQZdoSkypEL4yURKNU1Kgg/nTU4vJrU0Z17jmBgWDtfpZGoVqKsxIeuri6WsY9kbhwrVizHkqWL7PmungH85dnX0EvdmWE+RuKiB45TXUoVgpWKpr4wPwqLCxk/lktTK9Ou+fd6YoplmEvd4Ht8UdNudDlVK8/XTMdpd7UplvHOPXvwzuYPkWC+lJYUYMO6RSR5vRgdpg770uHzO2tARkfGrC3RxgxaG7Rj2z6SKvqaFsAEiYmmc8VnvIjEWA7hLLScGcC//PFpDI6yzBhkOKTD9aRDaawnY9i5az/joXQ54FdxSrUMX1YcmzZtKTt5ug3DozHk5hWQpBEc81YwQJDvcdJLk89wpm0DiXSSIXWytLWexY4djfQnG9Eo48G6WVNZhXfe3ob/7//5Zzz3yscYGKXeMd0WU9Y/tTlaF5LagU5+pna0Ukhav9TbN4i29i6SnzDbpRjy8/NtFzq+joGRcTS3nuGDXhuJUL2vqyu1NGjrY4nW7alzwIA6fbW1IHbH0YOvInraeUd/tQbF8WluQ5WN9oj88D/vOXrslIMUSESD8eHn2OiwkQ+NtImU6IDS0pIyVFfXIkqi5/EE7AT8//YvL+Nfn3kT7zNPuwbiCOWUIxQuIMketo6AZUsWWtgmVuaufFckpV+ufCOiCq3DqGgsvRk0DhGcbO7G4RPt6O4bIzv3qmMECRsfVuVzGoLvr7CxYQW3VLDx0imy+ufW+f+ZJKWjX6yrMinSB+2RHyLZqK7Ix7KFdVi/ehFuWr8EP75vLW68cRUNyxjBTJS4NJ0guhvjBGpayxCnodTOMReCSu1uk4RIFOe6wRxen2ZdE3G4FPScf1vuM+SCWwLXAshOz30G9Vi/U0qsHwITBJ0EmZq646fTAu4rPsyfbA/8RHcKT9OJbrl+HiqrdP4HbGqQ5nWzGcF7H3xAgNGB7Ow8AjQt1FTvI+ti0o9U8pQKQQLrheJ366lkGm0anLpN+WR1dT423rwK/+7/9gsCmHJ0dHYhOyeHYDGKstICFBU5i3yV5i+u2haKgVOFdab7LNo6z1hvtnbnmjuvDprXrbyTMbL1MOrtZHonCE6bW9v4ohaEx20hdEV5iZMtadIDiRPnBAmKRkokqfLWX+mGQFqChXjoyFE7g8IpqwQqKssMBFneMG4Xi347eaMndC6BDpPTSdn+QNC2GNYTAnO29kS+MA1Oakm+tQ0cZc+ugxgaiCAzmGvz80WiVq1cgIOH2/D0068TwPYiMZNJW1BI+zCF5154Ey3tvZhhuHHptOPzZwsDtGk7jENn9zAOHD5G8KtDHRNYuqSBIE3TVSbg9Qes8ysY9uCWWxagsrKEzwBd3UN4/sU3MDrOtDAgTasXV1WYpjvUI2mKvufn5SInN4DBMZKQky0IhHKoazHbXammpgTkDXxP7+iv4q6OBDmBdf0jAdGcfI8fx/n+1ve2k5xp8XIc69evBHkSBgeGTKclAo9axzQ2Nmo98tKJ8QhJyZjKUKf2M6IapWFeqSPAFwigp28Ef3nmNcSm/JiYiKEgNxu/+PmDqK8txmRkAqFQFg4cOobunkkWubMNrjJRMXY05suJ8kOjM0p/8+l2hj+F3Nw8kpBca6NmDF07eSHFFv7WejSVFSOMjz7Yg/ExAvP0XJaDj3U8G43UrQP7G60sPvrkgB2sqBipZkgP1AbYCJjqncpFddj0Vp/SQeD4iWYbXcmgDmj9TG1dGYkjSRrvtbR3outsH+sR7zEvSkryWZezrIQ8ZCTySfVaaZO/qpO6Jp/1+XXEec/xRZsFqImsr61AVUUhRkf7bNRKSbANOCwt+mQcrJ2fQV5uLiIkz1a3lZV8ZnbdLMZ/UhlD/fajtbUbbR0D1MciBLNKkOEN0e9hjI/02aYND95zK2pr860T4aJ1La58J4Rl6iiy666sk8ioqwdKhxi98sb7+P2fnsPv//wy/vTkq/jjEy/i5Tc/RB+JiYZO1aOkduRyfn2/HE2wjEKCRjThgDjJ5Z913ffRpYDt+WvnDeKnnYwmgQL/yTjHtc97YhKTsUkkeH/+ggYUFBLgTkUQCHrQ1dODIVphn+aY26gh36UfGjmULnlp+AU8+Kr5rakiGXS67vX47FMnnYvUO88opoRBjLMAYyIRNTBwYRz1EL0691ujlkNDEZwloIlRh1PrSOw+/VKv7Ph4DPsPncQbmz/Gq+9+hI6uAYufsoaPnfPr6zllrgM65J/BIzYQml4T4U2bgkOQozgHiPx27z+GnTt3IZyp9Q5R2z1IPcjqNUyBE3kqEHf58Oj4T3nNR1gWU3w3ar2z7W2t5o+zYDuO+roahP2MF8tS0ywu69clTomx8wP4XYvo1Zutk6zLSktRW1PB8Jy55yJ9Ik/Wu0+woGlYZ/sHCZqCzIQZ5OZk2UJl+mbPy28BZrWd6h3WoncnzPPxUq9ugEDlyJFGHD7ciEyStEQigXDQi4b6WgM1+qdwU+84TtF1CEwKlB0keJ2YSKCwqMDIhB4KENBZeARZWqDNXLR2Xyfwd3QM4cDBE/yexXKJM9wY1q5dTb0axzPPvcl6oNO0c5nPHubxlO1SND4+iU8+2cXfioDTdlocP+UUvPKW6U9+P3TkmE2T0pkZxcXFmDO7lgRoyNZRKKNUhiESOY3a3HffbcjOCpHA+lnGZ/D661uQ0DQggkJWE0ub/OGX5P9p1tM8FGWm2cGfg8Na7K1zNmZQWpSP6qqS5I5OqndEh3TWMUDd1ftT/B1lWWiaWyvz5Y03d7C8tBtZAqvXrCDBdqYMjY/EQOzMNGvXJGcaojwwMsg06PBROyVfazrUDuiT8ZbuqP4fPtJMEE/7E51CXXU5fvWzB1FR6CHxWwi/zkSh3mhR9O59R6wOMSTHHyt/hsQ/X+z4mt7kez29gzZdUZsTFFMvskLMqaS+OCRE/51P6ZE6FPbtPY6mU2fsjAyNJnkztD5jhnV2iiQpG35fCJmZeWg8fpqEjzrNSqnthFNhK3j7tN/ONdUZkTLtNujxZRnZY3XG3IZKBFmmOhfn1Klm03Ppk87bmDNnNvxB+ZY6JV/tjUrByU+l4/K69/WcdVpQpfxsPx566EdYtnQuyToZ7XQUsai2E052/DBf9fnA/Q/g3/zbh3H33fcgOzvb4iKd27NvD441HrcREh2eGQqGEWKeRUlO4yQsGVNRLKA+PXTPRvzdrx7C8sVVSJf+q828JE6u+/Zd0kK5cmVFw6YEOmz0j5xow788/jy2fLgH3QMTmEoPI8Ofj4GRKbz/8UH80x9fRFv3OBtwnSqt/o7vr2hqgqSjewz/1z88jj/++QWMjU06xkg9QK5878V6yvjpEBGVqT4/W/Scdf7JDrPBkWG2aTf8qjneBTlegqFMey7dG7RdkE619OIojemWj3bj2VfexT/+7ln81//6NP77/3gG2/eeMCMZ03aVFwR96lQrtm3fg9b2Lvrts6lbmvKhJk6ARuc8aBtgzeH2EizGk72tEhlbZ7tHOeDpp17CP/6Px/H44y/i//P/+yd8uO0Iw2N8+YxOe5a89Opb+G//+Ee8tXk73t2yB//8ry+gpX3Q0iaScCVE6bT8TSbU72c6+JlOoKf80rqGE01n8OYb7yIzK9fOo5g1ux7Xr76Or0zBa4ta9a4DNJy/lysxlYvzzcAc0xDy+REZH0PLac3Fdhaha8Rn7qxZZjS0HiM1veLTohBSjgBUvd8Eka3tvTh8rAkekgqNbCxdPB9ZAZ1zEbFnCT8sHioHwW+N7IyPJxAIkVyRVJWVFKK4IMxwFU8nwtLHVDgGpPhpasZ/aneUnh4Smffe30Zt9RIEaSH2JJYsakBdbQG0JltxkyhPpadyjp+a+hI3sNPa2mW7+mhNRU1tJfJzWRJ819ldjfnA9lvAWK/ZsWy898nHuzA2wQvUOR30OGfePAQzs/CnPz9LUh0CPCHrSdeozAyBmHr9Q6EcnGrqxumWbpvSpXK8WBQvi6CJbRnMsDt6R0kODsHjDRkhW75sCfJJGHQmhA4BFIjXSfg5OWHWO6CkJIAf/ehG3htBOJyJAweO4J23P8K0nYeZxvxWPnhYb/z8rQ6ESdu9ru3sDD7ZthueQJhXWW8SESxdOBe5mVpYrdGFZAxJNH0a5YAPcX6X02GOJ9oG8OenXkMkGmDa01FRVYn1G67l87ITQNcZ1qG0ENNNwBkKYWR0xFF//la89FWA3Ckj55r95QXpo9oUjXpdd901+NXP70JxHgF8NI5Fc2tIOqtIcEZYHAHsIyFt7RrRFAXml+OL/Pny4jx98mQLIiQ1InhatC8xcJXUT8sN/tZGGyJJHWf6sOWD7UgnUdCJ6oL8NuLAx3UGid6KkTA422tPoa+f2EC+kMQ5IxMiI8n4Khz5zYzTZ9PpTltTp93MtPNdRVkBaivzrU0bHBhGa1snvCSdUyQg2dlB1FSVW3uifLcd+PSdeZeaQq46ptHeKyfJODMN+Tk+/PQnt+I3v/oJ7r/vFvziF/fh7//+F4yXzjeZtPyUa++IoLe319ofZxQJmBiPsNicTUZETLQdsjYSnz+nBnfdugH/5jeP4Nc/3YT119ahKJf1kbqhAyk1ZTNVKq58d8QlId+A2KFKrCSNJ1rx+NOvo294CqGcIjYOYUyykVQv0hQb5VB2MXr7Y3hz88dgu8M6qmkC1rp+LyVFNLrP9ttiy47OXpztG2Bj4bUG1JXvv2i+/ujwcPKXM/f7UnGIhwAcyafAveww/2lPep8Wk9Kl001PE5ieGSdoSKfRJIiM0xBm5OBNgqHH//wyXnxlC97/cD9aWwbR1R1BW8sw3njtfYLKSdMpnbIro3K6qZ2E4Rm8/vr7eOJPL2LnzoM0TgQ/rGsCQwJU2umpuWUIe/Y142RTrxl/gRs5xc0ZMRCYdKY5jY8lMEYAPDwUxdvvfoDOrkHGW9OKHD2urqnBtddei+tWXYfC4jIMj0xiz55Ddk/y19Vji9E5PxwiYfbXRKBJAGFwMI533/mI7Y220/FC++ffeOMGGuh0m4qhOfzKfAPXyXcvjJW+X+yzI6nyOtszgP7+ITslfXJyEqUkAUVF2QaKBNw/26DLPz2V9D2ZjoMHG62H3049zw5h3rx6eyIQ8BtIpqbYKxox09ttbR12UrTKUO1HdXUFdLq+bmokRKJ1IoqLgJOAivxTeOYHdVXX3mX59fVpUX8uQegE8vIysXrNcuaPecHEXj4lTptFR/8OHTyEkZExmzJYO6uChMwecPJAAJlxtLizbIg1cbyx1bbGDZJA6ayWLIKr2XPm4Y23t5CYREm4fYjGJvlKAj+6exOWLGnAyNgA46QF2Gk2LUd9UupMT+mcI6m4OoDcequpCyIGImzahjgz04dFC2dZHips7ZIm7db5JCGWJTkVohOTmDenBBtIAMZGh1BYWIQ9u/fizbc+suzQYMNUciRE72lqVFFhAd7d/B4moySpmfm2YLiivADLls6xWKkMVecyCG0HBkbx8hvv0Ab02UiltvLduf8knnj6edrAacSnqGGsT5s23WS754mgDA+Po639DPNAhcywmS5tOCDtNbCeTHPKOeKQV+2eptE/r3cG9/xoI901Nk1R7Y+mqklbrlm2iIBU0+c8LMtx7CcRSSh/HW8oqbz9fJGuaVqPdgfTtDQRJm0EoO2x5Y2R83MRVP6xnWI5qa15771tTCdZYDrLP+6M2Mrp5HkRXi3y5zd+18jeNPqHxyx+VjcsevpzcTydqUskRKdOY2JSjMpDHZokya4i2Gdby8ePHD6Bgf4x6JBMjYzV1VagvCwHCQXPfzYCYX7xAiOaqhI2CnyFRcRBUdaAdW1tDvWnGgvnFKK6NI26wuvMK9WtV155BU/9+Uls27adZSuynhoRUjvMMmAFVv2eM6fedgt79JGbcfOGOSReISNXGkVTR4SNgPB3MkmufMeE+sACct0VczIYml+p3TKef/FNTKX54Q1kI0KWMT4+jJqqAqxeNdeGbeOxCMLhLDS3duLEqTZWKhpitTWsLZfzm/9p7/SAKuLl7l/oPs+fb9bJMGretE8HRFl6Lv+c674vjnZJhpRfus4O4B/++Y84qLnn/G0GlgZSTt815YlaasZLJ1/b1qM2pcqDju5+7DnQiC3v78KTT72Bf/79s/jzn19AH42j1x+mougchiANow9Bfw4K80qQm51HPdIOTpqe5aOxFKHVsL6maNDU0DDl5GQRoFYjHMpHPOEnUNpJIjxGHSTpp1F+4vEn8A//8D/w3//hH/H886/iiSefx8FDpwy8qW9RCdRUAU3P0LWHH74P/+v/8++xYuUyeIJhxKc9JDAdZjxlrPX8mjXLaPTuwb33bkBQB5/x3eHRUZuSYtMO+Pn1nfO+6rqCcyiEwiYg4HUBXsVzM8F1d/cAsggItSXnxhtvRG0FwQ3BmKZ9CCypY0PPKu7y0/l0vEmFJ0n9lqSmJinN6jTRTj4xGvTaunLbvch2phJoob8pPy52qfQzqgIBJEfdZ4dwpLGJZRmyaVPz589CXm4aAfAky+QVHD56jABE4GKKZR2wAwp1oKHKXeAyGPLb1C35K0lNeUlTDy7zRQcqalTAy2tKo4BMBnVly5YP0djYTF3IYbOpqV7TWHPdUpSWaoqUA1CsXC9wFobiwnC83iDOkIwdOd7MdjyEwoI8O5hQYEjglk8n00qnMOmfSO+u3fsMRIosJaYmUVFVhsONh62DRqNWzBi+E8Mdd9yINatKsWL5XOQRMGrKlof63nS6DWfPjlKXMlinnIPsHKewnKlIAtg+5m1r51kcPdZkI0bamnf5ktmsO3qGcYkRiFF/tCJD61pCYQJ+XhcQ18njG9Ytx+IFc9B/tos2KYT333sPO3Ycsrn6w0PDyTcJ3H0ZOHas0YiVP0BipV6ztCmsW7eShFLgUIcWirQ4cTx5shUvv/w29h9sQu9IGp59bjNee/093vMTI2sNxwjuuW8TgXCuLTAOsm4PDY2ToI2zvVAPPOs5GUI0yvzgdxsRMrunAKTX/FRwdKp70eg4GmaV41e/eABrVlaQQdEPXleaNX1SALahoQ511KF4ZBzZ4RwcPtyEswMi6yprM1QW9y9yCdp4fbZ3ncXAoNazeVBcXIT8PKaN4SgfWDXsGemTnteZJwcOncSho83wBbMRJRGfEvFQGhhP5d/UtNZc5TOuGgmRPs9giP474Sbr5SV1jg8b3hiPxNHS3oVpNRgkMdr9a3Z9jeWl1tCcOEH9pT2OUR/UjCxbtgDhTKcu2xopZSv9MxLCzxSRkv7peqpefDlnXlziVHZOnVWY+mebSugmv7d39eODbUeJkcZsypX0e4okLTscRk5WEFOxCUwlJljxI6iqLGLbkcV6McO2eRoFRfmYXRe2cDRiLZugspfdsR3eeMN1310njXXlrxSnp8bp/RVQGBmN4fV3ttnuFh5vAPF4jO3MDO6980b87c/vxs8fvAE/uf9WZHpBxs6KFANa2/rYEMovx4B+SngpRoAXjU+yUdOwiZ7+LNE9x7dPu29Q1J5QdELtVEK9WDM0xKmQkzdd+V6Ko+HAnoMn0XpmFMNjTu+b9CxOgGoLTglsrCeXt/qHR9F4sh3vfrAfTzz9Dv7r/3gS//i7F/Dkc1vw+tu7cfJ0HwHZOI2n/CWZELBiayQAOxmZtp7UCRqkeGyMYGmE9WoSJQSOt91+AwoL/Q65pUGW8S4qzsFjjz2C/MJ8Wk0/JiZ9JEkdpnFq5LSVan19JVZeswSZOdlmsLd+uAt9I5rOAluwaLWFL+jTH4Dt2FRYkoPRyAQSaT6Sr0FCMXkog03Iop2ivPwkEDQAwesjk1FEtDZaCTFxcs3Jua8m8kKA3ICX3ldi+DGpheh+L3bt0kGFB2iks9F1phPXrFpKYjTf3vURMBp4UHc20++8fF7sF9sY9fQ7I1bObnaWLoI9Ea1JtknHCSQ1vUc919qedXZdGXx8mdjpEh8vFifGAn70kWFIHz7ZfRD9o1HmsRfhoB+LFs2x3sr+wSHs23cMH36wG2MRrdlRr326nYXS2zuKkJ8AhPpVVJCDspJMp9wF0Jg3Ao6jwyPQBhhTjLOmy6n8EtG49Yy/t2U7tm7dQ/CVawR2MjqBpYsasPraBUjj+z6CzwtzxwFa/G0XBQLTbKeq7Yxf7yjbsikPZtdWoyQvxEQ6o3DOH0VKaeU1ArwDR46isamNADjLRuv8BMIjw/1ob2+xUR+NlkTZRm68YQ3WXFuFyEQCtdW5mNdQiUhkjODJRx0GTpxso93Q/HiFwJcUDgPUAI0IiIKejCbw7tZtIM5UAlBSGMaaaxbAy3JV/o6PTTBOBPRUKIUdZDmm8/0AAVqIQDXA+P74/tuwcf0aO7yvoqzUTnLXut+Y1pIYcNQIzzSOHT/JMDWimUEwO46VK+dj6dIa6hDtnJDttLMds8pAZKuwpAZNLX34l39+Ho1HO+FNZ90bjxMgp5Po34kVS0kWZhJGpPg2mps7Mc6Eax2ONCjIsp+JM0RVTBPqrEYOKKkrIiCx+DjWrF6M3/z8dsyuCmGa5E+7L2nDA9VEgew4gX0mi23F8nmMZ8SIed/AOIlhs9XrhOqDlOsLRKZ5ivFh9uDQ8RaMx9TxmI7y0mLnrBvVWT3EZwSvVK/SMnzo6Y/itbe2YTojzPxR6qi9zFvFX9toT44PYcPaZdh40yr7bue3JKaJJZyzemyqqJU/RYlXGIyvrQ9j3jc1d6Gtuw/eoJdpEVAvQHFpju0OtpN1T7MSgiQ/sVjMRkEaZpWAxUaiLr/03/FdbY7hj2RF0JSolKTy/PNFvphPSSe91QhlgjpEO6GRSxa2vB0bA/YdbMNTT76FPz/+Kt5660OGz3D4gAaJtDlJbHIYgbQoFs+txL13rMe//duH8DeP3Y7C/BDbXfpNvZ6IRKC98jIy2DbSX6VJhEdEyuo07325uLvybYhU0JW/UhwFlwF3Guxdew8RZHUiGM6xIcE0NoC3b9qAm9ctYkMcowGKoL6uFPU1FWwUIqyz6Rib0G5A8ky+qRJ/WmzxLUmNDLwzF/ryImAhw+A0AldLZDgcSRB1qCdDvU/qqTD57Oi68h0XZ8vGDIwSLJ041YFwThEKi3TSNO+xeNO9JAXUzZbuAXy0uxFPvfAu/ukPL+FPT72JN97dgf2HW9DZPYHJKfWC5iDdI2CrnXKmbbci6aoWs8anJs3Nnl2PTZtuwR133IKf/eR+/N1vH8Nv//bH+OUv7ifwqRfWMl1zervSGb8ogYymSFXQXxou1qMz3f0GLrwE5HfddRt+9tiP8ZOH72C8cxlfDwZHxu20di+BQ8psplRUAMHMp4wcAYIM4vg4iTUfcOCRDJ56B2m4CTxTz2l+f8LqJZ+RIf9rRGGlpgOZY6zod5DAsfl0B0H7hwbeRsdHUF5eiJtvXmPxUr6oCVG1U3w1YmCeXSBOGtiG8LIAjKaG6oR2e5ZhKn87u8+iu3fAzoHQNsQF+XkEqMWMk97hHwX0ueL05ApQ9w4M49DRJnh8QZb3BObOa0BVVQH1AQRGYZSUVKGPjLCnu5dp8hrpaSKIn4yoHaGJYh7X1VUiEFS6+BLDVg+ncmVkbJSkkayRyCODhak0ez1+fLz9AD74aA9CoWLeCmKUz5WV5uHWTTfYFro+JtLHd1LJuPRTu0tp6kpbey/2koSkeTMJnPxYMGeuAWaBbmuqLW/Z9rOdV74OUa8+2bmHpNTHtk/ttOatexj+mL3jJyCdGCWAX7YE69fMNYzmzYgjRPA0m2nEdIz5q9ErL5pbOkk6mUoG5OiTE5bqig5+03SUgwdP4NixdpLETAL4cVyzchEKC0K2DkSPj4yOMq80kqDDOr1GEhRtzZOXDmfQrzDz9d67rsff/c0v8dvf/BpLFtcryxnv5IgXdUXrXHyeIF0AOvG9rDgPN914nemLsz6I+cF/1hFH/4MhrXeJYmBg0Ha8krJNxWOYVVODRx66H8sW12ByUlOjWA4eEgnGtbmt3eqRal+IhCkuJkwbIr8t6axv9kX1jt9kD3V4ZkVFAW69ZSU8aXFmnzoHzpNLpzxZMky3uu4aGmqtvmjERaNcBw42sl3jcyybcyD/c0R1UmuthkYmcfTEKZZxmq0Zqq2uhDiI2gRHSMJ5Tzqh+vXW5g8xOKozQTLZxkmvqUMZ1A0+MTY+jGuvWco0LGM+RQxM6746UDR1UXpuabDPlPCXsoJ5o46UxuPNJK7UWepElGS7qqoYObkZGBgax8GjJxDOyrP6LaK8cOFcZLPKaAGQALvFWAFSNJVcSZC+qSNDu/+ZfHHWXF7oj0bHVW/TWV6sVDjTO4a339uH3z3+DJ5+/g0cOdZBWxBEKJjPaGjdlofvzKCsrAS3ETf99NF78dOf3IUb1s6n/uRRd0VORs/nNdsI1UkbKToXT6Un5Vz5LgvbGTYdrvurnSqpeg1GRqPYuWc/jXeI2csGIhrDdSuXYs118xCJTrGhZIVhJVPjm1+Qz0o/xd9pNhc0FmeDy++X+q1eEPX6tnV24Y9/egqnT3WyofLQUKgxu/hZiabCaM68KuCF91L188JrV8pZWDJY/B7TyA/jK7upU1llzHjjoudd9/1xzhzoDAO/OoFYO+qEMzV9iuVKPesg+XjqhTfwxFOv4uXX38Oe/U040zNBfRfA9bL8dRq0DITOU0hHZUUhgU4d1l6/DA/cfzuWLZlvp/36SSh0eGF9XTXuuG0B1q+bjyWLalFfm0egGkQ4LDjkxEn6RdvL79R1gixdy8tRT7m26iTJGBrE2KhAFp+jDmoHpji/z2qoM6Mow3X8RJOBCOmt9Nd6zeg0FUTvyQBrSpnA46QzxMH7yWdZh506pp5qD+MlMMAYyXgn/Tk/LemrOevBY/ok/Ck8Y3U9Q6M8UU3D+ggTE3ED8IGADw88eA+ycwk0BWDshWS7wHQ5B4WdT5s8VLzUryoConMT/vl3f8Hu/Y2WDo1o6ZnWdgJgkoE0AnHtlFVZXkwiwjCYjzZ/POnf5ZzCUlujHmB937XrkM3313s6+2HJorkEinyGaQoF/QacxpmeltYzBiw1Fet0czuvB2wqi4+gT/PbnXQkezf5qbY0Nysbk+ME+ExaT28fImxDtVvYK69tscXfXj/BeWQSeXlZuOfuTcjJItqnPniZ9lSefNoRjjJcD8tg796DJKEO0K6qLENNbQFJJ/VKI032rLJLUJJ6SH1pPNGCrh7WEZYNX+N1D+/7mVYSEB+B+cQYaqpK8KPbrzH/NfqgrW3TCA5rqyuQGfIiGlHvdwZ6+wfohoxAiDRqmEWDApNaAE6gLcLz3nu7EPTnkXRMo7iwAEuXLTIA5yMrVx0Z10GPTCtfNrKmaTr2T3Gnn6npNlrnUVjgQ36egL1Tv/zMdx2E5xcY1XNsB2ITE8y7Gdx520bk57Ce0A+t9ZIfGnFQuJqSuHz5YjTMqkbAk0B1eQ5B9lz89Mf34KePbEJVRQ5VNA2ZQS/bA+fdOMPUVrwioerdDwa1bswBxbYLW/Kf0qFMUHvCrEPGVBw3rb0WmQHeZR76bbey8/qe+q4RJRGhgtwgZs+qh7Z8DQRDGCD51dQxL/1TG5F653JOYYuEaArR6dPNGCK59lF3s7ICqCgtPB+mIs5PrTfxsf4cOnwMhw4dIzHLYtmoOrNNnPHAyzjFJ8dQR8Jwz90bTBeUH2pzRDlUXzTKzFhZXZWfF8ZHz2R4MzA8OonWtg7WKe0ix3si7awvAT6zd+9RDPRP2IhmgnlZUJCD+voakj61b6yf8pvPSSyNyU4IhaXrmgp3YZhfzqmNFAFXKyDyG2J9CaH1zBBeeeMj/OGJF/HO1u3o7B6Cl6RMZF9TLjWDgsGzrNSezmDpkoVYS+JRW1NEPzSzYorYIsq8mGE7ofJnWArhgrAV+Yvj4rrvupO2uHIFJHXYz/6Dx3CWlT6dxk/7lJeXlOLGdauQPq2tItmgE2jJ6MjJCKkhVcOWzkqmdsbq7SVi8zQp4+MRm9/87HOvoa39LN9Rj4GgmCPOSIzmgE5gcHiM7ZHn3LQFnbegA9W0GE6nHyu6Cko+Ww8J78svbcOpxsoWFSfD/dJCD/WGesrUDgm8Rm3FfUoukzhXvtNiPWJUTOH2Y42nSRIAnUXhpeFQWQ8NjeLxJ57GRx/vRc/ZYb6gHXhyUE7QWldbhpXL5+Pmm6/HQw/cjt/+5hH8r//LY/jbX9+NRx+5EffctRK3XFeN2spCGuSEbR2akU4djI1TB0EwpikhcupJk/GRSzBOcindFDCQKYKNcgRDNF+8r7nF0clJM6giEep1FGUoKc0nSdE2nz50d/cyzqP0U3VA9Uj6qSkOjs6qZ1SdBOpB1jkEiosBTtUdBc9PzVmPTgr0aw98Eh4CmfNa/jX1nXFmNT5X/6ZFDHgxGMjGhx8cQmvLWQKffNtFhslCb2+XNeQOmdK7yhMnbKXh07EQyBYRm8EE62dbRx9efe19tHYOs/iCIB/AqdOdzKMA84JAJGMGc2dXw5d8V/GTn5+VOo0MKR9GxxP4y0sfYPeBkwhnFbI8JwkAq9DQUIgZInQPww+ShGj9ik62Pt3ag3FyvU6Cle7eYQKUMNuSqJ2qrt5rJUlpk3hZJiqD669dhdWrltop5C0t7fg//vuf8PKbH2M6PZOYPcT0TZL4pOPHD9+F6opsEhCSNxIhQy+XEeWbtiQO+Pw4drwD+w8cJzAOYSo+icWLZhPo6alUGeuvkxma+jYyCuzYeYQ/A6SBbHt5l5prREpES0S7rDQXjzx8B8Thpes64FBTxzJINMqL81FRlm8gUiMhAwPjJIkTDNPP+uCExTvw+mhbEml49uV30TcUgYfx0/rCG9Zfh0KSCBtZpOKr6R0dpS0isdMaFk3To1dO3JWPzn/7qsXqqeZe37Wou0gjKpEBTE70ITrei5Avhll1xfjbXz6EBQ058PB5AWf5kcwQeqb6MYOSomz83d88gv/3/+M3+De/fQg/e2gdlszPQzjAsuPD5B82XUx2k7wITU0tGBxk+8H3pT85uVmswxqt4NNOhM87/nfW3gzb1rtLFpRJ6RhvR0OdyAi6O6MHiqE+lS+6s4gkOBzUmoMYw0/HPpLWcc3nYf1J1ZvLiWMfpxEh4Tty+CSjyvBY5eprS1GQ4/TeizgoME0R1CYGvYPj2PLedqR5woyigDk9YhBqkxKRUVSW5uDRH9/hTOXi9QAVzDrwLEReoj9Jlb9YLrimXa8GBkZIqrIwMTZmZ+nU1VXgSFMXPvpkL+OUafVYAP76tatQWuK31xVVtY/y3+JNcbb1TnrOzwunY30ZscXjzAftUqZOmgRL+UTzWTz53Fb80++fx4efHLKpvN6Qtq3SYZTjrN9hrFu7HI89+gCyMoPUZbbbJBoiwMoI4RGrK2yH1IllozfS8WSYwkyp7+cyzpXvjTia58pfJWq31OjrUz0SWmCrHX9UNa5ZsQx52WwEZ2LQ/i9prDxsZmFzycn+nSqu/cEDbLTUUGpOpl08JzplXQRi3txZWLd+PYHToM0XlqgCGtBg66YeXo2ovPLKm/jnf3oczQQS6qWyXYRY4dUoqKdJPVxq3BgFAwsS9bzaYmI2+mp4rCFkXL6OpKaKKR0xhq1fZgYuSZcr332RPmqB35kzg2hr6+IVh2TIWKrhDxKs1VfXYvHcebhx7WoSi5vxi5/cjV8+egfdnfjZg9fjjhvm4ZolZXwuxLpAQ+ulYZ2eNGAnoDYdjxjwMtMrQs6q42VdEMD2mpM+asRDUz5kOPlX//VDYj1vBD5lBSgszKfR0snKDoGwZ+ik31K/nOwQsnOyTfcniHh7us9aR4AAfwqup8C8Fkj7g0EzlholkD4n+Y49KQM+PhYxYJJBUqOAHGPu+PO1xF5NBsJPkR71EKoX9dixJuzadZDlEcJA/zBqauqsrj73zIvYveco4xCwaS2MGZ0AmNMpYdMU7Irjs/LEqd/TKCfoXbRwEYHmNN57fzv9TrONAs509pJ8EDEyn8LMg+rKUrZSTj46It8+nU4HxBFYUme27dyLbTsOMrAwgYXuAStXLAXxHyXOeOk5kquwRkO8tn1p/0DCOlhGJyZtwa16wqtryllmhjMtfMVA0VAqc7MC+OlDNxMIVjNhHoySuGobdA8JW4zvev1puOeeW1FTnW1TdUIE4o4mfJqcidiqDRVhjUTi+OD9T9iOa4RrBmUVxZg3r87y4JzeJf1RB49UsKm53U6szxDgpGLPEETNEDxpaY62Lw+FPLj3RzejrETngszYaJDSkaatWukErirLihmHOHUvzLbdY1PZLJ58UGFHJqdx8MhpvPjyVhw+2opwdgFGRvpRX1eGpYtq6K+z2F4EUwRZ0xM1vUXlogNzDVOqIExPzyXE0qR7qnMaCRIR2bB+Fe6680ZsWLcMt992PR5+8Db85pd3o6ZSecl6SS/knYozlScCoeYz88STPk1ymEHS5wQpwqERq6DPKUNdU/lKmptP87vq7TTy8vLsDJnhYW15zefO/ZM6CtxrYfukdTrcfNNqyzdH19V/rn/OdErLt+Rfhai6ojCrKvIwq7YCsciYjYY0E8S3nzlrIxAqy88S+S/S3HWm1wivc2DiNObPnW2kigm0jJAPWr+p8tq89SP09IzYSITAueUzMywejSCc6cMD996KonwSLaZd6618IqQWTz6b1HVHlA4nLeckmenCHDpvRcQ1xjKvq60kUWXYWz5gnrI8vAHbhKGysgLz58+x8lGe6fO8qL1gEsx2p+qYgwm+jFh7ax2XIh/pNorc0taDp59/E7/74/PYs+84Q2A9JwZR55CXBG3Bgtm4/77b8Muf34e7bl+G2bMymQbNolDOKS+d9l8YRnFRe8H/FrvzOeN8ns+Z1HVXvi/CsmVxuu6vdMxJ1gKdPTA8PMbGSUaFF9iC5ucXmlEI6/A1VkwtYtVhajJ2E+M6lYnMnpVW+7eb8aBcNgxe1zBwOCvMRspPY9ePSFTDpWZVjIyod7q9o5sEpRVDQ5MYGBwlaGLlpRXU8//8L4/j8T8/ixMkJxre1zs+tYhsXIdHY+gkCDh+ogVHjzVjcES7kvjYqCg+5+NkEbng94VOAEyfWoyaGpLVVBj+cBrUC5513XfRXVyuzgXn2qmWVurIBHGeF7kE8cGQpjnNGKh/8L478avHHsI9d16HDdc2YE5dHkryg8gkhtX6IAEuDTTokGvHiKg/VyAmDdrNSPPUZQI1mmBojg+a0eF9x/jQGOqMB0IePaM54rrGqFncbKSGxi8UIiGqqyKpIFQhkLP1WPRDIRp4pr8FOvWZdcjQCN/t7jrr+E8/pbMOYFcc0gjQyxAi2YpPjtMQssYoLIunA+oVttY4xNV7SEOpXV20La7uWfy+tlONJqxiFFWHbCckgrvDRxrpr9O26MyGR358Jw35QoKyIN5840McOdhsax20oFX+mCjZTI4Td/nlOE0J1YJf5X8VAbbOIGlsbMLBg2fQNxDF0GiU6QkZYKgsK0FBrvO8ptwkE29hXOoUZ+2mNTA4zvieQIDkSeUWoT81VRWYO7vEpqkI8GlKjZ/xzbSDKT22kYXantaOHpZlmHqjdQ8Zdqig2j5Nv7ApGHSWv2wvpVv8RhJcTzJLUqvtcZhHIwSwfhsBuRtLlpRjhs+F/QRBTLvlRdIfx1lyTI+0hkXt5Sfb96OVZCicmcv8jGLtmhVso5n3bBBtKpb+6V1lBX9PRIGjR48bYbE57byjmGnhsRblJhLjuOWmNZjNuhGbnCIRV2lIj+gYrqP/1LmKUv4mWGc9Uxvd3zdk16URSntnZw/+/OQLOHy4hfFhXlL3QoEM3LZpHcIB7Qqk/E+nU8+81o4ogmyHmeci1U7+Kb38ZN476U86+8d8oB/qydcORDdvvB53376eYP86O/gudaK9bJX+XZiP/HPut0MWGTgrvkYW9d1ZR2XROfeORi+GxuIkoGdJCHSGSYw6PY92S/VTcVG9lH+OndIGAyIZaYjhzttvQH4eH2Iw0ieF78TDqTOOrjthKl5aAJ5G2xTghTmzaxgv2jjm02R0ytaHKZb2rqm345f5l/yt9Wt795/AR9v2sJxJJJkPZaXFdgK4Biudk8wZO9r4IFmcZi0cVB0IZ9to2AzTLQyg+puRkWC7eTsJXa6dzRIMMF0MQ9tsa5qU4mnRSaYhlR7+sd9qGqRbyomW1g74WVfV6ZKdnWXn0Wx9bzd0to06LzS7QWvX1l5/Lesx39XoJt+TFp8vPyeNst3MbEuzLlp7du6Zyzun45Skk2Ug1955Fs+99CaeePIlpr8F02lkRMwbbWagE9pvuXkN7cUDePj+G3HdijrkZ3mYB1NsZ2UXWH+1cwLzUW0xA7AwLJ6WIcoP57q+Sy/sTvI5133/XFLbXPlrRM0U89IaIS2UpcWzUQ/1Nj793Ev401+2Ys/BFgwMx+yQonRfGGOTcXT3DZix0uhDTWWZTXdwCoYN7iWitkEyOhph4xMgIIyy8VQTxDaYLZLmJEvicVbK9BArchBxggZNLImxAYxNpaOzZwR7DrXiH//wPPYePM3rafho+1ESk7fxj//0LH7/xxfxx7+8gt898Qr+6z89jw93nDJDr63yUqJoyAg4/VKXCBsOgRBryJgOPaGFdSb2+GXeceVbFJWHnErVKdnzjleoWJpm0k+d23/sBOJpmsbkQUlJru0+o/IWyNDZDblZNGosfFtISYKdnpZwhs/9GfD5qOPECLYlI/VJINWT7iMgcnRWAExrM9TzK5KhhbfWMFGPpE/ScdlFA5D2i7/5mZoTrLqnaWCa1rFwbi2yAtRQgj6bciSRQWNdVHpCPi+uXbGUcY0gbTqGUyebMDgYMTI+I6RGUfwE3kryAti4biXSogMoL8y0qSSKk0J1FnwDfX39rIciPNPICocICBUZR/8V89S/Ly18VLVL3F29sqpKWoOjdQna1jPONGWR3T3wwO3Mc2DVqsUsj1Le9+DFlzbj8NFB5rV2lEowjpqK6czxVgwcAOoQPjPgyWjNnlWJYFBp9uDNdz7Cux/sxhT90ISHdBK32fUVCNk0pNRUjQvdhaI8cfKlo6OLeTPAfNVuUARlzLtbblptOwJ6mXc+kUnnUeTl6cT8BIvQh/c+3mNrKrw+TaWKoJLtYn1NGctKpPWSUPm+lxdVzMsXleM+guXcYAZy/GlYtmgWfvnYfdSHfJv6pWkcTjmk3k6VikCj2qg0nDzVhn/5wzN49qWPseXDA/AGC9A/NIjrrl2KFYur2ZBKpx0NdPJOOiV8pRP0x9DW1kYdt4yit9RPAiStpYhHh3DHrauxZpWIUpTEVtqdTLwUm36JeEjyC7JJ3DyIT+lkf01JJIFhGBo5l4RC2vrczzLWeQ9xRMbl93o01DGdAsKMmHWAsZyGRkYcAMoA4sxfjYI7NY4PJvXXEqMPfVo8HD/ktBZHoxNWNvzkDyM5wYDAphP1C0VeKF8EGAUgBfAFEpUnNrqYDCMl6ojT5c4zvTjbO8wopaEwLwtrrl2M8dE++hEncWR+shKIWAVoJ2VXp6PDuPfOdVg+txBp1HO/hlcoKa9TNe781fO/U5Z1bkMdCvNzoLNagsEsHDvejp5e7SRGGJxqN5KiPJAcZRv4uz89gyMnzsDnJzmNx7D2uuXIzWSaVc+YeOm61iqNj8WwZes22l2lXWubNMVOZaM6HcF9d9+IFfOLkKZRLw2BsPAUP5WvdqLTCIv8F0lTNyNLhOXo1F2VnDpdVGbd3YMYHY4wfwI2W0Lb4n/yyV68zzrs8TkjvpOTI1i/ZimuWVqM9MQMgvRQ+aCyYnPMT5Je/iBPx8hEhBcVlkLRSKVCT4oimFSblGj0ww46ZH1ubiP5eOU94ounsfPgSQxF1P5oVASYN68WP/vpA/i3f/co7rx5GWrL/AjzujqmdHZLkLpm+qS2mpGSDqscFNw0H3KCVQRYlko4dUUXU50iVoN1WxedquLK90QuaUZc+VpilUIgS5VtNmLRUVbyKWtAJlnpdx86iT89/Rp+T4D/+pZdNGzT6GaD12O9XB7k5maz8c2moVBDxobGKpNT3+VkjAQeYqxcw8Oj/M1KyjBT9yWpT2teCO4isTg6u3ptpyDt2JNXkI+c/Ar4Q0X0x48dew7j+Rc247kX3rQ5sWfYmPUPT5AcMRBPFgZGp/DMi2+jqWXAFlyqt0aBCIKpwlvN/xxx2gNniNbk8x935VuT85rjSEqrCM5Yfupnau44g7Yz3QSJHuuZLi0ttCcENqT7MrwCcjIi2nNfRknTlwzRWMGn3Hmxnj0zrxKNyum+PunzuUcNLptc+PZ5SHH+qjoA4tEpm589j0QkERu3Q9Aktj+9nmGctPh00cJ63HbLGmQGYYBe8XWeS/rMPzLQ+r5h9UL89lcPY+MN15nhFpB3DLfuaj0GgTZJgp7PzckyInQO4H0NOfcm/ZEhdkIhqCMw0I+pqUncumkdamtyMDoxjuLiIJYum0d8HEMaicOrr24msWolYPMZGTSimEy/eZD8JrGeRoKfkpJ81NSUs8zUoz9tU1PSmKaoAF7AaztTOSJ/zr//eaJpIRrJIHrFxHg/Vi6fhzkNxQRK6tFPEqBkQ5cVDjKtDpjRdskCW4qnSFTD7BojWzNMi/Jdb5yLgb7wUYEc5fumG5bh3/32Efztr+7Drx+7DbOq+SKbHz9flI/n5ZwPlsep4jrd0o7DR05h34Hjdur0CPN31qwq3LpxtRFsv41ynX9X/qTKS+sXtHYnFNDCaMVJhHkGE2OD2HTzGqxft8TAvOqH4XF5k9Qhx0vHp6wsZ7OBGMvZ7it+bJK1BkanzFeW59Ov62hbZpCfG8RDD9yB61bNtfZZ/V+pUTN5GYnF6KJWDZ2easWfYglOxfxS0RN63yFRAqFav6Dw1cudWjvw5cTx63LOdFu6Sek804WR0XFencYdm9ajNJ8kYVYpiW+c+deLTB9jy/o8MUpyihjuvm091l87z3TCZ6wilRYn3s6/T4uumn2lPSwgAamqKqOeTjAvA0aCWlo77T1tbqGzOhxoK4vn+E9IDh14mZlVwHqiA/8qsWBBJds+6jQVWnksTdNI2PYd+5iuftrOLEyQRWpWgdIcnRjDHTdfj9Ur640gmp6ofmr0lvcDInhU5qlpEhC/z04QV46npk2nJDVldHhEh70q1rTRLPexSAzHT7QZSfJ6Q7Yrm6aebdywVDMgSZA0HZzv8xWnJBhnKwumlEEkND2OaVE7LNKkMr+sMEv0rEYFu3sG8PxLm/HEk6/ZrnQTcU049yI3Lw/Xr16Bn//0Xvz0kduwZH4pwipLBiSSpXDFH4200ssEMYtt7uHE0AJxUp1Ku65dIIyD2mx6Y0+ktMCV75ew/Fk1XffXOVYa9RDLRK9ZvRLr1q5CLDaKyPiwGYBQTh58mflo7RrFm+/uxT/+64t4e/MO1iANoc5gwfyFKCsI8m3NPVej9OkwZEBiZCHDI/RTnvKabLjIiBqNc8+yUFV1PX4/etiwxhJ8l2To3c0fo7u7j/74rYdK81O7unvYoIax8pql0OLhDRuuw/oNq3ktwAaQBoeGZ+tHOxFlQDNsLdRX44TDhjYV3mc4ieCENZ52zYnz5Z513XfPsbD4SUDD7wcIymSAZZi0YFQ9iLrvABJqLfXEIR7Siy/WDTnHf6kEP5P/dEGGSeDYDNMF7tL3L3UymNopRt9vu3Uj/uY3vyDQyHbimZrSQX/Vo6oRmvVrl+Hvf/sYHvnx/cjL0SJ7vs97F/pn3+nD0sW1KC3Lsfptu3wRMPAWIjTq3d39zvM07poKpu9O2r6eS6XV/LDQ+Y0gUNc1j/zmm67HqlWzbZpbZihk+XXddUtQXJJjC091jkhTUyv82sqbdZyxNV8c/530WRj6x7RotCVAJDdvXgMfUu+qziHRzkokdfSvtLSYfuc6hzBa2uXPZzkBbOeZ2Q31mEunxcPzG6qx8cY1dt3uM2+VPvvPa5mZYet1d3a+UYyd8tLo2Xw7VV2jZ861z3T0U6NwhfkBlJdkIm2anhOcaRtn25b2cu/wEQZ37nd+XqGNMghYjY4Oo2FWJR5+4HY7WFbTY9TrevH75/MkLyeHANWPkZFBkpFJJKJjmI6N4K7b1pLAruA1HebHchTh1XuX1BPHH9qKcJjtb4hkTXPjmU28brrNHyoTPXTzxuvwd7/9Kf7m1w/T3syy+xptTOmsyLbswuDgGMtQrzDv2IZr56oLw/xyjvFKpvFKO5Fela1O9w8GM3Dv3ZuwbOks2sRprFw6G3/zqx/b2RB//5uH8LOHb8d9d67Fb3/9AG5at4ik0CFm6uygb5f1/3JO+ayReo0+zGJ9TRf4Z+3X9SONJxDVzmceImXTzZRz3g34QzayR3ZP0jvFcl1tU+AMyLPe2FQ93h8cjmD3vsPwBrJYDtpWP+iMEJNIPXj3Rty8YT51k8+yvdL5LQpE/gtNB/w6fDVknTpaV1VaUmhlSdU51zbIOSRO0xGdjWRUZzU1W5vVZObk8tOHsdFR1FQU48ckqpnUYU1T9cojIz0pv1Lhs4z5T35Na+iN36WjatvPP3veiXhpBkdzcwv+8Mc/Y/vuQ0z3JK8FUF9dSTK5AT//yX3U/2vRUFfE8mLbwrzV1tDUaKc+S6+SbYH8FAFxOi2VF3wW2kFMZaaRFucZ6bjuK69NREBE/nRPzyT9ct33x6mZc+UKiBko1oggG5H7774Zv3zsfixaWAdPehTjI/2I25aA2WwgitE7EEPrmRHbS15bOYbC2Xhty170D46wIqlHwqlgqm4S1lv6D+vVmJiYNHKgBXVqxJzmwnlSIybaOtXr14FFaegdmsCZngief/EDvP/BLlZ4gQsPJicmMKu+Bv/m3/wMv/3tzwjEbsRdd1yDu+5ag4fo1ly3HBPjI2xEg2jv6ac/kzafVb2t6i5Jp9+puF0kiidvBNggWg8jG1obNk7eduW7LJpKpV2oHI3SOgdNvTh+sheHDp2ivgnkJlBaXoK8fA/tsNZb6NGvX7pqgCSjYyMGsGRY1Dka9OssHOmSwI8ThOmTKsLniOyrLWzNDRIAVxiItSDolCrHT/UYyxAmUFaUjXwjIM71S33Xq8oDTYtwppjpqs4FiZHMe9HFujEwPGH1s6q8AAvm1Zofqcb160gqiUqrysPABv8JbNx4w1rcsGGR1Sv1yhPSGgnJC3uwft0KloezhkI7f2m//WkafU0t00J8a+jN82S89EGn6Xaa/6/RozISmekpEgFeV8+uzjdaML+eIJx5wDANsHyBCMwpzgV5Ifzq5w/i//5vf4HHHr2X+eyxkQxGz8pETuUrKS4pQFaWn/EnUFP7wjZKB5XNrq9CZWUW4z1l8fk8EQj0aqH3TIJciqDMM2Nhff5rTmanymrO3NlYuXIJsrP92Eig/+hP7mQ6ND9fflOZkmVzoRioZd7k54bw0IN3YeHCWlSUZdki8V88ehduvXEx6XsCQS8hlfSC71yu9VQclHatJSgoyKPCarumKYTDQdPrKRIqgbd06rdG2cvzgyjI5jsMW1FT5JTv1ivPjH7zrQ/wztsfIBAgeZ4hOCURkS58V8SpIyx/ZsXGjWvxH/5ff49Vy2czbTpwTro3jfkkgRuuX4yqsgBWLqnArdT9OdQHD++JXFouXqZMvkgEVtWh0tBQZWeqJEgaM/x+nG7tRFuHOhU06iTdlGMofF7BZGWR3DLvh/q6sOnG67CwoZgVw5nKZOWXjMzA4JCNUGj9h3r6Y+PDyPTP4CcP3Yabrq+3d7Qhg95JaiBDIih3UoSCQra1JGZab1dbU2Ig21kvej6xpnf8LCsrhj+g6YADfDtGoO/gjQjdkgX1+NVP70Z5MUH8dAI6P8XWxfA9dRDq34Ui/Ymy3knkv0iCA/o/LXpWom2VBwb7aROysHjxXDzMOqD6vpFEsbKUDYemVFl9lP6xPWUcnFEjy1kTlYckSozkTN/WVt5B7N6zH1s+2E/d5yU+r7bdEem5811v2veLk+LK90i+2Kq48iVFvQusFKxdah6WzC3DL356G371M1XIZSjODSA2NoixYTYWIixsoGwnDhrPt97djNfe3Iq+oTGngSBwv1BSFX5gcNAOgFLjoaFan48VkPdSRlSv6boiQsiAiWgCzz73OvbsbYQ/lGO9FOodmUXjvvraZbZwuLw0y5RgaipmW0gq5HDIwzioMdLe3NM2pD8Z17xTATg1Yk54l4riqTt2eJhE8eI1t334foiG3gXm1AOuchufmMFHH+6gkQjSIAXMyM6bPzc5R1lOJfvlSle6wf8XOP6m/suUDA+PmIfqBfP6vMjK1GJmR330+eXEiYupHHV3WtNZkkZLd/RNn/oro6deWC0WFWhLNYKfFZZGIQU0HF/OS2dXvx3gKGO9ZvVy5GQSXyRY89Rj8LXFIR0pUQ+4EpVBpLlgwdzkughnvZmWEWhdjdKxfMl8LFowC6OjfXyWRIAkaTrNA18gTBKSdVHMnXxwPgUENU0on8B75YrFGB0atLRGJyaQn5+DhQtmq9PW8uyz6v2lojKYIvjweWfsjIgQmwPtlmQ9+xeICJOawIK8HGST6WiNQCjsnIquVF533SqbZmWt2ecGrRcsNcx76nBytEHRTd35PEkBupxMDx548Bb8+tc/xu2bliMrSC+YjnNA7DPioA4obYJQX1OEnz92L3726D348cO3YsnCKl4n4OR9TWlSffns1pPxZMIFWvNzWV4WLpgvJGG6p7eNtKlHm6RUOj4dN5Kcqoc6TVy9+vo1RFsyNhbnZS9NjNEXBEjuHfmiHLk6YkSEn+GAB3kkcZp+p61ZRU7VRsSYpzonQ3rhOH3XmotkmvUQ/bDZAF9BVN5aM1VSlGWdcWNjI/Ayb7T17sgo89Wekp9yjA/1VLa6vKLIzjbSIv11JEfM7iSxdMKXPsdpRysqilFfV2Enn6dNRbBs4Sz83a8fIpGqRky7WLHMHEspcT5VD5UctRwNDfW0oR6sWXMNyTtpmXQh9ThFpae8UwdfYWEmbr9jI7JytOB9An5PAnNqy3DPnTfh0Yc3sW4RZyRirIvSv5Tom/MrZZ3tl/4wEsrOVPus0Y7z4rwjUVr1zOLFi/Hv/u3f4OckHj95+GamsQrZQZaJ1tFQP33J6bkpwmWhnffGxIkBy5t5o/ZT+aCzpbq7etB49CTtEVGJ3tcNvuzYEieeNn2XkvLDle+f0LawCrnur3OGE5zvauA0/K81riIk82YV4/67rsff07Ddffs61FYV0hjHrWFJy3D2b1ffVlZuMRLwO5XN8VD1zfwUUdHn0NAIJifZSNJvX4AkxCaga7ctZ06+egJziYQ8GX6rlDLwOschFMyxaQZj44MoKc7Cgw/cxudkOOk1n9EMTjaBRjAENiLjOrWVjc8M48KE6DA4LXg73dxmh45ZrySfs6jZp9KtH87vYHJetO2+Yq2n84zrvotOZSbnQUdnj+2SppOt/QG/nfzfdLoV4cxsM9RVVaWYP6eQup2aHkNIdc5dzm/HOUaDikaQIWLAK3TO9BYBqqHBYdM9fVePc2Z20ICF3uWfi/z6fOfEQ9OvtM2l6V/ynoHo5DOqsAI6SoNAvpGSc/cvcaa7mjrgpFe1RfUrSnDZ2tpiuzCtXL4QywgwNI1EUyi+KD++0Fm8U4aVX4wo8ZP1VKBHddViwj/OiAWJP4nHLTddj5ysDJLHAWsLphIT8GXEUZjjHCypOnppWEq38iFGprHqmiW4QSMq8RG+48P9P7oZJYXMR5afM6XpfF59Zn4lnUa2NNVFQCmDEdSe/4r3hc8oPurF1Fa1y5cs/P+3dx+AmxXV3fhn+9I70kVREEVEFEEi2LAhooANC0aNJebVv9EkJrHENI3RRN+EGH3FWLC3iBoRe0FUxEZUrIiKYkHawvbd5z+fefa7XB6fX9u+cL/L5T7PvXNnzpxz5sw5Z+Y+v7J66fVl6fVXlSXXX1n+4JgjyiHVdg5Xc4ZBXffZG4/u9SGN+d5YtvbeRMewvP601E/tq5+VrZFZ5fWg2ljOXWt95LnuIcPrbzItr6WWl512Wti2nfi1RD9F6t2KIc9C24005jBvgHK77rJzpcNfs/brc9u1cdHti1WNeVUH57Y/BqnuYb+daQ0dOeDWBzSdHbq1HEF/LHFBe74WvMnY2JwHJR/ahzp/VXqHv1Jnxaz2cd78tuKYw5zUEiWVV2vY0fgyrt5JD7am6nP9UvXsbuVWu21Xli76dbnjwQeU2x20T6uUOOrttc/Q/20Wzmo/VWzHgLm3/cV5KzKtoAeG9W6zYF55wumnlCc9/hHVOT+pPOGx9yv7t1UBL44P7VL0oTuOPMvu2cb4nGc9udzjbrdv19mUoQ7dWN74wiMv8x91t0PKs55xRnnGUx9b/viPHlfbPamccPwhbVcGe9t+bav1Zei4pz3HUHeQPvxuS5TPTS6VE5JCw7Keu/HZri25bdW1A/fbs9iQbnu5x9sfeq3yop+t/Jpj7fPdc5Ol1d7l9fllVQckO4c833+/fctO23u/bbhlTrlG2FDwa47h8/2xdR5Dy9djPVFHQefMMfDzo/4mlr3AtlVwDu53/GHljCee0v7yrt9wN4k0Z78O1OuXrS7ved955dIrlpTVs+dWp8CUuMZ5q2f/v+p311UjMbc6WQvLLrvsWlbUi8tXeIHRMv7cctXVy8uXvvStOpDR4Df2/QGnhc0RuGHJNeUOh+xTnvzEh5YD9tmuCn51WVgNafu1Igau/ps/d2Gtr5Tvf//SMnfeNvXzqjoJ7lT8Zebzzju/vO71Z5cvf+VrzQbo0++jWYeycEENguqkMvzVmaHhqxfWcqnHlgOGn95eeunPy+vf8I7yprM/XH5WdfCL37is/M8nv1jmbbNz1YPlZdcdF5ZHnXzfUn3TMm/gj0dVA0K2a46JMNxeY3Kuk68MddW1eqUsrbq1ZPnqcunPrym//u111blY2P5IlZ+q3nWXOmFXmMzWjqw1BmtiuJcjztewvP8zdA5U+wcpPSkaESkpoHKxTqz13/KlN5S73eXgcvKJx7TVIc72pCROF7UOY8fPDC+oE7Gf3Z0zqzrFswVwQ5Ja5FHPPrdf9qrjcd+9diiPPO2B7Q+nLVvymyqnq8v973XHsvdudTxW56A5TB15tWrqYfyrw69/Pfa0+5UXPPdJ9Xhiudsd9qh11PFcHemUHT0mAqc4vw7FofB5nPysMsF97nX38tQnnFruc/Sh5WlnPKwGQEe2X/FhQ9mmiWWf6+MoiqQnwlAjUo7z3v6IbNXQBfOqE1zpVqLp+qQVDevgdPnDg55fOHdW2bZWNszap4UcE2DNrZ22X1i2r533B+xk66EliqrMyXtcDerPP9hnrz3Ltv7qeP1OtgsqI7ffbkG7RzbNad4CwJn118rn0492hW4Oe4FCTmow1IE1332uR/o7UzR7VAfzrffZqTzvT55Qnv/HjylPfdxJZbdqeozlYeCrbhwc6r8gWiBhO2Qdli1QcWMYABqjgqj6dJ2zt992bjniTgeUOx285/Dl+focnRqSXammU2tqbj1oIvF5ULavenObvbYrO7K19dbcam+MgTXNdc7GVT3Xfuxdx/wh++1SbrP3DmXHbfgdtqzZ2ubZYdmhNnty2GZrdy2GCYHlK2yzrd7BGrstEJwIGZN+PcwKVY2vavBR6dRMBze2eiPosWDD2c4P95YvW1LngCVVH6q/s2pp7feg3Gb//dc8z94N6R6uiAzbb9+HS6etgTWfemxFGFGXHusOw2EInxyyDMO97hz2Qbni19eWD37oY+VnP/9le6l06bLryw2Lr60OvZ/i26Zcc/3i8tGPfbosq4GAAWdh3T+Dza/KXFvvz527bTUS88s2221X/NLj7NkLytVXLy4Xfv275W1ve28NFj5brlu0tAx/797L7MuqQVlW7nP8PcrjHndy2XP37aqFWtEMPwypNnqriaonL6//5je/q8/WIKYaol13272cf/7Xyqc/d1HZYae9yr773XrNE8MnbwTnZnjNT0HOqxbJXtauUegNxJaHYfa0Thzt9/fntz+sdfY7PlQ++JHPllWzti11Lqv6u6w62vcpt9m3OkR1wuE3jkp/HDKRXfHrK8vHP3V+OffjXywfPvf88v4Pf7K855zzylvefU45+z0fKdcurWNk7nblhqr4t9prt7LrrtvXSW1500ftxGmeHoZPDE3bkMpcGX4bovt5JmgZ6/qwX7B5xMMeXB7/mIe1P1TGz7jJz1muB9o2iOr42/fuHQ1/6HR2GW5tuCnwxbizElKn7FWryqG3v3V5+pMfWx5e5fXk6tTbCmp//do99BOg3ZPwqLZqt50XlO0W1LFbnQN79N2b7NnfR54Yd9wUa/yY5kjd9c63KSefdM9y+J33be8+cEZutFK//+yNmKDuzjExbrzr09BmD4NMV6Z+PmhP1+eH2XyrF3l2es9XrAkMdtxu2xo0Livb1aDBryMJSJuz2WQx0VgYyskvj0lY7b3PnuVWt9qpLLr+t2XJ0qvrmF1Z9rrVLmtKVkybqE0D3Joet1PmxrJTPTERBA7G2o7bzS0H7rtn2W5eDfKr3g3tTreN4eGf+VxQqsxN0SlHBrXebCPzQxbDP/qXMhNDG8aC54bpmuE1/8bBVYGuv92S9oxbP4eeAO7G53OMoCqE+35ExnsZ6Od3eKeFvRvqy9DWjD7ONxn+MIlkauzTjW2NtpY7XYSX/sq6P7goGLMleKeddix77bVHm4Pa6swatJ8urzxSewKSNaceWyGqnlZR9sdGOQwQ+9y3XbBN+eGPf1HOesv7y7cv8Vvy25ZF111V7nnUoeXkBx9fBituqCNredv/++NLf14uvvj71WmwX9rAM/tUA1GN4/XXX99eSm97VOv3X1+zsnz8418t73zXeeXd7zmvXP7L68p2O+xZ5i6ozuKsYRDgl65OP/2U8pAHH91WPhjHee3F1S6tw+Vwn3/4o5+UG5Yub8vC8+bPb38cyzslqwfblH32O7Dc/g63qZ8Znrm1/OxOHfWodDp7mXL+/IVrDMOwTP1fM4o3Kd8fm/2QETSB3ebWe7U9yMuX3VCuvUZgbGl9VVly/bXtl06OuNN+NXZd2X6B5ffkPsGR95W+/4NLywfOObd87FMXlM99+dvlS1//UfnqxZeV7/741+U31y6rHvT2ZWnVk5VVD/1K00Krc9WRa/utqY5/a+rcEg56LLO4Ww2WttvGC9eVXp5AxbjyMzmas1L5JoN533sfU3bZaUFZsfzqcty97l52332b9oMT2WN9k6P+EwT5y/N77rFjue8f3Kkcdqf9h2NVnWvLkt14+XlPpv3KXx231UzU8Vyd8eqEjCu7MQ5bQewJ5wxpt/5vbLmb68Hhs9a1961uVW61x27lgP33Krvsuk374YChzCeWXY62zaja/YULZpcTH3J8uXPVgX323LacdOK9y957bdu2Uo7Vn1voIVHnvbC2JcwoWrNiN9FBRo5x97qHMZdtZMbVuDITHrV+z01Fy9qjljcf37htbfo22lH/V21a1b02/gRN9XPVIb+mph/Dcht/LPpDlfyFBdtWna8y2XXP3cqOu0qECU7SvnMzte27L/41m9zu98fWdsx5yUte8tKhSHtsSAx/19s2qnnlU5//Rnn/OZ+qzn110Hfctdyw6Lpyz7vfsZz6sGPLwQftXhYtWlZ+etkvyjbb7FiWLF5a5s1eXe546O1bNlSmxt55f6zswov+t/0143kLF5ZLf/L98pWvfKV85zs/LTcsnlUWbrtT2Xb7ncs1NyxtL5PPW7Cg/fTh/vvtUR7ywLsMt2NUB2UhJ7LlNqoCNEqrw2H/cXV6rrz6hnLueZ8v191QDdE875XYpykLN6/9ZO+DH3yfsned0KDldVJBwOmshnPJ8tnlu9/7cbn6mkXl9rc9oBx68L6tHzJIv/9Qj82HqgdNJFUjqnG/9a0PaH9VefGSG2qgWsp+++xeTn7o/cs97nabqjt1UqqOtrLtoZtg3DWxc9XbOg5utde+ZY899yqLly4tNyxZZrt9DXC3qROLX3lbWJavWlmuu+535dijDysPvN+dy+xK1vyq87ZLNI+4Vf/79W9WIKdOlMhqk1/lpfOGQJNH7feeu+1cjrjr4eWeRx9Z7niH/YqFEEflTBPdkOX+V481Tde5ukJGtDK50scpRdZ0ScvEkEl/U0ECA62OGx2ONTdvKVjTZ+PszocdVg499OC26mhv/FC3cozDjfeHztig7LbzDuWww+5QjrrbYeU2++3S7tKfTSnXrQHdoOKWCMkitvq6GxZXH+M71R4LhmeX7bffptztrndsP9DgfT58Yn02JJKoFTiZH75x8f+WG25YVpV0dXngA+9V9tt3p5ZY8c6gslaiFi9eVi76xvfK0uXeZRv+naPDDzugUTb0S6ocexXfarBhNapHg/c4hu9yzCn/c+5ny7kf/1KZNXfHGiTsVJ2ta8oRhx9cTnnE8XWc+fm6QTnunkeWnbbftqxY7g9KLSxXXX19WbKkfjaQOGH1Py9mtQxFrdZPWF6/eEl1HOeWXffcuwYM27T99YuWLil77nOrcqu99ygrly+rk9esGqAsKtctGm7HmC9T2gisBreeWvX+VVrV/aMf/aj89re/G77I1q7XwV8/X7/4+nLQ7fYtB91+9/byZrPVraKbwuAXey1cuKBtyWI0Um7YYo8tC0OZtAm4ynvOnNXlfvc9sjz5jNPKU57oD749rBx52D4tKFiXAFJxz22/zexy/DGHlSc//pHl0Y84oRx9l4PLHjvML/NXLymzll9bbrPPduVRjziuPPTB96yKPnyWj93+37YBbGkQngu4awfr0TYdNtZsKFqHDpFfrdpxu3ll950XtC0W+LlWAms/DKHlHJyF9kcj59Zifnmix1YDYmU2vVNQzSj1og3DmzOAJ7wLOH/OoG0XbEmgVlePHl3EatgOtbzpjNUhc7dfubTD1N2NpTfsnPdO7NC4/UEHltMe/uBy1zvfrp4fVA47dP/2wzntb5tUKoY0DFrZNkh8q6fma9Htdvhfu9VjK0EfhGxgGLwGiT2S533i/HL+l79Vttlul+oYzCvXXnN1OfxOty0nPfTebeDMqY6Clz5/d+WVxlaN9od/mdZO6DbE6oDiUPhLvH6t6J7HHFW2mb+qXHvVr1oAc/2ia8uia39Xn1lVbnubvasDeY/y+Mc9pNzhkFuXlSsWt1/iWLpkeZ2A/JLGcGSa0G4yTmtDjM6SZUvLdy/5caWdAzO/Xp9VFtSAyEtnO22/oBx/r7uXbdUhI6KCcajX9d9L8v5afJ0GW4ajmY+Jnumx2UAiVcPa/xlvGVe/077j9vPKPrfasermYM0+3WHJGw8YPY9HC16qjvmZxR23nVOOPuL25fTTTihPO+OR5TnPfEJ5zjOeUJ70mJPKA4+7S9l5m1ktkyVgHr5s2LS1tTB5K5sHtiw6NoZu67Wsn79PsmLl8Hf2f99YDzmDU3W4tmM4uGvJHGs5Nyx749FjS0PT9Cq/jDcrXu3f7+lXZDh6/UbQifa+FwetHn4coFXbo8dNcKOOLVu2otqbQXuniX+ysP3hzti4aOPwian0bybg4zjMFX4V74mPO7H8wdG3bz/uML+2r2VttTfEml1Db50p6mUpIPDHOJUbrgLeSGmPLR9VZmuE1h/rfNT/DR2Besgk2Jf51a9/t3zy8xeVudvsWlYOZpfrasBwyO0OLI865YSyy062HswqixavKJ/4/DfLez/wsbLE74fPrk7fshvafuAdtp/TfqnK0GovftUBeve73q78yTMeUx50nyPLMUfeudz7mHuURzz0/uXpT350+aM/fHC573F3KAfs5hdl/MGxldWpnNsMy8oVa7II0gYZm2tob0ucs+aXX/32unLZ5VeW+dvuUvyhplllXm15dllV6XngfY8pB+2/Y1lVHcl5bWJT2fA0PPxzHg76bWr8seO2w78sO3x3pN5b80yPLQfkNZQZAQ3VYujsrqqiW1F1yL7gqgtWI5po2/8mOY8H+Q//SJX32lfUCcNv9G9bDthn53LAXjuVPXacX+asXF62qfdNPPXUJqX6v/rw8NgS1af9TaBKGHrraBpe3ACIXTGh+pWeoUyGqYnWCobiSwdNRJjUopGcuzS1i52jx5aHKpeqU81MV2H6Naw2s/ye8fQ9xzjQRjq0xsGjS65OVLzHLRJNRzpqtHzZyrK0Hn6URjJqm4Xzij87Zvvs0N7caE+aCWoHPVu/gw/iLEj23uHsVavKrJUrq6+xxubVttvPTTvXK0urr7R4ydLhdfdrwLQqP9Z5k7HSK/zWgFlLlizpJbWeaAysA2K4AjK7XLtoaXnTWz5QrrhycZm9YIdyw+IlZf999ihnPOHkNhn8+opflJ9ffnn59nd+UJ3/a8qceTvU5xa2AbRqxeLyh49/RDn04N3KiqX5RZzmFrb624tnlkhro3XcNlS/rhoKf2H5hvaX1L/4pYvLOf/zhbKgBhQrVi2tQcrp5Tb7blcGK5a1bRrdgerdlfnbLCyfu+Dr9Znzy4Jt9mjBz/x5C9vL88fc487llJPuUWbXtv0V4uH2jmHDN1Gcekn2ZNWKWm7BwvKBD32+fOJzF5STTnxwecgJR5RVy5cXf6l61HnqccuDSYeuDNVwOMm0oGMt1ii2e2s/9ejRo0ePDYVmW6th9eK3dwEv+tb3y5vf/tGy/S77lSuvurIcc9Th5TGn/kH7SeIFs/2RSL5D/S+Ox0aBucGckDaGiTI/2OBXsfzRxUsuubS8872fKivLTuWGJYvLYXc6sDzhMfctc2w/rJ5S+4lh9Yiw+olji8es73znO72Y1hGGSXOT6n/+aJBB4helfvaL35RPffbrZUXZtqwYzGl/E+SA/XYvO+6woPzuN1dV535xjeSXlLnzF5SF2/oLwbPL8mXLyuoVS8vRdz+s/e2B1SuuL/Nmr2qZgGE+QMCwqg3QldUozJ4zb037Q/EJflatWla22Wb7cskPflbO+8xFZcH2NZCpgceJJxxbbrPfjmX18kWlLdGvecbZL4P443Rfu/gH5fwvf6dsu/3u7SeCl6N53z3KA+53TFkwp9JaaZnTAhDPyl60CkYgI7GyLFi4Y7nw698vX/jKN8qx97xHuefdDy3LFl9V/PGtIdd69OjRo0ePHpsLZmLHSs79goXlkh/+vJz36W+U7Xbdr1x9zdXliMMOKve51xFlxZLfVR9gVZnLD5FAMv+v9SE2Nob+As8DnQvm+0vqV5ePfOyismr2zmXF6pXlwFvvXk560D3LysW/a0GI7KxfD+2DkK0Ds77xjW/0Ylpv1EFJ8atD7y+M/vJXV5VPf+6bZTBn+7K0OvRtAK1Y3P5w4fy525aFC7Yvc2pEX132smTxDcXfEdlt1+3qoL9dOejAfWoAsrj4a72WGVug0Aa/dmQI6vDvRAASBr7KHPiJvfkLtm1bqz76ma/WAGhhWVnbvM8f3KUcetsaXCy+uv1l3+7AbFmHOfPLohtWlAsu/Fb57e+uK3PmLii3PfDAcpfDDqn0riiDVf6C+uxKT1dVfj+YYJpWr659XLBd+e4PflE+9YWvlqOPvlu5++EHleVLru2DkB7TRPSMRuVTjx49evRYX6ydhesHFrb5LQsWlG9fcln5/Fe+V7bdab9yzXXXlrve+bbl2HvcoQYhV5f5s1ZWL4SzMXw4dnlTYBj0zFobhPzyit+Vc8/7epmzcM9y3fWLymGHHVjud9zhZfn1V5YFs4c7NfqVkK0HsxYtWtSLab1RR6UggENfPy5dNihve+eHy/d//Kuy3c57lGUr/LScv0zuRdNBWbFiZVm2fEmZP39W+xnFo448rBxeB/xOO8yvDr9tS3Y+ejF1+MfPVrcApw6uNqgyJIdiSxCCBr+AMmv2vLJ4+axy5lnvLr+5ajnKyiNOPK4ce9TtaiBwTfvlq99HbW/OvDqgl5bLr/h12WGHnco+e+1eBjaD+uvYc4ZjebizeIy6tL3n9fosKyHLWyD0zW//tLz5Hf9dTjrpgTUIOry9W6JfjeAePXr06NGjx2ZDm4mr89C2OS1cWD7xmQvK/3ziazUI2b9cu2hRecgD7lHuc9ydyurqq3Du5/AAZg13ZQwf3jTQHo9nRQ2WFi6YVy688OLy/g9+oSzYfu/y2yt/W/7g2DuXU08+rsxZtawsnDP0VGxf77F1YNZq+3F6rBfaIFmzSuCv286qwcPll19d3vvBj5XLLv91mTXHS9o3viS4y647lQNvvW856MD9ym0PPKDssdtwP/zq1Svbz9HNGjPCh2siw7E/vHtjIDJsexggtD9OVp39s97+8fLN7/603ptdTnrIceUBxx28ZiVmXntmFG2PvpYrfWqr3aj11Lama2zWEGf717x5C8pPfn5lec2ZbyinnnJyufcxd2qBV3sfZQ31PbZs3Lgnt0ePHj163CxR523vmvpbZOd85DPlE5//Vtl2x/3LosWLyiknH1/uc8xtW+J0AV/A3F19jZv83sUmgHa5F8urE7RgTikXfuMH5ex3nlt22Gm/ctW1V5XjjzuiPPJhR5VZ1WeZ17sYWx1mrVpVNazHemOND94+iev8pdGly0u57GdXlGuuvb79UuKOO+5cdt5557LjDvPKdtsOwwbwV4L9MtbQ8buxpuFoX1OrVZAOEoDcBC2rMajO/txy0cU/Ke/+wCfK4mWDcsL9jy0PPeHOZeWyZWXhvHljHMxhXYIZBsl9GY8EJDNDfaJW76d+f/2b35Wddtq+bLuNv3MwrLdHjx49evTosblR5/fql/jr6BKE73zPx8qXv/6jMm/bW5VlKxaX0x91/3L04fuVVStWlvm2QzRfZNMGIX56F6TKrYTMnzerfPoLF5f3n/PpsuPO+9Vg6Zpy//vdtfo3dyuDFavKwvYrWpXKEX+px5aLfiVkI8GKSPW617wIPkQY7Za/odEsQC0zpw2cDTOyW1Zj9uxyzfUrylve8T/lfy/5STnxxPuXkx9weFmxYsUwCFlTduNBTx2swbCPN4ZcPXr06NGjR4/NDX8sWRp67txZ5aw3n1P+9we/LHMX7lr9lhXlaU95RLndvtuX1SuGQcomcBzGgytR3YiV9eyXQT/40S+VT3z2q2XHnfYp111/VTnl4fcq9z7mji0IWTBXsFSxuWjtMWPMGmQfUY8NDgGBX2nwrsjQF58z/CnS+n241cnqx4Z3zr2MPmvuvPKVr11a/vP/vbWcdNKDyqMfds+ydMXyGoT4a+gbE0N1qj1uy7j+8NZwBaS3Cj169OjRo8eWgsEqydI57Qd0/u21bym/vW5VWXTD8nLnw25fnvT4+xdvkNrAbafGcArfDPN4Jwjxmuzb3v2J8pWvf79su/2eZVENQv7wSQ8td73j/mXWytVlPscKendjq8GG94B7rMWs6oDbljVv7tz218vbH2yrgbqsw9A53zjsnyMbUAfskXe5bfmjM04rRx1xh/ZOiRfdN+7YHAYgYB9n+0WtDbTC06NHjx49evTYUKjz9cCP2ZRy9TXXlOuuu6osveGqst/eO5WHPvj49v7FnFmDYqPGZnfqK6lIsGpzzbXXca7aC/W2nm+7zcIheb2rsVWiXwnZiMDYccw1Vjb2eFlVxSoQ8INUaDB4fd64Uedob33fFL3t0aNHjx49ekwfdX5e7R2P2W2V4Vv/+/1y3fXLyh3vdFjZZWc/yV/K3Dp1ezN0+HboZpjLNbvmvHJ1KUtXlvLqM99cfnv18krKNmXe/EF5xh89otx6nx3L7OrkzOPkQO9ybDXoV0I2MjJsu8fGhz9vOAxAli9fXVbVwTscmxnRmwqbprc9evTo0aNHj5mgzs+2h1d45ePudzmk3O8PDi+77lS/VJ9hjum7nreIWbySxHtZUSORVdWhsYvEdvcF8+aVhQsWtB/V6TddbJ3og5CNCGNiomPjwlav4ae2BaxKeeO3Cd0edo8ePXr06NGjx5aG5itYaVi5qjr5K8uc6tDPrz4D53AYo2zGuXxNs8tXrG4vpV911dVl0fU31M/zazCyquyxx+5lh+39+uaqYaJ1M5HZY93RByE3czAwGZO2Z/Xo0aNHjx49egT8hLlzvb86p/g7YzyFm3oLm893sAKySpBRz9dee21ZumxFmT9/fg2aVpbtt9u2bLOglml/AiClN/WOjx7rgz4IuYXg941Kjx49evTo0aNHsOV5CS2kWEPW1ddeV1asrAHJHD+yMyg7br9tyXvzwyJ9ALK1oQ9CevTo0aNHjx49emyRsMrh5fmrr7q2zJ49r20ds818n733GG4bGxaruDEc6bF1oA9CevTo0aNHjx49emx5aDusZvnzajUIuabMmzu/rPRX3BfML3vtfSt/9rkGJtWV9dfVN+Wfc++xQdAHIT169OjRo0ePHj22SMypQcbKFf6eiZWQOWXlqtVlt113LrvuPK/9gtdsf+ykjz+2SvRBSI8ePXr06NGjR48tD4PVLQi54frFZfGSpWUwpwYhK1eWA2+9d9lh2xqgFL+MtSYCWXNqiyfDjz22cPRBSI8ePXr06NGjR48tDn75ym6r6xYtKkuXLyuz58wuNQ4pBx6wT5lfg45Z/ur7mrLQBx9bF/ogpEePHj169OjRo8cWhwQV111/fVm+cmWZNWt12XH7BWW/ffZs1/099zW/z9tjK0QfhPTo0aNHjx49evTY4uCvocOiG5aUpSv8QcXl5bYH7l32udXCstL7IMO/qNhjK0UvvR49evTo0aNHjx5bFMQfed9DELK6zG0vph98uwPKgrmlrF5dC3gpvcdWi156PXr06NGjR48ePbYwDGqMMcsPYJXrb1hag5LZZdeddyoHHLB3WSVAqR7sRBux+g1aWwf6IKRHjx49evTo0aPHFgVbsWbNmlWWLR+Ua6+9vqxeubIcfND+ZZ89ty2rV60oc2qAMgpX+gBk60EfhPTo0aNHjx49evTY4iAIWb16Vbn66quqw7qyHHHnO5Q59bptWn2wsfWjD0J69OjRo0ePHj16bHkYDMr8eXPLNgtmlYNvt3858IDdysrVq9s2rUH/g7xbPWYN8tMDPXr06NGjR48ePXpsKeCizppVrl28or0HsuN284rwY3b7cd4+j761ow9CevTo0aNHjx49emyR4KSucq4fZs8SfDiG/3ps3ejDyB49evTo0aNHjx5bJNrL5iKRGoVwWofBRx+A3BzQr4T06NGjR48ePXr06NFjk6JfCenRo0ePHj169OjRo8cmRR+E9OjRo0ePHj169OjRY5OiD0J69OixxaDfHdqjx8ZHP8569Lh5YGsfy30Q0qNHjy0Cq1evLitWrGhH7yT16LFxYJytXLmyH2M9emzlyJzpPArXtoYxvlFeTFfl8K9cri6zZ89u3zFq3rx57XqPHj16dBGbESxfvrx9ZzN6bB6w2XPmzGk2vMfNA6PjDMZd69Gjx5aNqcat+/HBt+Txvd6zi446Vq1a1RyHfM+1pUuXNgbMnz+/lVemR48ePQJ2go249NJLy1lnnVV+9KMfNXvBAV62bNnajE6OLQWyyYsXL2403pygX3iO/7Al8r7H78PcmvEyCrJz3Ti7+OKLy+tf//py3XXXNVmbowWcKdejR48tG5kzf/Ob35T//u//LkuWLGlj13wUsAXGtTHu8EyOLWmcb5AUF2aYsDgOOud7sHDhwmbsGD7nBCOTQR0Yta5gbMcZ4h5bB8huSx0wPWYGspxKfnGA2IinPe1p5ZRTTikve9nLyuWXX14WLFiwUcYymhjm9cHcuXPLtttu22hU381BT/FE5gzPyePqq69u1zOhOa+Pbe6xcUAm5la6GNDHrv2M3D72sY+VZz7zmS1oocPbbLNNW3FUrjt39+jRY8tDxjV85CMfKaeeemr53Oc+18aue0n0/8Vf/EV54xvf2MZ2ymd8b0n+8XoHIenMtddeWz7zmc+UG264oXXUZOb8jne8ozz+8Y8vj370o8tjH/vYcskll7TykzkAnnOMrqx0j8nQbx/YOmGgcHLIlwxz0JWpZN5jy0PGagzgRJCoUObBD35wOe+885rMX/jCFzab8cEPfrDVMZ1gZrpIfRywdakz/Vm0aFF573vfW77//e83e7Wh6NsY0F/ZskxQ42h1zYH/P/nJT8qjHvWo8md/9metb2QUJ1fCaUvu6y0NZEEmX/3qV8tFF13U5EfO2U7nTGfJEa644oomS8HIs5/97HLGGWeUL37xi+1+EgI9evTYcpGxbA5im3/+85+37xDbLOn/8pe/vN1jt9mErl3YUmz4nJdWrPm8TmDcdOiyyy5rTgSmHH/88c1xfPWrX13+6q/+qk1oGCIA+d3vftfKYQAnIMzsQp2exzhOqc853MNEzzG2XYSpyikzUf0bA2nbOYeJv+s8bSpapgN0wZZCE5mByRFtlhUNGFsFZJthQ9IaGW1JMrk5ITof52eUz6537xnLxutBBx1UHvGIR7R7H/7wh8unPvWpcsABB5TDDz98wnE/E3THpIQJA+77KH0TAV3a9+wTn/jE8g//8A/NqXvAAx6wVndT13Tr3NjQVzTLiLHVxhra9MXn2Nh8T1ZcAul73/te+/zxj3+8Obns9y677FK23377GfGtx8YBG2ncmFsf+chHlve9733lvve9b9lnn32arOmplQ5ycpDvG97whlbesxdccEG7v/vuu5cjjzxy7bzZo0ePjQc2tXsYl8ajz2z1ZHZVmZzf/e53twTCwx/+8HLEEUesDTCMYQsDH/jAB8p3v/vdtv3yNa95Tdvu/P73v78ccsghbV7VpvKbE1PO5iYaHTNBZfLuAsN05A53uEM56aSTytvf/vbmQL7rXe8q//qv/9qYy7idfPLJbeI6//zzyw9+8INm+NyDCMABX/7yl8vpp59eLrzwwuYkmBSVd2Aup9QZTQG6fCe8V77yleXss89un9G+sYAfoVs7+hEehU9RJrR16Z0u1KNOx4ZC6tuQda4P8I08OTgyy7Jzp512WtMBW3Pe9KY3NT7gc/g6U3iOjNJn33MEm5In+hz9v7kBD6P3z3/+85st8L0rP/I2rrsBhedk6/faa6+WwHjFK17RxowzZ8oz6ysfNKiHTtEvyRO0zUQWyqPzhBNOaMEH5/ynP/3pWpukj87ZwrQ5gRb0XnPNNc02s78mHfThpcCJPWVb2drtttuulb/yyivL9ddf3z6feeaZ5b/+67+a82objzEKeLm1IbKJnLZ2ZDwIFm2d+/Wvf12+853vNFv6t3/7t+Vxj3tck5vxQxfJjIzJ/bnPfW7bcnfuuee2bZDRhx49bulgG4wHdsLckLHj+/pAXepxVn/Gb3xc44/NnQyx6eaXX/ziF+0a/9tcyobHrqnbuDdXHXrooWW//fZrNv3zn/9822EAW4QPUgmeNqogBrXjg6VLlw5qB9u1KpRB7WT7/LKXvWyw//77D97xjncMDjrooEFlyqBGW4NqFAcf/vCHB3WyG+y2226Dj3/84628uqpA2mfI529961uDyrBBdUYG9773vQd1oh887GEPGzziEY9o5yc96UmD//3f/21l0QToQRfU4GdwxzvecW19KbM5UIXcjiB8mwqewVd90g9Hvk+3jumCHNTdPVwj2w3d1igioxqYDo466qhBnSCNoKYrdUANqmM32GGHHQY1om/lIuONAX3F943d5279G6ItdYyOJbLTF+dNDXRom6zucpe7DA4//PDBtdde2+5Ffr/85S8HX/jCF9aOTXTGvihbnajWr+pANVtSnax2vzrTN+nnTECvoRrhQTX4g6OPPnrw29/+di290wW6Fi9e3D7/wz/8Q9PX//f//l/7Xh3B1scu3zeEjNcVoZNNZo/rZLXWduIzGfzjP/7joDqrgxrwD/7+7/9+UCeqQQ00Go/++Z//efCrX/2qXVOX/tWJrT2/Ofu1rqBD6HaMymlrBL2lv/p1xhlnNF38wz/8w8E973nP9nnBggWD29zmNoMaKLfyl19+eZtT2daf/exng4suumjwf//v/x184hOfGFSHppWZyVjo0WNrBjvABnTnH/ME2+D7OPuwMWyG+e6LX/zi4Lzzzhtcd9117dpE7WT+u+yyywZ3utOdBjvvvPPgz/7sz9o4di02nx/MBrDhwIb/0R/90eBRj3pUm3/VvyWM9SmDEB3+8Y9/3BjTJbhrzMOUV77ylYOddtppcLvb3W6w++67t+M///M/2713v/vdLQDZcccdB+9///vbtTgFl156aQtM1KkuBwNpcjzuuOMGBx544GDfffcd7LHHHmudVEGGybTbfiZHBpVgvvvd77bvFGtdECGNKoM2YdGiRc2If+xjH2uTPIfEBEDIp5566uCkk04aPPCBDxw85CEPGTztaU8bXHHFFe05/ZwMUykGvikTOqaL8Jc8n/WsZw0+9KEPrbkzHnFsI+cNDX1wcHJOPPHEphv/3//3/w3e9a53DS644IIWuB5//PHNGXrFK17RnmEcZkIL2SmvH1/5yldaW0Afn/e85zWdcV9f6XjqnsgArC8i25/85CeDSy65pH1e37a6/NBPRiiywy/GZ1M6XNpJPzlG5PeRj3ykfTdm4M///M9bwoIuAp2eSK4M9CiUnUl/wg9O2BFHHNFs0cUXX7z23kyBp/Bv//ZvzR6xVZB+u//1r3998NOf/rR93xAyVoezNozlrg2eCJ5RDj2vec1rGq1sFf27/e1v34J9wQkZCfaPOeaY5oyy5e4L+gRqL3zhCwf/9E//NHjta1/bkkSQvk4HU9G5MZF2IwO8iB7SifWVzboATdrFw8n44v5k+qmO3DfHzJkzpyVuJP/MR+ZV8076y9Ehc/Oqvn/mM59pct5+++1bsB+b5F6PHjdnGDvmxRyjcN9ceuWVVw4uvPDCNlbYw9ybCVKe/yEJxgf+0z/90+Yn3uc+92nJoX322Wfw2Mc+dvDrX/+6lR1nX9WTsWkOZbslGth1x9/+7d+2e/yahz70oe3a29/+9pYku+997zt41ateNfjc5z63dv6aaT82BsYGIYxiHGWGTABgNeKJT3zi4MUvfvHg/PPPb4yIIQ1TTMSMIGYKFv7kT/6kdVYZTE8Q8t///d+tvHuCDY76rW51q8EHP/jBdr3rkKib48BhsKLyd3/3d4Ndd921BTsmU4hTHmP8zGc+s9030cI4BRsHbaYez2jbd7yIQiiT/r7pTW9qAdLd7na3FpEecsghTZkYcw6We/rFwFOGF7zgBe25BEvjEKXgeOHHX//1Xw/++I//ePAXf/EXgze+8Y2N9ykTOqaLZKP/53/+p9Fz8sknt8nJAOMkcvrPOeecFlR94xvfWKsD4wbDhkCCUHJM8BqnVNucOPw0qSaYncxZHYfwyEqLlTVOFPyf//N/WpD885//vLVFJhwth/rpwEzamQ7Ulz4/9alPHfzBH/xBaxuN62IMQp/nGZZkuIHMyLZbL53Wr3VpayZQf3TGqiVd+5d/+Zf2Pcbvuc99bpNrEhL4wNn92te+NvjsZz/bdJH+O5Qx1jjR//Ef/9HsQZ7Bg7TnGNc318L3JzzhCc02acOzxkRXv5VVr2MyZAwnCGHc8ZttMxFYVeAIHnrooYMf/ehHrex0xyt60OZMXg7PRlfST0fuTQT1xP5Z9UCrMWCcnX766Y2fxr7A4ktf+lJbAVGviVF2DaxCSaRksrvrXe86+M1vfrOWlqkQuh3ojdw2JcKjT33qUy05RD5kliSEPm8K6HvGoc/4NxEPp8Mjz6rHIZFDPlYfE0wE0X/JF6sgr3/961v96DDm7nWvew3ufve7r7W/k+lUjx5bC2InR9EdW+4LNqwiSCpLYp911lltjuLzct7tzJHYNp8lWTkd2wfqN+95JoHBLrvs0nzDI488sgUekj7GofGYZ8YhtpwfKCk/a9asllB45CMf2erNqgffiR+eRN9//dd/Nf9Hosn8hw7BznRt+MbElEGI5SGdFIiIunR0/vz5LYqLox7GPfvZz25M4dzd+ta3bgKN08GZEDwIQt7znve0ayZt2wCyahKHhMNocqAYMbKAaQIW9dji8f3vf7/d136MbJagOJPgHoHqU85dRJmU05fR+10B5V7OMkwCI87TVVdd1SJmn13n3MqC/vCHPxw85SlPabyzlcx2hokEHzrwhZLgJX7pTw7KK7tswEB4MxWyROe5E044odHDgTLg1ClQMjkJIjkbBogAQFACkfGGAh6mzn//939vOmUFiYzxj3NIN/BAcLeuWevoRRwwQR3IIjAqVkeAHA3Se9zjHk0+dHsiQ7Cu0OfQo31jhI64Pl05Bp5BJzA46jIm6CHH0ufDDjusjRcGjj4G0d+NBXxLfxhyfLfNB+g2MIquP/7xj2/fzzzzzGY0995772YoGVj6SP7Kyd5mLAjKw0v6QFbaS7ujckv2SjZI3WxaFyk/KoeJ5K9cgpCXv/zljSaTCT0NvQ4ywX8rvTAdGSvDDoyzRV3oe+Q/GdSRiUtyAX0SOV2o681vfnOj1Tj8y7/8y5ZQMiYg7Zj4rFSaoNWLP5PROBk2xviaCGiM/WP7yIbNczYOw6N17cvGQHjDHrJdXR3tgq7QGdcFIWy34PF973tfC/zNOY9+9KPb9gu43/3u11a7zEOezfzM5jpgY/BBnTluidgS+z4TmpRjB9jbTTVu1xfojD3t0uw7WJV4xjOe0bYuSiTf9ra3bT7BvHnz1tpwB5vJ52QzJJZjF7u+CP5oYyJ+xvbbfSIJ9OlPf7olyc3XXeDxZPyNHZO4TUAheWTFU/JBcgj4APph/Cf5zAeQfDBXSUArixfhx+bCtN4J0XEMk0V661vf2vaeyVRibBQTGDtMIUjGHTjmIMAgRPcYSJAxzEqBzBQwuK5pAzCQoDgvj3nMY5pCyJq/7W1va/c5A9lD9853vrMpjX1vrqGbkTXJmmR895mioN3n0clceyJSGcHnPOc5zWhb5k42M8rUVRTZT85IHBOIcPVflgndT37yk9fya5yyuuYZ9zlpFI2Die/2xgv87O/Vx/vf//5rJ43QNA7oDH+++c1vtsys50XfeGNy8r6FIPHss88evO51r2uBHMf1RS96Ucuww2RtrAv0NXx/yUte0mhCB3q1pf+J9OkVvkR2M4G6PGNlyRY+RsTgo3vaFGThgwnclhSOGmhrYyA68jd/8zctsBdwQ1cHp0J4EINk1YqRFLjSXc6wbWwy1q7rp6z885///MG3v/3txuONaXi6shVcaJ8MXUv/7VEnX5kaY4Se0Tfjnv5ZphbAeF5yQwCS5AYDC+k/aDOOLZlnfMY2ffnLX27tZRUWHbam+E7+Xb2y0jKZQ+Za+sFh1z827OCDDx48/elPb9koKzcmqwQAoWcypK3QrA2JnE9+8pOtPnbIisSDHvSgZlPs7WcTTWhApqP0+p761INWKwAgOMLL2AQ8pjsCEsAXNLC9CR67GMebLtJnySIr6iZf2yw5wIE6pqpnfYEv6YcJmE2hS/or0YIPaNjQNq4LvHCYR9gYiTj6bVVGIggyZpTLZzZfciQ8G7UT+S7Qts3Q/EAHyVNAop9sKR7ov4SiuVh/2US6EScFNoRdULc+4Cf6Ms9qKzpxc0X6Hhmm7+xAPm9sHpBheN09cj10sJ/T0XllYu9AHY7NAf2YDt2xKcqnbHQ73/m0bCifgN1jv+985zs3m2p+Ng8J5CWt7K6xcs+HsDIM4UHk3JVx2p8O8nxkNhmUA4lbY/zYY49t8xVbzc8z/9s2ZsXffUEHdMe4YCT1TNXepsCUQQjBTUYoxinDmZVFZviyCgJRXkGDIIQzZFKSTWMgRXMYaSKgHIwtB0pdnBPMIlwOione4b0LcD0ONsYLTv7qr/6qfY8xmA4IUDRJ4USI6M+qjwyss+07kP6i1SFjKOK0gqBPkMAJbMHCE3SbDKDrPM0UHA5RO/pSH5rGKT36omwiZdnxPffcszlOJiD3p8OjmQyo6UK72gfZVTzO9jpBl6y4gBXv9NfACd9nArTHWHBE9d8ApU/a9P6JLYY+2/IG0zEG6wK0RPZWxzgXnBJtxZmYLshVffbvP/jBD25jKwGUrRjaoYOMksCS/tJrWwVtyYA4yBsa6Ep/jHvZddlXOscRQpsslAwUGUs8dMEWCE5MAmDL5ktf+tIWoAi4IPVzaq2myPjIchv/2sFT/UOLPbheQid774nRIWOeM29iEeiASYku2iZncsrq26hsunLk8Em8SKyMe2keHcpPheg1OyZB8OpXv7pNhsY5GrPXXyBlawBn06Rp5YitZAfH6VFXFuwTPefY2trpXQDfbSV1jWNsZW50nPkO4an6puqTsqnDlgbtsJPsKXoFapIB6kn900HKq3vcc6Er5dDanSfMNWixNdiZDtAF5dC8MaBetBizElGRp/YdHBwwV3b5YazYBi1Da4UdunKBfDfm2Ux6wc4ZKxwrSbSMB/OSrRnoSF/Dr+nKdSJ0+c1+omtcXeta/5aMcX0flROE5xtLz6Bbd+hAW84zRVcn2E47B1yDnDcVurqjnxPpUmTBHrNr5j66r/yo3rMLfFfzkcQTn7Mru5Rji41VW7PyzoZyXRrCZ+jW0UV0xOGzctPVB/Ubu+Z1dKDHvMh+2WLPr+MDG/OSj+ZQO3G04TlzlkM92pxuuxsbUwYhmKwTYZzOMJYY6F6CDJlMHedwEFgYlgyO7Bvja9I00ZtATUgMJceiWxcHjbOUlzptG8Jc9SdgYaBjmG0xUh9HxP5mGd/TTjutZVMf/vCHt+u+yyLKgGuLcKyceEFbVpEzlEmBUyFj5MiyvWwsMNb6pg7C168sg3NsIas/VlM4mraVmEwoAF56fipoR/nwXVuZSPMrKJQOximyaw6wipKtLCY819WlXs+Rk/oNVLQJdET/rimrrxsa2tWWw8oV2mToOCaCDnqULD55Qhy/mQL9+AmcVvsn6YUgmG5w6jiwnDDvCmysAdqlgz5qVxYDDyKr6UBZ9ZCPLWt4xNgakxmXZOtzF3jr/Z8sJ09HD9cF2k/bVrckGpJUCMhS8IT27GMVbHj23HPPbQ5rVg6j94G+hV+CHONc8MH4qi9jlV4rm2DHGBU0RO+0Q89kpLUroEOn8c/ZF8CBOrroylHSgjNvu5kgBl1sk7bRPh25Rl4g+JCpxzP9sX1QokOwbFwKjASunEl2j410jizV1QU9Dg32M0uGsKEyfsadgJ8dHdV3iSKrhFYwbH+zbUGiRrlRvZoIaHGw13itHwKsbF3LCs4ofyeCuvQlfUSLZ/PdPXLJkevgu5Uv8wr+0i9BufEA06VhXdClTzKFM8fW4S3bli2hkVPO5k4BMTqznarbXwjd5ChgtaVOX70fJugWZOXHOMC4E6RIShl3dCDJs4yLmcIzo3SBa/TVCpwxaTx3HbhxoFuZJ2G0zs0FdExEy0Q8w3djxsoiR5idkplWXv82dN9SH/tjzI1Cm1beJX3YTXPgW97ylnaPvRpFdMt8wU+y0mbc2jadxNHG6Mc4RB/YWNtJnSHXA7TQf2BL+V58sOzoyD1QlixiI+meQxm+KD4KZIxD84K5Jdu5lYkdZCvpNvma1+0Sgol40702E97F/5HwMkdl9V3S3mf0Ge/svIQEXwZG9XNTyWy6mNZ2rGCUcN+jvBw4TqMtJnmPwL0I3fYsTgCnXjlMtGfdJEAJ4vACw6icCZYxtVzGiTAA8sJdaOG4cAIEOOpTxmqLZ3Jw9ghF9su2Lwrm54QppyyTiUkgYZIUUZrkTeyumbAImvMK3Qk4e81l0CkAZx9dlFcwJBLlTJgY0And52cCPIpTlSDEy82QgRT4Hv5wzvCdE+HwOUt0ZKMcvsfRMyGRD56N6/OGgjbRTBYCAMbCxMww6hsaXCMbDpfydGSmwAuDF99kEDIgTf7aoRMO7XDMbBlRZtQoh0/h2bpAf/HS87ZO0T0TlfZC11TQDzTgRfSOPnDw3UNjeJu+09MYsGBd+zAV1KuPxgDYA2vsCiyNZwkHDruJLEFDgumsHnKo2AeBO9r1l54466M2coyCY6U9Ti+oE499F1iwEdlaaUtYd/WUMyhgkRzxEjxEXl34Hj7rlz7QHRM8vus7WqcrU1CnZ8CPMHAo8yMK4/o5XYROMEniK5lkTJuovOuhDcGIoNHWObZLv7qH7X1JDK2rTdCOsUWeoWs6/euW8byESWiIboyCTeMEs8ucA/I3Wdt2aWUsP+QQOrYUhB66K0GGZjsL9Nd4cD/8iJ2yrZCMbCMB7z/5ztZ7xiqzRIWXz213Ni91ZSvIhXF8nAxdubBBHFYOrkSj1UTt4Lctf3YakJVnuvNV0JWDMptKLmgZRw+gAd/xZbIxTR8Fl+Z9waUffbDVjx8j4DWeJTwkvvJzyWzZhkR0wRimMxJUfAS2VrKELvGD+DSSknQhO1ZGeW1+0Vf2WvDBvyJL9WZFVlCPJxmHkWtXJzYUopdsI301nvVXe12ZpB8CA+9ImAv8aQfBL36Pys/3yDiHa9E/9Zsv7CIhRz4ixKcAfhLbyGYqI9Eu0IfQ0+WNZ8M3n9PeRAgtzn5ARFva4Wv7MR/tkqUdQnRQkGKbrTHv3WiJN4l9n/lSoWVLwYyCkHGIcnh/AmNM4nG4CSn3McaA5FhyMDFNloAARJpRBsA0zrJMmVUVg8bkibG2VmCu+gx470ZQMhO27xwBUTIaZJ0EExgvM+A6IwiywhSVg0JBM4ADW0EYTzTnV62UibKEVhOZQUrxZJfA4NQ/A8CEbplP/8KLdQGl0SbFzTaNOE+uR6m0A5TbNggDMdt0yENAJQONFt/1KXSZsBgpBsbhPRHQ5mSDZF2QQWWC9Es8DJwtO2TNMXSgIQGtCXlDDBwytx2JQWbMtCsza+IwgGFcf6cyFNOBOhz0nX4IfLL8G32aDOgiL2dBvUnNRE/Pcy+IwQt8j6yjIxsS2kKDQ19ioI0JQR7HR8bGeOLkW93M+xRZnUsQInOqjCDF5B7+jOO/a/qjvbTpJwnz4xfoUUbfZZUZ7jifbIMsM9vBufbZmPV9qjbDa5O7PnC8IPSA52fC64xD8mR7JEqAQ6Bv4e+4Yxyd4DmyZ+9MXiatBGHOEjF+xRBMYhkTHCi6xfbJ8hmLMutdWzJdoE/fnNMPNE13PEeX2TRZUHIURNiGJ8OZvlvJ8s4iu8UJJxtJKX1y0EG66HNezl+XxMb6gE6EBz47j+qI6yAoNAZs3YodNH+F9xnTwPE0tmKz836kuUIyLTwwr0p+4Iu6jQdOpS2pkPlxOgjd5lz2yKqypF/aUrf5T2IrY3ui8eC6/nhnzVZBczZMV0fGQZ0TtRdkvI5rhxwii9SjfMqSHbA1bNto4K7/5lsrj/wUfg/9Y98g431DAY3otWrGptJ3uiNwMM7JRhLGyqZka+hPH4PoJPtgbqYz/Ag/0e39TTZE/yQMo4/4Mhkv1xepnw9n7sRH77hCdzxkXLFb7Bi/0VwD7MdMkHolp8wNfJP8yqO60k/lJDwECOyScvlhJPSknPMor6eDPIe3VpLNjXTNKpZxgieS+VZA+Hb4I4lMRsa2M5ocdoEYi5HVloAZBSEYauBgiE4AI45J2TNH+X2Ps+NQlrGUkfLLHc7ZmpGBqFwEJHI36amLsmG6s4HM2Y+Diqmy++qPoIMujeAz+jPAuvdCJ+HoT1ZfDD4CFdCgMwbfs6FbYGSQC74EMwIOTi06TXTJKMx0AIwifGekGQHGxcvjoE/pj7YAfzlTWcbPvmAvQtoDnm1AWQExaTNanLCshAgSQf0bGvqCHnQydHQnQR/DQcbeeRGk+Hse9kDOZAk4uuQlMnokqDSATQoCYe3QH6swedEMPxhVdI3qBxjsHNzo2lQ0jCJ8ZDzx2PZAdZPtqP6OwrP0T3n7QAWLgm8rg66FRkBX2hJ0yZLmD5FN1c66IgYbtIGneJUA0xh2yM5lmxPnRDDNUaGH2bppkqYLnGDXyLLbvy70VXsO/Mk40//0VSAD2ib3ZKmMVw627RIyXVZQBU2epQcTtQlx1qzaolXiAdAuq5ylcIguTgXt6Y+VFLohqQLRj3H6lv6PuwexWSZS+p6fZlTe+ycyoiavZNI5KPSTvjjYDQ4L20BW+ansOB7TgXIO/cML/GUX8RB9kdNEyH3PCFw51XSDjZJZ9o6XICu/VEbGzuyydySUJxPvSbjHNnvRX71oCX0bE+rXlv468EH742RH3g4JMnqgLxwp9k+/s32RrisH7Lfggo0C8jR/saP4wClTRh3Z+24u4SArlwxv9HoqoDljPu99aYuzZsVFW2wPmQHZRxdHgS9g1crKIp20rURiwL3uOMQvfZ5KXtOV52TlMm7xScBmlUkf0OMI771zxz/hAArm6CHbZhzhgTlM0pTN5zz6sRno2swNhS6vbKnWplV/CRfBojGdfqE/vAe88Dwe0z32kp/Bt5H8Vd49wYgxxFdI0BtebEyE1rx0LdAG19HurG9WmowFMmG3rKy7P5H+TYT0KXx02K0B6oru4Im2zTN0gOOfd4gzzpU1tiQW+FVW5m3X93oAHzI/hKLsKNJvKy76hQ6+cFaDjTF2HU/Msc6OJBskyY1zto89zG6i1Lu5MWkQEqXESEwPg3INcjbJMXSYGYVwzuH5KIF67JuTqadQWUGI0DklGG1Jk4EMU3MwqiYfwpbBBk4MAXMovO8BjLTBYzI3mRr06Ar92nO47lCeogiCtCEQoSiA9gxQz+iT1RUD1OQs4NB32W1BgsyVMhQEbdrtKm7O00WMucCDEy3LEqd8KmOmT2gHW8NkORmZ9J2zT0EpLWU2mficP0q2MZQ1emOisZWFnGVayZThyMvTssKCOjwWvEJ0azKEJx/96Efbs+TJaMoEceB9pkve6VEXfpgs8Cq6Gn1N/00sHM5k0qOv00XKW+EzaWcbUtoZB7R5jm4qZ/XLiiMHjFPFoezSoUzolaGzDUIQYEwJsvFlnKFbV3TlwAEy/rRlfOIvuQoq0ZDVieiysvggs21yTEDs14Lw2TtZxq3+RH9Hof0uDcrqY645JzChUxwcTrUynH1jyHjgqAqc8DP0desdRZw19kc/7T82QflMj9kvAUp+IWsi+keBLgeanfWHvLqHulwna33IM66P0py+m0g5FMnkmcDYSxlcsiIDE5s6JF1ko23fYs84HCZ0fUtWUXuT8acL5Yx3NOOFo/tsbMFU6OqtuvSdI2LFw9m4tGebLTa5CwQlYaJX7sWpYrv1dbptrysyz4yOcW078jl8idyB7se5YCPZRZ+teoA6PQP0z6+nhUcyo2wEu26u1Qbnx9jCK0ko+p6Vi2zjiu5PF2k/q5cCECAf0K4+pa+jQK+y9EGSSKAskEFT5nbPux/9h64udBFdcxZoZQXGNc909S40sanZfumaMo7IgUOJHnOH+QjSvyBbMCeCXQZsoXk17+SN1rGhkDHPGTdXeOetC7ygO6MywZ/0WWDFbvMzkrSREGL3BDN2EpirrYYYX+rkd9kanHe9NmT/IlfIVmo0gnb0BW30V2KJj8SPQX+2v42OwamQ8gJ68xeHvvueYHRJuz6bX9h9fEuigF5IkEj0sDvGMZmgv3tILELGQhcZk4I/Y0y/kgylc+ydOox19sI2bX4Ne8ivQSsb4DmJtqzEbSz9mylmV+InRL1fKkNKNdylCrV897vfLbUzpSpdqY7d2jJwj3vco1Qmlb322qtUQ1Kqgrbrnq8K0upwVAegPPKRj2xHNablXe96V6mOdSsXVGaVajxKVfRSjWsr+5jHPKb8yZ/8SanCLXWCKVXQre0qoFa/73VwlH/8x38s1cC2etyrg789/9a3vrVUh6ddR5+jKkM70KUOfXzTm95UqrFu9D/kIQ8pD3vYw0oVYqkGpJXzHFqda/BUvvnNb5Y6SZcaUJVqXMpd73rX1sc6MZaqnI2uqsCtHfVXxWmH56eLOvha+/pXFb1U5Sl3uctdSlXoxgN0jYPn9MuzgbbxoRrTUo1rO/78z/+8VGUuL3nJS0p1nFp/0V0dtvZMZBhZry/QkLre8Y53lGq8Sh1cpU66rV+unXbaaaUO4Hagpxrvct/73rc9g5ap+IffUJ2sUh2w8ra3va3USa1UQ9LuRa/JCD9rUNL0Dh3klCPl0Fwd1kaL6+uDOkk0+qvBat8n4ysZold5sjLGTjnllFKdh1KDmKafGTv6Ylyq/+Uvf3l5znOeUy677LJSHfrysY99rNFP9urcEEB32q4BYrnPfe5T/vAP/7CNi+pIlGoMy/Oe97xGfzWQjff4iM4u8B9iU0YxlazdV0cNgho9kT2gMfy9053u1O6xC/hQnZTyohe9qNTJptzmNrdp+n+/+92v1Amh6R1a078u1Jcxp59wzjnnlDoZtM+eoaM1yGp1+RwdmgroysEGhSfhAdk5fKeHNbhu7SmrjS6vun2/6KKLSg2OygMf+MD2HWrwUY499tjGh9vf/valOoFNfsbMU5/61Gaff/zjH5crrrii8Vcbxsl0gCb9Ratn0YX3bJGjBgfl3HPPbToZmkPrRFAudfqs72jG+5NOOqlUJ7HZ/xe/+MVNlve+972b3tH/Sy65pI0Bz7Gb5B25bCygU/36S1ZoeN/73tdsEZ66l76Qt3JopZ/V8Sk1aCrf/va32z02ku0xVxr/aMfP6Do+RNeAbNWn/0cddVSTZ3WCygMe8IBy+umnN5tYA+5Sg/9m9w4++OD23Ez5EZmxOdqOfhg/5hR6oO8T1eu+Pujf5z73uWZ/XaP37Eh1otrzdMg1PPj85z+/diwpOwo04anxWIOids337rmra+pzBO6pX3sXX3xxqU54mw/xNLY/9YDydFE/8MBBrg6yRKOzOn0eR/OGRHwvemPMG2N8Nrxj69BON0btbfpMdvwMdLLfRx99dKNfH5W53e1uV0444YTWDp+wBrzt89e//vXmZ/GJILq4IYDHkRl/C6699tp2BrymO3TmIx/5SBtHaCUTsoOZ6HZXP2oQ0Xinfr4cRP7h2TXXXFP+67/+q/mtbMuDHvSgdl+b2jc+yMBn9pV/85SnPKXc/e53b7zj24G6um1D5Gn+Mp6N3xpstLZ/+9vflo9+9KPNl1D/cccdV17xileUGqg1Gsme3aEL6nVWxxaFSthYVAVcGynbG+idD9t4ZBL90kVV1BaFydZYahQFV6a06NGzUBVjbXbAKoH9hMmQyq7J7NTB0KI3ZaugW1krKsrk9+xl7RLdg73SorqqFGv3YoMlYL/jbJ+cZ9AoCrXEaxuObCt6tIPWHKFRhkK2Q72esQybttGnX8pXg9jqtkWoKkjLeILromJl8M5ZVhF/9EXmN5kZ96YDbaJPeZlzEbnDdgKYLLqPHNASWVrOt79TlpAs8VlWIysPtnDpk9UHS7gQ/kyX5qmAlyAbaUWiGvamB15mFLm7nwy47SFolAVAR/qR83QQumV31UV3tFkHfNNBsrb87yU+L03LFltlsPxZjW971vsiltK9t0LG2kffdIGGlM9PAleD3b53dbuL8El7tgNYzSEfGWyZTBkPsso+ffXL/tnjj5/otU1SdkY5vy0O+BjdWB/oU+Qg22Zrm+06VkWNNbBnXxZdVlaGTLtWnMB4qJNE0zXlo8tZCbGErD/65Z5xi/bwBfLZdUvhMkQQXmf8BOSMb1ZltIunDvJw4Fs10mtf2IxNGkXql102juiTcUmnZE69X6EPddJpf38H1DWO765FR23rksV2TRvps3N3rLtm5YUt9ssttiyyVZ5JXeqgO2BVyQoveDY6J0Om31akbUnzmW32voXxwJ7a8spuO6bzi1Zkgo7wCNAii0znZQXNJVaMjP/81Ljy4/jThb7l0A880Rd66Jrxqs8O98IzumYLr/ayjUPZ8Dc821BIffTaarrxYVWJrlTnoP1AilW30G4+IXvbomwBpk9kYXwob470AwLRhS7CM+f017xjhc+7AOwYe2ZepYt2B4BVLfVbubdtyPPqnwnSnpV/NGd1V38ip8lkmue956m/Xjg2V7JXbHNsm2w7+AVKW0pk46GrY4CX+MPG0F3jnT5qZ1QfYzvMf95nyXd1hC5zBntQnbc2htheSFnQR9891+2rz5GVVR22wcpTVtJHad9QCG30y9xm9QU/0JcxlqOL9Jn9YcvY3/gAnnM/+sF/IB/6Ez/NL2jpo7EGqW9DAK3hlzmQrnRXysiAbMxB7DnbSx/5fenDZDZrFF3ZWUHVnvc9rPbjL1q0mT6iSZvmjxoEtGvdeR3fyAONfBv67Fkr0er2mgJEj7qInLTJzyZL9SlnJ4lVbPpprmFfzZ+2amfllA9l7q8BUfNvs2Uz/NzcGJt6rNdbFOyojn2L3KrBaisMoiurF9XRaNG0SFjGRhQminN4vgqwRWrKiEzrJNcyE56Xof2rv/qrFh0qV52BFu0pDyJuqAJp2RRQtjKtRehWR3yuTkd5+MMf3qJ7QJPyVflaxIf+OvE0mpRRv/bRB85VkC1aRccLX/jCUo13o1mfRJ6e9V1dyqpDdF0dgPK1r32tZehFpupHI8gaWE2pitVWU84444yWcZVlxIMuf6eC/mi/TlBtlcazJ554Yjn11FMbD/RzIugrdPuLp+jUN9k2WTnyqQ5Ko6dOHmszGJGHdqqy34R364PUs88++7TMrD7KZP7rv/5ryzbJcIjsrbqh0Wc8cMigOshsOrTob3VIWp2yJHD/+9+/6Z+sxAEHHNDqocfVWWhZVFmEGhC1bMX3vve99oysttUj+iYjol7P0Zt8ngzu0yVlZT3wQMYkwGuH+9E1Y4I+opfMZOuqQWl82HfffdvKkM9odF/Wz5iogUCpE3DTFxlh2TDtd2nUvnbIVrtT0T8O+pPskjFZjV955jOf2VZFjTvAe+W0hVfadYBssP4ar7kGsjuud58z5ui6/uKL6+A59Od6dbbaipryrnvWAXhJ184666y2smrlsgZHpTprjUdoJltjy7UuDaNwXf2ycjXIWstP36uT3ewHvWUXZJyh28cuPBf5sA9sburTZ/3CZ3xig6061UmmPO5xjyt1cilf/epX29ipDmbrtz6GZs8CG27lDLpjJ7zHC/pkTD7taU9r5WWAyU/9eGFsJgs5Dt02Q7Ox+qEPfaitYtNNNvAtb3lLsydkJoNobIXXeDoZ0OpQ1vPol/XUlmvGNBk6fHeomy1h22qg1frGRrsXnVrXMTAKdRhTaDReycjc95rXvKbxgp7JpuIte4L2Gly0FWCrFOYgqwJWdYxdqxjqJJvqbDR9ikwDbaEf/3MvfaP7nmfLrAx94xvfaPrD3rFDnjPf0uE8NxOEZ/ivfSsX+B060DYRuvz+zGc+087sK1rZRuP4U5/6VLNt+GQusJpNftXBau1pN1Cf/mjbmLv66qvbfTpmTKRMzmhjg7lOGX0AAEuXSURBVNynG+QG6qVX2rVal2fTlzwb4Fn0vXs95dTHP3KOzvqcMhsLaGIPIOMLPd2ji3y3Omb+oY9Wen32bPpHp+hlbOSPfvSjZiM++MEPNrnJxkN0YCrgQQ58cUzGl9AZXQ197N8nP/nJps92pMQ3Un6mfFZenWihh0C3XEtdztqgJ/QXHXbvsHF45J4yniN3Y58NZZvcqwFDG4/GHrsEmas8l3bSX/y3CmWHimt4b46xsqENtvs973lP8w/ZFLbayrAV0m9961utjFXP6YzNTYkJgxDA8Bq1t46eeeaZ5W/+5m+aMcB0y5RQI+J2jkPlWYz0LCYxvpxwAQKHnJPA0PpOaLZoYFqe7QLTDdgwz9YSS00mRoJ77nOf2+6rB9ClLOY6PG/wu4/xaArj0xYlc89EyOC5j16OiMmTs2qZLc6Usuq0BYBxssTNoadk7umXyd7yt8CNgxgFZBAsOTOQysYQTQRGMe3hGUfaJGtbDjkk+JoK+upglBlcdZKRrSePf/zjW53u6Z+lxzwT+jg4ggSBEP7EWK8r1JGBaRsImFi0zzkwyPSVM4ZefPuXf/mXthXPACcbS77qiezHQR/Qqn/0V5BhoNJj/dEWHtim8elPf7ptP9FXOqaMgESQaZuPoJOOR1fRj67I3fepoH/oMS4Yov3337/R6Fln/aGz+B7ekwdaOTQMKz1UBvTddwfHXT/wzRI6fRa8pP/aDq/CN+0yhupzbX0QmumVIzqCR+rP2ATl8EBQAAJBE4f77umLM97ii3v4b5ujQIfN0Z/Upwxw5GwNEFSD++rIZESX1G0p27a2173udW2M4xMeotny+Mte9rLGs8hDW2kjyHd2KPz1PAfTWGer9NE49R1G6whc1w5HyNYodQC62Qt2RH3GgK2lz3jGM1pAzXYKSiVxgDPQBfrpJlnT5yOOOKLxJH0KtOM6R5ejKsn0ghe8oAUmggUTmL4pF16O05foF0eAvZKEobscS2PZVgXfOdeSScZ80NXNyYBX0d2pQA/Ra6J36DfHig0gF/cFA7YssOXankhG04XnMxb0k/w4a7ZLGZOCdLSTcRxEOnTMMce0e2yc7ajmFzI79NBDWxnjGuhzV3aBvjlCv7NDn+izrZK2biZYpf90DZ1kbo7H13F1T4auvHw2J6lnOrzMfbolIMMHY1iCxTh0n2yMI/OowJ7NfPazn93miC69+uG7uvDXd2c6x0mzTaxLj/vgWp51QHSLzrC7dAgNyqa/3bqmg7RH7yL3jY3IQNvTobc7psjRHAWexRv6xZ6o1z32xGeBmgSYgM78aM40tpQP1IGHOcgpR/d6+DQZzCXQLWuOZmP4g3wySY/IKueZwnNoip8lgDButeuePtE/ffXZwYay98rov3LOeJt+K8cHFLS5bowfe+yx7Tr6wee0EYQedZODew6fteHwGgD/k/0VKJIJ25Ek8t3udreWbOuOnc2NsVQgzqFTHDJ7zgjVpEH5MDKC4bjbY5vJDlMNNIOfYloBIDiTpcnUqoGJn8PkGYEJg2MS8B1GB6n6MN67CxwX5Xy2V5FCZmIMTRGecs764po6ukJFr2cFWoIj7RKY77LhAgnvlOi7CYXR9jwH2MSsTpGviYGTJHsuiygDzagyfLI6Mq/28VIgbVJa6NIyCvfwGU2CIKsunDFBkTZdF5jpkzong7rQSibJDrnmOf0ls/AwA9w9g0lW3SRGiU3Y0DVW64LQA1lpSJ1kpW8cSc4mR8vEYzCJ6gW/Aj1GB0Zl2gWd4iBy2GTq6aHAQtaBE0SvTMwGpYnPZExnvcsge0BnTWCCF3vjZXK9i0Eu6sU7GRC8oWtomQhdGXAWvTtFP9RFrp6PkfKZPNRnbDAooD+MVHhnLPosSJWxkmGWCeFgWAnhWCsf/uSsHc/hNfqTqZ+M/umADMkO7foA2nCdzsUgoomeGSMgY4Of0eU4R/qH/xxwshcwSxCoB5RVf/rFtnBQGF9ABx16+9vf3r6bHOmV1QMyFtDax/zGN76xlZVlYqNMNniE5qlg7KNdf9FDp9DNiSRrzp0kBeB5ZNdF+C4zLUOtT4Bvgme0Cpw49caLz5xJk5h9xbEnxsko1IU2PIoc0BCeaVvfZT/xg23G75SlV4LfOOmhbRTqwzNgM72ThHZBtJUAfOWsyMJ7p0/gRxfUKYjCN22GromgfTrmrPxEUE9oJXOyoGeSDpIp7MDTn/70tmolSEIvTIeGyaBN/MS71772tWvfAdHvRz/60S3xYZ7Cd2W1ZdWDjhq35jVzIr1hq/G9C+WnQ58yeKsd/KIj7B/nXRDmEGSCtoD+rk/fAb2xL1PV5T7dJBvJAfYQfej1zoH5DY18BQkDui/xyJFi2/BZHfqWfrKlzuSIv/Qv868gTzvuRXc85zOa9b8Lvo3n0xfnoPt5KnhWO0DPMx43NthYuhZbDJO1m/FCH81zr3rVq5r+4if69bkrVwlEn80//JODDjqojalglEfqyUF24w60omP0We3kGtmD75G7uY8NU4d5QkAb/yllZ4K05xxdsWpOv8KLwH06SH/wIs9E5sAeoMU1OmDe5csoyy7gHdtgbnMttqHbjs/qUJd7zsrhmb7qs7qsRkr+syn8N/MG/8UzEn7qQO9MebKxMH5GqYgATKgMFqJ1NAOWgeAIyvRwlBg4mTxM9jIdw27wcyL/4z/+o2V4TO5ekmGQ1cVR4uhrq6t4yoFJSlvqNZFdcMEFrX5ZJVu60EKgQAG6gleXz/rgnu/uExxo3z2Ka5K/9NJLGw2yLZwyk7yJSV9sLzGh6oMynCQDgfNK0DLzXuiWYaIABrAJXfD21re+td3ndELanwzoZswpvOw8B8zg0lfXTW4GnaAgyjhqQLtIGfyUDSYrcqW8HCh1hy48Ak65jKbgS3/IQTmInNYVkYPtCfQBH00sgCaTL6dFn0xQZKMP+s+wkr2AAE3Kj6OHvipv4rLFhTGWRaZveMgAZCsOesjTWZto0m8v85K1gIUsODAmSTKmG77bxsZp4NjQDTSNQ/SSg2di5RCj3cGZ5AzJEttyIQtNTp5Rnz7r42gWNGMmgaNxKDtFt9N/ZbpjAvQRP/BRHxgq0FbGzEyhHcYtNAXoUJ9r5GDZXhBCxnhO//DCfTQ54y8Y95IYHJLvf//7TQ9NioINfYw+4qE2OPv0hl3xLMiOyWgC2qxm4aPnbZkkZ3IX7LBT9IF+KKsMjPIj33M2lsI3tkL2VtZbHYLcbFuYaOyHX+TF1uqjwFe/JFroqTFLL6wGCTQFW/pCd+irAEo2HUZlAGSjviD3c80EyD5kcnLGF+NMMkLf9IO8yM339B88g6/AmZaUkUXmnLCBz3rWs1qWG5/x1bxhfOkz2iF62q03yLhi8/7+7/++6Qp+onEc1KHPxi+d0z/X6BOHVNIJjQJh7eJ3Vqgns6XTAf4DPZSE4tTReQ6woFd7nAFBkbboG367biyHv/gZXqSf+jwq23HQHnBuOCTGjnrxkbNvXpPQ40iyX+rU/nTq7iL06TMa1ZFjOnWln2TFxtIv9UgI0Xs00x2JOFlmSQj3jX1t5HlyEzDYhiKpIMhkA8zvxrj7nFN+Cx6gN7xUh3bolLrJxBYcc2/4AnlmJvC8OskXumPTOZ83JCITDq05Fl+n0w6dQavxKGFgq7T5Crr9Tl302/j1nGtWaOk6PuJ36AD3jTW2yvxnHPDnOONsGHsp4S3xZ8xI8kJ3LKZdMgW04qd63vnOdzY50RFbVdmY0NylYybQXvQB6CM9VZ972qZLbLN7+MBnQnvmhC7Ugyb+DB1lb8zXVi/0n13iB0kssVfKd/vfhfbRoZ+Zp5Kc4l+TPZ0zn6DZ2GBz8Adc07ctARMGIRAhMJKZYDAedMLWB4zIVixGlhOfX4riWJlQOREmOMISmIjKCEjURpEJMg4FRGmctUMxTVroUF6W2jNRSgido0hd7jHwlIBgtU9pLH2bpDiXggUOvyVFWUUrDn41RJDCKVeW48LZEyjZn21SDG2W1WRblBO0WCGiCGgNbQanPkGX/gBdDoNb3Zbk9U0d+GupzcqMIIeDY/XF4E6/xiHtMA4U1iSEBu2EP12lBhlQzo5gMkFItn1EB9YXJkEOpwFMh9Cv34wS58VAFoSYINBrUjFAu/IfR0sMPgeE7Bg8svCcPnpWGcaZXPCOc0QvE1z49RiDlgwYTsbCADbJCYJlc03kaOAg23Me4OtE0B55csjIgzMpMKIznFercH4BR/Y0DhE9jUEdB2ML0i9jybOAvsg/8jbR21ttxY4e63ecuslony6ir4DHaEGjySFbcBhqE5AJz/sZaJSRtcqIn/pscrEFKTKTkRek6eM4fuBVjLLn6Y0xk5UIiH6rDw+sYnmOY8vhFxyhV/1sXpd/Qa7RPYfP6vPZ5IFm1wRX9BUt+jDRuNEeutBpXHMcbLm0YiNQ5CzL5nPubTVQt/ImM6t80SeHPoNrXYTmIJ/RpKwsmr3cxhl+OIw/7dJLvGDfJAzoD5r1qYvoHMeXLRUUZe8+esmNntFP8jee6V9WrrSpTudRPUxb5Gnsybiqy3X0O3efcQ09bIx3LNgVtobOGYP64X0NQZbv+KFd6PJpfUAn9Dtjy0E/1M+W4jme0I844j7ne5eOyFM/w4txyD1JDP0lAzYwSRIHnrBv+s3p4XBz4kLnqO5MB57FfzzXxnR4GJ4LDPgGdNez+MZ5ouvRM3OWjC59iWyV9TzHz5zImRNQSQgK1t3znCSLINPqG77Sv9DnHDqcteW+ccWHUV5b7unfqF5OF+Fp2tuYiA7wd+gfPuWaz5OB/PVRwsEcxP7gjeuhPXWxA/wmcvNMkscQHaBjIJEnsBTY2BJpjjWfkgnn23i2gkoX2WE6AeN4pU9ALvgqyUGntW8+TR9yH/0zhT6G/iS02BAITeEFHeEzGs+SngI4/dd2eIUedBvj+Mq/0Ue+seScHTSSNsat+1b/lE1fR6E+9wUbCRT1P76Ae/iAfqvr7A4fC81WW82z+JME5ubElN6kjiAWGIc4AAYqx8sg5+ABZ0aWnnOO+RjIoHqOAL1YZpsCpWD8MT7MdA7UDRRLOZOw+yZJKw+EneciZG2Eod26MN2RCRDcN4Bk4gRFwBGWJQPtq8+ER4gGDzo4tQwe59TyMKOoD4QqAqU8nBkOawwqOOsLqBv/JgLe4LdMPWPKIUl2DM1WlmQbBEX6xZGUIUWnemPsugiP1OG+AMvA8Rlt7qvL9/DOmRMk4DJxMxq2MSmbfq0r0obBI8jgEKDHdd+t8mhDf9CMNg6RjBZHDH8Yv+hlF+rAQ7ohs8IgGJyCSzwjV5MzR9fz9NMg5dhY1RCEcBxN0jLAAm1641nb0qzIGcBos3KRPdvhO1pHEf5CDIYsiMyRCZLs1M/x5IiiXTASXYj8RhE5MDzK0i3PjqMB9N09jqVJQRIAf7VtfOrDRM9OB3ivL9oRfOQl6ugZ/UEjftJBW9+8f8BOGOO+S1ww0PSBA0uGZB6dCZ/HITqDX/hgexN+c4pB39RD5lYpJRRc48BwSAUgglE0GvscmRj1idDll+cE7hxstJgQk4hwbyKoA934IOvLgScX2/DYJw5rAmZl0gfvMXGU2GATO/ugHfe0H55NBm2jz8HW0CPX6J326Cmekyl+mDD10WQ5rg28V4dnowtAHjn0De+dZeKTxNLHlIFu3a6py5iju94NYq/Df212gX50SyKZ6MmVY8tJNdY5pcYeu6/v+oJ3ntGHicbcTJC+oAWdxoM50md9BXLneMlUokG76VMXoWfcvS7UAeqlS+wkW5b29JW++AlRfWVv6Subx+FEh2cnG2ddhJ5uEOJ5h3s5xiG0OrO9HCo+hWfZIwkLZ89LbHL06FTo0ybbQCfMg/TXWLdl2SGwMRYkLjOH4qP20ra61Rdb67M28ExZdsp8P5FcpotR+a1PXVMhdZM1mXSTBqFjMnheOc63M54E+J76bXFmH0BbdAnCW0hZO0EknIxBdp0PQ+aSrFav2TJzrflA0CzxOdp2kLHOb5AgETC6JggVuIL5w7PqSPkuXdMF5934NI5DS9cu4St9oavmNzopgOBjxMdCgzMfRkKUfwPoYssEUXyUrI5qR+IEJqJZfe5pB9+1ZYyjAdBr7JjTUhc98L4oX5UvY+sY+tW1OTEjqZgAddikwVjZb01ZMA6jOd8UiqNmywQGy6RTUGVl7T1nQuAUMhJdBkS4JgNMlWmmsJ5jbAQxMvQU231CcBAaZcmk53OYm4nANY6FNlw3iZqM0OO+wcDguK8OZ0qjLWcOKaUxiRiclF3GWn/RxpFh7NTt+TgEDnVoH9TjHn5lgHaRAcPx52Aog4fa0X8Kzok0iXI80GZCdk1ZdKu7CwMD8v4FZddntOYZQGPKxjHlBKGJw2pC07dxhmG60Gb6yPCA4FJWAE1kLkDQDn2TGc52BgNdGfyz0oQnQL9AP+iD+waZLRdkakuODDpj4p6ByXjqK0fPMqbgkT4yaHSTfnFAObH6ywETlBn09J2h9Iy+4DdejYN7+hJjon71kZkVH0bZNgFOuD24+KDf+gvkM+6A6JAJFh3a8L17NiYycYcGstVHdKkjK1ygXOqfCdSD/+j2vBVQDp8tiu6RUXRLG2iwAuK+jJitcmSKv+SA91b6vJulPFgp8Vl9gbZy6F/6DpIMxjz9gfQff+m1caw+yQWf0S74YwuMb3qjLjqbMTIOGevKZLL3PN313TEVwnd9TODBaWKjZMjoo/uxKejFLzw1uefX7azaWa0bl5DpQnv4wGZb8TU2OIHGF11yjy5qS13GPpkIQmQtOXnoA/wJ0Ki/eOlQX5fvxomsPMcXjGnOBJqNV0GoRBN9iU5B6gXbNWyxE6zFHnXLgvKuk43tSN4js6ppi41g1+oLHrqOt5JM+mis4GlsyoZA9FXywsob+8vm4RvekJ2kFmhf+TwzDvo2EaJ/git67IXXyNF1mWdjUwDnmq0t5MsOmVOsyALaJqMB3I9s836X+RrPPY9OZSarJ3ZOMk9iwMqNOumaBBLQR34HuegfOStDbuyz4IR9Ftiyq2w/mxp50jt9pYvhXfrHF6F//AF1uW9eYqd9Nq9nJTW2babo9h/d6tCHdalrOki9+GFOlwgReEYmU0EZR+wa+jPG6IprfB8BA/8j/TMWodtfMgKJXL4Lv8b4l8yVtKWjkjVsEEfcs+Q8yp/USReSAOFEs0fmcn6hcR19dI6NSyKpS9dUSFnPmkPQor4g7SiHr3RNssN19CQgC8/RQRf5ilaww1fjz3zHphl7+pG5PFAu9Iye8QCNgjwBGX4KRtJvn9lcNoB/KinDNrBFxiw6u3Zzc+DGnk6CdJgC+oxJJgHMFnkRgE5zzmRfKKgVES+R2eoky2K1QKYCKI6MvvoYla6yAYZpg7EWNZpEbFkhGNczGeU51+PkEDpaXENrlIcCcHACE56olGGyhYqjT2ieSxCT7JH60JrPhOa7SVibymdC9gwFg64CohsYaWUM2NF+Q+iWqTI54RvlzEBN0MfJ4aCYPLStL6DOyAt8ZkwgE0WX5+7rDz5wRLLf0mqT5VFZaUv2Jmnw3Di6pwvtMUzayqoAx8s1PLXlxoAUNAgyZLj0Vx/JGK1WKwSmkQ968NdZvVYY8Mag0weTlPvaoIMmLAOf/rpPFiYuq3R4rC36Qg9tccEbbeOjwI/DYLBzKGQZ0EEOoH+j/KF/rrnH8fFZG5ah7QUV3GjHC+uMCpgcyWncxJHvaQtPJjIk9DOTA72kixwwBp/TQbb5ScWukZ0JtJ0+CazITyLCO2Mc1jgaoYNO0W0OB77rh2V6jq2JidyAXQGTFuT7OB4H7hlDYMIz3pIkcaABH9AomYK/9ptzgjgcfkWIfH037sjccxPxBh1kSncz9pVlU0zQ6qc/0wF50zP1CHKd1UtHQgMe+4xPkgr02AoavXZmJwV0gjd2CS/QMAp0O+h4gjT1xs7ZSqb/xhK6tO2Ml+q1yhS5Twehn/5xRox9Ey5dtE1SpttKJ8eGztgqp37PRbfTFhkab2xE5CJzzaZDnoktJROTNDtDF9l5PME/fMND44998Bw9i86uL7QffTRn6gO9sN0F7QJOgVAyuHgME/E1PMkxDp5VD17jka1WdEN77LrtLpJpnmcD6btVGrqQhIQ6JqIhQEtkKnkE6oCM9amQNshDQErv1Ck7LOmmbnV5SVyA3eUPvnLqjAWJDDpBdpkL8FkZ9Tm6/fFZm+RMpyUi6KRr+MHRdV0iJeMn42Aivo+DdhzdZ7p0bGhoJ33j7AKfITTMpG28Uz7jyJxorLznPe9pSSxzlOAmcH8iZAyTCZ4bk+REvpGxQ3uc5oyZILomUWKeZFO9VyFhadyyt+x5kgehnb2UdITIcTLop7ZCr2fRGdqAHiinPtd8BrqrX8rSH0CHOdg8IgFipQ8P1aEcG8/+0WP2kI2CtDWKtBc9tHrkGpvGXus/+5w5jn8eHuuHtrThWWPWO1Z4COjZHJhWEBJkUsNgEzyYwLoDkyLqjLIcNdscMN4gpywyMPbUu+/7OGa7holWKTxnYsTkMH/0Gd+1SwAY7eya8uj1DJhwfGfQGH8KZpuRCdvzKUdxKYkBQxkpkQDGs6JIiqMd95TznZKh1a/LcEqUVcZg4Yzl15w8D1HgURigrmdPJmdEO2hCI2XyLP5pF43p9zjgQQZfonO8Be041I9e/GCI3ZeppNTukyG6yUF/J4J60DKZMiuDJwwJJ4CTKPDwDFoNUAMSH2VF8Z5jrp/6L/igQ5bgOS6A9vDTRGWCdZ9MvCisXk6TbWsmOlt80ImXnE3GgQPMObZcqR68dd93e/yt7AlS8CTvJaAR32XSZHoCzwf57ExmDnRl8hTUJDARJNIzbeeHDNA+GTyHpw5lUz5n/Mt9ZfHKuDLR4rkAzWRLttH/mUC9QEYCZsGFrDZHR0DCKY5u5ixJwfDRbc6GoNCqqYBEQBT9DD356VlGeiqgh47KXmlDFlO/9VV99AsESewQXrsmICMPqy8y5nRFPfiYcxf46Jq66ZptRdpw3YqW1bV14am26J06jTv6gp7wwARNvwVOYOLjbKDbyo3VU3zmKHinBqIbXaDTARxg9kZdkh0+G2+CQVlUusj+Gq+cVoFrVrK1NVUf8cj4jC2UBQXPq0dSQb0cZNsbzQuy9fqp7tgvUFd45Ei/jEtJAYiegT56Bg+UN27Vr16rx5IubFC2MZjU0ZQfM4hdCnxGD1uUdkZ524V74bO++4yv+ko/6bw5FE/Vl4B1tM7UMQ5o1K88o6+hW31WQ9gZfLCq9uQnP7kFfMpkTmHT6D/7qH94PBXUj4/qMd5AGzBTvdc/84+xb37mLKHdyg37yvlkJyA2R/tx2vQf/1xz3zN47DuaQpfvuRakrxJYHFsJPXWwZTLH5l7wzEz7BZ7T5nQQ+tcV6RtesB0w0Sr9dBB6zCPqsbosicy2WUXl4xlPEMd7HMIDuqU+h2tk7CAD54n0PDZAsMxHUZct7mQmcWjruj5n7lCP+snOM1MhY8FZW2nP2fiQtMufEwiP0Zw+6LuVPM/TxcCz+MY2mRfQx8fjK7I5fAjJL/Wgn36F9omgfUAbHph70SAIFxiaN/gqEivmAz6Tdmy3lCQwZviCErXmiAQh6fOmxpRBSJQFdIgyYrROYBYnDzI4XXNfhGzi5PDoNAE7Z8+7el3rGs9AHQ5QluAI0nlUOFEIDNRuBkzuoSuKSQAcPr+cQQlkfUyAHBHPp02Ky1FMxG7pimHy3YSlTvc9Z6B7Md0g4Ahki5H6KJU6TaYcTOWjyJMpGXheO1FMTkH64Z66rBKQiXuMJYQfgc+ZtMMXtANedUGZHWRn+5yJ2ARmK5bnx/EfIj99ZZDIDI2j6NImyDHpcDrQrv48pz9kRQ6uqxefOblWxrynIlOqX+FxPht4jIF2TEJoNrFYWfJ+gj7bEocXBqV94XRS/Ywr5wcP3Ne2bJxVPY4gA0yf0We5nhODXntR9YP+ZRx0gS7gLBoTnH7ZavqkLfLwHOdd/ZxBhhVc7/IcDyO36IhzPrsfeUCMIj6QDT7po60OnCETrfJ4mLpThzp9xwd1jOoLoM2hfqsZ9psybBIPlqf1PfTneTaDDGyFE0iSP55qTxDWzSJp11ilk/gCaXMUoRmMC2O2+8tLDv2W3UebzDnnGo3GE3qsOsgckn/0CrSHl5ElhGeMvHEvCKAXAlu2LXx0dKEO9Wc8Btogw7RhVQaf2Fp8QQvemDxsG8NzEzKec9IkCgSV9MnYYXcmg/bQZhWYvNAuQLQ6IWi3UmeLAx7pq/32nA4rGewCXhuzU6Hbf9tlZODooqCG04/3nE0Ze/ZYW8aBFQIY5SG6teuMByZitgq/QFn3up/VmWeMO+VN1AIhAYC5gD0VnHLQ2XMBime6MgcyUkdklbbGQfvaxk8JEjzL9h6OtsQY/psbU1eX9qDbhusO+kzP0Iifxgo7pqzvDmXw0XZP41iwQMfZInpCB62SWEmy2q0O9E7WpyD0mVMThCTJlrE+XRhbZCFQE5ihQyAuuGSn0M7eakt/Uz9ayUJfwwcwf7D/XV46fO9eA0E3PTI/0H88kRiTgEKXekE72psJtOEZ/QGf6c046JP2YrNH9W46oF/aMM/YjmVsxQam/+HFZFCPMvhOp9hndXKY2SKykkTi8OIfdN+9G4Vr+u1gxxw+Rx7jnuki9KLHc+ghM3OpbdHknb6D+YLPiJd0BibrMxmTrzpj88G7uZ63rds8Fb1TF8eez2cuZ79sI1WPuRvP2WA0gcQn3daGZ/GOPpsL6Rta9Un96piMH+kjOs2ffB6JdH4Pm8aOSSaw0+ply8x3ghRJCPMJ3WIDyIw/BdHzTY1pjyjM5DABJcBIDjnnK8aTgihnSVTWAoM4b+5TVGdL7SZR5RlBTIpydBk/+rn7vYs8S1G0TcgZvO4RVAyTidovbZkMZCo5DVnC81yUTz/Qm4mBcgkibA9jqEXWjDan2DKwjCqe+AlfRswARa9rYBJHmyhVHTBRf4I8iyZKF8PkO75xoGwlUk4W3kQGynbrxgNlKDdld5+yd5Hy6jcITWxxtm2lkwXwvLad1Zkz+AyUmzPDsQD3UwZ8Tl/sX2TcZFMyWRgE7uM5XSM3ckkwwuHiINm+lMBF3zzr8Bze0z3BA+OA75w07yAIRkw0DJe+WQVDu/5qT1ny0aZ6lVEnmZuUOCdWZwSdMs0JsDlr3f6NIvTJ9jqS0Vc3/ddv1/FEu5wUdOCT75NBe6N81lagDu3gJSNFPpwQfRaACIrpRQxfDlC3g054PnLuIuXxDL9l0jkNvkPoSz0gILRt03UypHc+h+d4AmQpmOCsmkx91xd1jYM6QqOADhL0668fkuCk4wMHk+NpMsjWUM/TAfqGH7EHoF705Vp45BnXrBawAwy6PqFVX9Q3yjfl9dGRe2nbs865Fv6gCawYWWHCX7xAt/IccAG1VULPxV4Evjvc85zP6vY8uZigTEr4YZUb/YIF5dIWB12gpl+enUo3g/DOeDdxowHwwcHGnH322W31TAYbPYItWc6JkDqALabDbAl0dbgLz6CFLuAjx5lea19wKphkq9k7vKAn4Jk8q17PCaZsxYw+TITIUqAkmMZLeifgEhiYfzgwQK/H0Q1dfVOnPqBHfeTE3tFZ48R126Dpg0SLLRfmCnWQGx1lx7Sn/1ZBPEs+eD8RDaOIDMyNeMKOs12uT1c3QH+0S4b0l/PM5gpI6aHkBp9CPyWE6Kw+gj6M2oPcc1Z3+NrtV/cZjqQ5gcPJR+DX5E8KqAOPQJ8c6fdUUE6bxg55gbom0hk04YMyDm15diaIvpEHn0i/JFUgNiBjP3Z3HMIzdOA9e2rLE0earljJJyM2DK/omnfgIHPJhkT0iY6gGX3mbPrCkdcXtEau7Jk5lPzCw+hFoJ4c5nR+nhVmQbBfebWKL+mJX3jAxqtL//BWYMHXkLAVoKGR7hhzkke+G594zXcxvox3PwWvDf4gupVBG9mj37X0NwidgXJ0ytgQzLBd/ApBhbmC7XRf3egXkEiOkRFa6GASgZ7Tr9E2NxXGz+Yd6DiFotyYiFBCQDRjaqCCjmIipZRpZdg5+67Z2sBIMnyYQ2llX0RtIjP1O6IkabOrNF0BdJHrGM44EThaIPUQBIjgDUrOZAIQZQlE/2IcXJPR0VfCy2RkYHtWVMmB0yfL3CZBRl4woJ6063mfTWgUwyDJHkr3p4L+U0gHPpr8TWQcPVsG0MNIcxxMAOgeVaTUYdDgvftx8kZp8Lxr+EC+HG9ZfrSHDtcd6g3vfQfL6F4IlGmWhVVX7gHeaJ8hs7qkT9kGoU0DS72eMUA5+fqWX3ewbeStb31rc1aUw09tOEILMIjkrJwy+GZyNBnrC9oEJSZsz+GdX8hiSJQjI3Wi1yqQZVTypbOCasZJwOA+Q+zdBjTrzyjUH31MEC9LIngBz+m71QOrQ2Qjk5K9zTGqEyF97/Yf8l3beGXsyogmiy5Q4DSDspFn91A3mTNy+o3O3BsFXhh/2jMWPQfqULdz+mLcSQbQXXWSEZsCrgmygf3geHBIyYuBDQ3joI3otvdITAiyRIA+gR59MnHYEmSCsaJGr/CaXhgn6On20xntHBQyCq+cXac7VkLwWL/xgKFHN51QplsXJ4vtIwf32CyHz8rjgSVyk6I6wUQhm27c02fQPj0y6Qks7V9PsNIFeagXj9GHh74bi2Rm4jU2TFACfOMOPcYCp4+TCuSCT9H19GkqdPmUvxODBnzSrkymutBOTsqjNXZ7HJQnbyBPmcrMRdoahfLoVqegluNgPJrEtSc55j7ZowGfyDBwDfDSCoafm8avBLuenQxsiyQNnuKtHxXAAzZW8KS99Gccun3SFzqgvPcl2SiBKZsqC2rulQBkr+i41ZbI22oimbqP/67FLqFnuujKXkCvbwJIcgC0KdM9xgHvc48eW/mgx2hkl/FVcsN8bGz7RSbzDP1A/zhEVmycPk3EV/eUteUQHyUo/NgBGswdZB19ADJwoHe0zm4/HfrlOQfHOeMycugiZZWxLViSxhZgAXHGyXShbRAY0jNznFUC8Fn7Dv1yjOONOtKmxB1bzcll+9Qp+cqhzXhlP/MOnGfHjb/1RegkU4lvPPPnCuixsRN7pG06o6+CBtfsuFA+Ohn4nOt0ytxgRUFgI8nLLrLD6mSn4i94Bu+sCum7++YN/CBrq8VoM2dmDqC35l52Or9+iJfuaZ+c0UnnIGcIzTnrr89smWeNu9Cg75lDfY4PZTXEfEKnPGteYb/YDjSP6uQmRSVoUtSODCqzBnWyGjzmMY8ZVGIH1dgPKgMG1ZFvZWon2rka2kF1QnFqUB2NQe3koAqi3QvOOuusQTXEg6qwg2qwBtXZHLzhDW9o9yoT2/ncc88d1IEzqBHuoDJxUBW90TAO6KtKMagOxuD+979/e6Y6uYM6iAZVAVqZ008/vdFUlaN9B89UYbYzaAP0s066gxqtDqpTMqgK356tk87glFNOGRxyyCGDOigH73znOwdVoO0ZUJcD1IledSrz8Ic/vNVRHdZBDSIGVcEa3TPB5ZdfPqgGYVCdqkFVssafOnkNagTf7lelbudRhKZvfOMbg2rI23M1sGrX9BWNKVMdkEFV3kF1wgfVgRt8/OMfb9cng77idfSkDr5BHRiDd7/73e2+a8qE31CD1EGdUJoeXXzxxe06PikbvtCB6ty3uurgH1Rna1AdvXavDqB2hshPX+ghuXmmBolr2/vEJz4xqAFj+1wNQZNFDa4GdeIc1MCsPVeNaLteHZpWzjW0qINe1om6nf/6r/+66f6ee+7ZDnwlT/wPLaNAG6BNG3/3d3/XvqtPXzx/2mmnDaphG9z97ncf/PSnP211TaQjGW/4UYOVpq81IG3lyQLUCTUga2PNOHPgI7rf+973tvv6pY+ec/jcrceYpnNkUCfndi18nQh0KjKqDneTczWyg2rY2zX9VkeXX139qJNcszN1EhlUAzuoBnbw3Oc+t+lEdBKNeT60sjWveMUrWhl9rQ5eswswjmb65noNmptc7n3vew9+9atfrb0XGUQO97nPfZpNg9RHf40rPH7JS17SrhmT+swGZqyRGb6g9WEPe1jrVw2qGn9BG/SxBk+DOhG2Oo1zdP3pn/5pu/fQhz60jZvqnLVzdaCbDqCF/qGZruu7Z9na8OY73/nOoAYA7TMbVAPLQXX6mr7VibC1Qy/ud7/7DY499tj2na5DdQLbmPrnf/7n9p1udWU3FaILdTJs9eKNs/4Y93hTJ+BW5l3velejvTrLjRegX6PQZzTUQK7ZrOok3eT6KPAh4ybyxuPq9DU5sYtsHp7hgfvoha5dUgc9e+UrX9nG64tf/OK110fb9T1j/0lPetLaNvfZZ5+17X3mM59p95XL82jVnvmLXaD/2oPo0Qc+8IHBfe9730ZDDVCbLjhrozrogwMOOKD1A1+qg9XGBTkbEzWYbvKns47Y6vBnOkBr5FId5jZe73CHO7S5l36gnU461DtR3amDHa0OXbOR0S/Pxo6xmfR+7733Hjz5yU9ey+/wrIs88+EPf7jN19WRbN8zFkaBn6NAV8ZUddQaX5/61Ke2e3Ss+4wy6NFu+qoMmbrH3pGPOp7whCe0cu6TMfpjF5SrgePg9re/feMnu14D5nZf+amgrvC5OshNN+g2fac//AfjqwasbQ42B2hT/ZEDqCdjls+HbvMG3pMP4E3oT//H8XFDIrJmC+kZaLPbLj6iB7+q491or0Ftsy/4nnE8Cs/xBWog3/zRl73sZc0+kseHPvShtWU8r730XZ3GsLJHHnlkG0/aNC+bv44//vhmR80JxoT5NogekIH6+Jv8V/Yv/krsR9rNd8/VIKnR5pp60aONr3/9620O4cexBejhsxgLxs5hhx3Wrr3qVa9qdZHl5sSUQYiOYz4le9zjHrfWAWYwfvGLX6wV7Hve857BgQce2AwsJ/28885ryuAehjmUBZMhx9xEbAIxUExGygBnQztHHXVUcyJCw0TQBpjQDVpwLQMJ3Zj+Z3/2Z+16jEsX+a5PDDUaDWSThslXMOQ5A6ALzzkyQCADE5Q3WWg/kxq6uuW7cD33LrzwwqaMnDfOAqPiwGOOQYxr2hpXZ3h+wQUXNCNi4kvgQqb4oQz+PutZz2ry4HCavC699NLBJz/5yWa0zjnnnOaEmsw4W4IyMk89aQePGdA48+GNdiJD+oEfgkbPOgxE4CD967/+a6NVmVNPPXVw8MEHN7q/8IUvtDL0hE6kv9r2mUNyu9vdrg04RhZSLzAy6FbvC1/4wnaNLL7yla80XRRwckLDD234TO7KGeh4xAHcd999m44KXtAMoaML36OHL33pS1vbDBzE4X3b297W+otuQRzo42hdAX5BghBjMeMk/M7z6hMAmETIVfscJ/fxgwFDt+c8T0551hnoIQeHkdW2e8qNIvS6JyiCb3/72825ZQwFuUAmKdtFdAQ/M/HjNfrveMc7Np6jIfxWtksnvVbmbne7W3suDiL+61/qd/ge4xt9NAFw0CB1htcXXXRRo4Pj/IMf/KDxTBnl/+mf/qnRx8hrS99N8MapxAUoq13PmSiMaY49p/eHP/xhm6gSnKCFrNhZ44kN4aSRIUdSUPj3f//3zSbpvyN6nkSCthO0v//9729OvaD+9a9/fQumEnhoR9BhTBvjaH/2s5/d7rlGJ4wZjnAmLX0ZJ79xwHN1sM3suUmabIxTttp9cnDQRQ4T+2HyZosB30YR2aGJXDLe8XccIkeOqSDNWMMjB5rwVsAOCUKM9eiLPgC9gde97nVNp/EWoi9d4JE+eUYiDJ1ko332jA6oF82pH7TnWXrOgaInCUJcf+1rX9vaVhcb5LN5gXPx2Mc+ttlPdvuXv/zl2nrNYfosUCCL2A5979rx6UK9kYsgGb/MUV17Ox1Ej8gzDlrGKTjj389+9rOmv9q5173utda+KNuF+tKPz3/+880WmMcgdY7CM+6pK207kwvn9cQTT2ztSoRAbOBkcJ9PQ4Z8CbpvzHXrwMNx9bDLEjHaNM/HRnd1ZCIoC69+9avb83FCRw+6IBnMfqX/XUSfL7nkkubQvuAFLxh89rOfbdfcG+X7pkKXZ/RilH+RG8SO4T1bovxkOjAZ9Dlt5xitT2D0pje9qSUc2Ghji8zZTuMTHWgyN5hP6PyoTI3bs88+e63diNzTJxBkSLLqWxYC+IICEoEyW+9ebIRktfnCHGLOiD/KlwNtTdX/jYlprYRgtEFjQOiYCOs1r3lNu2/AgMlPRzmCOoVxJuTuhKWeOBAmVgPF5C2KVD7GgwPLuDIgWQmZSHkgCoFWnyPYDMiszohqlYtCdeE6MBgU6Oc//3lTXA4HuK8+NDK0Pqe9UahbG2AQZzUlKzGTCd2zGeAcGM9RZBORSUOARNHDW+eJ6oIor2idMyhQ5FSCe+G5ickkwinBe06AlRtOEWfIgGK4KDWHWUaY05e+hhcUXFApmw/ha/itzQc84AFNj573vOe1a4DP5K7PBq3A49/+7d/aCpBBJAuWIESd6bP6tI2nsjboVz+9cU3ZOL3a4GjiKf3Vd8/LhrqWzC9d89yojngmvJCt4vD6zMGQxYDwO9BuJuYYRU6rthkhkyua0M1B+O53v9vKhm/jEJnFkTj66KPbZILe0K1N9T/xiU9suoN/2j7jjDNamehngE4TbtcRUA4vHDKyHMdkrMeNx1wjM316+ctf3oJoOkTecWKTtRkHdOkfu5LsMb1z5rzq7/nnn9/Kki/oL3o9m4CCwY+T63rKdGUaWXWfiePrGTTmGW1x8JSjX5wg/c194wFtSQwAx1GyJe07h2ZZSXUJEpMk4Xw7c1KtFphMEqRox+RkJU//tU0+ZOxezuSkDkGcazKXHGw22zntsLtPe9rTBm95y1uak4Yu9JENfuB5VuwkAtYlCFFGWTBZsj/6hQ4ZWSADdOoP28sx0raEjf7o42hb6a85hEPKHn3rW99q95Qfhbod+kZ2+kKXHPSSfpKVMuiNnI0d9jW64z7QbysN7GPszzh+ROacUcErGWiLfTVXqls/lOsifZBYYIfREt6jIbsJ7nznO7fxLFg0zsgx4xfUI+BFn7GoHrbCHMyhRA97vq5BiHpBdh8f2Wx6J3nH2ea4mnPx6SlPeUqjzXPd/uJbvusbPUy9QXSI/aezVnZgtFyQ6/jO2YsOjZNR4J7nurR47rLLLlu7MviiF72o3cMn5Tzj85vf/OaWddd3PpKzcUjmVkAEh8Y0vYsPQO5dmnLW/9QvaeWZ+Fp0LeUmArqVYZ/MM3hvXkGDZJWAUbDNB4g8unQE3e9dPqNvXPlNCfSQTWQVoMm12FjJPnMfv8bY8EzG8Cg8q1665sDryMIRvnb7rS2HsikDnrOiIsnAN8B/Y40Oocf4N9fQETZW0l2AELphlOdAZ/7xH/+x+XB8ImOYv2BsP+hBD2oJc/ULeNhaumMelghUhzq7+pzERnRxc2HKIARxEYBlVxkckbEJgLDGEU8w7o0qSUAZgjg1QJDAGSU0Wc+uczURQoMyDt8dqS+TvCwbhhNGlzZl8919zmpXCSgZHjjU795ov9MmEHj69dGPfrQpBcXrTryTIbSgQ1ZLNpSzwnhwrgEtMc6jtHSRttDBaWaMTPbACHnWmfHMNo44Qw4TtW0jDKqJ01YExj3oykYmwBIkpx7wP7SljO0pcUbCD1tIOPUmMu0//elPX+uMc0ZNbspbzYHI2DkOvoCGI69ukwL+ZHCFB2h33zbAZIltp8EX18KX6LX6GS/9YtCtBgg6Dj/88BZ0yIJygPDIYLd9xHORC/gePphAGQl1AeeS8dA+ujgXgF7lJ0L0WmDJ8dW2rGf0Gt0+6z/d52iQIflxQDhReCFTaCsG3jGWgjhOSpaCtePAS9nwk046qV1Xd3d8BGhOu2eeeWZzNrXtoEsy7e5PZDfAffoIdN9znC1OqQmVI4Am/URX4Dl14oPkhmQITNSO6zHu3SBE8gGir5B2TOwSGmSYLJJr2raaRTfwFG0OiRk8BfXl0D9OizYF2gILQaJMr8nFGHLPQb6SIsZUHG3AA/UkIZIzfbadQD/YjdSTwJnDKABKlhwf0JSglX3J9tWs2AlC2ISZBiH4og32QnKBPqDD/AH6oAy6OeTGvTEsiUE/oTuWQLsZz3jOtprMPR+96KJbHl/wGU/RoY9Wr2yt9Zw5DfCIjPXbtfCIHqBXwGmrTBJwXT3sQp1o8my2tVh5IXNA1+izaQsE0ejjTBgLEHvnLMAYlQP6tJl2HcoIrq1uZ8VIAgkvjM3Y4enKFfQtdCaJk9W10YON5CihaaI2XEP7RJjs3sZAdIajZ26wipWVsugZmo0ZzpyxS7b8Fjo5ygO8YeslnWAinYHwCdgGTmc3GToT4Bubb9U9dnU6iIzQ6dDuVPPS5gS6yAStGZd2cNBv8wf+dXV2OlBn+tv9PBG0TW5dXSVLMjfmJdXYd+PBmKYX9IrPwzZaoTbPshVsjLlGEkuC2Bg1N7PDzgJU5fgk8df45hL39DGJd0kX8jdPoUWSzHziXux5/KTNhSmDEAiBiLV1JRNvl/AI2OHzVCCwOAERXAa+ZSUTBYZOJwgZB7RhOiQIkY3RB211FUVZR/caaBOd2k+ZfIZc635OHblu354JzWpItorNtC9daF+/0DUdhKe2x1F2SstRgWTisgUiE7OImvLLmrz97W9vy39k3kV3sIXPjDSDadDpf2j0OZMnR1gbsgOyBSBLKusr8yhIUTfdUD+HWQZeEJLAAc3KgLZlAjluBrZB7Jp+45UjPBDccnJMKsoJVjgc6LH1QnueVbezQNKyJ37gG4OGlmxnAw4MR0Edca7wNdD38EdmUDkGgkNu1ShbQzyrff2O7kyE1JcgJBl8z+Mz/ZLpYvjQLUiSkePAy9JxoAQ+Jk3Px3mI/GVbAC2Rs20hkhCg/sloDL9lLLWLPxxisqATkz2rTc8znIIrYwffIA4hjKtD/WgF9ycbI8py4pTJ+0CMO32D0TEaW2CCo6cmEjx2HY9krclV1ikwCb71rW9tn5ULXwQIEizGozFAnuyqwNYKoqwY50P/6UeSGJxzbatTYKwPMBE/OX62kgh+rYhoK/3ybGhK33KWraXzAlTf6cy6BCEZozLY6qNrdJ6ukrP24hjZ6mmVgK7at0yOxlG3na5MZQ/JS3kBL7ALo0g/wRjPligTtrHPtilDBmgC7dMHwSmEN4Be26GyJ30qPuQ5NtdKqGQQ4I16R5/3Pc987Wtfa3YR7zP20KlMDmXVRY6RJd7pU46UBToPVtPYVLxgw2C6cg0y1sjTbgarUlZuyJjzYzwInuJAz6TuccCvHNNB+LMu7cbGGsOCNU6irXyQcQz4C3hnfvcOnOQUeQnOHOY8uxcktLoymQzqC3/RkOAl16aCNtQR+sBn/OjqynQQmrdEoIs+6Gt4FlqtRJjv+V7GEiizLpiuDimHhozLLo/ZFzbe3E8vJGYESOZiCVg2h31ydpiPzdUSwOyVOYANNW5TRvLyuOOOa/6D5GF2ZLBh5nXj0JzGbuGLRK55xLyaoDp2b3NhWkEI6EAGAGM/agjWZaBHWaI4URAv3WG2ZbQNGYSYwDG82xcI7frk+ui9cUf3HqjTYXBb3palY+hFv5xMKxBx5KfbF+X0wZFMn6NL31SInDh1JgoRdNcAWeqVveHsCCAspcvoc7b0B/SRbDi4ntV+t++ugaXFZOy6gz3P470Xwk2qgpy8NKxPlgmdgX4laGF80WXgyTJ3ITMsG2AQ64PlZpG+9vQP/fkMMgoyERnABryBqm77wGWIk0UJnzlHAiaGzJ79vCxLHhm89FVQQ97RgS7y3V5Qg9/Ez3lyMJK2VMgWKzedCTZ84uQbJxxajm2uezGbk4wn+tc1bA78164VJs/im74xjBzNTHjhIdkJ4IxFmEr/PBPekKPJN/1yjt6MQ+RumxCdNPnnxVk8j/5NBPeUmayNUcgQ4wunf9xKSBDbwaAL3POSfOTL2CcAjc6n3+EjJHMsMHOf3JT3WZl8NiZkwDjLWXETaDvblimpYiLhpMhwc3DtKeYsuYZvjugF6IPxFV3TVvcAjqoX2fOeEbup3XUNQjj6VuIEoxnD5IxX5GVFUMIpqyC+a3dUBsqGn1blIjN8T/lxdOUZ9sKWSwGehEb0KLqKT8q6x07lpfEuHd36x+nIOIzSFB12ffSe76mXPbHty/gN79GqjOe7h/6nvtTp7DrgtSA+QR87liCk+4MTeXa66LalfnMcvcm7dUF4HDrXBenPuj4/Xag/tEsicv4krmztgug10JfIcypEVlNB+w5luzycab/xSh1odOSzc9rYmqF/o2NQ4pAdlHiRgJPAsXVR0iD935QIr+kMWjMewVhk49lsdpz/ZF5h132W7JQAYudsA9cXNtKKtsCEr6VM5mXIOM+2XHMNxK8xNwhcBDhZAc3Y3FyYdhCCkRF6DMGGVGJ1RaEwx8CX4c3LuzNVHvUlM5Y9vs4mvwzO6dKfvk52oE+9JjLtmDhEtyJYTp9ACFJuJlD/+mD0ed/132FbCMeYEyCL4xr60KkvZOLzZPxKf/BbeWW7CF/wXraMLLqTauA5Rlf51GHbiAAAD72sZ9BZnfECVlYnONqyb7IAqQO69KY+E4lgzJ54Tq6J2OBWP3kJUpI1iT7SQQ5M9CnX0ZnPwTgeuYaHDkulgmtZXC/mW61gOMLz6SBOpSBEoGF5lTFLvzl9AgsBhrbwj1HifDFcsuJWnDianG5Ga9QQTSTria6Pw+hkPRFvck7/rdoJkBhKwaEA2v11cZJGkTY4SjKWnLG85GdLRd4JGZVr0O2Hcz6T3yhtdC7lUx/9EzR7aR7P3XdP33x2+EzXorO+c4j9mAK9sWLQDSyTRXMIFoxnk5XAxSSGfwKLOEvoQe84ml0L0Od+gpDsIZ6JHFKfQDRZOnZA/+ixydE2BOPYamZWjrrOV6BN/AFBqjHPUQc0dWmfDsLvLqZTx7q2pb9T8c699N1WIKuV5Jutmhn700G3HZ/RnOfHBSH0cDLaJgKdGjde0udRHm/p0B8Hu5xtLewpWzlOZwBvM471OYcxlM/rwofow0z17eaOLj/4CLZ0Ww1gH83rZCZZw9byF2CcTdmUIEs6gI7pylQyyfZtK2u2x/pVO3o4Ol/Tu9QL/CRb+POOYpIP5jwBjUCk+0M/mxPTDkI2NggohgzDGUdOQYKQcUZuMqgvTqMsNaXMSkiMzLoY3MlAqdSpDYbdFhaOsiX1/FTnTPuxoZAB4Mhn4IhSVttBgLIymPgzGSbiXfjave9z+s15sPebQ4Jfyju7n0EZ+kKjLD35yYqbOAWovnO2bPOwbSLOYxynbvtB2gNbKrL6IxAT8MrUWlmxYhKaHakrdHYRWtU7Gc+69MhcaKO7Mpa+TgfkAwyvrQL6kD300XmBha09VjWc88wo0BW+MEZdOXSBvnHXp4LnJqozSPtosQWQXASFsv0MpeujfF9XqEd9eGKFix4xyAJZ70J07cNEcG+cvNKH0SP3gMyzHRK/U0/KBb57Br3dvtMbL6gLyO0xF0w7vKfE3ngh2HY6KyMCUyts6sLjcW2MXgPtmszCC3bTWLO9C9A97rmJkL6nH7LLVp/YGnufBUzGtGvqnWyCTrvuZ2Kd7thBR/TRMVEbrisXukcxk753MZ3n0n+QZBBwSjRwPiD3Zoq0HTtgXLGlAv04aXiyrn0Lz7qHa+ta3+YE2kHgLMHDFtlKB/g3XTl2jx4bDrEj3uG0pYn9IyOJErbcPG4bE1sosQps1kTjfXOATrAvsUWO0Ogz2+v7OORZeqqs82Q6ps6Me7aXveWTZju8OjYnSgbJ5j4iEMg+/bwT4j7jO/rMuAOc1ZdsooyZ+ix1RWhdI7mhjihGlMfSoGyWzHrub+g2Z3Jo39G9FviMX+tDX3irjsnqyaBBS9oePTyfCdf2CHsnsz3HpOzdDMGMrDloOwNtorYzgdjLL9NOJ/IeB+fOy8xpM7qIRvJ0jOOfQ3uuT9Qu5DMeqyt6giZtdctPdTBQoO+CMEbF+y3gXniRNnx3XWbPdWd06Gv6pgz6c4y2OVHfNsTR5Z2fEjXhe/FboOpa5LYhDm1FtmRuhdKWNrqVjPB0bM1k8h49gu7n2CbXxvE813LgwejEJKDBI9uXbDewqtBtw2c6kPHWRdqZ6Eib2rNdUBDyD//wD+1Z/HF/3HMTHerJD1pYjRN02FIgUykA9O6KFRt1h97JDrQp6wgfYbTc6DEdubk/E/luyCN8B0GIQEEiK0mi6ejmuEO93bplSgU4ghBbh4GMNkeft6SjyyNbGWXT2Yf8FCrbOe65/th0R+y3AMO2K+8M2lZu1cA4kViVgAHyXBd7takP9DnYPrYnB9rZffOFFeTYvcnGquvux9fwPTptm5eAjf+ET9pQBsbVtSmOLWolhACAA2LgczJdD7Ong5QL4wlQVMzhzN8NwPRx9bm2IY6u0APCHld2cx6A513nZly5DXkwIA78mKy93MNLYPxtM+J4CyK6+yDxOoYpz44i/VNHXpL1q1CyqV19QFf0sFuXzxvi0J/wQDtT6fbo847oluwoB4UD7RehgCy7bYy2lfbWpV3Hpkb0ZEOjq39e1rOS5PNUfFlfqH8i+9OF+zkCnz1LxiaiUbjvOv1wJnftrQs8l3GV7aV+AALWtV7PgQymdz/UyQn24wV+lSv96yI8GD20T6d9vrkhfBIo2M4rG58f+4jujDsmQ8pEb7ybI2vMyc6L6eN0aiJ0293aDzzVd4exFb23Xdb7nH7SVIAMG8se9ZgZyG0qkOuoPbklIj6NoCSvJkjM86Hc29w6PcuAm7XmT+JvblTFan++vhqA8q1vfavc9ra3bX+SvjLw9/7k/kRQRtnK2Pan6H/1q1+VRzziEeWSSy4pr3rVq8pznvOc9qfrFyxYsLZ8MHv27DWf1h/qrRPlWnrQsqXweRShcVNAW47wejptk79ydcJsz9ET8nX4jLf0RpmJoGx1eMrFF19cPvShD5UTTjihHHXUUaUaqdZ+ly71bcnAD7z4zne+03T78ssvL+9+97vLKaecUhYtWrRWt7sIn3PeUmHsQ+Q6b968jUKzOvERqqPRvmubHm0JmKi/6Mw59iWguw7P5vnu/ZkA/9Wvvqc+9alNv/7yL/+y/O3f/m0bM2STtmYCzxqH73vf+8rb3va2coc73KE897nPLbvvvnvjf3R3fenfWqG/9HKHHXYoX/jCF9r4Puigg8pHPvKRsuOOOzaZrI+OVke71VODkPLIRz6yVMekvO51rytnnHFGue6669p4m479uznIRR/o8Pz589d+z3zw7//+7+Wf/umfGr+f//znlxe96EWNV1v63HBzxTg7Ez8g8B2UJdfYqFs62BM2owbY5TGPeUz55Cc/WR7/+MeX//zP/2z33ZvKjnfHe7fsRNdngln+HsOaz1sEdMrA52QxmBRJ5yjYTDqM8Sa0H//4x+WZz3xmu/aGN7yhBTYMTQx5t84uJro+ESaiRz25N9M6NwfQuqnpnA5/GBv3c3SNzGQ0517OHE66xVk3qdADR/f5zcGDyegfB2OEM3f++eeXq6++upx44olrDfJEz4zDTNvd2HxRv7GuffL13TGTPk0X6mQnYlvYC22m/Q2N9MMZup+h22b3ehcTXR+FukbbmgnwIHaYE/bhD3+4POtZzyp//ud/Xq6//vopx904pKxzJsXtt9++tcXWcwZHnYbp1D8TGrZ04KlxjBdXXXVVOf3008uRRx5ZXvOa17Rxjm94NK7PE/EhsncW6O28887lggsuaPMi/X/5y19eTj311LX1TwdbO8/RH16fc845jafmhp/85Cfl5z//eUtaOgsAX/va15a99tqr8So2aRzCZ9ja+bM1YDIeRxaR8y0R6Tu9lVxgY//4j/+4XHjhheUZz3hGSyr97ne/azZ+Kh5NxOsNoeezVbIlHYAhnMRcM0nleo6pYAJlVKyEyBQ/7WlPK4ccckhzPD3vvmMidNuazjERuvdGn9kSj81BZzDuXg6DyMTMUSRXnxOgjj5rQskRnXJ2j+NzxRVXtLM6Mul2nx/FaJ0b49CXcce4sg78EEwfd9xxLVtKl7t9nezoYqJ+T1S+S0P32Q116LO+kUv3WrfdDXWomw4kMHVNf13fGEi96Vf3c75PhW75iY70rVt+XYAX3bog9XV5ON2jK0cToyCaDnOMyUF7scs52P7RY1Qnx7W1tR5A9/XdLoBXvvKV5dnPfnbjE77BaP+DcfU5uvCsAx/V1/0ejKtj9Igct9ZDn/VjyZIl5Utf+lI588wzy0te8pIWcAi4f/SjH7WEpWt777332gBktO9dnnTRLdMfG/YIv30mkxy57zOQcc63xCPAK3OqgENiw3f21hF+BuPqcUyEyGK9DnsgEXJzA6Mhy/bNb36zfOxjH2tZPM5GjEmACUH3c4+tC5MNFHCffFOuK+uu/ncn460B9FmfGJk4FhtTj/sxcssAXeL4mqhkzM8+++zywhe+sLz0pS9du0JN1yYadxPpSbc8R1s5dU1Uzy0V+CJLb1wDXk3G7+mCTM2LtmPZmkGWtmU87nGPa9uxyBtuzuO8y0M8xdvLLrusfO973ys/+MEPypVXXtkCwIc//OFtJQTPIoceWwd6e3Ij4gvb3mnMS8K+4hWvKH/xF39RrrnmmpYMCjYH32bVRmHN14kxU6M0nTpninWhIc/EiEO3no1BZ49Nj3Eynam+3BzQ1eeNoee3RJ7eEiEI4aByvrwTIgj5u7/7u/LiF7+4TWpZqZopbsljc11glUiQlkBtffnGobaaLAg57bTTmizPOuus9n4IeUvU3ZLAL4BuYrIL/OkDkB5bK9hxOmzMn3vuuW2cSzS85S1vKSeffPLvjfkN5SfMBG071nSgMzM5NgbQOpODwWZkMLprvLtletw8ME6m3Wu3lKOLia6vD7p19sfN9wjYzayuJUvOpsbOj3t2siMYd68/fv/gAHdXQEbvz/SI0x24FpDxush0az4EH/rNUROg8RVyJNge91x/9MfWcNBtZ/CKg23o3gnzjlPQLb85MBuR0zkYwpkc4+rY1AcwMqLALYWm/uiP/uiPreVgN/PeVM4wrmx/bB0HcDgEHObHyPWWOEem34I9fkL3cG3cM/3RH1vLATkLqn32/uMuu+zSrmVFe3MeN7+XQcZAR3v8Pm4a926eKLhHjx5bLtokUZ00TutEW1YmRDUpA3+LSnZ99ar6xWGVnK3JucfmgBURB4fEfvEeQ3Sdox49bg6ILlsFYccFHtmCNboyujlwiwhCeozHquocrFi5sqysDsLqNctx9b+1R48ePW65iDOWTHn2xud6JrdxYD+Wr7Bty3aAGsSsnl1Wr7LtZVU9lreXrtvWH2WHj/TYBMiWC/wnPxnR/fffv12DyWTao0ePrRfeLwNjXGIJZpxY2gjog5BbKExFs2fPKvOqgzEos2oQUoOSdgzasbI6CK716NHjlok4rDvttFM7T9dBFVrIr82bP6esWF3KDYvrsXRWO2bPnVeDmQX1PKethazaOK8P9pgAkaEgxN97sTfcH4qEPgDp0ePmi6x+SP5sSWO9D0JugeBbUEFBxqU/+0W57vplZW6NjAUls9Yc8+bMLoNayApJjx49blnoTlJ77rlnO08nazZcTZ1VVqwalI9/5sLy2te/vfznWe8oZ9bzma97e3n9G/+7nPPRL5Svf+uHZeny2k6dgVbKfvTYpLA/XCDij5zutttu7aXsLSEr2qNHjw2LJJPyU7y+bzljvZT/Hwv+dVwjmNa6AAAAAElFTkSuQmCC;" vertex="1" parent="1">
          <mxGeometry x="40" y="10" width="482.53" height="100" as="geometry" />
        </mxCell>
        <mxCell id="g33-bpzD2PHKhCho9Dx2-3" value="" style="shape=image;verticalLabelPosition=bottom;labelBackgroundColor=default;verticalAlign=top;aspect=fixed;imageAspect=0;image=data:image/png,iVBORw0KGgoAAAANSUhEUgAAAP8AAADHCAYAAADWIYUKAAAAAXNSR0IArs4c6QAAAARnQU1BAACxjwv8YQUAAAAJcEhZcwAAEnQAABJ0Ad5mH3gAAMhLSURBVHhe7L0HgFxneS78TO8z2/uutOq9WJLlbgOmGTCEEiCBQAgtIST3J5VAKrk3uTeFhBYCoWOKaca4gHu3VazeyxattpeZ2en9f57v7EgrW7ZlW8ZtX+nbmTnnO199y/N+7dgqJMzRHD0FiU1sNtvjvs/Ri5fsM59zNEdPShL2XC6HYrE4J/gvEZqz/HM0Ry9TmrP8czRHL1OaE/45mqOXKc0J/xzN0cuU5oR/juboZUpzwj9Hc/QypTnhn6M5epnSnPDP0Ry9TGlO+Odojl6mNLfI5wVI6pCnWkP3dDptbj3e80vVvqr26wulP+Ys/6+VnlpkZzPKE5HuKZTPEmY/92RpPL/0wi3Zc0VFdk6Z1X4h1XzO8v+a6LGNrN9VC1D9NHH4p1Iuw+6QXp4d60zSnQIZykaRt9v4i9HKvGrnFwf/VipSBRbZbFUd/0KxOVWy6qe/VZpdwhJv2GddeO5KX+E/K3WVRSKh39rCoKvV8HTo8XUqMeSZtoMX3E87veeC5oT/fJJpyWpzzupefq1aZetuCWXygt3mgNPIJcV2huGMIFeKvMYbRmgVZqWlBJSYjWkgy+95KgoJEJ9hfLIsb+qZajnIbHDNBH2vlkLxZqX766JqsQxJe1F98VqZyspGSZfiqlKR10+Vcqao5m61+OeF1O76J4XJnmF7Oh1s2ZIUsI+tpjKZaE8rT3WR6sWuQaWQRHTsMGpDLH+gGWVbHdPymP5/PmlO+M8nmZbkHzGJLG812MlYNpfR/bLUqKThMJaZrGwnA1RmuIqCX4wNIhsfQ7BxHuBv5EUnA5/XbcXRlyKFPj+IyYGdSKdyaGjqgK8pTAY7AZcniGBtE5BLoJCYgivSyXS6+JCfwaMUSMpbqc3k++ukM7hNbVWirstT8IVbqP7sLGOFispW4P2ZNmI5KxRBCej5Fn4rV+UitalvMaY/YSS3Ai91kyQ2YmKcC1WrV2T/Flkvn7OI4WM7sfehH2FBqweLNl6NSnAJbC72rS3AmOdekWraj6Vn2hSOvyPNfJ+jZ0un5IndVMmRX2iN7RR5MrIu2ynIduQYkhjr2Q1vOQ67h4xuZ6iQ2W05HN1yE07svx8d8xeAEk1rRLY0aVo2vVJmWs4c4oduweCj38dY30FkUyk0ejLY99CNmBo9jrbOOkwdewR7HriRysCLYMtCPuhhqWjHquU7XdhfLzFL6TorqE55lJOjiI31wx+U0FPIJPOlKGLDe5DPROHx+1huCr9RkqfLfD62FhNvsDVk3dlPpWnE+x7BVM99GDu+FcXEIPweB2xeKU0qYZsU8dlJLWoJJ5VGmX1sL8DtyPCZJDJDu5Eb3AZn/Chczgp8nVTsBol5ef/crP8TCX6VnklLzAn/eSd1E4W+kqIROYm+g1vhLKXgDtfwujo6i9iJPdh65w/JFwOob+mgEJC57TlUJg/j8PZfoqvJg3D3SvJHI1NzzjA5A0GaLCRKcST2U7DHHkFHeys6129GYbIXY0f5u96FoD2NwX0PwlvJI9y4AL7W1XxeAiSGEz1/wl8VEsl3mX8cpXGc2H07djx0K8KUsWCkgfX2IjmyB7vu+z4GqNzaWlvh9EdQLHtYfylDS2DPg+xb5aHidVQmcezhH+Pw1l8gM3qATdyL6OABRMcHUBMOwsH8YQsyPHmmdiozeyWJXPQwksPb4YofQSV6BBjbg0bHNBxuxqCecbhrYfcSoRlk91hSqUQWFqEHYrkkpSI/hR/p8tE1rOiT/qPhD+PyPT06NywzR+dO4uhSnp8ZjBx5FAcf+SV1wB7K/CSvEQ2QORITfQiUp2Cb7gPiQ8bYyeqMHH6YcH0C9Q21FAChATH4YyyDpKZUgd/hhqNQMEyAGvqmPjuC7gpC+QnkjzwMTzKKhlAT6pqJIGhlBJtfCCQGNUzHerj4pTRxDNG++1HnmoS7NEVZ4A3WuZyZgK80hBDG4MyPM36WdbDcn/PqqDIxly2P4vhepAbvR1soi4VtTWiLeNHsY55TBzBy6C5GnGJUlUGkTnh8ITRQi1IWIwe2Yt9d30Pvg9/B3ju+hoE9dyBkm6adzyA+2otdD9+B+MQQn7CTXR6bjqnhqVBmmpJtJxGkiwbC5UjCYY/SQxyHwzbF7zQyRJk241Q+vkxPRnPC/6zoLI1thqd5vUDIl5pCozsDb+4kf0/SB1RH8Xo+TUbIwlOMk1l4zcX440eR6NtmBNgTaaZp8JPFZpjdJCyjw7TFd64Q3cU2pF1tmIhPY+jRO1BMDsLnoDKIj6A0NSi8gJpWwn1fPZ9xUo+4noBlz4We2VNPSCyIU24RJilY98Kf7UfQmUGklta1SCamQrPnU/AW4vCVU0QHbCO1XSljhMXy0meX6czy6ZfqatnIM4OuV4NJxTzqQDoxiWxyCN2d9WjYuAZNG1fBZ8siTKHNDlF5s39QTjB/lVt9rHCaJMPmSqmE/p5jSE+OwU+/vy5Sg+a2LrjcXuSyKTTVhXH5qy5HfRMVPOjCzZ7OeGw92A4OsP7FQRRGtiHVcwemDtyI4R3Xo3/LdRje9RMk++5mW/UyctTEN3WaCU9Fc8L/jKnaxKfYyASjyI21dlD+M3AWpmFPD1Lgx8l8WUYpEWLa4HEQ7hHGoURmooswcfRROBInEfJ7YQ8KDnqYFtNTmibtGZLfafPDv/xK2OddglTRhljPVgwfeBB+Gy0AGaDIQvib2uBYsgIIU6CUDpPQXPPplGal+aSkeNXwzEgCdiqoueQWIYb4vtuQHNhJ655FXV0jHE3dbCM362dHIZUlErBT8KkA83KjMnA7k7R+KcLgacYhujolzmeWT/lomlC55FnxXKlAqF1g/Yu8XkShmKWOKTCdMtvFhmLBhnDzYixYfhEOHDuG8rGdQMCBYNDPbNJw5xLITw7CVk5TYDQQaamf2WS8AWOiPViz6Qq0dG9Cc/fl6Lrst9Cw+c3IuuqZtwNuN+sXCrF72Y9UJGWmZw06zq6DZkAst6YS68Xxu7+Jg3d8Eb33fhnDD38bkzt+gtS+X2Dq0R/j6N3/g8ndPwPSJ1nv0mkF99gCnoXmhP9ZknxPDRrR8zKhSMEvVOi8lhzsbBshJQU+Q4iXH6HQ09KLgSjwbj5l16h9MYnySA8mhnsRoNWPBAO01n4+T9+RFs9OBrGm8flHXG24jMol2IHuS34DK9ZehHkNITT6bHBL81O68nYHQs2t1ClplJMxlKWAKDB2CpAFD0WzLc6T0bnGe2KqAhYjpmUJLYV3aAcGd98Ef34MHlawvXsJI/qJUNR2FUxPxFkfLzx8yK4/8WPIHrwVyeN3UBj7ybhMo6K0ZnO5vqs38kQ+GarPBHz2CbpIY/wc4e8huIo98JSOsf2FjqaYTo7ZUQxCnWhoW40CFc3k0EEgehKlAhWQww666XScqErMwG21/c5CaioqZ1/zPCy56g2oWX85lS8VeYk8Qr5wu31IxFI48dBWTB6ntTbSpzLPrgN7mj/FV/p+cM92nDy6C+5yEiFPBQGXDX6Xk9/dJvjsFYwN0X0kL0mBSOkpNcMmT0FzA37PmKzOUSeVqGaLZX4Xk5NPbWVarOI0ogN7iOqPsrPi8Hd0wx5pEd5F8eRh5MaOwEvYH2xfgEzZhf6D2+CpJNG2aBmK5OnDh46gqbWdIMJL4Z8ZBZ+ZHpRvaaMQDfYdQt+BhygM47BlM7AXyKBkhizjnozmcaB3Aj39w2hpbYbHqyepSDS1KOtqcd4pms1+VTrNP1Zdny6JiauPSWTUTi5nmoJ1BEce/DEC2ZNwlZJo6uoGOlfSGjbD7gzzQRtG97JeqWF4qBArmUmM738YUz07MNK3F4VsFJFGtqW7hnloQFSDZspIuVBAhYCKE7SGAyhOHEBmeBcSJ3dj/Ng2TBx/AKM9DyM5QVfD56ahDlJh89NeQHb0OJKDj6KGisEbdKEwEWNbU4nbg/C2riIyWUqJCTIPLdJ5fHsIo9kI+21EGJXoCUR7HjV5TvbthHP6JAJUIIl0BYl8AJG2lfA2LiLDqPzqk+qAnSz+zDd+5JNTbAMHFq1Yj7oFa1Ezfw1q569Dzbw1DGvR2L0e9Z2rYIt0o+Jke9AwyJNQ7z6+hGfSnPA/GyJ3y8o47FkyDyG+LUVLn6HgRwEydpxM5s4PEL5OkiHKcJQJy2jlp4eOw5OfpFWjH0th9C+Yh0gxhgZCTTut98G9OzA+GUdH93LYfbUol1wUWsF9shcFuySpYu+m0tNIjfXAX5qmlZ9GwKnpMObBNOs7lqFtwWrMnz8f/rAHB7fehcFju9EybxEq9gjl6/R4glSKIHDJsC+tB79XlYH9XEzIE5AeraavUWkX0rBletHz8PUox3thy02joZFw2ObC/iMnUNc6Dw5fAJXpKIb33Y9wYQReRwZJWmG3BkI9OfrhSSSmhuAJ1sLd2MX0pcjUNspMJwtnCNGP4tiWGzC6+2ZMHnsYY8cfRXyIyGHqJOypfjhSfZge7UUuEUdd0zwKTRgOBxVHrN9M8zU6RuFMJnm/hELZg6KrAbV0sxBeQPENMg/leaZwmbakctNKBJmER+65GX1HtiOfGIY9O4UQXTsn0VzBVYPuza+Bd8F6eoDSyBJ+FV/ielohG0PClCJNrahfQD5oWAjUUlnUVMPimc8FsIW7+Kj61A0H06mmMrt8Z6PTuc3R0yJjhCWEtPB5WpZCzx2oHLoB+d3fR3TrNxHd/gNC1YMI0po7s2lMaKHHPd/Hrvt+gqmhw1QWZbhdLsSHjyG+7SZ4C+MoZWKEg3tQW46iq8EPp08LXsgCWiamrpSF0FdC0ZLdh7b5q7H+VdfC46uDyx0gAzms8QTC2GBDE1FFB7xtDZg8tBWjRx4m059gemnDqPKHjZ1kHeQHVwhpHQwa+bY5qJSoyGxyWYyPayrLcC40Kx6/mrz4x0W/3k7Xp++Rn9ES72BeOfJrM3wdizE0MYV0epIiTGvtitJ6DsPnjCHipbBXEqhxFgjdC6gUCOPLCdTb6BIwLZQn2QUsK8tn+bhi5wKO774f8d4tiOT7EClNoMFjQ8hBV8jpRJhx61mWLl8RjmgPkBhlndkSGjGnW1Skj18uFlGalrA6kc84EK6lcNV0sJ28VL6eJ2wNqne2o/rIieaWLrS0LEBj4wLU1nayTf1m/KHi8wFNdAXY/zZ3ibqfnxW1s3rEIqVtFDJDHj6GOmRL9ciVG5BlSJfqkCnV8loNPxXCrLWP6Ujwq47o2Up4Js1Z/mdI0vISyqEjW7D7wRsQ7duO+IkdiJ3ch9TEMZSSJ+G3p+AtZ4kEGJfwsuwOorVrFeYt24TJkUm69fT9nWXkkhNITI6hwHjyCzMFOyLzNsI3/0JaabKrw0ems7pTTCFLUSgSaSCJ8b33IHpsK4KOHJEFGZgsU+advhNx9PaOwT41igQVjIv+8YJFS+BuX0XWJ5pgYvKL3UIqtmk4CJFL0cNIje9FMU40QYGzaS7OMLTlJjyZJTnNahYgVjnpCZlPD5WIrTiIoS0/Qab/IURsU8hTSS3YRJ+4VMT4Sebns6Oh3ossyzp5Yj+ciX6DjoRu7G4XCGqYWJ5IgAJDWJ0s2uCtaYYj0MS8iRYocIbxmVc5Nojc1ACVTRreUBPal12Ius7FqOvoYrrDFPhhgWOKWwDh+ZuAQCerV0B56hii/Y+iyc8+KbgRzdfAWb8S9StfTeEXrA4yH/YD0ZUstWpabROjEPSDylQp1zaH0dxai7p58xCqCVPhHUMhNY5AA12wtvmU9QLGTp7AdHwKgWCYyM7L0s+s6dBcvmVd2E9EZPquVaKqH906m71E48HYVCBaHu7Usmg+Zlcp9LwpVTU8Mc0J/zMkGX0bLUZq8gRGyaxeCpHbVjTr7J1kVgc7RqvxtKymQr/O07gELZe+Hf5uMnzrekScAT47gXKBWl9wkL5l3hZCirYp1LEGdQsvoZXoRJEMly2IqZ0y+KY/C4Uy4W8csRNb0UvU0OKiu0Ho77QXySz0+Wmxwi3L4KvppCIahLsQI1vQFehcAWfzcqTKRBW0vJ7yBH3ig5g6fA8GHv05Jg/chtiRe5Ac2IHoUC8iZEo7hUc+r1bXnTErdRaSAqhGkdXSxJNDqxhLI+i/73tI996PRlcStnwSnavWEsY2EJHsI8iYZH0ymDp5mMrzCLJsUz9VVKVUQMPCJfB2L6RSGmU6GaKCPNvYjtFoGkWWK9i2nFxcy4xdRvhVgGBrO5oiTXD6m1G/4jKgex1Q34Li+BDG+3aj1p1HksId6FgPT/clfL7OTLdODxxAduwwbSiVBmF2aMElCK29BmheQzc/wHypeIqsD9085VOUpaWlN9sx+Jv4w6AIGxWJkJMJeYboOBIjx+EianGy7BP9J9B3eD+OHz3MJ5xoalsAu4sKoCIly+eJQOx2KnMqdyc5wmVLs3gJ8hL7uDxORDIOR4HtkR+nUo0imxxlAYhkaDikAqSwTQGfgubW9j9DUrNp0E0j1/mxI3DQJ3UQ4lOa2apkfUcag4/eA3tshIJZRs2yy+Hc9BbGb6EpJLONHUDv7d9gB46ira0WJQchpbcWfsJFtNIyOBvJkFr/LYZwoUiBhT1g+tRJwUD6IA7e/t+wxfuNP1nrocXLTDF/G+FhAPUb3wosImMffAAn99yJvDuC7gvfANvSK5HN+1GKD2Di0L1EKztpYUcRduWJUNJwkvE8ZKL+hB+1y16H1lf8HnLoJJPbjSI7G4mD1B76p3gyPiWKvo0uhr04jN77f4g0fel2dxT2XAIeL/MPNmI4zXZKxxAmo9uoOPO0eJmKD3WEy4V0DlOjw1i0ZDEyWfr5w8dR6yqy7iWUbD7EvPPRsvkdQOdVqLi6jXLT6n+NyFcocDanpJH9k2OfuHKIHnkIvY/ejBbbEILlGMYrLei+7H2wt12Csr2BrncSJx/8PhKHb0KTaxL1G14DLLiKFWlgOmz3+ElMjh9BMpdGQ8cCBFrXsL/mU7H7ma+TfSPFm0BFgjg9iPj4cURHjvJ3lG09jhDRjrMURbLEvvS3IdC0AO1LiTpaVrF8rZYCk/BTcRSYV2rsKJxEPjYix0I+gzxDsZRDNjuFXDZOwMR6ypkq+xDNebF8/avRuexSlsdN5SOeeWqaE/5nTGo2QTPLxpHLrCDIRguF3BD67v8ZysMHKVwpRJZdieAl72JMWiQXO3piN47e8Q36lJNY+cpXAI1kgAqZiBocyRjysRTSmSLofhL2BlE3fz15sJUQkELoyGNqx48QP3SrmdOvbWqDFgUO7b4HIVeAcWpQs/KNwPJXIrv7Nozuuw2OYD06LuO1+gUYOtqHeP9OOGIHUeekRaFFyhYKtKQuuOkeeB0ujBfC8M67DG2v+igKzgWsrcMMrT2eqm2gTyo+KQGhT+1pKEyh78EfY+ro3Wj1xBCsUDnl6fszn5T0ptMHj1PPplFyuVFw1yA0/yL4uzaySXNIHduFkeO7iAIS9NlzxnVx0NJGM0RBC1+Buld8gO3ZQbeohahI6/Ml/LS/dAvyWizETy/iiB5/GP1ENnUYRphKOZXJoHnDtXAueS3Krg7aSirW3DB67vk2CsMPUcnE0HT524C2C1HsH0X/0UMoTh2Hlxa3UC4h56rBoiveA8/8V/J3mHl7DBro3XcfJo48CG/6BKs0BU8lhwDLXOvV9G8GWYcD4e7N8HVdRDSxmEJP96tIl84R5PNMQ6LIeu6++waMHrwbTc6YmQ2RG2GGYgkxnHRrHLY8yvSDbIE6VEIL6Vpcgpr2DXCG5rH+MhJPbfVFc7D/WZGGVpwUQBcFjp1Y8ZtQoXZX+4/0H0M5OUXoS0hW100f/gJarRCZxYfC9AmM9+5g3DzCbnrfI8MY7zmCoQOPYvjoLkQ1djB8gKjiEGL9ezFF3z1UF4bHV8D40YfRs+NXcOWj8DQsQttF15LZpulDHjEDf6m8B8H5m2FvXoapPqYxfhR+tx0+WsKRA9vo1+5GDRm5zpEiUMkR1jN+03zUL11nrQ3IZZGjFfI3dcM/bx1Zz9qXIGM6mwz6obAV6cv277sLrmQP0bH8Vkl/CkMP3YjJQ3egzTMOD+Gp9jU6qFg0LRrwuOFmeZyaAaC1i7MN26/8DbiW0L/2UDBCIbjpmydpPWucOcJdQmFCigwVZCnYhIZNtMzhecxLUJfZCX7brbUVlCQzeu+m0pg4eC/Gdt6Cmny/GWuoFDKob6Xv372SutZLhMDnXFQU8WOIHX2Q1pYoyGeHJ1yH2L796D/4CEHcCdS7JhC2TRqXoUC0Urb7EWjuJmIIGB7QNOrO+3+FfPQE6rxU8SEvgw/BUgpeIrNMMY/gvCXwbf4NoGYtXbxmPldDoCZesdZyips0EOilEvWzTRqCLoQCTCMUQDBYg9pILZqCfvioUAo0Eq2L6EpefA38dEvsnhY+HWI3CfaLM5+a5oT/GZOa12piwVwFMaeTDGjXZn1q6CgFrzI9QmtaINLvgq+TUJFKwuHwoJI4gcmeRykAMSTHjiM53kdrP8TH4nATOWidgKMYQ6OnRMiYRzQWR2tHJxk1g9333oAS4WzXwpVo3fBmCsEy+pQnMD18hJA6CC/zCiy5mM5vG8ZpOT3pkwjQomSmTsCWGzdLaR1aYGTzwt+xBuG1r4ZrFa1RuoCJnqO8XyErk3kXrIWteYVhUjvrJU+ySsI9lvCXEB0+jGNbb0B+aBv9+SwCbXRdYgM48vAv0OKdQhijcGhco+BAJk+3gApKLoJ2MroopCVatGgliPrFLIN/IRFBA9LHd9Na34KIK81nE8xb1s9GJeEkUt4ANLQzjzgKGWusw07kUKQgFcq0/MUU3PYoRnbdRMG/Ca2VYbZhjEiAaVExlNg9o4N96Dm+F7GpITTW0KGJHsXE4QdR4yJ6yadRHBtCeXoMAVp0DX4W8jHmQWeG0Ftj6nZ/A/xtS9iEdNnYjlQhaGuox7wFS9DUvRT+JSuJ8LyYOHGU9czCVVMD38IVLLfGXDS9GYCLbWorxOkOxCw3ZWa6z1vbgtrObrbjQirflfDNW0XeWQsPFbEjVI/JgWFMFmyoW7wWrlA3lXcz0wuTt+Q2KB3TRdWPJyRLTczRMyY1sNVlM40pqZCY0ELZK+xcDZQZKKwb1RFzMT6ZSAM5tJBibjvdBX+oEeGmJQjSn6wjPOxYfpkZCAow4TAtQTE2Qku6H9lcGd1rX4n69W9G2b+EyTaR8QkBbREi6QjqVpLJIkEKEW2J2w/aHtoSjQjzL2FkNjuNkq8OtRdeC+8G+s1tV1DwA+g7SKQiWEtfwxmsg71xPsuqBTAaG388WYtRKgj5/ailxbdTQAb7jwDJBJuAdt7hQzzvQrwUwXi5GcW6tWhaegncoQZawhICDQ1wBUNsG6avffw6moiCnB86jL49DxvYXKIyMTaRTaayBfwuTI+fQO8dP8SRu6/D8Xu+joN3fAnF8R1wFEaIbsZoGYeIOr6P6N6fobnSD29hmOmzXvYQhSaM4YQbqWkKdXYSiWMPY/jRm4zl91dibCm6FnSBnEQIPnuOvnYJWXsdmtdcRWFcSZ9d031OFHIpugqsp1FKstsueBrnwd22lgJ+AeBtJ0IoUNAdzNeLWDqLnv172H/b6WRMIOggekgOUGnehB2//Cqyw/vYlITzdOvKfAZEkDTpREB0B8OdDERD4VV0D9ejGFmMDFVqnK4hGYfclmTuY3A7R4hBYixLnsFw2ZPSnOV/1kTBlq9GQTilaaXBqe0zw8dRjvXTp07CFmlHYB47jp3qINQsxY8gdoKQspxC9+JlqN3wOvbvKxFc+gqGK+BfdBGc7SsR6+2nBYpReGmlyVzhtuVomLcRDcsuR8VDBnNQ4OlLyjVI0fKHI15aiVbk43SqHQHU0+KcHBigwshqqAyRpjbUr7kYwXWEzc1kUk8HQy3GjmxHou8R1PuK9P9zaFnzSqDrEiqQJlYnaOp2qn6zyEal5fA4jQtSLCTRve4VNNzLyLj1qKltJoIIoLFrHRpXvxb+5VQy4SBGKQAOMqitXKBwa+CK4J+WzOXyEPUUcPSRu1CaHqTwFdHcUIccyy5zreksPZPTISWFNDylNGF1lOhqEOl0ApGOdtgSA+h9+GdI9jyIBozDR+WqRUvRkh+RBRejbtFVCHVuZDtRsLIpKoscHKlJOLXOgGnbqZSC/jBSLE/SEUZoweWou4BuVfdalKMpjI+Osr3p2lAwg+1Usv42IqOw6XMhvkrRzTLSAmeG0b/9Jur4adTVNdAdqSCRSmB0+ASvRRFurkVqsBeDe+8gMhuAlxbd37KMStzatmynO4TEIN27+1GcnkCgvot9XQOH2836j5tZJndmHDUBF4Z2PEBX8CE4syfgCTFvt5d1lsLWylCr32ZY9AyaE/5nScYqsVWlZTXkVVQD87e9kkZ84CAZ5hi8hPaucJOBb7KkdqcTlfgh+uMPkWEyqGvrpvVdB2J1FLxdyNgIJclQjqILo0cPwJmZRDJXQLClE+6uFfRHO2kdfLDTqmt/gI2+bbZ/J9Ijh1Efcpgpx5079lLReFBDaNjSToXR0sXvS+Hy0UdNUZicRAq+ZroRfiqKMfRt/TkabMMoE9bawm0IaIqLqKLiqGX6Goh8PPNYll+1zsNX50Ztez2c9YTt3k6iED8tPOHrgo1wNbPevjYqmSBG9m/B9MhBROrrzerFTFZTW1qcVEYqOorc+ABK6SnU14XRQgSTj08hzeB3EUWVi7BR0WkhjQ450cyC356nJaWgsNxaCDS0526Uxg6gge6Rh+WyU5Bydh9CRFKBC98Ge9uFcDauhKu1EyEii/TgMdRQQWgFZopuSSJjpz9eQ+vajebNb4Z7yatRCS5nXQOIDQ4iMTlMJERFxLoF569nnehr67QfM9VIZGcm+/OI77+NaW9lWQnPO1cgtO5Sul0p2oRpFCd7EMrFqHjSyIwdQUONGw3rrmQbsd1YVm0esiX6Mbz9FqKFrXB73KjrWIqMs5buDIWabuFU3154UoOo9TiQikcxfnI/MtFec5pTKOCFR/tDNICsg2LYTuLPx/bf2dDcHJ0jCYrqoAWFPINWy2k9XIHCZzaB0HJp+a+bkF2bTGCL098no2qqjoxXkaBJeMjUxqy5NXDI75qzZdrWyT/sQC1gIYSXZYU9w+enzRQhYsdgTx4DxnajQmYJu4soJyYwdWA3QtoCy+/I0MENL4St+3Km3YYtD+9Dz8F92Hn/rYj2bOf9ozi57cdwMh17IUFY60TTClpofwcVEJmaJRc9lnFEFuIpI5+awqMP3ImJ4QHDUXlaaQ23FW1BKqkaRmxgMmEUaMHGKdwVlza/LETwkrfAVbfQKCk/6xd2ZGnVRtDYFEbDFUQdFMihiQl43FI+WunoRrzgQZxuTs3CzfC3LsckhdXh9Jjpzoldt8E2cQD1HilEFsXXhJKzHtlyEMHO1UYBZfMB3qhnYLl8DWx9J6F9Dt5II5pXXobIkitQu/oaNF3xPmDh1YTdy5AnwpKyzNOqyz0xa26Yp+b++YU5KTf2pFY12emmRA9jpGcLvBX2udsD1zy6AnWrCKR+C262q4/1mjr2KGLHH0aJrocjWEs3jWVlP2uKVIOHE4ceQaJ3O1bOa8LitestRVsSnHfAF2pGKFxPMFRCPJlHy0VXo3vJejhLVD+Tfei7/7vIHL+b/DfO7omzjlq4/XiaE/5nQ4S8Tmpvtz1JeDlFX3MEgSJ9zPxRCtUxRFxxikDSCH8uehJjD/wCE8f38EH67wUKKoN22SdG+1E8uhXZga1wJHsRqEzDPbNvXD6gRrD9Xid90SjQsxWjD16Pvru/ib47v4aBe7+DY3d/F7mJw2RjCjyFXju/XMU0IjoYg753Lk+kQb87YWsjtFwDV6iD5apgZO+9GLv7O3AOP2LOHciV7YSyRCALXwG4CKHttB6Gsc9O1VniQoaCN3oSx4/spcBm4JbLynsVuxsFO5WWlufxf3xwP4rJMTgJXb0dK6mUliHrbESRTCuLKeurzTbZ9DQZvYCxaMysBNRSqWnC9uF8DWztl6Dr6g/DeeGbES96adz8FAyycTYGfzGKIFHvdDqPACF0YP01yNKK56mZE3EqXa3Q89YiZzZK0fGIRVHIZ81QQ8pO6L7qVYi86vfg3PAu+tYXolRsoM8epDJnfPr+qWmmUdTKOro5RDFyqzQ3b2Z82BQVTW+mTuD41h/Dkxth2jm6PHSB2ql4KvTbGzdj8ca3sE4hujQ2ONLa6Zmn3Eu5BJAiCnJVtMHoCCb6dsFDPmhsoc8fIWpyEOVRAZTZVggQRfrZFixHNENj4W1A7aVvQ3P3ZagU7Agw7+OP/ATJQ3ewPyZZDx0nZrrqDJoT/mdEWnapYR5yTXoYif20otuvx8SW6zB4/1fRf/d/Yejeb2L88D3U/tNsd1pyCvP4icMoirFlMDUYSL9MJ+ulRvsoiHeh/+HrcXLnrbAldcoLfXYydZmwTSvJNF2YGWO8XXcjeexBZE5up8AfQHp0P5XNOBmFkJJoIki47AwQ8FJ4qDaYRgkeL/1Ipw81LYuw+jW/g3mX/CYCkXb48gnYJ46jtkQGyWVQ8begcfFl5IoOMrJWzVFin5KcKCQzcNAtcWQzZFxaf8JwB9GLljwIHclolScJSU/ug4vKsra2UcvwmE89W4YCTFPKp+EKNtG6OhCdJNQ/cBhN7d3w+OuRp+vhbF2DrkvfhaZLfhs0dcgPpTE+MoqAm5CWro+dwlR2EF+V/WhecSXcFHw0rkaJAurSCTxCTfLpHWV4nCwUlfHEib0IelUF9gJhPBxNLHMDimWWj6jH4XTDo/h0J3R+gKYJNSjvpIV2e6ksCNGFcFTHogb+bAn0Cn2M7UOQ7kiksRMRuXpUICUn/f48FUbratTSBUmVPEQ0LkRCfroQRFiFErweLwW8SES2C1kiIE8Nr7cvYN51KNpDBnWU5cc7vFSgfrabDVm2O7JUAGhA+IK3obZrExGBExF3CX077zSLk1x28isV62NpTvhniP0nUTFBzaSga9Uwm6ylrgT06Rj2P3iDOa5pYvf19PN+jnzPnbANb0F5bA/Cthi8hIFaby8HYNmaDWiZp86Uv2otl1WnGEtCYXHmpjFweC+OH6AFtWmGgM8xToXQ2u/hM9mkGQFvb6wjzFuJpkVrsWTdZnQsXkxG1Sgxc6HlTFPwiSuISCW8LD2va0Qd9BnLTgpd2wXovugqil0OEaKWEIP2g3cuJzytaTXrFspmlVh1duLJyUPf3eltZminUBBSFyhkM/VTCRx0c1LDe8xZdk4qIx2cIV8Z9JVt9Eu1DDpPa+xdtIGCsQFZdwdORJl/w0rM3/waysuFqL3kdbAt0Cg6XYhcBSeOHIRXsyRa8uvxYbLkw4SjDfWr3wjXqjfRbVnK+jYTeVDxlZO0wlPs3GnL/SoNYmT3r1COHWXb56kwbEQK89lmLlp5PqaDNyuTzGcAjmmt0uthWa2zGFz2suWheQT5KfzsP52ToNH7vj03Y/LoPWj2JpGKDiNc18Q6dDAtughUGIaPnHRpVlxOZdOOnDYOUWGWJk/yvjYWEe2lBpAf3ct8iCjrqYTqu8y4S9nBtlJvmINe81ToWtJEoc6n6CoREWr1p7sTDZt+g3muxlTGB5dbbhuNDPvibP34shf+KnSVeBZpbYu0QQWaLDMzR9LHzNdTP6pKdJQ+7tTJ/egIJMyS0Br7JKH/NN35NC2IVudJI9PfomDnCU8dizcQspF5mUg+lyDcTaNEwW9YuBbNqy5HhPCwoX05AmEtKdWKLiIGhzVukE1TSMM1yFb8iFLLey96J2qv+ABsF2rRSBeiKUvg+KBRApI8m5NWws4utpNRHNqXbkYgGMeB9PgYEUWWcTWGkDduRWyYTJiLUkCpDFg20zbVBlCYRcpJg2n65qPgXPWWD2Hd6z8Ke9MaMngNy+42Fp+qyGxvnujZBnd+DN5AGJ75G3mDSkLoh4pKlkk4BVQcrs3XYs01H8Oyq36P9VrDdgpg/76DGDt6iIab5XIkMHngLlr+3WgOsCP47HjeBQcV2ny6A551b6XgLzeDjihTvbEdyza6XVkJCN2i1FH03fc9RHsfRq0nh2QmgYbuRbC3tcLpzMOWOoZU/52Y2P59HPvlf+Gun/wnRo4/wnZhe+WJ2ljScjlPwWLbErFUSlTIzjjG9t+Gke03oM1HYWY5fX43evuOUn/0sYlYzlKM6VOBUOGiqRO1dHtiGSp9pxMnj+5AefgwXEQO6cE9SE8eYtwSajUQTGUhdCSDYd7xUBRyjMLtyjOOFgQRjaTHWDcqfCfjheZj3lUfQMemd2Lp5b9Fl2Eey6hnHy/qj7/yMiNpRc0fa6WZBxMMo/CU6JdW4ryeo4BILUikZohCUNWigaCfUI2CRf/aQSbQGe0NLZ1oXLAJ7dTuwdZl7GpqfK1bp5DT4WRaEj5igUKegi1gzus6Z2/RBWi48NVYcdnVaOlmp9u1DoC+vzZ0UNNLBbhr29GwZDMhMP1yVzcy9nnkpRBGpshwhOheDYyVqLjyjK38XLI4DioyazZC5+N7HbRKg3txZNd9cDOPIi18LO/m825MDvai95FfALHdcBRHyBxag/tUxPrbyXQBWjjvfOan/Qj0rVVvMzKWQW5oHzLRPjIgEQzrgADLrbPwNS5QVD3LzJ+tSksqa42mC1CJrODvFrgblyNji+Dgvr04uec+oOd+xA/cikZnlEYwjXKgGe2b3ozGy97D5y6kaM5Dzk504yAsV+lopu1yfXQ46MQ+9N7/XaSP34F2XwrFVAyhSA3CS5ai1H8QI9tuwpF7v4NDD12HYzt/ZabkNqynu9HN8qbjFKI460BlqXMYHHLLKPilUYztvBGjO3+BhYEUsskobOFmhBo7kEunMTp4nH0ySbftBIZ3/RTjfTsMDwWWXghX0yqisxCcWaIGunMoj5pTnypENKH6VthaV7IGbEu6fkJQ2ekp7H/kFmBwC3w0NJWCxoaSdLdYN/KgVvfl1a7hZahf+0a2B/nEXkcjYA3aPpZe9sIvoZAFK5I5x/bejNLAQ2xldphtlG0ZJ+PQl6YISwlIASi+RKlEhVHX3GK0c7RAX8xJv46w0dm+Av5N18K+4VoEF1yIFCFfic/qmGWZQqOBKYzFvOAjIakGk6j9jX/tJfP7+NvGjkycACYPw0+mdZOlSxTSJOGfa81VaFxFv9zN705CPUKU6dgU06IVkEOq+hSIGCj8bj9hH/3WEpGAjvFyOiboA+7DwNafIlwYhocWLF0JombxK+hXNyBIN6ESPUbe+pGBvDbWW/V9arIGJsuC8GwDvZJKoMGURqcY9x8w7VVkmes00OchsrFRYcgqswymbWjBTTvQ59cSaSnJcokpNC5GG9sxqIU1PY9idMvPESkNm/URGdq9+tVXw7bsdZSmJXxUI+b0jeUXS6nnk0yjAJ/adXoEfXd+H46RXejyU2loZSBhcU19G0b37MHxbfcguuduVMaOIOSuYMnqTVh8xVtRYw7xWEglVTEbt7QoSxuW4JVijOLErlsxsvNmNJJXSkRnfsL08IVvQMXXyrh0nzI6tXkY8YO/xImt1yMzTJdORzVFOtG0/CpafzcRiBeFMfJc/6PkvSmzK7OukwjK10VeCRh+k/DrPMHpgb3oeeSnyI/sZzm1yzCrEVfGk2unQ1icbGvyXMlLNtOgpAZt9bRF6s8qH7+shV+wVttjRfsefQS77r0V++67Acfu+A6GH/w+4kduhSO2i9r9BNy2STbWNHmKvhktWFHYnxZv0ZorkPfPR5bWKZstoO8A4ekUISY7Pl6087pWtCsPCb+VF7UB8mkKKBlcA3m5sT5kDz6Cib33YmjbjThx73XYc8t/4eBd34KTPqBbsLVQoQUkE5spKm3w8Qgz0CJNEyRMw0+Y6NMwOxkQeYJoKguXppCYi4NKITN1DMfu+Qb67voKgrGd9EtzYHFRv/gK4OL3oPnidyIJWgkigMT4EBID9HNZZimu6jjIE5GE3PiVst4z3yX82myTGBpCz4khZJwNaFn9WjjnX0QmZR2crIvmvLW81ZElo1IgXCw/laOm9DQ/LYsn6N629CLUh2vRSH+9tjwFv16EwUI1adFQx2b66R1UXhpD8DMtqzyC5Llcnu4Qs0E9SpkygoTjYSqZySla7IZF8M27CFsPT6F/iC4OBaWWqGTZ6kux5Mp3oO7Ca6l41tDXJhKh9dXZeKCVLdMqm0NOiPT23/MLTBx9GJ20+IV01By82nLxW4Dmjci5WtnyHnhz40jtIjLYeytaAxl0dRAZSSBLYTi7NiLQthaxpI05pBE9fJdZ1h1pWwrvPLqIrJO2U0t0haL84TAWdvFaXHseehAm+nARnVaIIk2DM44Za2G76fg3ITJLbZydXtaLfAyzqrHYcGEXoXJmCvnEOPI6DCLai9TIQSQGD6ISGzar9Oxuxndock6WRZapBIfPA0chi+jgEdS6CkhTO49NjaGBneQsZTF+fAcCZJa8rwU1CzfxeQokOyV6fCeKFMiQu4DEFH3i0ROYGulHevQ4KokBOAsTWNpVB08hQURHOMlnXHXzEGhfxTSa2Mm0nFTdpeHdmO55CAEKht9N7U/hn05kUPB3oGbRZtgCGlXXeXQHMbTz56gtnjQLYOLTGYQ71sKzgczqIlyvaUddUwfSFBK7K4L67k3UMwuMO6CFKhIoDeA9EdHOGgtlxZz5yz+01/TzfZi/fAO8XWtZ9nb64HUGiiPZj6nDv0KwMoAUlWTtkgspZ1ogFDFtbB0nRoTkoXswfgDl8f0ERmUkqbBdLasR2Miy++giuZqYn5fNMVNOUwJiEL8XtlwG+UzWLKXQEEzOVoM61i2w6Q2w1S3h803oXLQWbcsuQnDp5bDPYxkCC5kAXTH4kSWicTqKKEUPIXaCcJt+uU5I9td0obefvjcttZPB09CBlkvfRItujTdkhk4iS2sesMVpzI9SzefIK7UIrXoN81yEXIVw3xMgfC9gcqgHASfdEPZ7sKEd9RuvMYN3ZTf7jgpf9dIgs41Ov7c4ifjwQYSJQHyVrDEC3obFVILrUHE2Mb7lIqjtqzTrq/leDS/7FX6W/NvgCkfQ0NiAmpAOzExTk0/ATS0vfywzdgLjJw8iHRtApL2NnUBGo0DZ2dA6OsnX2GxOyZ2eGEQk6EIqOkCYOYqyBvWmBuAi9Mz721CjzTY6OIJwP3Z8F+zJk/B6XfS7ndQHNYTp9WigrxcUXC+k6O+n6M8l6HvmCM89ZLD5ZiOO/DgNpcFRwvTxrUie3EklkoFO6bURUlZK7H7CyvBCWg+P1vy74CGzZEaPsQ5jyOXpoDStRO1FvwmE6O9qcIzqwxZuQZhWp6ZNZ8YtRtnOcvDZKjx8MuGn2ZkJFmupXStUjnafD6GmbjjDUkJ1KNG9KJVtRAW0ntPaSfdLRGzDmKYyq6Pwwd/OZ/10Y4p0kabps09jcMdtmDpyDxq9WQo+gU2oG40XvJmmfwOtmwZQKSB0myyhZ1DehCo2hxOh1nmo7VyGSGM3gvXzUbv8FfAsEZRfxDCfCnA53E38HllAoe1iek2sN5UTLaf2Gbjo59tccTimD1Jhb4HfkSFayVNRXIZI3WoqFCca2xda7kHbBhQqzaxbLaIU6NT4EURcCbORajpbQe3Ci+HuvoLuSTvRilbgke/Y/9HRk7BnR+iGTSHtaoR/8avMNuUSFZXUpzYjGbXKejm8DvLiCaTiE3ARKUWLIUS6L4GtcQUqWv4rq8+nRIa3Z76fjV6Wwi+4b5ZhkkG0Ok8LswoF+uOBAFzNtQi31qGxrp4M5EAuqS2ZeYScSXboQVoBjW53sWHlr9O3omW0u/wItLZRsKKIjp1EE/s1OzWMfHQEEUeFDEIfPziPvrXWyktwPZjs2UWEQYtXcaP7qrchsvLVqF1wBfzsSF/bKmr3ESQmTtL25An7y5iirPiaF1E2VrDX9Ooogn5KYznej/HenfA5s2STrFQC6+cm0y+EQy/tcDMuYabNF0IthRveOlq+NYhovXrNaqah1W4ssDbW8DmbiwwXEIQO0r1hHZmeCfyjzyenU+JnfpkXUtD/13hARdNdzMcshZZL4MihPHkAsWN3oc4VQ8rVgMjSV7CSbewUF47svgeI7UPqyJ2Y2H87WtzTVG5pJN0taL/knbR0F7P7mpi89h1o6rSqoqz+VYHNqbjsI/PCU1pquwbQImwTHZLCNqT9RrFCIeendRRYgOXTLAUVCd2Qnl134/C2mxFMHEV5bB/RYB/7gv41lUpg+Wvhmf8a1C66BC4iCRaeadG9oOA76dIUksMYG9xHNFZAJpM2yqVhzeupcBYTC7GN7SxbmR46XbVyJoGh3j1EoGwT3g/Pu5T10mwIUaXGQUim/TUF5XKjtq4JI+MTSNGt9HdsRHjN69ivzUzSOsfResD6eDJ62Qm/sU+zOZmM4iAEdTpzNLbaNXc/RvffR6gaQHjlBqJhWiJa9EpykK4Btb6Tgt5OaOfSFkovO9tj9qc7tcS0uQMpowCGEfb6EHR7kM+WabUDCM7bBH/XBfSfg+wkNzLxcQwPDaJuAfNY8UoyPZnSQ/gt3zXUjrDbhdFBwsVyAi4ikXTFBXddNzubedMPNEzK2riCDjgzE3T1CT91GCSVmfz9eDqLRDwGnz8Ce4jWUSfFBtvg71wJZxPhrrONFkhCQN/bGGymprloWnoN3GlvvJpodnhyOltMpUnQSoa0mNK6p792ClFmogdTJ3bC6yAyCixCeMnVLBehK637ni2/xFTvg3DFjqDJlSKKKCLjqqfMv4OCfzmK2g9vD7P7DChm0F+LquMP6mctmS2y7XT6T4lCXqJ7YNYwSHmyTFqdJ1fOOnhTD7NsJo083fpRTFCxZkcPmHchht3ah1BEgUostJB9FlxNMN/AZ2tZHroqdp3pYM71gd9PRJeNY2o6jSCRRds6QvkGuj3OZqILa4GOxmeVlz9SgxLRnTtQi+ZlV1Ifs49nzn1gQazuUR1N+YgSgw1o7liIxvmrCWCIJv06g9BCaYpp6mH9eVJ6WQq/Bm80zqf5XxctkC0/gszgDhx6+EfIHL8L/tQxHDvRj/Z5y2gA/Zg4uIdCSAYs52GvXQAfBRnuRj6vpaVOuDRIJSRBd6CmQ9N09OmntT3TQ+YIwlEzH83LL4MtMo9MokE7J8K1hPgdi1A/fy2tcjuZIUQlQiulc/rpm9pq/BQOva57AAFPAWlCeW/dfPjal5mRfpvDOkVWC0OmxwcxOHiSzEIPm650wSxSKCA5PYGB4Qk0tS6g7y8m1Sk/mn1gPs6QKbvIYiyLWSzGt1jnqdnnqelsaZi0WUkt0NEW4OkUW6ljM0I6NqtMJiaS8pSTSI0eJ+IqoZjLI+9tQtv618NGdFSyt7IJa4y1l9BbBbYE3nxa2ZwiTbAIhOh69bup50x47G+TDJvQX9+IRr8T8RFafJ0FwP4vlO3IEV7XLLwMpeAC4jIhGikSKTk2KwP1A/NxINLQSiFdgeASIr6apew3bQIiz2gQln81xWneo0DDEaZ7Epy3mjJMQSYqMUurdW+GrK057HF9yKt3BonQqCjZDmXymwZqzbiACmFFIun7E5OtVDLjmC9Bsioum6AKmsA/Og1VSyi1gspWjiE9sBfjR7cgqeO2ihOo9WSQStGShrqw+KLX48TubbCP9aLOZ0Mim0Pbpe8FFrwOZXcbO1LTStTETFhQs0wgqT3zmqNHfBBIjlHTkBMChN7BZrNEU0hBI7BaJeYi09AtZlF1zepeBRvTctHfLQxuw5G7v4Q2x0mkcnYi4g2o1+EdNSuZU5g854G9EMOuB240Zwgu6ahBfnrITK3Z9GJQcuFkuQkb3/D7cDSuovWrM4hBZFpHXDqTq7VAyCJTBjEYrar5JUk4b8R8WD87CJ9tSeRO7kRxehABjWUQ8pZKdKMcFKTCCNK9jyA1cgRBD12t+atoOZfSctcTsdSxSE5jYaVztdLNCJ+VuhHms5H639TnCUn3rIeNa1jWxqspYGAHju24BeXUIPmnhEVrL4Zz6aupkFheKlTL1puH4GC5jMiajs1TTtmGVMY6fs2cMHxKOZVNWg66EGX6nmYA1MyrkIzQa9rUYUqk+mkpuQZVVT7xtNCm9nzY2TdGiegxg64Up1oP9d8T00v+DD+r8WaahF9s9IudpUkUp45ghBA/3r8Dntw46jzsgHIBU/kyfK1daF2xBoNHj6IwdBTNriJi9Ll1zHPg4vdQg9P6uuqYLuGxGrnahOxYq/vUbZoHpiLQPXEombPEIK1txZYfLE19mmlnUjFkr2TZOTGMb7kO43tvhtvlRKhlCZoveZsZpCtDfj+Fn/losYdN2wDFaNpJlhhG+iShamyMvv9S2Ls0bUSIr33nT0jKvVqCJ2ea80PqEbYPsRGoyqDlx3ad8KM2FWnlYZJFYsOzXzTqXeF9wXYb5PJYpZxdalG1Lc8baQWklLleuRY7aWVa20YeaGLpNSOggUbyDnO18n3muasez77s1dZ46pRsExMTs9vuRUjSftSGM3W1LD0DayXBkq/oYDd5HbT29J8ruWGM9m3DdP+j8GWHEXLpUAn6d0WH0eK+jiWoXb4WyRMHMHpoC+pdJfOiyFLNMrNuvFS3FnE0w+EOUjjZ6cqHOepsdQ1mUZeTSelj6gBJ5q2ymMMZqNkVFNcqm5SAFIClqdUJCqqG4sgqaADPn+7HyV23m7fILly2GsH565Ao16LijDBPbQFV3gXWk3ypNHWmu7OIoD0LD2F1hkKVqviIEsI0Ri6Wl2VRfnxAx4xbuc4OVgkMlxulxa/m+vkhtZlpA/41L6PULzaIlKaNCk4ZyoUqU+DNW2ppxs191k2WTr+NFTS+vmoyU3LTjuZpww8zV82106RcRYzDNGeruGpM674VU/yTL2qXRNlM92kQUM9oU1aBijdDF0D1Yclm+EB9MJO3mRK2xjpUJp1XoHJbJzqxTrTYQqH6pWZWXJVI1t0+00ZMfKZgVqkUz7qg6yqJVQODCAw6qwZFnAnVn7Oo6uLZtm/frtsvYrI6yao2/7FiYgMD7/nNRxgetKXhTPUjN7Yfmdhx+m9R1DjzcNNf1o7IgisCV81C+OoWwhsKY2p8ALGeR9DqS6NQYJcEO+HtuBgxz2IKfq05DkoNb0Exi6rNrg5U/1Y/dV8MoYW8Ug2nETTvyAHVU7yvjrVUgJ4wNTHxA7R8AVpHvcaLCSFfcZPxvND75aRodA6OFIAYUseGlZmB3kar8Qmzv0CpiRGZgTYQudlWGhaSEJk9ADNUFZ7TVK3ZU1OVmc6FDFOzYSwx1C+LibV5ycrS6kO1hNVUuqi2VPn0lBWs4vIbhdiKd5rkNui6EUTeVAoSNvOTz0nEnLzvYDD3zN8zycqfPcCHtLlK5wxKCQhgudmORngZxwirAtuXyc08yetsZyPnM2lXy22RlWv118wTJobuWPGqd5+MquU+M6XT15+cbFNTU+eSywuSrMaW4LOhWV8xiHZ/66xzl70ApwbpYv0U5EdRGt8PT34YegGC1LQGxkq2ICKdqxHqXEc/upvPe1GZ7sfxrTdR6OgapKO8vxY1q16Nims+EmhCyRUiM4h92HhnEZhqB1tl4m/+PNWhWhWo76ecUosBTOAlCVGVEc0dMWyRKfEx3bHeFCNlR5ZjNDFmmYwud0JtYW0TZjZEHVI3dioHvXRHh196aFWFJrL5PI2SlAHbSlaVeamM2qJ8Jj329xOTtcHnLHSWJFS72Z6mJfymdkYB6FOreiv0e7VH3oiDmk1tTWWl8RAW1np2Jhmld0oBzbTNGQpJ9WQ2SltCKYRUFX693kyCa+WkGBbpkrK1hJ9cxef03cUIbvajUeQMSrX6tHnoFFVTOnfS0+f21BPFfHr5vyR8flVANkwM7NGBFrZpIHoCI4e3IHXiUXgIncMOWk9CyWSOEN9Xg3D7KoS0u6x1NaWDvpvDw55OYuTB7yPde59cdDQtWIPAyqvNAJuZD9fJNhI0ZUqa3dTPBc3umMfmZYSE7JmnddcJQnqBp8PhoEc863x9uc05+qtDJzFw5CDqWpsRWK/NHkxtZv74hUZCMXKW8qyT+lSg2cO6qbRmIO0ZkNIrMGV9KrABqDD0dh0720qLcB/fk4ol4VfQ6E2eFyTqatsAo+uJ2U89PoUXPtnK5Rk1+iIj6VuVXAJfKefg0aAMkiiM7MdE73bEBw+gkhxGjUNn12aQyhKa+RpR074Y/sUXWG9K0fFM5RoUii64XEUMHbgf/Vt+gDZvDG1L1sOl+Xen1o0302IEoBdGnNnJj286XVEw5WLkUzH4W7ZYpHvG6vJTEcz3mW4oFrUu34Ktui1LprqWtFmH6XkY1yVTLSdfpJFhrVTic9BBl6kMhnfvx3TvAPp37MHg7p0oxqcQT04j6/PiA//6z2i75nUoOpywe6x55OeCcVX0alAG5nMmJ7WCsaozSEij3RW5KlRkVbfE5tZcPONnqcHSVOhJ9m00irGBkygkU8iznmoTIQK1p9IwxPYpqz2ZiaB68/wutHbPhyMYoO6m8tZWXK8UPdtPheJjBcJAtbFp1pmymv5jmn5tClKJWS5epAbip9KfiSOFK9LvFxu9aC2/ulp9YadPby/FUI4ewdSxhzDZv52MMoCg9maXaOVL1OzBZtTOWweXdkrpjatubSzRaL0gvNZO6wDJBO694esIVSZwwQWLgeZFjNdOJtL0mHx8DSTp75OTyqW3uhTFPPptmndGwGbcBGtQSJ9kJN7WXV0zUJVx9D63aj56WoExlTADBTxPgZBQZFm/Q8eQGRnDxMQ4tm55BMWpGCYOH4Njahr1lIBWn9vsBnNHQtgzMYa1H/sINv/zZ9guVEbeIDN/7oRf6kk11nfTX/xm2I0/9FnN10UB8uiHNqhoAb5O8tl7AIXhEQwcP4IeopZiMoHk2Dhig0NwaTBVAlsk/GY68jok/Gbsh/Upsg3lp2eoUCJtLWhZMM/k39zSjO4li1Hb3ABPIAhXUzMvMrQ0sYEpxCqbhNkoJSbg9po2xvAoogeOopzOo37jemDlUsa3+s6aYbGiv9joRSf8Vjvzb1lgTFu2hjBy8H5Ee7eYE0/dyFKQeJ+dGYg0o75tJeyC9g1a1dZAYfRAb1mp2LRIxrLkRrAqaWTH+uB189kQrQQtfcURYXxaCpoDyaWE/7yQmMvMBhgp4AWGtCyctvLSZaGly9OK67VSRQqDQiaZRnR0DMNHjiA3PkoFl4Sd1i/ePwh3nsxeIrAl0wdp0YNEKEGXB5l4jIKfM/w8TX/aTit47X/8C3DRJkIIP+tnWdfzVa2ZmswIuvW9pBkP1lMDjG66GqfVGknKTGf8Dw0hMTqCI3t2Y/9998E5GUXhxCBc8WkKeB6BsHbBFY2f7mZ57dozwD4xq/lZZ42FlLVchX1uUACTNqcYseJFRtGgqNbHpxNJcbw51qyotvd4kK4JodzaSCRExUFrIssvpaz03WxHezqLNJWrO5Yk6nIjf8Fa/NZ3vgFENNvCdF3iD2Z4vhrx10gvGuFXIasFNSPflXFkeh7CwN7bUYpq15TeJ8/+9jfC17AIjfNWw2ZWwzXwgTCZx0tG0Io8bcixYJuo2mfW4I3IEkpN12nJp+6fS7+a9NiUZjAuFsMk4albVkzwlIKaT0SRnBxFeTqBcpzCPRkj42dQSCeRS/MarV4hm0UiFkdyWieuqiQWelD+smwanHLqAMl8iYKg3xUEfVRSZRumUglauhJchKkunx85lx3zVi5D9+LF6Fi4EFhO5dfVAdAKGm2gU34stfesqNqO+lSQ1c0V6IJQwWnlo89NiC2SsotNEbpPIdbfj9ihI4gfOIypo0cxdvwYkrEo47rg0Vl2+QIa/QEj5HEqxDTTLFBoc6qzkAwFTiP65vx8dToVi+U1Wf2qa6qZnRcTREIOfuo8fq/dicYIUR/T91E56D38yUoBabvG8fmkFImSIel4NfGBlmkrfrOXbcqbOxob8MFf/RJo03FnlvCrfyRFKsqLiV50wq9O0Ykw8Z57cOSh7yNcGoYPCfhCdYi0LydSX0crv5LMXU/hDcIcEEmBr46wG6ZgOFs/lcRBUgziJ/5+OqJhznLjszYy7F/+zu9g8sAhtJLZbLReLp1pV8xY58/TOulgiiCc8BnrVUIuQ39WFpLpKE8nLaSYStZL14xtZlz1lA640MGSfvrvvoDfzDx4a2rQvmQpvA0NJjRdSMve1kjrRFjPezrQw+yVp3Ko0JcuU2hEjvPArSqfgkiplXN5WlnmJdeEVj3Hdhg8eBgjFPj+oxT4kWG6KSNwUihraflrWC7tlM5TuFNsJ81WaOWjn/65JxJGXWcX6ufPh6e2Bu66CMJL6Y7V1YINYCz3qY6UC6Uf+i2rrkJR4AvbdyA5Mo7p8UkMHe/FeP9JlImivOyvfCKOVCJmNmtpWS5ViFUXKi2tzahIqahf+b2J7egIBbHiwx9G+CMfMsqzwqBxf7Nc4kVILzrYb+bv6ecP7bkVPdt/gYg7h2VLl8DVTX8+QH9eO7bsEXYi/TWbjlUmzXSOPqr9dLb+qjaEPmfHPReyDnLkMyzfv/7+R3Hwpl+iq2SHJ5s2Z9J7XG4j0HpbjyyWDue0fP8KAmSqoN7lFg7RD/fBRqb2ULgDfm0AUepkToeedaJIhquhn1pHC+SoqwN8FIL6ephTgDpYfw+FQCe6amuvlAezUBKapqqQiaVYrBQZpKzMr2dOStsUUf2i1DIFxHfsxM4bf4qxR7egMDiM7MgEnGwfwf6KlAMf8FBBmLYI+TFZyMJBpbVs88Vw0+J3dS9EaCn96poI0NRCn5zBI6Qia6zVfkzAVIB1Zb7WD1KVlXVNCk4/dZSZomhwUGhrbJJojO5VnAiLimhyeIjoK82+0xoMa0zCzDgwySRdJhsRRjPbu3MZy9NI3upoY5n4KeRk3Ax+PNtGfJ7oxSn8mnwpTiDdt5vGLIfgInaMeZNsDaG9j4yuITz2f7Vm7JzzYOSelJSVeFLWlQ47QF8ctDh0NHmNDKvh5xDLqFFnDRKpPOIaCqSZdgvwuiyZgla6UTDMPboeVuSZD16ypI0kplb3KU9a0cl9h9Db14PG1hbM23QBpsp5M0ftprU3s/6MSntmLL4GxpS/gc0k5aKkZ3I6ZzJVZhl0XJaLCOPm//g8vvrJT2MxE2wuZhGkdIQImV0sg5vKrK6+Ea3tHXAGQ2hZvAi+zRuB9lZacyqyxibWn0pb9bJalMJO601UZObbeUMHkVqj+XTUjODPENvKGlxV8+o7obwUsqB5kYqHafmoQPW2pGrSpyprPXb6s3pPDSKqXhei0ICrFJHQzakIL056UQm/CmoCtbSjrMU61ObqJULhirpXWyrZH2IJdYss8SmqdvRzTWQ4Yw70maeSMhs2VCIxHRlGwiafW4KvptdvxVdZVcaqVdMFmW390L0ZkjBLEFRDCbPGCjQItu0nN+BH//EF2Mcm0EFUsP4db8Lm3/0tOFvpmzIN85IQ+q6uGcifk8Aat8Kydh4KhYdCM5PjOZOKpue1WlDo5OFvfgt3/PfXsK6lGS2E5k0UbB2AUtPVCRDZoIECrhF2H5WdpvM05aa2MOXiJ/+bqU2mKaRiKSh9WChF+ak1tZLxtIduPVOdP9Bfa7xEV+RazSAc9oleDCIFaOKz3XVdQQN8+mfqo6i8qMVGp8i0OYtMjK/zEmeeMtderPSCFf5qJ1QLN/u3Ba8ZaPHKZBAJg1hHvpfkSP1yqlv0WzS7I59DUnZq0ZLm3c1cPBmFDKzltWZ2gajETEmJuXlXMeRfzvCWpQ9M4XXXuigDZ12zriqYn7xezpUQ5PN/8Za3Yf8vb8AbGxcinExi2FnCpve9E90XXYQwLW1EUFXoQkKnxLy0sPKbqw6rhFAkxfSMiKVSfSUX9KtNITXeoDl1LTPUwJ8QEIVPW3R1yo4RQ7pCGrfQmYhCITptt2pTVTJ9mroqvdlkYNbsixLp0yThl3KwxH6mjiSJd1UtKKi41nWLHpvqY0l8Rm9/Jv7pdF+M9IIVfrHiDDuSLEFRZwq+arlrlWd1XYKjn9al2dX59XdONfdqeVUGq/SWVTldTouq8WfTU5XaSnvmDxtJc+R7bvg5olu2InToCMbuuY+y7cFAKoEJKp4YG6uuNogm+tA+XxDhukY0L1yEIK2yrbYWScLYxZdcDNe8LqZNcaFFrpb16RGfEjQWJNanUYAaqaeQsQxS1Oos7XUXxjhbHrN/63tVCZjIVTqHgqlpqo88Nnr1+mOTVNA1hcf+rlK1PAovdnrBCr/mZvUCjer2FXISO5TipIModPSSrBd7QEx0ZkfM7rrnr4uqTFMNoicq1dMuJROsMreUYIn+vkOr4KYmgR/9FNv++V/gSqTMqH7NhRcgP78DW7dvQWx4kHHpQxMtZIt5OF0+uCIhjBRymP+aV+Pjn/scSuEwbEQFBo2YzM6dVB4p7AKtuHzyqt01lnuGqmnqs3rvlICfZ1J5nla6j33gaSfw4qIXnvCzNAbm6qUIyKCSGaPbnOFFBuFBj86kqyPzO6kOtDJbp5VWgeJsUq89fz03u1Gr389WmmdUwpkE9WF2nJUq8MajuP4P/gDp2+7CmiIRfTaLsUICnW99B7r//V8ALQyKxTDV14+ju/Zguu8kJnv7UEjGEculkFq4EH/6vevgaGpBycxKVPfVPz2qKiV9VqmazmPT0+9qmKNfP73ghN+caiJLXxrF6NGHyKR7YZvWe+MThKN2OIL18DcvQsuKS+m/CqbSUukopReY8D9XpM6qBrm9qWQaIbsTt/37v+Kmf/wHbArVYoHDhXAqhXQmhYON9Xj/978LXHCBNS2oQbZsDkhngbFxoPcY4of2I3LlFcCKVdYUlqbklD7DHL106QUl/NpppbfJoRhD77afY+rQnWi0TSHA3w67pq307hwH4iUvgktfhY5Nb4Pd28UndaqNhmJmV+WlKfya31BQTcu5LAI2L8bufhB//9vvwsb6MH73Lz+JH3/mf8NOoV4QDOIQu/fKv/okWt/7XmQJ8c0agqpka8rR7OmnndZIKZWGGXUn5K9GmaOXLj3WXD5vZIktPUZbGid2346pw3djvj8Gf3mK1yj4FQeKRZcOWEarK4Po4a2YOrqTkkBfV/PcZFUNBypYkzkvTdZVO2kAsVQpwi8rnkjjjm9dhyKt+Vv+4MPAFRfhNX/9l0h3tCNBIY44HBjdshVabVegRU/Tsqf5XJLfE0wnTQWQp8Brl5+1cMViiTnBf+nT8yv8cgwZBD7M4RLCsdF+TB/bgjpMwl6MouSPoH7dNWi48sNoWv8e69DEkg8+CXx0mPrCOlXXvN2FjxeZXkEjzS9R0uiGTdY6l2N72bHn5lvw85/8FB/6+0+j9gPvRsVrQ/j9v42rf//DODIdJcp3YujgHiqJGL+7zKIXL9PwUci9FHbNzdvM4hcqEmkWM1c6Ry8HeuFYfo3yEdSnho/AmeyDzzaNbCmP5vWvBFa+Ceh4Jexr3oKGJZciV9IwX8Uc0WXmjlULY6q0maRg3k5j3IeXIAnTOIolBAXR6bd/9j//A5tf9yps/J13I0HlOVlXw7awo27tWhTCOuKbjRObQrn3OJwFHV5qnTenBUIuCrpOptGGoVOWfs7kv2zoeRd+y86Q48wCkSxik/10RZPI87u3rgVo01td56GkN7m4/JjKps0UYMVeNhOANFlMQyJRgN2WQz56HIXxw4QAcUsxvARJ1lubdbLjE2hbuggf/NtPmnXwesGlyxdSDLhXrcF8hgwVhCuTw/Ht282yV70Y1Aj4jJALbJlJOasj5uhlRM+j8NNzlQmaKYFW66GYQSo+SsuUQkFLePWmmUAzokU/bboD6ckTGD15GAEfwa/HD3+D3vMeMOfxOfUq7cldePjWr+PY7juBfMzK44U1mXFeyKG1/6UivG2t+N/f/SbCa1ewAe0I+iJwanOzlENtHZqXLEWeLlCI9yYPHAAGT8LL9jar32ZZ+DME/0XSXCqmRnoUNGSpT2HHl15vP3f0vAm/OkkDV9XOMqtKdfJOLkUYSsHnBZtZEioBLsCZHyUD3wtPdhylQh6Rxnlwd67mQ35aNHLy1HEcffAH8OQG0NmqbawmWfrFs7j8JUCm3dRYWt3jZPcZdCPtpwpbC3M07gF/AM3LliBFmO93udD/6A5U9lEBuJ0o8JlToyJmeeS5t9GZwvX8iZrKryDBr4aqApijc6Pn0fI/lshIFHwUKOj0QV12F/w6b40ugD/bi96HfoB8/wNwFZMoe5tQv+JK3ms0TzozJ3H84Z8AE/vR0RhCsHMhhUOrAK0lpC81MnUyAkvFqDrOWo+vb9ZEHY3/qlXI1dYi43Chki9h7NAR0746JVfrJc2GGtEs2WfTm6erwZD5Yl05s0XPXWk8W1KuVUsvdael03oLsN5gbMvrxSV58/ZcM+o7R+dELyzhLxbNun17xWk+c9NTwNEt6HngOhSHHoEzexKeUA1aL7gGaFlDKxYmvJ9CDxWDjuYOOsvoWEw04NF7zXU+3QuoeueJNDQ3c06NqZ/NCP7peuqXR6igkINv00bkWlox6nAjTpy/V5ZfbWKW3s5QVX6lCBT4X1tirLNtZEcZtItNQnVG4C2F55pm8pD7ptOKZeGz5RwKmTTcBbo+WrfA+mvmwsd7Dp2eNIuqxfx1FPXFRi8g6WD3mBF/kqwZmXe09yiObb8XxcleugMJBBs70bL5TUD7ZkYKMGRw8tGbkDvxADyVaQTq24HOtVQKrTOHbj799ekvBqrWyWLqM/c2SPhdvJCTIDfW4dIP/C4OEEHl5s3Dpjew7ex0Dypn7oiYLSDV8MQklrF2wxUYUUfnPXn8Z06mLCympoH1IhJbqcB+LpgxDL/O/zvcg/4vfQ37/++/Y+s//QtS27Zb26h1cMcseq7K92Kn522Fn+XvK2syIj9slSQweRCH7vwvhDN74apkULK5kHU3o+DvQEvnAoQ6FhDLLiPOb+ZzOZzYcSei+36BZvuoXmyF+Re+GVh2DRmyi8lq3f/Lh2Z3osRav8373JNs14O0+H4qy/ndZolvSWMFpGr7KG71eWGCM6E96dRPpUzBp9xJ8E0CzEN73E+rkvNHykKDk9mCTkNyEZgww2M9GH1kG3be/CvEj/QgOzAIR76ASeSR72jEOz/zGXS96VpzerJOCjKHlpCsks/RbHpehd/6O0v440dx+LZ/QyizGx5bAfVdK4DlryPjrgSCLYzvQVlvcXV5MH7oVxjYdj0FfwyVdBSNK18NzwXvpNmbj7y9kanazblsLxeyWvM0k1c71aZttVq5p26mkMCld9XPiDcbXqJuzs/ntYLe5sN4LqIG7a8vaLDQ64WOEleqSsK8ilw/07SuStvtQNGtTVYaf7SQlhX7yUn5PzYITehZBf3WwRvF1DQ8Og9geAy//Pb3sO9Xd2D64BEEWTYd9FmbL6E1EII35Mf+qTEs/eiHcNW//SvLXmC1dQirVRL9faoyvdxI7fy80OM6Q0xFOKdzJvO5aeQreRQFUesXAqEVyBfbUS7UU/ADSI0dxfCBe1BTHoS9lIC3thme7nVk7EaU7f5T7uvLmartq2292UIe2VIReQqpTqfRdTW3rHeWPnL1Je0B+s8SdhctrIOSGAoE6YnxJv/rZB0pBHFM6lgfvvnnf4Ev/u4HsffWXxmhz/OeXpuiAblzIWUpYdfgXZawPs3yZSnQ6UIBOX4qvzKVkcfrQ/qu+/Dl3/0wbv+/n8XEtt3oamzB0g0X4KK3vwnv/rM/gqelAel4At3eGtSYo9ZZR/LS82TXXjT0vAl/lQyT6o++eQhNXUE43CFqbjtSWdkTD2JFJ31YL+x2duz0IPoe+THc04cQtKeRKbnQsPwVQGQJGbuGTK2XcFjpvtzobHXW+wIrLjcq2qmn74xkPHbNqjCEeD3An97ePvT/5Cd48F/+DT//i0/hhr/4JB767H/ANTpqIQbKUZ5CKZrYvxuHfnI9knfdhe0/+AGlN0MvLIdyhuJf0uasJyaJY3VKTmfz6UUdQQpqhEpK+xAitNZ+Cq07kyECcSJ982342h9+AiP3P4IL6Lb8ySf/Eh/8zN/izf/4d7jw8/8J5/wujA4Poj4SwlR8HE65NIR81opRi16OvHAu9ILZ1VcuZmF3pjG55VuY3PdT+B1pOPx1aH3tx5H0r2d/EtqVMui//1tI996GxkAW6Vwa4QWXoWbTu6kj5qHoaGRHa+z3scNgL1+Sz1y1xlKK2qVfLui9hfxBoZ56ZCv23HgT+h96EJmBE6jkKJAVOxyFDC1xDps+8mFc/Mm/ModrxvM5Cijb9Z678M2Pfhz1iQw63/4bWPf5f+czam8JHtGaFmxpFmI2/BKX8afKogVchVweISolEGWUjh3D8a3bkB6fQJLoZMVll6Bu2QqM3Hob/vV3fw/tVCq/+d73oP397wUWzWcKLDxdmd5vfQc3fPLTuIBGweVzY5LQ/01f/hLw2teYl3LoTAJZljlOODs9beE/W+Tz0bgazXXa8ygN3Eu/7r/Q4tGLLFKo3/AGuJe/mozkxujWexHdfwvaPBOEmG44Glegbs2byZgXouSsZxyiA5ZmrrNPk5kPN71mKUT50XpnfOngQfz03/8dR+68B/bRcUTIBmGXE14dHU4L30kFEebTB9vacO3Xvw7Hpo3I0Br7Mmnc+L7fQfKeB7A8XIv1f/spI5DDx3qIDICWDRvgWbEc8PvN+IJRALOYRu/kK+WzZkNRed8BPPyjn+DIPfdhiuXx0304kk5g0dWvxMe+/V0M3X4nrv/sF/BHb38n7JddjIFbf4E7tj2MZetWw5HK4lff+i42uv1oZ/o7EpN4yz//PWp+67eBYAgVn17Q8rwD2xc0nbPwnxFJPx4jYc9W4ORPOpCFLXccR275Lzgnd6Pek8GUox6Nq6+Az1ZE/677yaSTjBNHNrAEbRfTEjSuR8U7j74t4b595pzWs5Tv5UqW6Fvir0NF3U4PDj3wEK77k/8PkZ5jaPD6EaqpQ9vyFahfsADzKcjuUh5b/8//RUc8ie01EVz5hS8gcvVV4hbc9zf/gANf/DKWUHg7wxG4Gmuxc+gECrTOiUwelfXr8H5aX+fSZSg73dTZmlpk5uoP7bYUHKfwP/qFL+Hhr30T4YkpNPG6n25DOBTAoAb0Cd3/+JabgfYOYDwONHfg8Oe/gK//w99jEeME8xm46bI01dXR1ShgIpPFqt//IJb+5Seso9H1DgMNcs7Rk9JTqkadha7R4DwZJ8dQFGQrFxhy/J43QqsBI71LverLqa8Vng5p04lepQVfE7rXvxJ5byOKtPYBWxIntvwMg9t+hlZPjGiAcNTVgLbNbwVaLyLc7yRyDPB5Adqnm+v5JeWuttAU9LnOfyuO2kzhuSYzqk/q7enB0OAgIhSeQFc73kYf+uKvfglL/uaTcH/wA0gHveidGEVegkrr7fZ72c5u7PvOt3EnFcFaXxCBVAbToyMY3b0HnbEE1lOAL/F6UDh6GH1795Cz7NYgI/lH6MMMKmrwMF/Erz71N/jhpz6N+vFxhOkiROpqsaR7HuyTk4jEE2gXWyou80y1tzCtCvaMj6Khrh5LvQFcUHHiArcH/ukYYo4KrvrLP8PSv/k0sqEI0h4ijjnBPyd6UuE3oKCiU9/zcDllNTJEcVG4HVG47DH64dPs47S61ih1rSkXe6mfn5oMN8x8zhhqncZT8sHVuR6d61+DwawHmXyeCCCPoL2AeCyDvKcdbRe+Hei8mJ3cQutCiGcenpXr82D1lXs1aADTNN2sIp2mMy+Kx08F/j7rI+eFKmY/v/zx17/9bfjMN7+Bt3zmM3jHF79oXtyZt5eRtFN9jw7jB1/+H+iVmmOE+J6WJvhWrgD278ev/vPzWO52I0hoHmSfeyngbhbaw8ds2RycNA6RgB9NTU3Mh4LPvKyRe1jv73M5cPSnN+Ce//kGLupehEAkjFf+/kdw8Xe+Cee6tUgQuVWIKMKRWgPdCy430hpjCHvwimuvgbelHkOxSaZbRCKXhbu5CW/+4mdR/78+Suthg5d5e+i6PE1P9mVLTyj8aj7zwkN7DvbSKJInH0T06C8QP3wjogyJ47ci038HHNFtcBUPw+MYgscehaOswzU0Sv8MSFLsCKJib0Rg+avQfflvIx9ZTqZswYS9E5WOy9F+2fuBBVfTx29F2hVCRtNMhKNmrfoTkOryXLODUIedpXASqTgLwxSeGOx6sQiFpJq/FaqaSTgpS56dZtxxPjfJ5+NG0Z7vsipHuUNa+2B++Dxou/IqNL79N4E168xgnhghSCs/+JMbkNiyCy21dZj0OrHmDa8DQkHc8PVvIN8/gJZgkG1ewQlbCYcYwitWwBGqQcbmwFShiHBLC4NeZ2VHDZGAZhP0dl2z7p7U3NKK+vYu7Jkax6LfeD3Cf/NniI0P4Zu/vAW2mhqcLOSw4MrLzSux1LcOnw8pCnrDhevx8f/6PNrXr0GUfR1nK4XnzwOWL0WW5ZwiOhHXmbbTrIY+SafbfY4eS0/o80tb22j17bmTOLLt55g89gB8eTF1iW1LiO2ww+n2wkuf0Reqh7thHoIdK+GoW0IN30wFEGAcv2l0c0KPoSrji3TN3J0JpGo0ws1KhYLgSBBDTxEq8lPH1AbpCpRdSBSccPkbCSutuVw3/UQvy6RxfqPPqsmSqv6uGeyyLp1XMrXgHzsyLGMUQ3vuwPjxnZi/4iJEFlzIgjWiZKdCY7xq/iplpRinYp2mEt2CoaPb0LJwKSLztTS5k1VtZNs/Vy+AZElY4AyhWpaoqtbvx74bb8Qt//1lvGvzhXj0K99AYzRBwSPaWreU7sD/oNI2D9f91V/j4H9/Bd1UHGGvGz4K3Zs+TItLmb7lwx9DcyCA0UwCm/70j9D40Q/SUBzHyaO9yAcj6Nq4EfXz2lnxMuwFdtZoFEiOUOnQnaAb8OUPfgyObXux0hVAn9eOt/z7P8H/5rcg7vKYVZ56I7E/kYDT48HJT/41tn7ui6iXYlm2GBd87rOYvGAdynQH/NT/munTe4jMwjGrttb0Jr+cjxeTvpTI8Xekme9nkGk0Cn8xOYTju+9CpDSCTl8Gfnagm9DMqW23RVquXBQVxkmO92By8CDy0UGEvBQ0QjDB+IpNvrwaXSxfJaVeJd17TKcwftnuozj5qOPDfLQBFVp6m60eDkcEPncEbv7z06cMOBywaS03rYTmtJW0XdJ4qqNla5Xf7Pwfl+MzJuENQXaHPYX0wBac2PoThLJ9mBgfQ1PnYthCTVSkZPjZI8+K78iiMHEAPVt/hMrEDiSmTqCuqR72UBsKFdaZ8fnUc0BsDbZNju2lV04HcgV8/n99Avn7H0LlnvuxMJVDi8+Lk84yNv7hh+C95FIqsACWz+9GJj6Ndgra6/7oD7DsIx8G1q/H/Z/9AtJHe2CjS2Gji7D6jz6O3b/4Ba7727/D8C2/wr0//RmVYgkrXnGpGSOqONyw19WhUuODLehC7/U/wd5vXodlbj+m6fNf8p53oI6hQhei7PGx21wGO+nIFrkVPbf8EmM795h350c6OtB8zRuQZHoaZ9EbCUt0M1Q/u91S9lqlKB508tr56vOXCp0pEbNIMzQldpo73IBlqy9G0VmHoYQdAfrjbetfh9olV9FSXULumc9ODcJH7Vybn0Ch5z703v015PvuI5OP0VJPs9s05FMlfauGJyB2pGVN3TQMbjhdtXC4wigeG0B2537E7nkAe+g33vvZL2HPd38ET6oIT4W2t2id8Cs1r3fHWblawq+Op74yU9BPkfu5ExNROU3ipQQSA3sQKk/RoNEfrqRRyU7zRoHKSEeKWtFE5hmydHxsAEhPoNnHds6OoxynNTSw30IrzyWpPC4pJEL95fPmo8PpxppwDeoI6WPpOF752+9GzWsJ+VlYbZd1L12MN3/2X3HlP/8fON74RoDwPbn3APZv34EGfxATsSlc+frXIHvn3bj937+AjfkKLqNWvIZGYPhnP0H50UeZn42IooxoJoWCjg/vHcI9X/oGVlW8cE/FML+rDW1tzej7+Q2IHjsGf7HMdqzAJYuu1rM7MDk8Ai8/gz4/6kN1QKQeTcEQ2olIQm47g5O8ay1Z1os6vXQ7PPwtBf1ct+mLjZ7Q8oschPYSHF9zC5qbO+CPtMC/7DKg+xJ4OtfCO38dwm2Eq5Fm5NjZ6ek4aj1EBvkp9J3ohTdSw2camYLmXE33nYV0ddYdfi2WCkaD23Q0tUzrwBBu/8w/4UZakx3XXYc9N/wMB35xC07e+yB67rwHyd170d3WAh8Zp1wswka4qJNqVHZrbztDWe+HoxASzprvtByndZ/inL10T0pkzAKfoxGFPXMSU/tuhzt5koowR28+gDq2D2o6GM3D5PWKKmtQVIrVjgRGDz6E4ug+YptpFIoV1LUsha1xOYr2eqX6HFl+q6amVSjUHo8bk3fcidgD92EFy1ikwnKGwmjZtAG7+vqQyRRR16gj1FzW6Dsh/3gmjbDfh10/+CF6b74Z7UReLa3NiDQ24MZvfw9tZSfaWVFfMgEv72ViUWQ1znD1q6zVhszbT7j/8z/9JAoP78DSEt24Yg6pbAqPbnkYD7A8991+D7rb56F+GdtD5VShMxls/9KXUTs2hRCxfEdnJ1x0PXv2HcTI7j2Y2LULvXv3oDFEY+R2E40BB+5/EO5cEb5IhAmQZhDBHD2J8FtQ2VoQgjKDn35962LA10otSn9ecFzn5XvqgeYF8HevgofWeWrkJAK2DN27PDKpBCItC2Dzt1AA9JJKNXtV4KpdoM/T3VGS1WZ2jnwWbqcD/T//Ob77J3+K9N33YCWtRRPTDCfiWEJftZ3PdVK7Z48fw/b778O8jnYEFi1Cmtf0uihtbVXaZjlrOY786H7kUyNw+SVWtA7wmDJZdRWdLse5kPRSiUxoNslNHsPogbuprOLw0HqmbSHUzL+Awt/FfHSwiBluM4NSNlsJ5Vg/Tuy+H77sCCKuPFJ5B7z1i+DqWMf4teTR5074RUWiEa924/X24+Z/+3c00fI2U3E6aCIz+TIe3bET2x54CA/e8zAWzF+CmhUrWOECMnzGQ3/bMzmKe7/4OTioIBoKJdSxPyZPDsGdLlD5l+Hy+eBqqEM8GjWnBRcofPOvfiVb2g6/x4+93/2+GV9YYvfAl07TsrPPqPTDfHZRoIaoaApTiRRWXn4ZHCEaD01Tjk9g21e/jtZ4AiGmNDp4EjvvfQCP3nYnDt32Sxy87WZsu/VWDOzbj42bNiHdcwwfeevb0UI3dfGllxIN0KAQCRg2nKNTkvgEJLFwMlaQDRdBsdhAS9eAvI0+lj3CzzDyjiYC1Ta6BYvgXf92tK57CxLlRvgpAJ7JgygP7mY6aTb47BmAJ259zRQ4Cxk4czns+5d/ww/pQzb2HMUiMl2FQh8sMTdt1yPzLaiPoKuxxixKCUxO4Ad/9heYIiIIkBntKeYpyGrk2oZY3x7svu8H2HHXdZju285rKd4rnhL7p0sSfDPGYNi5gNRkP5CNweeS3zmjNLUxScTvyqealwZNc4lRlKmIgs6iOYnYTsbMpuQmELnQN36u+bNUoDvC8p3ctxeDhNge+vnTLEMmEMAU27eB915LRLdoPIEddK0wOMqCU3CoNML02wsD/YgfPYR6aj4/+yY/wvvDY/BSgUwWp3EB/fbud/4GTrJtOmobMNXTBxzvg4uuxci27bjpc19CNxGCP68jOizysyVb2Ej1VERrXD6k9x1C8vARuv1EHVQMehehDuvwUuG6Cf21oSjC/BcQVaxyunCZN4g3NzRj6uZbMHXjTcgc60FNMoUuuTd5tikVyJzgn6YnEX61koL1Egybk1bSqeWzhGgzVsmMrDLYqVmLDvrkpQicCy5DLrQMhbILnsIEslM95PoEG15TPU/e8hV2jgYS7YT8t336bwj1/xkXB0LooB/XOz2FuquvQscrrsRAKoMEhSwV9mHev/4TFr3zbRjL5+CaiuJbn/o0Bn52g5l7rhTk95GbKOSDvYdgy47RKk1gqv8QZSzD0lTFsVrXcycxrBY2aUkyShOIDR2Ej/Ddw98a43BpocksTlN85Sa9JSQyMXCI7sEkhT+LMqG2z1lAcnqACmSCbay2qorEc0NaDSnN2LFwERpamjGdI1LzeLEzFUcPXbdpKtQKhXl+yYaaWJyCFzXKrKIFHSzhaA+FnwohIHeOEN7FvguwztNU8mvfcg3wh++H/aJVSEcCyBVyiI5PYmJkHPQP8d9/9/ew83czEYBOIs5I4ZlFWiJrjEZC7lNWVORlrREgT+g8gkWdXUaxZp1uHEhEMeKxY8hB5UtUYounYR8YwWJxJ/OqpTIoMb8U3VHQhZQbO7cG4DQ9qeXX2mjBYvmo4mN9avpJgq8Hq0GdpvsFm49uAJGBtxE5YndbKYtijtaMlsyw/pPws2S0rNE4BxnwRz/F/T+9ESu75mNofBwTHhde/+m/wNov/ydsyxYhT4NaoEKI+9z0PIKY/8//iA9/5cuYd8ml5NEoPvOJ/w87fnGjOQBUYwAq4YIlK1Byad93M+YvWcNLLqvcJnfr79MlMZITOZQmj2N65BCCDqINvVSUFdWgk2kU1quaOmvHtuOFdBTJkeOIOKYpNNO8VqQlKxg0gOQEoXeWQqY2e+5Im17y2q23aDHmr1yJGIU3TQt75dvfivd+6i/R2NWOMAse8TgRrgnRHNO9k3LWAAdrcnT7TlSSZdSwv/QOAKfNgxjTK3W0YsGHfgeoC2C6pRG2pkbKL/1/TdulssDEFE4cOwpfOIThdArl2ghKwSB4h4pTDoITTm8IabcLwXltCDbWwV5kyx3rx/7//X8x1j+AKa8bJ4j6LvuzP8NbP/t/8bs3Xo+3fPT3qI1zaOC9EFvcFwzBfvnlWPfqV+OX27fS5RsGvF6Lx+bI0JMK/2x6IvHQ9aoCkFIABb6st+jQd7d7QmZ7LghsTQwJwxMQ+Ye3eZ8CNdx3EjlaoRPsrOW/8zt48+f+A82/934g4Ma+gV6EnA64GM/uofDX6K29LMG1b8Kr/vvL+NgXP4+Vl12MoTF2Nkm3pOx9Xauw6TUfwPLL3wm0UfiJVAR7n7hET00E+Cx0DhODR1DJTtF6a38ClQ2FxGwpNYkzc2o2sVxO0aUBk1P0OiZo9WXR8nQftCeBikQCT2tmkxXT1IRpleeGlLJZckvlmHY4kGOb2ujLt7zrt9DbP4hjx3vgCXowmE/Bs3wxhT+CNOO69FqvYoEw/gR0fKqbRSYWRM7lxgQt/0W//dvAipXsqzBq2ufBH6mHw+WFiwhi6Mhxo0Re8eY3YXd0HA1XXITN730XRktFFPl8sazW8WIqS3/e5cDyN1wNdDTh8I9/jP/52B/jkS9/EzYigRN+N9b90UfQ9mcfB66+EhgbwQ+/9VUqmRTixTTyNQH4LtoINDfiE1/6HP7yvz4Pd0e76ReHyj9Hhs5Z+EVPJCi6rjMe3UytONmDcqJXJ0QTvIbY+VrcIY1uVMMMievOZGwzAq6OKRRxzcf+EP/vttvwwe98C2vo9+PVb6AlaQR5AlH69mFmVsrm4YqEgdoagJYjxY5FWyuZ91344+t/hDd+/A9ZmMzMUU5UPpUI7A3r4Gxax8I2MLMgrz2t6p9JLIsZhEpPIj60n34v8zJvENJy6Jm6GYjMeFWlp8v5aQwdegSeYpzFo5J0+FEmWqrAA3chz7R6GS9DS1qgArFWBz5XZErHsg1NTJipMQfh+6N/+Te482s/QHOkEceTSQQ2rsPqD72PbexDkcLtIszHZAzpgWG02X3waSSdVn20yN7esA7B97wHaGhFnvcc9W2ItLQjwYwqTLs4RqWXLeA9f/d3+J8H78YVP/wWsHIpDmeIDj0+sMaI0RUor16Nt37yk1jwjrdh/7e+iW/+wR/AsW8/ljc240gsiiv//BNo+W0qceZ58Dvfw+fe/1E4xmOoratFXz6LKz/2B8DGDShmM7B3dsC9XgOv5BOilifi4ZcjPQvuP5NMo5Jpoyf3w5cfpKhrkUY9bPVdvC5tOzsrsfSZbH2qU3SUT4RoobONkHQBmYJQTe6ENwxnjrAznUEN/X3pCac61EumpGV1ECXkmKaOojJJE9ZSzfOLnYqFnzYvobTeR6eRd53zqjIx12coXUITbuaRGT+B/FQvgi76yBpAJOJRktoQZb5QuMwLMvjdq8/UGKaH9sJdTtLoEp62roC/ZRVlwk3xpxWepN+fn+RzOhdHCTw3ZN6NqE39FJaCtuoyK02/uQfHsDFYj0Q8A9uS5XjFZ/4BaG2kZXYSxXnYYuzHoXFkhsbQyr7xEAVo+CAT8uCCd7+V/daJaRdhPJUaoQPq53VjhHl4PB5UYhTyWEKZM16HcD5iPg9ceu16bR373gv3muVY9R//AvdbfgMPfuVbuOlf/xOviETQ7nbgwHA/3v7JP8P83343rUAcD/znl3D7p/8PNudc2FDbhrGJBC5+93sR0cpDujB25lkgoxQLesPTeWP1lww96xYRe6ovnfRZi1M9mB7YhVpHAnlBxMZFFGR2soRO1veUhIvO+GGRLjFIfPJOO/J+r/HvsyqlzFSGcHg6jaAOm6Bgu+powX16b69VDTuvVdxuZAUhCek1yj57ZZ1NXKprBoXw+kx+50aqqQL/UrCdWkxUnMZ4724qu3FaRL0+zM/gRYl5WguM6AJQyBRfyMhVySPJ9gkU+s0AX6ZMJdSymmE9CvYAQp4Siim6K6khPpfhc8Y2P0dUoZ5l5RNxeIzws7z0h7VLczRBAV2+FBd9+pO0oOtRDAeg7VtFnbyjwbbpJErT06wt24EQ72Q2gXmvugrO176S6ZYpdA4qPLYv/XZHQz2mqKyd9MUL4+MU/rhR2DFBPTfbimht3B/A3lwWh9hlbde+Dli1GHd98Qu477+/hk3hOvjTaSTpCv3uX/8l5n/gfRi94w5880Mfwd7//CI2M41wLo9j45NY9773o+Ojv0+eo1FQID84NfCqtQWz+GCOLHqSFhHzivkeGywBqJKuFDWIUoljqncLKtMnQNGjxvUj3E3f2tvIhtciF1naKlWlTtk/Vvp4jdra6XQbuKy78tt1OZ3OIk8F4CjJCoVQP5/Kxe0jP7oojNYMhIJWklmz6o9J/7FZnRNV20GfM1bdTOXlkBk7gsTQQYQ04l9xI7joQmRtYZSpeDL5NC2qXhnGtqF21BmUKMYQHdpDaznEohQQblsCdNENqVuIopay6jVl2QnkMoTH9hLjnM7XCuePNKVqhH90BN5kAjU+IiMiruVvuQav/cxf4bXf/wagUXv6cnqDr9rVuDPsjOOHDyGfy1DAS5gs5ZGpq8ey33mvGY1PUajZ27ATkovsNSHEpchZl2KaSiWdNKhMQpks5lC/bj3e/hd/jsGOViz58AcQ/uD7seuWG/Grr30Vl/qpXkZHqeRr8dZ//Awcq1fizo9+BNd/+MOo2bETlxH5JWPj6HXmcdmnPoH6z/wNsGwxil4PSpqWNHzwOC6YoxlSuzwFVZnu8cynKyXD2PR1o8cRPXofwo40soSP/qZu2FpWMIcIAxnrjObX97N3h5WLJfRSF8ZGE06LoolpjKZyKNU2Ie4J0H9vZQSXQR6Kr8pUFYBVsbPn8WzJCGVpCrGeh+HKjdLNLyAglNO6AWlHA0p2Ki4qhFJpghXKMNBdseWRmzqK9NhBBNhGmUIRgXa2T6gL5UALwVGQ9Siy7HnkExR+KlAtQzpbu58XUqOphbWHnpbVUSpRWc+D9w8/DPzuuyjIrUh7XcgSOsvHMX0hJJLP4dH77jOfZboCQ1QinbT62HABkkIPtPYu7fsQ6iHZg37kGC/LTilrnlODQayTS/P0ssrBADZ97KP40x//AKv/7H+xccu4/fvXYTHz6kxOo4Ftu3nzxRi69358gdZ++M67cDGtfRetet/YCCKXbMQ1//MF+Fjukp8wPxSguylLb/V+lS+eG054cdM5CH+12WY1H/tYrKOgBS62chxD++6HOzMIj6NIqO5H48ILaIKbUHYEqYEljudGsztJ363fyol8UleHbG0t7hoZRZTfwwsXmHu2X8tAjnKwG2Vnd1Aop45jum8LQoTvRSo31zxa8NBCCr82mWicgZYxP8bi6XXhQkbTiA3sgCM/BfOaKU8EnvalvO6HjSjG5a9FriwL60I+TmhsFB7jmVH/80dWS/LTfCH+mJqCi9bYScHUtJuW8GrcJU/3ySVExTrbKUlaMOXQAKf8Zz7jIzor0a9OEy0s/s23U6jddP0c5ujv6j+TA/umTDQQoxvo1D5/WnEpQx3eotRVOy3zyTfS56+vQerYURSO96KFVruSjCPC9t75s5/j2E23YoPLh/lOL+J0SwaIJi78449j4398Frj6VXT/fEQZFtQ3ZziqHFYl5+gJ6ByE/yzENpXhyBc175vG9PFHEDv+IOqd00hl0gh1Eu4v3ISii1bQvETJsuTnSqeF3iIXmUwCU79sGf7kq1/BhX/+p/jAFz8P+1IKD6+7aFl+HcJvjGUlR6M8hZO7b0cwP0Crn0KofRkt5SagZhGtOBmccNplzyIZ7WX5ptnKZPHpAUT7tyPA66WyDfUdfCbUiWLRC5uvBoG6bvq1tRQKH0rxSfriDEY0TKYm//NJZhCUaSZj00T2hOVsw5KEc958ZFxeCrOPwklXSiZU4kRXR5tkMDCAIl2FxnAYE6k0lr361YD239On14Sum+6XdXaeVV4HrbvN48UYlViLpt/atMuxSAVqKWwNhpY9LubJ8mjQlkqiQh/eTcjvbmg0u0P9gQDCDOPjY8hReax+3/vw5uu+i+Z//AdgxXLkdfBHMExrTzTBsoobtH331CzLHJ2VzkH4xXizP62JLG1QcWuJX/QEBnf+EnW2Kfp5cbiCdQgsu5Qp16Nko8+mgb4ZRngmVH3SvJNO1ueizVj2d/TtLqSwkWFNeE7JEj553xrBd9KiJ07uQeykXiySgJ0QNLJwA7m8gSi6lvWPoFjJMnKaTCzBp0tEKB8dOYZy4iS8Lg0MuhHsoOLyNJL5g4wThifchZStiYaLyjJJxBAb5XXmep7n+6vtaRQZyebxgZ44RkqE4hR8vfq8fGqMRn1tzVaYM/vp+2cGBzF1chABfwBRKoR5mzdTiYWloSnoEmglTOEzSkNfHRiMxeCd34XF12oMgQ4BlaPStf4pdpneghMFCn7dipWoXb4Cj1DQH4lFsYuo5GAhi+nOFmz8/d/Dq77zTTTR/8dG9r/6RRt4lDdZWblX6zdHT01PE/Ybb9fYI/l0OnlmcOet8MYOEP6mkS450Lj8MkK71ZRTQjAzv65nq2QJ0jNl5jItlKbzMvQz804qA3a8yiN6rjpdMwlUOUZYnBLG7DBG9v0SQQp+xe5C4wK6N42rWQ7CVnvQHCVVKlP4ad2KWQp+Nkn5n8J4324Eoem9Ijx1nUDDQsavpYxpERTBfrAFOboMamHtEERigNdZW/rAWl6tej6zVjs72dmWopqVq3DI6cEIreziN12rO8YXt89kVu0tJ2F+uZCHj8K59MqrKJhxNNDq+y+7wkQosi9EVj8Q+dBl0AKi7vXrEV6zBq/+/Y8AS1hnRrbP7Owz3/lXQXvx9Q+19fiDz30Or/6bv8HCP/h9rPqTT+ANn/03XPHlL6LtU58ENm1AJRJBmsgj4w/S5aKrwfx04rDppDmof85E1+jJWuv0LdOu+mRDlwolQsBpjO77FUYf/jYW+yYQTSYQXrAewUvfB/hXs1Po29nczIDQUdNijyNLmTwdsvK3gp60gOtzSyY/1Z2Wz+XIYnzLNzGx+3pEPBUEatsQufjdqITWUhk1w0PLGN/1JYxt/bx5+03R04quN30c6SkHjtz5TXShB9myHc0rr4Rj3btRsi9DiZbeLVcieQiHbvsyQtN0DTAGz/K3wHfJx5EvE4oTGYjkT6u+ZunwsySDJygwgskT994PbyiEoFbm0XqXNSjHLKqWQe2uIAEzkF7z9X39QFMzFT2VvM/D9Cw1aUHtmfJJIBWfvKE41kqumb0icg+sWCSNEMxYbSGMGcV0BpkXfBTMy0eKDNX4ytPka36dTnGOnprO0sqzqdqgVfjHwE7wOrPIn9iC8V03oMUzjUI+DXvNPATX0XJ4u8nQgrM+I/gWnU7nzPD06Nk9/cxITK+FehL84tAuTB59AA3uNAoVJyLLXwkEF6Pkoh9rNq5q8Fp+ew152IdynqXMRRE9/jC8hTEKbwGOQCMcbeto6nS8F60lm8jMQftrjO9foSWzlXPIZ6LMOEXFqXUC1TpXxfDZk2k/zaGyTxteeQWCtNBluXEUfOVT7TmR4uq3XC8pQdDqYg3RXVMDKjMj65ZCqoYZYnztmyyEQ0Q1gvtEA3QntF15VizSabgudJdlHkkqDu0ytIIOF3Ug4/VRyVpupBS/vv06DMBLlWb38ZOSWE6bIjzOAsoTh9G75WdorujQzjymbSE0r6Ig1K1ibzSwM6xNM1IY6hp9zg7Pprv0pAptmFEXnmOS4Ns0bZU6iYFdt8CdH6dBK6FxPuvaRchPP9+hzS2mMEQ53mYKQzPjBMw2XQwdRmHiIEKujHk9Vbh5EduJ/j6Vg+RFjxW1yJ5phBrnIV2Uvx1ELk3XIZ+kwsgTEtPxYBTLwp0f4RdJ5AhEkMvlzVt0JPgS5CcaKBNIrFBhlFhZc2iqUIKsOUl/z/ac3Auti3BQeKsjAk9GSsHFZ9xUFtq2awX+ZtoahZCwV/vfIj3x6+KGlxadbsMnIMFeQUQJvhtpIN2Lg/ddB1f8MEK2JGLk0Zb1b4RtyatQtLUQ7kfMYKBIjCS+1vlqeptL9Tx7bYUVEzwVI5yNfl1dXXVzHITkbkQxuvNmWv6tZMQCAq3L6dlczZuEvc4Iy2ItJtEUFsJt5mThQlHLdQtIH9kGT2oAzkqWcDoEX8cKy+rzruRGHpFOOYI9AG+kBXkEaRzDSGm6LznOgqRR0avMlD4FwBpJf/akVKwyV+Ci9Xa4tN/wyXtEwm0FVp1KQOfkmTrM3D8b6Z4EWX658nuyuCLdr1p1LRaqBv1WqCqAp0pnjp6anpSTqoKvt7m6bBnYckM4fv8PYYvuQ8SdRSJTQMPCzXAuupLx9JKNIAWc3UKOtpirRAYpMvDToe9kL5u8wwItqrUI5IVKEoMCtZXDkUHy8H2IHXsQNfYkbK4gQuvfQJjezXoS/tK9Mct3zbgG6+QL81Ijf7vgLmdQnDoJfzGBIrWfq7YTqO80bxcq2zWRZgmE5rzF2qGaZjj5vJb3lGn1SzogpKSxeKZruP1cxOfcSe/vlzBXRV4pP1Xqum/KPBPOJf65pPtYmv3cM3l+jp6a1I+PIzGDsfb6zj8evUarOIKhR36C0tA2tPhSyGSScNXPQ2DVxYxQYzbWeCkoPvsUIdogHIWjcCT3wxndAefkFrgmHoFzaitcmX1k81447ZPsUOtc+xcSqe6WMJSJglm+qYMY2nkjQvYYW6GE1tWXApFlNGetFOKwKb15xl5GiYpNK9xsgbDZMOhGDiFHET55vs4AAlr/EKBbIF9/Zp7dtLUaWgOK4QbYPbT6BZ1UU0Ru8jgh05RJt5rPeSVZcX3oOxXYOQ8kVhvpvBdojn6ddGq0v9qP1T41Vp8c59EKNVr8oYd/TMR/H+pd04Sh0/DUtSGw8TW0ZEtQLIaQz+aRj46jnGCYHkM+MYlSLknlYZ1sIy2idD2hENy1LfB3biYEvphIgLDZTus5Ww9ZRTqDLAY1X88kw73nyLRPSSoprS7zsZfjsOeHcey2r8A5vgsuvx2NS9bAvfINKLiWEuU00mILkKoIemmIpj5zVJQpjG67CdFdP8Z89xDc+ThKdi9GfN3ovOb36RYsI+5pIgrSkRPmaA8TnOYFH3GM3v1VTB/9JQL+EnyN7ajd9D7kai+nma0zsNdUl+F8kvI/32nO0QufbOWylq5YUy1VEjOXywU4ta00O4DRh3+G1LH70eycou+aNIM8vvkrUCBDjiSLSOa1vz6FSiYGdzENLwXeRWvl0eixBJ/xtdxSYwEpmrmJvBP29kux4ZqPo+JuRsmcbmttxDClOJvw89LZGNQIz7Pg3OoglZUjBV9/tca+dBITe27C2J5fodaRQvOyjbAvvQIILkHa0cEy+8xKMov4FAtYoV/vt2UxffhunLj3f9DtGoCf1+IZxlj8KtS95g+oA5uoXKz9DgJeZgZFy13pBmkBUWb/jejf8l2EXRNUGhV0Xv2HKDa/hq5XI9GAttSqlKbW5tsczdEzpbPP82tduS2F4she9G+9gZB9D2oRNQdQ6Egum9uNZMlh7JxNvit50MwaaWUI5UCD3Dp5Sa/V1tSVguZ2td0jVN8Mf8M8ONs2wdGxmXFqGFGCYLH0M2Hns1XhXKkq/CKloqBR9WL/HTjy4LfhKkTRNX8BPGtfC4RWsKJNtNwB5KnE3Kq0iW+qzae0di+LyugeHL39c2gp6Fy/HBIFD+o2vxtY+5ssaz3z1Ly99azyM6Mf/GJOGx65D8fv+S8Ei71sxwQaNrwDrpXvopJoY9uE58R9js4b2UbHRis6gMKwPDlY+9R92q468igGdv0cNbnjaHZM0YdPmYEp7VUv2vQWFTeNtRdlDd3zuZLdiQKtd9kVIBeH4KDv6gnUwOMPw+3XCDatO+Pb/LWU9Tr6wHWIlwK0aNZef62iE/qQIjEFMWJxmtX1zRRTZOJYX2X1q5efjBTHOm1XxJx4wRI/i0z+vCaE4qUFHtj6Q5THtqG2uQkday5B1tGJZLmZ5bWgvovCr7cFaXde0eFEnt+1QMbrKMBfnsTI9u/BOfaIaTdvpA31696MRO0FVA31zCQwkxddIRbJuBpsTxcLFSwcwckdP4Q7vh/OQgyVlvWoW/8OZOxtbPc6FlRTZtKsVp2s+s9gASaqtxXNvZZqjs6FbDt27BDfGMss5tF771z5ScQO34S2ymHUYRSu4hTy+TxyZRfyZe36qoGNwq2XatrdEfrDdXD4+NsXRNkZRMUlYZcfr9PYnQbu50uExUQJEvZcUbu5HIxD1MBQYATj81O5iI1thA6WRbYgsUgOgRaHqIxns9ZPRFVUoMUjhTLdE+XE72aBCJ17DXIphhl3N1mxDWx5VMb3wp8fhLOxGdOeeqQLYcaIoN7vh0fvh09k4NLhIr4AMm4vUm4PopUClWABPkcGtomdRAA7YaMbVNvUQcCwGhNoQ55plLXZSXnzm6kvy6B30pUrJYToWpXjB5A/8Sh8uRjCCzag0LgWsUIERaEkSruEXzvhVFzVR6kUNUDDNDUn7mFQvavtMru95miOqmSLx+OGRwwrkmEMOM9H0fPQt1E+eS99T1our52WPEiD3gJPkLA90k4LTivkpMDTikPr0+mPVhweMjeFvaLll1oPbwmwdYY9U+Zv62APl1m5pu3AmvITbxrrZZhUxbEY1xx/xevmL581CoA3ZLFloUWW5Ts7KU2lofs6hUYn4+gAR20g0Vp1nUSrdEx6ysfkod9FWvY4XJU0kqzHNJVVxB1CoOLCxEMPYuv1P0DsyFEUY0mEGlqx4tIrsfQdbwfam5Bx2ZEup+CuxED4hHI5z/aqRYEKM2ujANPFqVD1OImUzDsFWSZTF7pGJX7a9JbfShz22BACOl480oKss5aIwc9npVAZlQjBbJXlD51ObKdSq/V4zQ46radPFXVslaXUqspvjubosfQ4n79IZ91pp6BM7sdkz4Pwe8rwNxKqBnVkFoNLc9t+xtRGDgZzPp/sKEXILEDRFNYTkzKzxNki67c14GiY1fyz/OCCrBsZ20xB8aKOwvIwDwcht10be3R9dmKPIaUj65gu5OCnMGiVWSVJgaK11htrtEJNL3B0aHWbmXo7nVxBpxDzX6UgN4CwvqcXd33tazj6ox+jbmgITW66KlqrQIUQLTHdlctx+R9/DO3XvA46Tlw1KFIVKg+daVOs0Bozf+UjZSg1Y04E4j2z/ZSFVT1LWs5ro4rgp5vlkkGXUpXCVJuonVRKdZujZLOO35KvdOQYHvj5jWhZuxqLXvdqoi2trbCGJKt1mqM5mk1mtH/muyH9MtbQoW2p0/wh7lMUWnadTyerbpPgzwjLWTjrbMw2+5q+Kx8rYzG7YL/8XuGOMgoUVi1n9ZCp3S4yviRAZ8wTWlf4abb3am85n7HGK84kXaFcEFXo6Kg0gtpx1teLG7/8FZw8chyXXPFKrPutdyJLIbX53EZ2NJZhBif1j/nlcgUEnW64CyUM/eRnuOHf/h2lY0exOhSCLzlNNyaHVDmHiNMPryuAAQrqkN+LrosuwuZr34z6CzYArW1ERiy/9qrrHC+dZCNFoxKybKagqgPz04IbtXOe5cjTqhtBZxTpU2tjFFELP3WwhkcnBQnysIyVfQewjUK/7/4Hcd+D9+E3//qvcc3f/zXSuSzcbC/R3BjAHJ2NHmf5Rbqk96bpBBobJUPW04BjLUM1nyaaIT1d/Wl4bCY1CZTIKJNZ8Wd9Nff0gDnQgXd0kIO+hSh0+kQ0hsT+Axjt68PI6Bg6Fy/GvM0XAuEQrSHj0LKpOKcyJZlTc0l6519aZ9N56V/v248vfPijsB0+hs5AGCcnp/DGv/9bdP3Bh2mZWT8d/zSTRrZYNkdMhWWlT57EA//6Wez5+new0htAHSVxcGocpboQui/agFBHC3bfcz/GDh5BB6F9IBjA4EQUJeZRbm1Gpb0N4a5OdK9aiYaONji8bhbZARdRg98fMO+bh15lrncPSFBVHyEao9yIpiT5htRq6gUqDumOsSmk9u7FAz/+MQbvvhc1yTQm0hnMu+JyvPaf/w9K8ztQYtpybUTnvHhnjl5WdFbhF1Uv6rP6XSxUZaPHspPiWEri8SQWnv2sSPGshb78lLLJZBGShaZvPvnoNhy69Xb03H0fRg4dNO9l1+uc9LLvVW95E976qb8CmluQo2BLmLTVtZqm0pNvX04n6CWXkaRwfuOPPkGoPooNtfUIETmkCgUcbazDq//f/4H76qswRUVRJpLwU+j8Wn03ncT+H12P+//7y7Dt2Y+LahuZlgMjiSR8F16AjX/1J8AF6wA/Fcv4BEa+/wPc8dWvwz40giavH0F/ECNEHNOE/Bla+hwhuAYcVV/VVQOOQjoBCn5dbQ1lP0SA4IWTCsBXX2NOr3EEgnAFqeQCOunHQ2vvQDZKxDEew9FtO9ku++HPZzEvHEEhk4N3xQq88stfBuZ3GrSht+E+to/maI5m0xMKv0g3qqFKVUF+LMkgaQ+ANu4oMGVafPrTjGxG1hmqdkyk+HlmnaRgOynAtcUS8rv34v7rvotHf/YzBEfGsdDlQ4SQWdPpOhlGJ9xuySbw+r/7NBZ95MNIUVg1W6AXN5pyMj+ddl/IZhDxUlh/9ENc/4k/x+J4Bh18dnpixLxbuC4Ywc70NBrfdA02f+4/kK3R7IUPHgrRiXvvx9ZvfRsnfvlLdBOOL62rR2IqipjPiys//HvwfvTDQH2t5XZY0IXC5gUOHMbR73wPe355G7KDg7Dl86wzfXm9eZZKIkDF5mR0600+rEuhSD1XgoOKQQt8pA70FlmthzQHlvDZDOOnqcCy8t/53Vuxo9HtR8jmQJACnqkU0JdN44K3vRWr/vh/AYuWEEGwtak8VDQzk8HPOcM/R2ejJxV+kW7OjiA+Uqher1p7MVs+R1+deN9JoZTgK+WC3phLQdEBkbNJjF4hzPfRQmFqCg9/4Ut45GtfR2Q6jvk+Wk8+l40lkKXzbw/44E+kUO/y4hjVRuS1r8Jl//UFpOrqDFyW8BeZn6YFC7TO4WAQiRt/iq9RUJfnSljkCWDn6DA2vf518FAx7LnnXtQ11aGPbkHDa1+Hrjdei3gigx2334npHTvRnk5hYSCAAssyls2iZdNGXPj7FPpL6HI0NmKakF2v+vISlmdYZwluQOsYWGYcPQDs34n+B+8igogiOpHCscMDSNHV0DCpfHY1mN4/52R5XQx6KaXWV7jYdhrF17iHzqNz6MQb4wbYec9pLHyJCEkHZWbkV9G1uPCD70fkne8AautQYvs45EaYHpmtaudojh5PTyn8ZyPjV0vY+D3Hr/lCHp5yGX75sMUsCuOjSCfSCIfrYKtrMGNbGcYu0YrbyMiFHCG+fF9C8BM33ozb/u0/UNizDysptCHydCwRR4oWvXnNamx859thu+pK4Oe/wD1/97cI1jehx+XEb9KqFzesQ47CLx9dR3tVaG1rqIX6rvs+fv5Xf4XVVDCNVETjFPLF7/0tdP7ln1Mg4/jqtW9CkNZ8MeH8SLaAYfr5dlrVCH3kNlpxWzqJ8VQCrq4OXP7BD1mvoNKJNaxDga5GQdN0/CVEozbQcGWZgu9i/k4/G2T/gxjffRca26mctCQ418gGICYpaJ0vEYN2/Qz0g5oB8cEhnOjp4T0iASqaTCqJHJVPJZtDPplCMk6oz3SlOgOhMMIsR0NXF1a+6lXAxRcDixeqF1Fiezmc1vFYZ6rZOZqjs9MZwn/qC+lMBrJYSn8F160pJ/IxGV5HO/l13PPkBAZvvRk77r4D0eFB8nkB/mAN2patwJXv/i36ol2ouB3G93Xo0M3jx3HLf34ex67/CZYWymjy+TAZjSJP2Lr+9a9B67XXApddCoQCOh4H2LELN735N9DIPGO5Ai7820+j9qMfQpwWUO9v98o6Ussc+vyXcO8//T+s4rUIXYqTuQwu/fAHEfrEHyPvc8MdDmL85pvwvU9+Gr7ek4TRPnhdHgPJsxS4LJ9p6J6PpUQXbe/+TQrXUpTow2dZR7MoifXWMJo+1UamHRg01iClGChN4tB9P8HwwdvR0ezH4ld/iOXfgLKNCqPMWGVaco1wOtiKpZTmAIleZt4bqMRyeb2dhMoiC6R4P02FoVdU6ybRCGrouDQ0MHPGZ33zVFYFuhSzXas54Z+jc6FTwm/+zKKzMZDhTQaypYG4NZrCSmXRd8st2Pa1r2B6y8Pw0mrVEHq6zRJgBwaSSdSuWI63/Okn4Lzqcj2JwzfdjLv+68twHTqC9ZEaeGkVjzJe/cUX4fL3/w5wtU4FotWkAGcEjakwnLSCt7/9N5G7/2H6736MrVqG11z/PaC9zcBiHSl912f/A0e//T1sIAR3l4oYyiRxxR//Efwf/CAFphY5Cr/m5r2SkP2HsO/6H+Pogw9hqv+EgeOrNmxE9wXr0XAJLeomndLDVqA1LTI/Oi+m7BIwawz9zDbLz7SiB1GceOhnGD92Dxpr7Oi68v1UHhcgY9M+B0J7agrN4cfGeqgMUgjXtjBtPxzVE3M1YKI1BxJujSto0GRmnMDs/Z2ZItQiniJRjU7WUVyVTmWbE/w5Olcywi+LpaOZ87Tiet+d3oMnnVCdIhJfK2hlnK57ed1NJs3v3IW7vvIVHPjZDZhfzGEhhUsDWVOpNHmVAuug9a2pxfh0DMO0jytecSWStGp7HtqCpfTr53u8GB4bQ7G2Fpf/4R/C+17C6w4Kc6lAX58ogfc1Beig5fNREez5x89g29//I66uacDuTBqLfuc9aNl8IYaik9j+wx8it207Nje1wpHO4mSlhNdQ4Tg+RMEnqijoXf46rYZVKudzRAq0lVQqGBmhdaWFlfiECe017cY4eb3A0quVeB7e0ZJa/Z3xpI2gk2ZJmk4pkhp122MY33Yj+nbfjJpgEYtf+xGmuRlFe5iuCethy7I+k7jz1uvh99lw4RVvQsnTynJ5mTYVJlGBxk/UflrDUKLgKyhxrUjUEmfHjLAr+6q1n6M5erpkCT8F30xBSeh5MUsLo/PmNGinAShdJPuZdeMBKYmjR7H129/Bruu+h5rRMayuqUEuNY0R+qsNtPLzLroE7fPmYdcjW7Dn9juMkPsI9dMUWK05qwmHkSWcHUrFsfh1b8SyP/ojQK9R9lJ5MFR0lpwYnXFVngoVjVsW8NB+fOutb8fC3n74/WEcm04iIQtIi9pN5bCQQn5yfAKFpiZc/alPAXqTjAbG6CcXZUyrUqvVdhppZ52tE3hUQdXQErwC28HMtxsh0657rcezyHzqkeoFkn4a4Wfw2KMY2/5z9O6+EXWhMhbT8qP5ChQqOuCDShPjOLn3Nuzbfg+WLlmK7gvfgJKri+mZ4UCmZbW3NS6odfv6K1IZrEwl7Apzln6Ong2ZFX5m48fkJAZoOTs6u2BbuJhcTMg5m7PkexJaHyLEv/0rX4V/eATLgkG4aOWjsSjKzc3Y9K7fRMNb3wosWUI/l35sLIb+//4q7iTEDyYSqGM+TgpdjkLn6erEhne+A6H3EubPm48sr1UCPsPVYuqqX10lLQDyUMiHv3sdrv/Dj6MpW0J7qMYszy0SypdpvYuVIgJrVuPiP/9z4FK6GH4fihr91kAj07BUmzULoRV9mprU67CkFMwgprGsyp0iyN9KW8L/1AKmhOiX06qzIRHd/gv07PolaumiL7iM9Wt9JZEEXRG3HbmhB3B86w/p1qew8oJXwLfoCmrVbuZtbfYxkF9ahIrCvEabZZACsMrNkvC/hUSsbM+hcHM0R2clWy6Xq7jdbvziT/4UWwnhF89biLWXXYHaVSuAlkazwKYyMY6hRx9FzwMPINXTiy5a7mZC5CFC9mmvH6vf+CYs+wAt3KaNlDByIwVHjGsESYOBW7eg51e3Y2TvAVSyWSxbtxb1b3oDrf1a48dmtQbdYw2miZcVqt+rpPXxmWwaEZY1etMt+NFn/hH+sXEEKRDa0VY/vxNrX3M16t73Xpa7BdpKWPJT+gyCsMiy/FaqsvMKVdIdUTXP2WV5ItKcvZSHzimsTPdj8MhD6Gh1ozTVgyPb74TPaUf72rfDteD1FPAwKxFD731fQWX4IThqOjHv0ncBtat5r4MZsZ2M8DNhg0asnLUY6Gz0ZOWaozk6F7Jlc/mKR/70//t/uO9//xMWUajjUzFMkrsytMSOQg6uxDQ6nE60MF7A7cEUUUCM3zsuuRQXfOxjFPpN9Ku1rZU+q4RYrgJJ6/Mdhbx16IUYeypuhNGsd+e1pMuOslNr663XOmvE+olI491mloH+v19LX0eH6a8PASkiEg+tphbeaDqOLkOKysTh9hI90D/mM08lKI8V/HMhPaPxD1slR+8gibEdP8XRLdejuy2ESMCNwaN74fcEUbP8WgRXXAuEI4juvR+jj/4ANaUT8HVtRuRiooKQXtapF5ywTmoj03RKXaWZE/E5eu7IViTs1y45JJJ45JOfwjb68ssDAXjp8xZoUc1CFEbUHHSaIRcIonXDRqx721vhuIqQlb59mdY+S6HWO9OIU41FldApCAVoMY+2mpo9ZhrI00o2Cn+Z8asQVnk8GasrTYmEPrPpNPw6asvLp4xzrGChjTLLrU09WoRjHRj93IiQyqFhAmclxcwmMHjnl5A/cSeCNODFQgmOYg45+hW1a34DwXVv5sU0Dtz2A/gzxxGksmhYew2wmIjASavvamTx5ehoDEKpP0b49bNKz0Vl5uhlSbYizZdQpr2geecKJr/xdWz/3nWIHT8Oe14r9qgEeF+basKdnVj1lrcAr32dtSGFkDctYXM5jWDLels2X7LIh2jJNHBnBIVMq1msGbfVxKsqiFP8LCZ/CuZWFKVXoPDLx9dOwDJT0Ui40nLpl3xl5WD89+eGVAZV0VFO8M8IJm7/T6SO3IzO9ma67zWYOtEDpzYfdVyE8MVvwcTOhzF+4EGEfWV4Q0HUX66FQxeyITRnry3ATtNmc8I/R78uspWMlJIHjURRAWjT/PCgWYRjDuLTXLNgdls70NhkMR8FvkILnjfz0JZ11Ti1tXucNOO7ahDNvIpK3607p9hawq8w88TTJi020n57CX81TUuZyEtWbtVcnhs6JfzG8g9h/LbPIXnkVnTN76A/34iRfTvMqsfgwgvp82/Aie33w5sdNysiG5ZcAN8m+vueFUxFuw1Y8ooCb5oiV2v0TFtnjuboqclGATXSb5hZgdZeh0gYode21iojFsvIG5zrNKf3VheWSPTk25sZAwl9lfjTStdmrBn/n2JlS93oGevzadNMkfRFol79aSU3qwyncjz/dFr4M2yEcUzf/w1M7v05ahsDqGluxOD+nQgTUoXaFyHlCCEx2g8/NWzc1YzOS99BKHUFivYultBrFFbVdZkT/jn6dZHE2LCYJcgMbg/yDGlyd5qWX0dt66WJGfroNo/HHKShRSbyUC1LK+GeYVKlVg28pusa/NddhSoZZTD7wtOlU89aX/T3dHLVX6evPFdk6iCLjSBcvkYUEUAuW0R8YhQeN10RlwPTY/3IjB6F15ZFtlhE88L1QCuDrZYlpFtgiAkprTN6Q59zNEfPHRk7U2U3sbFhP/rK2lGm96hrs4iLQb6/SPEk+FXhPxcWfS7Z2JTX+vq8kE4yNsIfbkPFFTYbhMrJGDw6nYgIyo08AhT8HBVpKdQGd/dGNmIzSja9tGNmvn6O5uh5oMfxXlUJVAV8tqAr6P7zKWwvJBL0t95S64KzoQ2uUJ1Z3uwmUtIx3BpJ1QsttTgnY4ugeeUrgEg34b4G+KyZjrm2nKPnix4n/GLGxyqAOcF/YpICyMtfD7cg3LYMmbKPAq/3GZRQ0ZkFdjfieRdCXRtgX3QVG7IJej2ZZfPNyIGSOe+kVI1ymvn+3OQyRy9mepzwz9G5kYYZNaugBjSC5QiifulFyHpaMFXwmncXOFxeTKbLRAWLUL/mVYzTgrKjBraKlh9RYWgb73lXp5aoG+HnHy3h0BTrHM3RY+kZHeYxRyIJmDbeWPrToRdtVuLIHr0fR7feCHdxhNA/C29tF9o2vB5oXIeSq9MoCY0LmPfsq+XPg+yfrQN1+Kq1LrJ6V2MTwnHnQk+vYOepGnP0a6aXrPDPrtRzw5hWDrL/IjPhWM4RS1EJTPYgNXkMPg9VQ3M35a6ZEbSrL8SYWg3xzC2+cjWbkKr5zkpGXw3Up9y7bNNIje7FyFg/5i9cAod/Hp9rtGZvn5SUdjX9py7j04s9Ry8kekkLf7Vivy7GNPlpdaFNFjfDkEelokNN6OPb9I49DfBVS/PMSqU8Zgu/PoQ/hPGVdrnMXColqph+9Dx4HY4f24FLrngFAvMuR8G+AHZnCDoTYObRs1C15c4sn6nbzOep7/xSfW9CdfDyzKfm6IVMFhe8hEmsWR30+nWQVjTmSw5ki3q9Vj2KtgiveSkQLobZFl8lsnzzs4WnJsbSakxCeweD056Hg6jD5UzC6Zymoz+GMCbR5IjCn+ljT4/C5YpSRzDoTcJPmMsTi7Ce0PhBkdnqjUdlm84WzDLohEadOXxuJZ+jFwa9xC2/TsKR76s310r4zsbS55eqimZ2oypPS+zPvCMLXtL+B94x+/bLQg3WeIDgvFkrxXizy3xmCjrSO4NiZgLZ+ABKqVEUsxnYCmk4kseRHt6JQnIYdfX1cLWvR75hPUL8LNobqZDCcNkDM+k8nqp56FPlUl4oS8nwUwFJIBfjZSIcjSr6mujR1PMBLwtcXbw0Ry9kegkLvzUaXyGTlssUCFvQBNFsYTrfdNr6WaIu0udpm69fs5tcB3XPHCiiwO6w61XnZRcf0JFd1rNVUvr6p2XTGr4rpgax84EbkJ/YD19hmHKpV50V4avE4Lcn4KV1zhWKmCASibnbEem+FMsveSucvk4+rSPLTu3IOIOsUlpl0uChAzpsNApQwZTjg0hM9iE2cYKKJ4FyyYY6KpX6Za8A/B2oOMLmKbMEYo5esPQSEf7ZVZgRMVp8my2HvoN3wK2XYy+7lJarBRVZuydg+NkkeCvrq3hPj4ctsamK7ONLJtLVAkrpSUxP9aGQHoPbWYHb5YbP74fNT6H0ao9/mMpA5x34GN8aqauKvhYO6R18xeQgHrrt+3AmjqPOQUtcoRvgtCHkmIa7MApkp+D3eVCOtGPK1oC8uxkL1l6FiqcbNt98WmspgMdaaqt8qGR5LwdkppCd7MXYwD6kxnpQnB5GgdecdGx02lGh6ELJvwjrX/U+2FpXm2XOesOSFNccvXDpJSD8Kv7sKmhFHe0O/eFybhLbb/scSrEd2HzV22Fv2YxiqQ4OTyPv027qsRkG1VedM1BdxpzTK8LIvU7Gm215ny1Zc+50Q2hFH73rJ4ieeAQRxwTclRx8bjc8Pq0R8KIQqEfnmsvgrV9BuW/jE4Lo1ak6IYWZgmuGISuLPGxZZgqdOXW43IepB69DYmgP5i2dB6y5knVtQmF0HMP9gxjLNWLjaz9ES93J9vLz3ulpAJ1wbLcTzufHkOjbgbHj2xAd7qVLEYeOUPD7PXBpG7fLB683glBNJ7zt64DmVYCrHiUbFRiVwvlstzk6//QSFX5eoeW3I4GhR7+D4b0/hT/SiKUbr4G9eY0RJrjqGNeyeNUUFGzlPBm/QPc2QXkguDZLcTVF91gzZmJbX8+R9IRBFPzmKE6i99FfInb0NrS4KLiFDKYTGXjcNrgoYePZLGx17Vh16Xv+//a+LEiO68ru5FJr19rVa/UONHYQIEgQBEhwE5chJVMSJUozWmyNZxQzYYe/POEvOyzb4fCHl3CEw+EPz2gJLTOUFJoZUUOJEheBIEgCBECCAgg0utFAN3pHb9W1V2VWps99WQU0uJgR8wW06iIeMisz38uXr9+599y3wkjdC4d+OpgXeaM3ZbkuXoJMnEpALLX6c4pCOIdrr/wf5GdOYlMfWUTbMM7PWSjnSNMrFtJ3PIX0vV/ms20sjyRTbDALvkZYk7WIyXNHMHX2ZUSwgqBpIpHsQmt7Gn4GFiiVDJWGSaXkTzANBunKNGSHRENlo2n5b20x/gOlfn6bigcHT7xzoesy+EZ8zmg0gNLSNbVP39rCBOIEltHRweekC45WVh6mqCYtAsmnl0mlp/Dmb3+KgLuCiOwf4NbX1L/+nnXg+5A0nrlZBFQqFm8LK9F1B8nOJNoDZbik/a1dQwi0DsJ2DdhWBWFfFbX8IkEUQqRvD+OEmVcZFixJ8H9JUNlWL8hP1YMnCzOI1S5MoXjlNAJ2Fk45h9X5eboZVCh6EAM7D6J954N0Lbo9Ky0DgBjZy6OkzfxZeZx/5w0EfC627dqD9M5DiGw6BKNnPxDbDojLEOol8FmWeoyBSpJpC4NolEC9aJtyi8oGAH9DPFioCsz/ZEdcAZsRiKK1cxMtaw1rK4uYmJgkxdYQjCZRNkK0qIaq8KIE5J+BLKZGjmH6/VcR11aQ7OgiSFqZmsnK3KDd8hYJ8j/tMNOTNLzAa3VsSj6un9eDiMolqbVGoC5dfg9TY+fQseUAQvueRKxvCKFyHuWlywi7OQQiHQilSaf9kgcZL8BcqlevQxZPNb2KcmaKim4EpcmTWDzzMrA6hYjBkrDKagfiZEsLunbvR3DbAaaXUoOOpN9fkw1WZDlzpq2SlvYEn46+wX6kh7bC3zNMwNN18FFZIEEFFUXZoWtCZeSyDFnIjOJjXE/hijSBf+vLBnDLGtDyxNsF16LbKw1+Nfr4tEaRbUgf+DJ2P/JP0b/tIKavzqCYW0TIVyY1LTEQIOSpasExxrezq2gzyohWScfL80y1wLfIwJ2bRdYMlJWDpYVegO4Fr3uxppYYs9VRlhaXjTckpyrwNWqgDX9kM3nG8SPv0no6ZBnBLgIpLDCiU8J81ar8npqK5Kmnm8VVms7Gwug7eOflH+DCaz/A5eM/QWX2LFroBmiWjVAwilCqnXhn+quLWHjjVbz1/E9x5fw7TIEujqSxPmUi2NZa4IS64UibgJNkPmRZdSpAw4buKzLNMv3/IgJamTmVvn7rOvCbcnvIBgC/JwpU4udreRj5S1idOAqzNE4lsIaqU4Jr+uDrG0b/Aw9i/0MHEAuTGi+eRHXqCHzZdxC0ZgiiLFORxTdtBGtFmIVrdJ9XmLBUbunbvllkP12fUaSrcA1+bY5gnSermGGYZpjyAmYQ0Jd4XKEvXVDpNDbmIL9HjeB0ZA0ASU0aG1eWsDQ/TbfAD4t0OpyU+QBR1fUnKk6iKZzWgyMm1tBRKWVg5Rf4zgJScR/SnXGl1ITMm7TMdtHB/OQSRi5OYXpmke5QAu1tpOx0dSzHW2dRpU2RpEXVVMk0pNtOM4LUPwXqiavQ7UswrYvQs6ehrZ5Gbv4UUJrne6S9QdZXbsrtIrd9g18j89LuZdLiV+ZOYvTEz7C2OouDhx+Amd7KGwk+aKGanYO9Nk88zyA7P4VKPgO7WkQwkkTP/mcR6D/MWm9h+o3nURx/AUlzAe0HngW2f5Hxu4l2pqPEg4pDvzgzfRLW8vsIMp5su12zKwwy8q3OCHwBusMpJAb2wGwdRsVNEtgt8DkEU24CF176HoqLI9h88DEktt2NZdL18qU3qMRoUaMpdB7+BpA4ANto5xu9BkrR2IJ5Mdgy2k4nTP2ubDs2DlR5tKmwRt9GZuxdhPUayhULuVoAFX87oumdaCf7Qe8dimXUnBitvLgT9XTVG7xyla/0o4L5C8dw9Xe/Rlc4RyaRo86yUKpZWKu6KJudOPjY1xDq2MHn43Q/vMFUTbn1ZUOAX4AvvrWPNHvktW8jf+nXaI/YiMXDsH0R5J0AylUqhqK0dGehl1bRSh85KrbNX8NysQrfzi+h4/4/Y4noWHr7Rayc+xkS2gxS+56BsffrfAt9fz2u3umorjAT+dUZHH3+fyFUOo9WP213tULr7tAQ6/CZ9JuJpppTRYkoclPbcMcf/DGp9FYykSSCZAyg0hh5+fuw1sax9Z5DCJCZXHjl78lEaEnj3dh06J8A3ffCMnoJrACVmzeCXhiOLKWmhvc6eeYoR9AvML1xVBcnMTd5Ac7SKL8xB92h80Fw+zt3omWQvn7vPiDAbxGr7hPQ11mIIe0Z0uIvs/8MlqR32azlMHXuGMZP/h2S7hyCLDPROuFEGPHuNGJMT+u+m2n2kYW0Mr0bDX5NubXltm/wkwoqwBcrKANO3PIiMnOXoFVzsLKLtKrzsDJL0PKrMEpZhOwikj6H/jD9VVJ7Hy1jlZU9kN6PYPedLBFW/OUprE2fYUWnokhsgr+foJF+dtlJl+9RlVuUDbESD2to8cuKPQYisThC0Vbo/iipMq00FUFELyPpt7CaWYMRjCPSthmWS8tvEETZK1gaPwmftYzOvm4szM9iauIKUm196L3zcejpuwl8MgWDzxOkuiYjFckINAEgQV9cJNjPIjf5BtZGjmH5wnEsXjpDd2cZKX8VOqm6GU4guvMQ/DvIatJ7acr7WV4ddIPCVGB0ZYpzJAtnvYVIZet0Wm6WJHmLbIMmZesinoyjb2AQ7V0D6Bzai7Yt+xHfvBPLC8uoBVMIkU1AxgrUhws3wX97yG1v+YWaNj5ArK6mrcC5ehoLl05ALy7ApB/qNZO5NOo1JFs0FOYvobR0FbGQDwWSXTvRj/bD3yS9pgVj3S+PvYGJY99GpDqJ0NYnkXrgX9F6dtE4Jpk+02q8UM3ek0k0S0CBQbrZpEfAIqhsub6CwrEfU5mMIWOkoPU/iP5H/hxlN42gmQGmj2L8yHNwc1PYtO8gLjOKq0Wx5a6HQH5OS0qA+qlwyqvE+TTKK/MolYqIxhKItadx+uhryNJlCOsrMOhqtJg6WgMuIgYVBC12qVxA6/aDWCtHMFMOYtv9n6G22kUi34awWUF2+l1MnPoFKovj0KJ92H74WUS6dqBGP192bfaZLDMqEBkpqUpaBgLJjiikNNbom/j1L3+IrfsfxtYHvohaLcrvj/FZHlThNOVWlw3R1SfQVv6qcoR5jLYh2r8DkYE7EO6/E6H+PQw7ERrczvs2lq4QMLRyNilD1p9C+sCTpK3dqFZI1UM63OwMctPvIOyuwWnpRKR/L2wZwELLprra1FuVOqH2lNoum4G2en3e/k7UqCT0lgiwNIWZkbcR99vI2z60Du4jw2BabgSmTqSvnsfa1fcJ3DKiXVvQtvdRpHqogMKD/MsEoZVWsHrlOCbPvIBrI0dQnDmDyrUxrFy9QEZhI0rlFfbr6OroQqJtAO09w0gOpFGlYssXcmhJdMJHK708X8D8whzZSRmJdI/aQEXLX8EoFZO+OoKuGJCv6oh0bkW4o59uieyKXEWtMIPxd1+Cm7mCQDBEpUBG4zBftolr48zL6iQ6+oepp7ax2Hldhgk3Coey7rQpt6Dc9kpaKtj1SqYscpA+eZynaQKaYI/cQca+DYj1EzgrOPvWW3Brsl1YGMtuHP17HyTYUjh1/BguvP0SLfgyfC0tqBHU0nXlkD2gMA6/Ka31MnZeNjZRb2Nlp6Ig8GuIw9JTqOqtKDBNxxdHfn4Op986Qv+8ijLB5ARjiPZtoeWk9VRDackO6HY4KDGNGnIVsgiDCkNGztXKqEyewaUjP8TMiZ8glHkPHZhDm7aK3kABnTwWpt9H65YBDD7wJNru+RzaDnwe4Xueou9voFCqoKolEKYrg/Rd6By+F4FAC7IT7yNz7jcIuBex+Lu/hZk5h7Z4EN27D+Lux76Att5hlptBJSEuRhVjZ45h8cJrWHj3eSxcPEpXpcB8kwUI47FyiGhFaJU1lkmFbpetlMptTSN/z2TjMTTxjU0/XCOAqutHxSFtNnzIXj6HC28+jwRWESKNXS5a6L7jfmDTNkxdeA+la+NYnT6H0twU9UeCaQiFNeHmFzB65G+Qu/gqWf0ssb9I5UL/WJbLYU2XATeKcPAo/fctBHJ25ixGjv0MCUsG2ZRQpvPcu30P0N5LBhFQK/yqhwmYCtOyzDIM0nX4HVjzv8Ol17+LsWPfRSR/Dh10D9zsEpxSlRijsinZCNQssgUBoNCcJFnHAPNMiz63iksXLsKp1mC29PDbqNj0fpiD+5Gida7ly1gbeQv5oz+AffVNhJws2vt3A0OPAR13AaFO0n0fP00+RoePH5XUy+jQl1G6epLM4x26E3Ms5GW41UUYlRU1OpG8AaZWZtyqcsNEN97ezuTvh2wc8K+vbAJGBmnIDpglrE2+jbG3fkowXkGM/rFLP3brnjsQHNoMzE6iPDOK/vYYdu7ei1BU5qW3Kt8bVB5BmblG6z/29j9gbfQ1KoAFYnaFCkUAfOOl0j4eoP9fnT+Fq2/+CG2VMXQay1Q0JXR0dcLfSoteXIVJoPiVBZVNxyUJi/nJkuLPwR55ncD/IbTZo+gyF2hVl1G2NHoUW9Fzz9Po2vUQinQf5K2qlV66/ui2FGpkDATqtcnzyhKbpCwddHPQymCSAQW7MLT7EBKpThjFJVQnTiJUnEO8JQCzXZYZ66MeaSVwZbRfmAqNzMR20d7aDrtUgN/OwsxNYvn8q3zPPAoz53Bt5iLigRrdhsuw3n8JeuEiQvo8fGRHGstCr6/w05RbVzYG+D8AfDFcsgCFjNPPXXkdE8e/jzb3ChLGKhwri9TwJtQqRYwf/TVm3z2GmJvHwPZd6Lj7U7TOVAh6BIYMXa1pNNA+bBrcgo5oGGdf/yWWx07BoEIhkvleb9SfjLIz+S5r6SzG3vhrJPLnkcISdL7LIAgK+Tzm3zuBqbdewNrECfhrs4yVV4DV6YIk6LfnrpzB0nu/QQ/jpfQCioyjxfvQufcz6Hnkz4BdT8ImiEsm1ZHhwhLwy1h6uictAeZz7gKKkyfUVN5oPAxjaBMBbMChe1MWVyPRikRPD8vGQSws8VxeoqKTuQsyC1DXCXrpShTFwud9IfiDdH+kAZPMqcWwUJ49D8xdRJDnOizVUxIszGLl9C8wfeS7KE+8As0hM3DySqnd/Idpyq0mGwP8UmPrIsCvVsW6rmJp5EWMHv022u2LSLgLZNUl+ExS+UIZl69MopDLo5jL0MXOo7RC3178eVmVhgAzzADB4OPPEBXCVvQe/jQ2D9+B0ydPY2bsAoFFP5cAsKw8rX4GpYljuPjqdxDPnkMXFuAUllCg1V6uBDFf8CGzWkD26ghG6Q5M0I9nBKaRgUGqHCRIYlQmCYfKSfLiRtC181PoeOgbCOz+AtwEfXcnhfl8CTVT9kwsIphK0cdoky9Wk3gun3oeseoVRMwccjKRZ3yMt5hH5tPQmNO1ZUxcGuUfvAanUkLYNLAyP03mM8ryW6WlztElafjtPsb1lvCAGWKZ+shqLMScFcycfYO6oIrNmwd5hcSDuiFokQkt/A7jr/0Ai+++AFTIWsiuZDxCU25due3BL7ZFgvRASWW06Q+HTBsrI0cxefyvFX1ucdag0UeWMfPSHz03s4Jk2yD2PPw02vp3oagFMT17BdYKgaAa9ZgSLau0XtdkTHuZITqM7vu/iB13PQabFhWmHwW7DJ+Rx8rYUVw8QqpfuozW2hIMq4AarXIGSfTtfxpD93wBnUP7EaA1bSXIyuNHaUHfUQNzXIf+PgHmD4RQJQuwI73oPvQV+O/6EhDZjTK6UXDoMpDJlIr0sxnfMCpeb4JfZtJVMXvhNViZUYSZF9cto1AtI5MRX7xAo16g757D4uXz8JUyiBKsGr9PBkTJOIfLp36D/PmXmO4S38W8MZYMNRafXxomXUeqiE53x0KLaaG0PAlrfhwtsTByLPRVsopY9wBaqAWSNt8z8jaq16h4mC9SJ8Ztyq0qG8LyewqAVdYt0UItEvi/wcyJv0Fam4LPXsNKRUNs2/1wo1uQqYQRiHSqgSro2YfE/mcQHngAs6s2FmYmWfMrDFVaQqH8MuZduq9k8AotrZ5G3x0PYWDrXmqZIil2BqsjL2H2xHNI6wu03jnVCq4HfQh2b0b73ieAHU/Bt+tzSN7/ZfRs2UcglhG3CUz6zEQ8inobZiqdmKx0AX2H0PapPwE2PwHHN4CSE6XV1RH2CZ1ZQzUn8wcqdDFcGAHmKxQkm/gdlkdfRUTaEfwhtLSmVaOdResuS27Bn4e1OorFidNIhWz4fAbKdGvMjmFYelQ1UE6degHZMaahzRLkq2Q7BK3MhWCpmm6VfjwVFFWrWPIo/fxVvlPS9vt05G0qyb5dSO56CJZJRVXxoVAQt6gpt7psCPCL/2qQZhr2AhZO/wxTb34HXdpVxOg7r1kGOu96Grjr88j6B7FsR9DS3gd0DZPWis+7D+nDf4yOTQ9jZOQa7DytvkywYZo6LV+NSiBTon+v+wmaKIo1gQRpRuka5k78DAsnfozu2hR/L5Oum7DCUVyrVKHxHYm9D8PRu2HZsmBGO4IdQ2qYcdBwkMsSIN17sO+xbyK+4/Pouu+biN3/p0ByL330KDS6HaGgQ3AKJV8G1q5CK+YQMEzYVg3hCFlMZgZXTr+ENncJ1XIF4U0H6KLsoBKMqO3C4OapNOZx/sQLqBWuMt95uiE1ZH3dwK4nkNzxGPIEa1K3MHv6V8hffAUtMkegJt13RRSWZ+GrZeF3s6r7r0KlIs5ANTOFudHTiDOebM9OLwPY/WkMPPzn6N73DJKb7uYFb25/U25due3BL8PbdVpqWXlm/tTfYfnc8xgILSqqK3vkDR6gZd/9DCtzH/Jaij6zTGSRIaxBWP52VLVOIDCEHXyub/gB6GaSCQo3ZjWXuf66Lg3fXkXm76BRIwjnMH3ib1EYeRGDLXn4nQLKdClSd9LSt2/BmmMgK915NZnK61KPSLeeRWZxmZZX3BMXNb8sgEGl0LUbXfv+gF7FvcwH2YWpIejLwV0jM1g4g7XR32L+rR+jOnOe7gupNHWTYcigIhuz776IQH4SIa2KQGs/IHsB0vrKPACnSkTqBPHUu8DyRcR8JVSYBxnX0HnXF0DKA33300hsfYAKjYrGLpAt/Rylsd+ixUcFkBvByuI5hAIlfkYJvlg34oMHkKvyWeZRXAY/4/jojpQrrEYOvyV9H3r3fYbfQRajJgs1wX8ry20LfkX1VVcbgUUqPXPqJSy8/zK6wlVS3iJyWgzpQ1+Eb8vjpKMDREwrZJVZWVpKBvlIK7nmaLSishgmK6k/hW305/WozN6jxSfoq7oGS56TYiIVlpVwnZVLGHv9OZSnTqArVEI+v4aivxX9934O2EZLSvBZboDKSNhClhidgV8nmObeRX7iFCIBW81+D8QJFp9YR/kasgAyiersWaycfQGTx76Di699D+++9H1cPP5LVJYmkJu/QhObpYW30dZB5nL1IsoTJxD3V7FKnZDYRDemdTvdiBhcU4crw4urc8iNvY0kFaHp2GhpY7wdD8EcfhSI7VaLeKbufhr+oUMo2AHE3AomTr6AyqWXGPcCVnMX4NDPz9t+WC1D8O1+Em5kCMWqCUP30RWoKdfAleHMLMMqmUG55qeypPJR6w2qj2vKLSq3P+2X+kVgZlaXaWl0+vQmyuEh9B38Q2D7p2GbQwSDWCJSaf4zNdJ5adWn/2qy4kpXnEawu74wnEArlQStKovFJfilEVEt86WURZUseh4jx/8BtWvnENEryJVY8ZNb0HmAlnT744pBFAM9cP1JOMUslt78Oa789i9RePdHmH/je2ivTZM1LCKeiCDUTRYyfR6Zsy9j6sgPcOHFv8L5I89h9I2/x+LocZRXZtHT0YUDDz+KgQcfYZ5p3bUSXQAHFWa/cG0aCbOAas1B+/b70LKDVt9JoWokYVGpxYI23MlTsBcvIOWTxjcD/tZhKrl+ArObCqhNTRqyA33offDrSNKqOwghrhUw+vqPyBbew9BgDEsWy6jvIHw7ngSpDbp3fgpZJwGbzMlvmmRdLEelhPkcaY1uGqo81SCLptzSctv+hQTzaiy/cIBAGDvveQytww/Sj/0M+h79F6ADyltdrPOtahQeUc0gFtyBY0mDlE36zKu0kkSUSlB225H+bvkhDX6SukwWIvHnWQWLU2NYmb2ilEfBiSI69DDaH/hnQP9hOLIDr5lCqmcHyvS5M8vLsJcuozZ3Eivnn0eoNI6YUUTU55INVJF7702MvvkLTL33AnJTx6BlLyFUy6OnvRM7dx7Evke/go5DVCr999AKB5AvFhH029BMh/opihyt7XwmB19qCJEth5k/ugxGggBM0EMJI6w7WJ08i6CzRv+/hGC0A5EB+uJ6K8skrLr2FWi1FjKfFLoPfg7+jp2wCHZRFpdOvoa2ZAL3PPYsUge/zOT3MB8xtGw+QEVxF3JkAw4VigDdEuUof4frKyKp4mzKLS7yd7q9RQArlbBD+uK/huSBr7KiHqBC2EwwdNCaEeGqbvKMWsDQq1QGef4WBaC0AqW+9l79XNKUZbZ0qc9kCC7BKneDLTF0Du1Getcj2Hz/VxHZ/xUgugeOf4AMo41010TrwC4MbD+IcDCOrqgf6bCNpJFFOKBhja9cKwexlNEwceUaseIiYPoRCLYg0Z5Gz/Bu9N39OMK7ngDRSCtNS62TtVik01YVfl8NFrPnG9qFjt0PIX335+jafIkUfhtsXwfzGILui6lZeTULUBxGN5FzffTX93kj/hBTn1hXhQx+VGp80t+HjvsI8viwWvrMx/iX3jkHLUZXIbkdjgwflslL4T6k73wKxfBWTFttWPN3I6QWTAkqJWuIQmFwZbxEU25p2Rir9xKoriMLbIYJ0RAtuGwaEaRl4nU+IYtq6PSBM5dPk46PIxyqIDh0FyvyZhIB2RSDtJ/PSb2V3W5k2a6cTAkuzDANE8FEL0IDexBIDqFteC/8vTJ0lhXe38kIsvtuiHkwmI64FBW18m1paRLVlavKZShWdORqMYTTdxJ7m+BLDqO19w50DOxFx45DaN12CJEd98I/uIvgGyKQOmC5pO9mAkJMMjMXUZw5jXBtib53B2J3PA6t7x4EBw4BLZv4fBv1n2z9zSxRuS3PXqJfsIigbmG1TLqf3oP4/s8CwU1qaTDZEUhIkxoiLEqO1lusuB6KI5GIY/7qJCJ+WfqLDIXWPtq/H44s9qkH+D1kRJFWtPdvgRZsQ2rrvQht3U+NlGJSLHdRxPKvuW73LS+i/DeAaKz8Ptg6qSiDS2sna9DdLA5Kdg1VKoWsbbIS0/apmXvec/L/jRge5feCNPfxeRnt54YIylbUnC4eaem1CN8XIIhY4UVx8Nly3sbR46OYXDawpvViSRuEnj6M3oNfR+S+byD50J8i9eA/R+zg1+DbTUAOPMKkt+LSezNYunAJ9gIVRvkafHqGimiFVn8R2YVxmE6F79Xgj5AJBNPMTxeZRg8qpOzSX+8yD6p/PtqGoTsfRTG0BUsYpn57Au1C2wODaqaftzuP9EAwqC+Ub+S5EULFISvo3o/0vmcwW2xlebXCH+xgGYWlWcV73hQ3IU4lth3Ju59FaPhhuCaVoCx2ooCvEmzKbSAbYNMOT5Tl9k6v1z2ZaSfDfUXDmc4Spt7+OS6ffRkDva0YvP+PWIHvpDcfonX1lu92yFRNWn0Z5Tfzq/8JY+EEARFCYtMDiB/+Mql9t7Lysk2Wmstff9H1uk4XQasVUViYgFuYouXNwfTRWiZlck2S2iHChwR8ongYhBnTtK8tTOK9I8/BzI0iFtUQjkcQ7hhCvHMTQrw/+ebLCGRHoFeoFIYfRfKRf8mXdlHxJLwhuJIbfqf3FbJ5RwFYvEzFkSGTaOO7pSEziZqsr88nhOdI/hvgl4xIy4ZcVWsL1jLIjJ4iS1omK7kXbks/HC2oXAjZJsyrMeLfywrJLF+yB8Ui5HvkKOleL5Sm3KqyYcD/QZGKLB8ma+pLPVQbTVrXUJm/jIAMkIkPsNamlGsgDYcuqfAN8K/WwX9c+cOJzQL+P6TP28M49KuZoPTdN8B/s8hbJcjqN3ScFTgJSxktKKykQbb4iIrO4pfpsFi7iIXTz2N+4jh/Z6H5hL2YiPIlQauMgFtUW4jF9nwBoXv/mPFk3f0Ik5FUmBjTkXx559LIQfdFBkFQ+9Vkh2K+W9RgA/KNXHoiZ3LH+1/G/3v5lyDxggzyDVQRMgaCIjiX5xXUGwnJ+1jekop6SVNuaanXxI0q6+yb0F36xoEe+vqxHfxNS+x4dN2ryjeLikdAye46rrQD8BmZvad0JY9eT4NIo+Y3jgZspms7YYYYARNmnKBqg6B3rQpcqQNGF7Dq/E9NpIn2ovPws9h+8BmEYoMwqTeSTh6x6jUktTVCsArdH0GovVelIEpNsiJBIK1yI9gjo5AhyTW+03EYdFmrj+yj/qf22JDLYwO+IgrC9VSopNSEpgCDUPwQrwngvWe8l3q/6lduiMwHuPlKU25hMb71rW9tkB17bhbP8nvglworfrk03jlugGAIo2YbPEplbTxJ2svnVIMfysheOgHkpmk/TYTaBhDs3cG6LaPyaEXFuqk63gDPjZ+yUr4jgFbKQVyD69BU4l1lMqJ1FADVL0ZluvSnzdY0ku39zIeBtVVZ1I+KhGBcLAcQHbwHwc338a/W7oFaFhthMirN68rAO4pmUV2XCqKeyOVPInqNvEobgqOsfCP/VBgyBbmh9JSFlyPjqGJspHvjupRqU25d2bC035ObK+T6D61X0brItCABDcEvE3uQxcyL/xvO3AnYWgDxTQfQet+zqBk9UNtbeZE+VtbzCHn2k56/ni9xJWQIrywUIpOEVibgLk2iVsnCTLQDsvCG2huPPjzEmn98yh//retFnvrou3KncfeT8t+U21O0mZmZ9fVkQ4lYrBvW5wNVWH4qvedd9yy1Q/BbaHELWHz/VyjJhhz01ds334X2HQ9iBW2QFXU9K9vwsT8saix/Xby3q5fdlAXhJDeL5JXetnRPihJyLQR0BsNbNKNkuygzL4YRoo6QJjsvTWEv4ot/tKx/x4ffeD1f62T9r5vLrykbTbQzZ85syL/uDardqL4frvpeVfeueyxWQCeDXKswi1eRm3+fYDORSm9GwUihQIvrSOOZgF+eFkst0T4gAt4PFuqHfquI8t+6PPAoCkB+60xDBhjJGAXln8twYz4qtFv689Xz65SMyI12iKY05ZNFy+fzH6yXG0PW44Bf2PgpH/tRnk7DhZUpqiZBJyv6a7q0/EsHN4Gnt1AlhFGjLyypSQrizzfieaKuEqxe+o2j9//HSyM/At6GFVftCrys+u/lSKBLO4Gf2sBPyuHloClN+cfLBvf5P1o+Evz1IH34RCB/EPTSdSU75Hp3+L9PgbFhbxtxGk807H0DwA2iLVflTLkJ9UYz786NZwwFaE/Us/WjpCRBmt6kJUCGzYoCaDzblKb8Y0VjRfVq7AaXxkfeDJoGLD2A0fR6lxhk9Sqvg09gL0KKT6XRUBwyLdiqyph/AtUwYJo+Apg+OdNQ0JS0GiJRbKYmQSbBqP42URn1e5JOpeIdiyU+Z8GuVlAqlxR7qPF5y66iM90NDAwCwSBqdEc00Sb190g+GyxEDsptuP6rKU35sGxsyy9fVq/7cipBLKonN1+RMxmS05iPYjOeTOmVnzVLVqt1aPelQdCB6dQQMGmLCXgFaHlJuQq3WIRN8OaWllBdy8JeW0Ph2jXYqxno+TyczBpqhQLsQhG1cgVu1YLLtG0CXxRJhcesxCnyGaYr6xEqf5/KRWh/anAQn/1P/xHhp56iYtJg+Pl+gl/yLrmweebWbLXaj3Qeel9244ub0pT18ntB++UDBcR1XCvxKLpY8rohliDA5lE2q/ARM8qyqkDbb9EqV8s8UkVkMsD8PBbOv4/ySgYrC9cwOTGJZYK8SgVQWsvAyRdoxYtwCfoIgZogIMPULAFNh49JGjTTsuuu7KIrA368UYaSI9J/nquJMfKb544wi1AYZ+fn8Ph/+c/o+4t/TXJQhe7zq/sK3lQWwkzUPGUZiE/XQH0j3ZQbDkVTmnJDNiT4P+qDhGSLZbRpQW1S7uvPCHgIGD8hJGPZlMhOOBUCncDFzDQmJ68gv7yMy+/9DksXxxAmsPXMKioEY1gUhu2oRSz0gKz2WyP+SP9ZrEK93TrV16lQxB5Le4DQeDUyRg0yEpVUH2cg3XZ8Ro62QzDztiOKJxBChmkMHDiAR/79vwPu3IMamYcmy5AztqL4/A7kZEz/ItDWBrQE4aqZdfXJNk1pygdkw4Ff+cgCOoJBqHPDtEsrvp+g0mSie4B0Wb5a7pF+C9BLc/OYGhkFVlexMjqGlbFLqNHCT8/PIFsuKkagFcuI05JGSRN8jBPSmK5dU26B4zNh+QnIQMCzvlQAOsHZEo/BHwoRqD74g2EEWyIw6bNrfpmBKGCnUmB+2js6kUy1QYvFgIjs2RdUvj3CPA9SLZE5oLMDYHqSf5dpy7dW+Y0h3rv80it47r/+N1ylsvq3/+O/o+/JJyCbZ+mGTzUWNqUpH5QNB36h7hLEbHoNcPUbRYK+RKATzJgcp/+dwfiFEUyTrpdzeazOzWFldhY6/XGzVJYJqsq3LxHgAmqDFtimjx6PxtGaSilAtyQSSLS3IZRMIJLuRrCjHQECGPE4fQdCThSBgDUc5jmBLDP8ZAVPUQ6SLxXqDEAaANW8WdEyvCFBfovlV0FoAL+LSgVUHJ7ukoZAz8f/y7/4Nxh/+RUcfPhBfPabfwJ9505UqSCkZ6EJ/qZ8lGwI8CsgqBOvG01xfPrd1pUruDp+GcvzC1iZnMbyJYJ+dhq1hRmUcmuoVqvwEzg12SGX4IuGWzywiBsQonUmUFsH+tC3ayd8BHssnkRiaBDo6SGgqR5aUx64+Syk8U0Ar4BLgNbzIyv4Su6k3U62BJc59w3/3iP89MgJbpfXBd+KvlPUMzzKp6g18VQ/oUzHvWmajbL+4lJgecVri6ACQsgb+lsT5UOROE1pygfltge/ZF6CtNRLt7y/WMJb//ev8PZPfgL/8iJq2RwsWvxcTvbN0xGhbx4nWJ2ACV88qja/SPf2oSvdDzPUglhnJzp2bgc2EeSxKBAl7U4mvZZ9AaZY30aRCXrFOvOa6hrkfaHyAn4Bt4iAWBSKxFCDguSo7tyQj7rWkPqb1H0JAvoG8D8k8rB0GfIbxU24ngfv0JSm3CQbxPK7KNH6BYTmzy/iW3/0VSy/fQI76T8n/QHiN4a+LZuR6OmGQ1Ck0mnEdu0A2gnqCC24bH0VpgX3k56L9RZTWUeYReDaquVcRu7VwaissDDwG41pHwcwud4I6+Xjnv+gNJ77WMDXxaICEo4hrk5DQUhoSlM+TjYA+CX7rppKK0rArLkonj2HZfrzvZEotEDI87l700CCAJdGNKHlYsFll0m1Vz7TEGQruDAVglvW7XcMUnJa0UYBCfjE2IvI+XowfhQwP+n+J8kH4/z/0pB8rc9nIzSlKR8nGwP88gmKWhOsjUay9SKOs22ToduoEBFVgl/6zsXJFkoujYJ1Y64mzci5/GyEj7Og9ShNacptKRuC9ns+eB2x4n/bsr6c3KgrBKJZpr7KnByhxqIL1n90A8QCcjlv/F5/vl4+6lpTmnK7ycYAv0jjK4hMORWACxVuAFhCw4I3rq8X75n1MZrSlI0tGwf860Q+qBEa8lGQlt+NZ7x7N/9qSlM2smxI8DelKU35ZPm4tqymNKUpG1ya4G9KU35PpQn+pjTl91KA/we27jsybAjuygAAAABJRU5ErkJggg==;" vertex="1" parent="1">
          <mxGeometry x="522.53" y="40" width="166.58" height="130" as="geometry" />
        </mxCell>
      </root>
    </mxGraphModel>
  </diagram>
</mxfile>
